%TF.GenerationSoftware,KiCad,Pcbnew,8.0.3*%
%TF.CreationDate,2025-02-24T14:24:07+05:30*%
%TF.ProjectId,messenger_Project,6d657373-656e-4676-9572-5f50726f6a65,rev?*%
%TF.SameCoordinates,Original*%
%TF.FileFunction,Legend,Top*%
%TF.FilePolarity,Positive*%
%FSLAX46Y46*%
G04 Gerber Fmt 4.6, Leading zero omitted, Abs format (unit mm)*
G04 Created by KiCad (PCBNEW 8.0.3) date 2025-02-24 14:24:07*
%MOMM*%
%LPD*%
G01*
G04 APERTURE LIST*
%ADD10C,0.100000*%
%ADD11C,0.200000*%
%ADD12C,0.300000*%
%ADD13C,0.150000*%
%ADD14C,0.120000*%
G04 APERTURE END LIST*
D10*
X140208000Y-125907800D02*
X140208000Y-124917200D01*
X143530000Y-125907800D02*
X153619200Y-125907800D01*
X143530000Y-122456400D02*
X143530000Y-125907800D01*
X173578200Y-122380200D02*
X173578200Y-125196600D01*
X114655600Y-122377200D02*
X114655600Y-125857000D01*
X105410000Y-124815600D02*
X105410000Y-125907800D01*
X112725200Y-126415800D02*
X117957600Y-126415800D01*
X112725200Y-124866400D02*
X112725200Y-126415800D01*
X125196600Y-122402600D02*
X125196600Y-125857000D01*
X135356600Y-122326400D02*
X135356600Y-125857000D01*
X140208000Y-124917200D02*
X140208000Y-122402600D01*
X105410000Y-124815600D02*
X105384600Y-124815600D01*
X120904000Y-122377200D02*
X120904000Y-125933200D01*
X105384600Y-122402600D02*
X105384600Y-124815600D01*
X173578200Y-125196600D02*
X183642000Y-125196600D01*
X105384600Y-124815600D02*
X105410000Y-124815600D01*
X110337600Y-122732800D02*
X110337600Y-125933200D01*
X110337600Y-122402600D02*
X110337600Y-122707400D01*
X98498000Y-71287000D02*
X95554800Y-71287000D01*
X117957600Y-126415800D02*
X117957600Y-124815600D01*
X183642000Y-125196600D02*
X183642000Y-122380200D01*
X130098800Y-122377200D02*
X130098800Y-125857000D01*
X105410000Y-125907800D02*
X140208000Y-125907800D01*
X188394800Y-70002400D02*
X191287400Y-70002400D01*
X153619200Y-125907800D02*
X153619200Y-122456400D01*
D11*
X149933600Y-102141545D02*
X149981219Y-101998688D01*
X149981219Y-101998688D02*
X149981219Y-101760593D01*
X149981219Y-101760593D02*
X149933600Y-101665355D01*
X149933600Y-101665355D02*
X149885980Y-101617736D01*
X149885980Y-101617736D02*
X149790742Y-101570117D01*
X149790742Y-101570117D02*
X149695504Y-101570117D01*
X149695504Y-101570117D02*
X149600266Y-101617736D01*
X149600266Y-101617736D02*
X149552647Y-101665355D01*
X149552647Y-101665355D02*
X149505028Y-101760593D01*
X149505028Y-101760593D02*
X149457409Y-101951069D01*
X149457409Y-101951069D02*
X149409790Y-102046307D01*
X149409790Y-102046307D02*
X149362171Y-102093926D01*
X149362171Y-102093926D02*
X149266933Y-102141545D01*
X149266933Y-102141545D02*
X149171695Y-102141545D01*
X149171695Y-102141545D02*
X149076457Y-102093926D01*
X149076457Y-102093926D02*
X149028838Y-102046307D01*
X149028838Y-102046307D02*
X148981219Y-101951069D01*
X148981219Y-101951069D02*
X148981219Y-101712974D01*
X148981219Y-101712974D02*
X149028838Y-101570117D01*
X149933600Y-101189164D02*
X149981219Y-101046307D01*
X149981219Y-101046307D02*
X149981219Y-100808212D01*
X149981219Y-100808212D02*
X149933600Y-100712974D01*
X149933600Y-100712974D02*
X149885980Y-100665355D01*
X149885980Y-100665355D02*
X149790742Y-100617736D01*
X149790742Y-100617736D02*
X149695504Y-100617736D01*
X149695504Y-100617736D02*
X149600266Y-100665355D01*
X149600266Y-100665355D02*
X149552647Y-100712974D01*
X149552647Y-100712974D02*
X149505028Y-100808212D01*
X149505028Y-100808212D02*
X149457409Y-100998688D01*
X149457409Y-100998688D02*
X149409790Y-101093926D01*
X149409790Y-101093926D02*
X149362171Y-101141545D01*
X149362171Y-101141545D02*
X149266933Y-101189164D01*
X149266933Y-101189164D02*
X149171695Y-101189164D01*
X149171695Y-101189164D02*
X149076457Y-101141545D01*
X149076457Y-101141545D02*
X149028838Y-101093926D01*
X149028838Y-101093926D02*
X148981219Y-100998688D01*
X148981219Y-100998688D02*
X148981219Y-100760593D01*
X148981219Y-100760593D02*
X149028838Y-100617736D01*
X180994666Y-63765326D02*
X180994666Y-63003422D01*
X181375619Y-63384374D02*
X180613714Y-63384374D01*
X180470857Y-62574850D02*
X180423238Y-62527231D01*
X180423238Y-62527231D02*
X180375619Y-62431993D01*
X180375619Y-62431993D02*
X180375619Y-62193898D01*
X180375619Y-62193898D02*
X180423238Y-62098660D01*
X180423238Y-62098660D02*
X180470857Y-62051041D01*
X180470857Y-62051041D02*
X180566095Y-62003422D01*
X180566095Y-62003422D02*
X180661333Y-62003422D01*
X180661333Y-62003422D02*
X180804190Y-62051041D01*
X180804190Y-62051041D02*
X181375619Y-62622469D01*
X181375619Y-62622469D02*
X181375619Y-62003422D01*
X180708952Y-61146279D02*
X181375619Y-61146279D01*
X180328000Y-61384374D02*
X181042285Y-61622469D01*
X181042285Y-61622469D02*
X181042285Y-61003422D01*
X180375619Y-60765326D02*
X181375619Y-60431993D01*
X181375619Y-60431993D02*
X180375619Y-60098660D01*
X181375619Y-59003421D02*
X180375619Y-59003421D01*
X180375619Y-59003421D02*
X180375619Y-58765326D01*
X180375619Y-58765326D02*
X180423238Y-58622469D01*
X180423238Y-58622469D02*
X180518476Y-58527231D01*
X180518476Y-58527231D02*
X180613714Y-58479612D01*
X180613714Y-58479612D02*
X180804190Y-58431993D01*
X180804190Y-58431993D02*
X180947047Y-58431993D01*
X180947047Y-58431993D02*
X181137523Y-58479612D01*
X181137523Y-58479612D02*
X181232761Y-58527231D01*
X181232761Y-58527231D02*
X181328000Y-58622469D01*
X181328000Y-58622469D02*
X181375619Y-58765326D01*
X181375619Y-58765326D02*
X181375619Y-59003421D01*
X181280380Y-57431993D02*
X181328000Y-57479612D01*
X181328000Y-57479612D02*
X181375619Y-57622469D01*
X181375619Y-57622469D02*
X181375619Y-57717707D01*
X181375619Y-57717707D02*
X181328000Y-57860564D01*
X181328000Y-57860564D02*
X181232761Y-57955802D01*
X181232761Y-57955802D02*
X181137523Y-58003421D01*
X181137523Y-58003421D02*
X180947047Y-58051040D01*
X180947047Y-58051040D02*
X180804190Y-58051040D01*
X180804190Y-58051040D02*
X180613714Y-58003421D01*
X180613714Y-58003421D02*
X180518476Y-57955802D01*
X180518476Y-57955802D02*
X180423238Y-57860564D01*
X180423238Y-57860564D02*
X180375619Y-57717707D01*
X180375619Y-57717707D02*
X180375619Y-57622469D01*
X180375619Y-57622469D02*
X180423238Y-57479612D01*
X180423238Y-57479612D02*
X180470857Y-57431993D01*
X130845619Y-60352183D02*
X130845619Y-59780755D01*
X131845619Y-60066469D02*
X130845619Y-60066469D01*
X130845619Y-59542659D02*
X131845619Y-58875993D01*
X130845619Y-58875993D02*
X131845619Y-59542659D01*
X131845619Y-58495040D02*
X130845619Y-58495040D01*
X130845619Y-58495040D02*
X130845619Y-58256945D01*
X130845619Y-58256945D02*
X130893238Y-58114088D01*
X130893238Y-58114088D02*
X130988476Y-58018850D01*
X130988476Y-58018850D02*
X131083714Y-57971231D01*
X131083714Y-57971231D02*
X131274190Y-57923612D01*
X131274190Y-57923612D02*
X131417047Y-57923612D01*
X131417047Y-57923612D02*
X131607523Y-57971231D01*
X131607523Y-57971231D02*
X131702761Y-58018850D01*
X131702761Y-58018850D02*
X131798000Y-58114088D01*
X131798000Y-58114088D02*
X131845619Y-58256945D01*
X131845619Y-58256945D02*
X131845619Y-58495040D01*
X96541590Y-68648006D02*
X96493971Y-68790863D01*
X96493971Y-68790863D02*
X96446352Y-68838482D01*
X96446352Y-68838482D02*
X96351114Y-68886101D01*
X96351114Y-68886101D02*
X96208257Y-68886101D01*
X96208257Y-68886101D02*
X96113019Y-68838482D01*
X96113019Y-68838482D02*
X96065400Y-68790863D01*
X96065400Y-68790863D02*
X96017780Y-68695625D01*
X96017780Y-68695625D02*
X96017780Y-68314673D01*
X96017780Y-68314673D02*
X97017780Y-68314673D01*
X97017780Y-68314673D02*
X97017780Y-68648006D01*
X97017780Y-68648006D02*
X96970161Y-68743244D01*
X96970161Y-68743244D02*
X96922542Y-68790863D01*
X96922542Y-68790863D02*
X96827304Y-68838482D01*
X96827304Y-68838482D02*
X96732066Y-68838482D01*
X96732066Y-68838482D02*
X96636828Y-68790863D01*
X96636828Y-68790863D02*
X96589209Y-68743244D01*
X96589209Y-68743244D02*
X96541590Y-68648006D01*
X96541590Y-68648006D02*
X96541590Y-68314673D01*
X147156273Y-124454219D02*
X147156273Y-123454219D01*
X147156273Y-123454219D02*
X147489606Y-124168504D01*
X147489606Y-124168504D02*
X147822939Y-123454219D01*
X147822939Y-123454219D02*
X147822939Y-124454219D01*
X148727701Y-123787552D02*
X148727701Y-124454219D01*
X148299130Y-123787552D02*
X148299130Y-124311361D01*
X148299130Y-124311361D02*
X148346749Y-124406600D01*
X148346749Y-124406600D02*
X148441987Y-124454219D01*
X148441987Y-124454219D02*
X148584844Y-124454219D01*
X148584844Y-124454219D02*
X148680082Y-124406600D01*
X148680082Y-124406600D02*
X148727701Y-124358980D01*
X149061035Y-123787552D02*
X149441987Y-123787552D01*
X149203892Y-123454219D02*
X149203892Y-124311361D01*
X149203892Y-124311361D02*
X149251511Y-124406600D01*
X149251511Y-124406600D02*
X149346749Y-124454219D01*
X149346749Y-124454219D02*
X149441987Y-124454219D01*
X150156273Y-124406600D02*
X150061035Y-124454219D01*
X150061035Y-124454219D02*
X149870559Y-124454219D01*
X149870559Y-124454219D02*
X149775321Y-124406600D01*
X149775321Y-124406600D02*
X149727702Y-124311361D01*
X149727702Y-124311361D02*
X149727702Y-123930409D01*
X149727702Y-123930409D02*
X149775321Y-123835171D01*
X149775321Y-123835171D02*
X149870559Y-123787552D01*
X149870559Y-123787552D02*
X150061035Y-123787552D01*
X150061035Y-123787552D02*
X150156273Y-123835171D01*
X150156273Y-123835171D02*
X150203892Y-123930409D01*
X150203892Y-123930409D02*
X150203892Y-124025647D01*
X150203892Y-124025647D02*
X149727702Y-124120885D01*
X189960866Y-68311926D02*
X189960866Y-67550022D01*
X189341819Y-67216688D02*
X190341819Y-66883355D01*
X190341819Y-66883355D02*
X189341819Y-66550022D01*
X189818009Y-66216688D02*
X189818009Y-65883355D01*
X190341819Y-65740498D02*
X190341819Y-66216688D01*
X190341819Y-66216688D02*
X189341819Y-66216688D01*
X189341819Y-66216688D02*
X189341819Y-65740498D01*
X144698066Y-102347926D02*
X144698066Y-101586022D01*
X145079019Y-101966974D02*
X144317114Y-101966974D01*
X144079019Y-100633641D02*
X144079019Y-101109831D01*
X144079019Y-101109831D02*
X144555209Y-101157450D01*
X144555209Y-101157450D02*
X144507590Y-101109831D01*
X144507590Y-101109831D02*
X144459971Y-101014593D01*
X144459971Y-101014593D02*
X144459971Y-100776498D01*
X144459971Y-100776498D02*
X144507590Y-100681260D01*
X144507590Y-100681260D02*
X144555209Y-100633641D01*
X144555209Y-100633641D02*
X144650447Y-100586022D01*
X144650447Y-100586022D02*
X144888542Y-100586022D01*
X144888542Y-100586022D02*
X144983780Y-100633641D01*
X144983780Y-100633641D02*
X145031400Y-100681260D01*
X145031400Y-100681260D02*
X145079019Y-100776498D01*
X145079019Y-100776498D02*
X145079019Y-101014593D01*
X145079019Y-101014593D02*
X145031400Y-101109831D01*
X145031400Y-101109831D02*
X144983780Y-101157450D01*
X144079019Y-100300307D02*
X145079019Y-99966974D01*
X145079019Y-99966974D02*
X144079019Y-99633641D01*
X105525673Y-123946266D02*
X106287578Y-123946266D01*
X105906625Y-124327219D02*
X105906625Y-123565314D01*
X106716149Y-123422457D02*
X106763768Y-123374838D01*
X106763768Y-123374838D02*
X106859006Y-123327219D01*
X106859006Y-123327219D02*
X107097101Y-123327219D01*
X107097101Y-123327219D02*
X107192339Y-123374838D01*
X107192339Y-123374838D02*
X107239958Y-123422457D01*
X107239958Y-123422457D02*
X107287577Y-123517695D01*
X107287577Y-123517695D02*
X107287577Y-123612933D01*
X107287577Y-123612933D02*
X107239958Y-123755790D01*
X107239958Y-123755790D02*
X106668530Y-124327219D01*
X106668530Y-124327219D02*
X107287577Y-124327219D01*
X108144720Y-123660552D02*
X108144720Y-124327219D01*
X107906625Y-123279600D02*
X107668530Y-123993885D01*
X107668530Y-123993885D02*
X108287577Y-123993885D01*
X108525673Y-123327219D02*
X108859006Y-124327219D01*
X108859006Y-124327219D02*
X109192339Y-123327219D01*
X136894673Y-123651009D02*
X137228006Y-123651009D01*
X137370863Y-124174819D02*
X136894673Y-124174819D01*
X136894673Y-124174819D02*
X136894673Y-123174819D01*
X136894673Y-123174819D02*
X137370863Y-123174819D01*
X137799435Y-124174819D02*
X137799435Y-123174819D01*
X137799435Y-123174819D02*
X138132768Y-123889104D01*
X138132768Y-123889104D02*
X138466101Y-123174819D01*
X138466101Y-123174819D02*
X138466101Y-124174819D01*
X139466101Y-123222438D02*
X139370863Y-123174819D01*
X139370863Y-123174819D02*
X139228006Y-123174819D01*
X139228006Y-123174819D02*
X139085149Y-123222438D01*
X139085149Y-123222438D02*
X138989911Y-123317676D01*
X138989911Y-123317676D02*
X138942292Y-123412914D01*
X138942292Y-123412914D02*
X138894673Y-123603390D01*
X138894673Y-123603390D02*
X138894673Y-123746247D01*
X138894673Y-123746247D02*
X138942292Y-123936723D01*
X138942292Y-123936723D02*
X138989911Y-124031961D01*
X138989911Y-124031961D02*
X139085149Y-124127200D01*
X139085149Y-124127200D02*
X139228006Y-124174819D01*
X139228006Y-124174819D02*
X139323244Y-124174819D01*
X139323244Y-124174819D02*
X139466101Y-124127200D01*
X139466101Y-124127200D02*
X139513720Y-124079580D01*
X139513720Y-124079580D02*
X139513720Y-123746247D01*
X139513720Y-123746247D02*
X139323244Y-123746247D01*
X126429873Y-124276419D02*
X126429873Y-123276419D01*
X126429873Y-123752609D02*
X127001301Y-123752609D01*
X127001301Y-124276419D02*
X127001301Y-123276419D01*
X127429873Y-123371657D02*
X127477492Y-123324038D01*
X127477492Y-123324038D02*
X127572730Y-123276419D01*
X127572730Y-123276419D02*
X127810825Y-123276419D01*
X127810825Y-123276419D02*
X127906063Y-123324038D01*
X127906063Y-123324038D02*
X127953682Y-123371657D01*
X127953682Y-123371657D02*
X128001301Y-123466895D01*
X128001301Y-123466895D02*
X128001301Y-123562133D01*
X128001301Y-123562133D02*
X127953682Y-123704990D01*
X127953682Y-123704990D02*
X127382254Y-124276419D01*
X127382254Y-124276419D02*
X128001301Y-124276419D01*
X128382254Y-124228800D02*
X128525111Y-124276419D01*
X128525111Y-124276419D02*
X128763206Y-124276419D01*
X128763206Y-124276419D02*
X128858444Y-124228800D01*
X128858444Y-124228800D02*
X128906063Y-124181180D01*
X128906063Y-124181180D02*
X128953682Y-124085942D01*
X128953682Y-124085942D02*
X128953682Y-123990704D01*
X128953682Y-123990704D02*
X128906063Y-123895466D01*
X128906063Y-123895466D02*
X128858444Y-123847847D01*
X128858444Y-123847847D02*
X128763206Y-123800228D01*
X128763206Y-123800228D02*
X128572730Y-123752609D01*
X128572730Y-123752609D02*
X128477492Y-123704990D01*
X128477492Y-123704990D02*
X128429873Y-123657371D01*
X128429873Y-123657371D02*
X128382254Y-123562133D01*
X128382254Y-123562133D02*
X128382254Y-123466895D01*
X128382254Y-123466895D02*
X128429873Y-123371657D01*
X128429873Y-123371657D02*
X128477492Y-123324038D01*
X128477492Y-123324038D02*
X128572730Y-123276419D01*
X128572730Y-123276419D02*
X128810825Y-123276419D01*
X128810825Y-123276419D02*
X128953682Y-123324038D01*
X120623466Y-59844526D02*
X120623466Y-59082622D01*
X121004419Y-59463574D02*
X120242514Y-59463574D01*
X120004419Y-58130241D02*
X120004419Y-58606431D01*
X120004419Y-58606431D02*
X120480609Y-58654050D01*
X120480609Y-58654050D02*
X120432990Y-58606431D01*
X120432990Y-58606431D02*
X120385371Y-58511193D01*
X120385371Y-58511193D02*
X120385371Y-58273098D01*
X120385371Y-58273098D02*
X120432990Y-58177860D01*
X120432990Y-58177860D02*
X120480609Y-58130241D01*
X120480609Y-58130241D02*
X120575847Y-58082622D01*
X120575847Y-58082622D02*
X120813942Y-58082622D01*
X120813942Y-58082622D02*
X120909180Y-58130241D01*
X120909180Y-58130241D02*
X120956800Y-58177860D01*
X120956800Y-58177860D02*
X121004419Y-58273098D01*
X121004419Y-58273098D02*
X121004419Y-58511193D01*
X121004419Y-58511193D02*
X120956800Y-58606431D01*
X120956800Y-58606431D02*
X120909180Y-58654050D01*
X120004419Y-57796907D02*
X121004419Y-57463574D01*
X121004419Y-57463574D02*
X120004419Y-57130241D01*
X131487654Y-123939904D02*
X131963844Y-123939904D01*
X131392416Y-124225619D02*
X131725749Y-123225619D01*
X131725749Y-123225619D02*
X132059082Y-124225619D01*
X132725749Y-123701809D02*
X132868606Y-123749428D01*
X132868606Y-123749428D02*
X132916225Y-123797047D01*
X132916225Y-123797047D02*
X132963844Y-123892285D01*
X132963844Y-123892285D02*
X132963844Y-124035142D01*
X132963844Y-124035142D02*
X132916225Y-124130380D01*
X132916225Y-124130380D02*
X132868606Y-124178000D01*
X132868606Y-124178000D02*
X132773368Y-124225619D01*
X132773368Y-124225619D02*
X132392416Y-124225619D01*
X132392416Y-124225619D02*
X132392416Y-123225619D01*
X132392416Y-123225619D02*
X132725749Y-123225619D01*
X132725749Y-123225619D02*
X132820987Y-123273238D01*
X132820987Y-123273238D02*
X132868606Y-123320857D01*
X132868606Y-123320857D02*
X132916225Y-123416095D01*
X132916225Y-123416095D02*
X132916225Y-123511333D01*
X132916225Y-123511333D02*
X132868606Y-123606571D01*
X132868606Y-123606571D02*
X132820987Y-123654190D01*
X132820987Y-123654190D02*
X132725749Y-123701809D01*
X132725749Y-123701809D02*
X132392416Y-123701809D01*
X133344797Y-123939904D02*
X133820987Y-123939904D01*
X133249559Y-124225619D02*
X133582892Y-123225619D01*
X133582892Y-123225619D02*
X133916225Y-124225619D01*
X155264419Y-102170126D02*
X154264419Y-102170126D01*
X154264419Y-102170126D02*
X154978704Y-101836793D01*
X154978704Y-101836793D02*
X154264419Y-101503460D01*
X154264419Y-101503460D02*
X155264419Y-101503460D01*
X155264419Y-101027269D02*
X154264419Y-101027269D01*
X155216800Y-100598698D02*
X155264419Y-100455841D01*
X155264419Y-100455841D02*
X155264419Y-100217746D01*
X155264419Y-100217746D02*
X155216800Y-100122508D01*
X155216800Y-100122508D02*
X155169180Y-100074889D01*
X155169180Y-100074889D02*
X155073942Y-100027270D01*
X155073942Y-100027270D02*
X154978704Y-100027270D01*
X154978704Y-100027270D02*
X154883466Y-100074889D01*
X154883466Y-100074889D02*
X154835847Y-100122508D01*
X154835847Y-100122508D02*
X154788228Y-100217746D01*
X154788228Y-100217746D02*
X154740609Y-100408222D01*
X154740609Y-100408222D02*
X154692990Y-100503460D01*
X154692990Y-100503460D02*
X154645371Y-100551079D01*
X154645371Y-100551079D02*
X154550133Y-100598698D01*
X154550133Y-100598698D02*
X154454895Y-100598698D01*
X154454895Y-100598698D02*
X154359657Y-100551079D01*
X154359657Y-100551079D02*
X154312038Y-100503460D01*
X154312038Y-100503460D02*
X154264419Y-100408222D01*
X154264419Y-100408222D02*
X154264419Y-100170127D01*
X154264419Y-100170127D02*
X154312038Y-100027270D01*
X154264419Y-99408222D02*
X154264419Y-99217746D01*
X154264419Y-99217746D02*
X154312038Y-99122508D01*
X154312038Y-99122508D02*
X154407276Y-99027270D01*
X154407276Y-99027270D02*
X154597752Y-98979651D01*
X154597752Y-98979651D02*
X154931085Y-98979651D01*
X154931085Y-98979651D02*
X155121561Y-99027270D01*
X155121561Y-99027270D02*
X155216800Y-99122508D01*
X155216800Y-99122508D02*
X155264419Y-99217746D01*
X155264419Y-99217746D02*
X155264419Y-99408222D01*
X155264419Y-99408222D02*
X155216800Y-99503460D01*
X155216800Y-99503460D02*
X155121561Y-99598698D01*
X155121561Y-99598698D02*
X154931085Y-99646317D01*
X154931085Y-99646317D02*
X154597752Y-99646317D01*
X154597752Y-99646317D02*
X154407276Y-99598698D01*
X154407276Y-99598698D02*
X154312038Y-99503460D01*
X154312038Y-99503460D02*
X154264419Y-99408222D01*
D10*
X175186065Y-124478504D02*
X175662255Y-124478504D01*
X175090827Y-124764219D02*
X175424160Y-123764219D01*
X175424160Y-123764219D02*
X175757493Y-124764219D01*
X176090827Y-123764219D02*
X176090827Y-124573742D01*
X176090827Y-124573742D02*
X176138446Y-124668980D01*
X176138446Y-124668980D02*
X176186065Y-124716600D01*
X176186065Y-124716600D02*
X176281303Y-124764219D01*
X176281303Y-124764219D02*
X176471779Y-124764219D01*
X176471779Y-124764219D02*
X176567017Y-124716600D01*
X176567017Y-124716600D02*
X176614636Y-124668980D01*
X176614636Y-124668980D02*
X176662255Y-124573742D01*
X176662255Y-124573742D02*
X176662255Y-123764219D01*
X177138446Y-124764219D02*
X177138446Y-123764219D01*
X177138446Y-123764219D02*
X177376541Y-123764219D01*
X177376541Y-123764219D02*
X177519398Y-123811838D01*
X177519398Y-123811838D02*
X177614636Y-123907076D01*
X177614636Y-123907076D02*
X177662255Y-124002314D01*
X177662255Y-124002314D02*
X177709874Y-124192790D01*
X177709874Y-124192790D02*
X177709874Y-124335647D01*
X177709874Y-124335647D02*
X177662255Y-124526123D01*
X177662255Y-124526123D02*
X177614636Y-124621361D01*
X177614636Y-124621361D02*
X177519398Y-124716600D01*
X177519398Y-124716600D02*
X177376541Y-124764219D01*
X177376541Y-124764219D02*
X177138446Y-124764219D01*
X178138446Y-124764219D02*
X178138446Y-123764219D01*
X178805112Y-123764219D02*
X178995588Y-123764219D01*
X178995588Y-123764219D02*
X179090826Y-123811838D01*
X179090826Y-123811838D02*
X179186064Y-123907076D01*
X179186064Y-123907076D02*
X179233683Y-124097552D01*
X179233683Y-124097552D02*
X179233683Y-124430885D01*
X179233683Y-124430885D02*
X179186064Y-124621361D01*
X179186064Y-124621361D02*
X179090826Y-124716600D01*
X179090826Y-124716600D02*
X178995588Y-124764219D01*
X178995588Y-124764219D02*
X178805112Y-124764219D01*
X178805112Y-124764219D02*
X178709874Y-124716600D01*
X178709874Y-124716600D02*
X178614636Y-124621361D01*
X178614636Y-124621361D02*
X178567017Y-124430885D01*
X178567017Y-124430885D02*
X178567017Y-124097552D01*
X178567017Y-124097552D02*
X178614636Y-123907076D01*
X178614636Y-123907076D02*
X178709874Y-123811838D01*
X178709874Y-123811838D02*
X178805112Y-123764219D01*
X180376540Y-123716600D02*
X179519398Y-125002314D01*
X180900350Y-123764219D02*
X181090826Y-123764219D01*
X181090826Y-123764219D02*
X181186064Y-123811838D01*
X181186064Y-123811838D02*
X181281302Y-123907076D01*
X181281302Y-123907076D02*
X181328921Y-124097552D01*
X181328921Y-124097552D02*
X181328921Y-124430885D01*
X181328921Y-124430885D02*
X181281302Y-124621361D01*
X181281302Y-124621361D02*
X181186064Y-124716600D01*
X181186064Y-124716600D02*
X181090826Y-124764219D01*
X181090826Y-124764219D02*
X180900350Y-124764219D01*
X180900350Y-124764219D02*
X180805112Y-124716600D01*
X180805112Y-124716600D02*
X180709874Y-124621361D01*
X180709874Y-124621361D02*
X180662255Y-124430885D01*
X180662255Y-124430885D02*
X180662255Y-124097552D01*
X180662255Y-124097552D02*
X180709874Y-123907076D01*
X180709874Y-123907076D02*
X180805112Y-123811838D01*
X180805112Y-123811838D02*
X180900350Y-123764219D01*
X181757493Y-124764219D02*
X181757493Y-123764219D01*
X181757493Y-123764219D02*
X182138445Y-123764219D01*
X182138445Y-123764219D02*
X182233683Y-123811838D01*
X182233683Y-123811838D02*
X182281302Y-123859457D01*
X182281302Y-123859457D02*
X182328921Y-123954695D01*
X182328921Y-123954695D02*
X182328921Y-124097552D01*
X182328921Y-124097552D02*
X182281302Y-124192790D01*
X182281302Y-124192790D02*
X182233683Y-124240409D01*
X182233683Y-124240409D02*
X182138445Y-124288028D01*
X182138445Y-124288028D02*
X181757493Y-124288028D01*
D11*
X157731400Y-102166945D02*
X157779019Y-102024088D01*
X157779019Y-102024088D02*
X157779019Y-101785993D01*
X157779019Y-101785993D02*
X157731400Y-101690755D01*
X157731400Y-101690755D02*
X157683780Y-101643136D01*
X157683780Y-101643136D02*
X157588542Y-101595517D01*
X157588542Y-101595517D02*
X157493304Y-101595517D01*
X157493304Y-101595517D02*
X157398066Y-101643136D01*
X157398066Y-101643136D02*
X157350447Y-101690755D01*
X157350447Y-101690755D02*
X157302828Y-101785993D01*
X157302828Y-101785993D02*
X157255209Y-101976469D01*
X157255209Y-101976469D02*
X157207590Y-102071707D01*
X157207590Y-102071707D02*
X157159971Y-102119326D01*
X157159971Y-102119326D02*
X157064733Y-102166945D01*
X157064733Y-102166945D02*
X156969495Y-102166945D01*
X156969495Y-102166945D02*
X156874257Y-102119326D01*
X156874257Y-102119326D02*
X156826638Y-102071707D01*
X156826638Y-102071707D02*
X156779019Y-101976469D01*
X156779019Y-101976469D02*
X156779019Y-101738374D01*
X156779019Y-101738374D02*
X156826638Y-101595517D01*
X157683780Y-100595517D02*
X157731400Y-100643136D01*
X157731400Y-100643136D02*
X157779019Y-100785993D01*
X157779019Y-100785993D02*
X157779019Y-100881231D01*
X157779019Y-100881231D02*
X157731400Y-101024088D01*
X157731400Y-101024088D02*
X157636161Y-101119326D01*
X157636161Y-101119326D02*
X157540923Y-101166945D01*
X157540923Y-101166945D02*
X157350447Y-101214564D01*
X157350447Y-101214564D02*
X157207590Y-101214564D01*
X157207590Y-101214564D02*
X157017114Y-101166945D01*
X157017114Y-101166945D02*
X156921876Y-101119326D01*
X156921876Y-101119326D02*
X156826638Y-101024088D01*
X156826638Y-101024088D02*
X156779019Y-100881231D01*
X156779019Y-100881231D02*
X156779019Y-100785993D01*
X156779019Y-100785993D02*
X156826638Y-100643136D01*
X156826638Y-100643136D02*
X156874257Y-100595517D01*
X157779019Y-100166945D02*
X156779019Y-100166945D01*
X157779019Y-99595517D02*
X157207590Y-100024088D01*
X156779019Y-99595517D02*
X157350447Y-100166945D01*
X108503019Y-59498126D02*
X107503019Y-59498126D01*
X107503019Y-59498126D02*
X107503019Y-59117174D01*
X107503019Y-59117174D02*
X107550638Y-59021936D01*
X107550638Y-59021936D02*
X107598257Y-58974317D01*
X107598257Y-58974317D02*
X107693495Y-58926698D01*
X107693495Y-58926698D02*
X107836352Y-58926698D01*
X107836352Y-58926698D02*
X107931590Y-58974317D01*
X107931590Y-58974317D02*
X107979209Y-59021936D01*
X107979209Y-59021936D02*
X108026828Y-59117174D01*
X108026828Y-59117174D02*
X108026828Y-59498126D01*
X108407780Y-57926698D02*
X108455400Y-57974317D01*
X108455400Y-57974317D02*
X108503019Y-58117174D01*
X108503019Y-58117174D02*
X108503019Y-58212412D01*
X108503019Y-58212412D02*
X108455400Y-58355269D01*
X108455400Y-58355269D02*
X108360161Y-58450507D01*
X108360161Y-58450507D02*
X108264923Y-58498126D01*
X108264923Y-58498126D02*
X108074447Y-58545745D01*
X108074447Y-58545745D02*
X107931590Y-58545745D01*
X107931590Y-58545745D02*
X107741114Y-58498126D01*
X107741114Y-58498126D02*
X107645876Y-58450507D01*
X107645876Y-58450507D02*
X107550638Y-58355269D01*
X107550638Y-58355269D02*
X107503019Y-58212412D01*
X107503019Y-58212412D02*
X107503019Y-58117174D01*
X107503019Y-58117174D02*
X107550638Y-57974317D01*
X107550638Y-57974317D02*
X107598257Y-57926698D01*
X108503019Y-56974317D02*
X108503019Y-57545745D01*
X108503019Y-57260031D02*
X107503019Y-57260031D01*
X107503019Y-57260031D02*
X107645876Y-57355269D01*
X107645876Y-57355269D02*
X107741114Y-57450507D01*
X107741114Y-57450507D02*
X107788733Y-57545745D01*
X136951019Y-60437926D02*
X135951019Y-60437926D01*
X135951019Y-60437926D02*
X135951019Y-60199831D01*
X135951019Y-60199831D02*
X135998638Y-60056974D01*
X135998638Y-60056974D02*
X136093876Y-59961736D01*
X136093876Y-59961736D02*
X136189114Y-59914117D01*
X136189114Y-59914117D02*
X136379590Y-59866498D01*
X136379590Y-59866498D02*
X136522447Y-59866498D01*
X136522447Y-59866498D02*
X136712923Y-59914117D01*
X136712923Y-59914117D02*
X136808161Y-59961736D01*
X136808161Y-59961736D02*
X136903400Y-60056974D01*
X136903400Y-60056974D02*
X136951019Y-60199831D01*
X136951019Y-60199831D02*
X136951019Y-60437926D01*
X135951019Y-59580783D02*
X135951019Y-59009355D01*
X136951019Y-59295069D02*
X135951019Y-59295069D01*
X136951019Y-58104593D02*
X136474828Y-58437926D01*
X136951019Y-58676021D02*
X135951019Y-58676021D01*
X135951019Y-58676021D02*
X135951019Y-58295069D01*
X135951019Y-58295069D02*
X135998638Y-58199831D01*
X135998638Y-58199831D02*
X136046257Y-58152212D01*
X136046257Y-58152212D02*
X136141495Y-58104593D01*
X136141495Y-58104593D02*
X136284352Y-58104593D01*
X136284352Y-58104593D02*
X136379590Y-58152212D01*
X136379590Y-58152212D02*
X136427209Y-58199831D01*
X136427209Y-58199831D02*
X136474828Y-58295069D01*
X136474828Y-58295069D02*
X136474828Y-58676021D01*
X116050000Y-59367945D02*
X116097619Y-59225088D01*
X116097619Y-59225088D02*
X116097619Y-58986993D01*
X116097619Y-58986993D02*
X116050000Y-58891755D01*
X116050000Y-58891755D02*
X116002380Y-58844136D01*
X116002380Y-58844136D02*
X115907142Y-58796517D01*
X115907142Y-58796517D02*
X115811904Y-58796517D01*
X115811904Y-58796517D02*
X115716666Y-58844136D01*
X115716666Y-58844136D02*
X115669047Y-58891755D01*
X115669047Y-58891755D02*
X115621428Y-58986993D01*
X115621428Y-58986993D02*
X115573809Y-59177469D01*
X115573809Y-59177469D02*
X115526190Y-59272707D01*
X115526190Y-59272707D02*
X115478571Y-59320326D01*
X115478571Y-59320326D02*
X115383333Y-59367945D01*
X115383333Y-59367945D02*
X115288095Y-59367945D01*
X115288095Y-59367945D02*
X115192857Y-59320326D01*
X115192857Y-59320326D02*
X115145238Y-59272707D01*
X115145238Y-59272707D02*
X115097619Y-59177469D01*
X115097619Y-59177469D02*
X115097619Y-58939374D01*
X115097619Y-58939374D02*
X115145238Y-58796517D01*
X116097619Y-58367945D02*
X115097619Y-58367945D01*
X115097619Y-58367945D02*
X115097619Y-58129850D01*
X115097619Y-58129850D02*
X115145238Y-57986993D01*
X115145238Y-57986993D02*
X115240476Y-57891755D01*
X115240476Y-57891755D02*
X115335714Y-57844136D01*
X115335714Y-57844136D02*
X115526190Y-57796517D01*
X115526190Y-57796517D02*
X115669047Y-57796517D01*
X115669047Y-57796517D02*
X115859523Y-57844136D01*
X115859523Y-57844136D02*
X115954761Y-57891755D01*
X115954761Y-57891755D02*
X116050000Y-57986993D01*
X116050000Y-57986993D02*
X116097619Y-58129850D01*
X116097619Y-58129850D02*
X116097619Y-58367945D01*
X115811904Y-57415564D02*
X115811904Y-56939374D01*
X116097619Y-57510802D02*
X115097619Y-57177469D01*
X115097619Y-57177469D02*
X116097619Y-56844136D01*
X134461819Y-59866498D02*
X133985628Y-60199831D01*
X134461819Y-60437926D02*
X133461819Y-60437926D01*
X133461819Y-60437926D02*
X133461819Y-60056974D01*
X133461819Y-60056974D02*
X133509438Y-59961736D01*
X133509438Y-59961736D02*
X133557057Y-59914117D01*
X133557057Y-59914117D02*
X133652295Y-59866498D01*
X133652295Y-59866498D02*
X133795152Y-59866498D01*
X133795152Y-59866498D02*
X133890390Y-59914117D01*
X133890390Y-59914117D02*
X133938009Y-59961736D01*
X133938009Y-59961736D02*
X133985628Y-60056974D01*
X133985628Y-60056974D02*
X133985628Y-60437926D01*
X133461819Y-59533164D02*
X134461819Y-58866498D01*
X133461819Y-58866498D02*
X134461819Y-59533164D01*
X134461819Y-58485545D02*
X133461819Y-58485545D01*
X133461819Y-58485545D02*
X133461819Y-58247450D01*
X133461819Y-58247450D02*
X133509438Y-58104593D01*
X133509438Y-58104593D02*
X133604676Y-58009355D01*
X133604676Y-58009355D02*
X133699914Y-57961736D01*
X133699914Y-57961736D02*
X133890390Y-57914117D01*
X133890390Y-57914117D02*
X134033247Y-57914117D01*
X134033247Y-57914117D02*
X134223723Y-57961736D01*
X134223723Y-57961736D02*
X134318961Y-58009355D01*
X134318961Y-58009355D02*
X134414200Y-58104593D01*
X134414200Y-58104593D02*
X134461819Y-58247450D01*
X134461819Y-58247450D02*
X134461819Y-58485545D01*
X115406273Y-124301819D02*
X115406273Y-123301819D01*
X115882463Y-124301819D02*
X115882463Y-123301819D01*
X115882463Y-123301819D02*
X116453891Y-124301819D01*
X116453891Y-124301819D02*
X116453891Y-123301819D01*
X116930082Y-123920866D02*
X117691987Y-123920866D01*
X118691986Y-123349438D02*
X118596748Y-123301819D01*
X118596748Y-123301819D02*
X118453891Y-123301819D01*
X118453891Y-123301819D02*
X118311034Y-123349438D01*
X118311034Y-123349438D02*
X118215796Y-123444676D01*
X118215796Y-123444676D02*
X118168177Y-123539914D01*
X118168177Y-123539914D02*
X118120558Y-123730390D01*
X118120558Y-123730390D02*
X118120558Y-123873247D01*
X118120558Y-123873247D02*
X118168177Y-124063723D01*
X118168177Y-124063723D02*
X118215796Y-124158961D01*
X118215796Y-124158961D02*
X118311034Y-124254200D01*
X118311034Y-124254200D02*
X118453891Y-124301819D01*
X118453891Y-124301819D02*
X118549129Y-124301819D01*
X118549129Y-124301819D02*
X118691986Y-124254200D01*
X118691986Y-124254200D02*
X118739605Y-124206580D01*
X118739605Y-124206580D02*
X118739605Y-123873247D01*
X118739605Y-123873247D02*
X118549129Y-123873247D01*
X119168177Y-124301819D02*
X119168177Y-123301819D01*
X119168177Y-123301819D02*
X119739605Y-124301819D01*
X119739605Y-124301819D02*
X119739605Y-123301819D01*
X120215796Y-124301819D02*
X120215796Y-123301819D01*
X120215796Y-123301819D02*
X120453891Y-123301819D01*
X120453891Y-123301819D02*
X120596748Y-123349438D01*
X120596748Y-123349438D02*
X120691986Y-123444676D01*
X120691986Y-123444676D02*
X120739605Y-123539914D01*
X120739605Y-123539914D02*
X120787224Y-123730390D01*
X120787224Y-123730390D02*
X120787224Y-123873247D01*
X120787224Y-123873247D02*
X120739605Y-124063723D01*
X120739605Y-124063723D02*
X120691986Y-124158961D01*
X120691986Y-124158961D02*
X120596748Y-124254200D01*
X120596748Y-124254200D02*
X120453891Y-124301819D01*
X120453891Y-124301819D02*
X120215796Y-124301819D01*
X129000866Y-60437926D02*
X129000866Y-59676022D01*
X129381819Y-60056974D02*
X128619914Y-60056974D01*
X128381819Y-58723641D02*
X128381819Y-59199831D01*
X128381819Y-59199831D02*
X128858009Y-59247450D01*
X128858009Y-59247450D02*
X128810390Y-59199831D01*
X128810390Y-59199831D02*
X128762771Y-59104593D01*
X128762771Y-59104593D02*
X128762771Y-58866498D01*
X128762771Y-58866498D02*
X128810390Y-58771260D01*
X128810390Y-58771260D02*
X128858009Y-58723641D01*
X128858009Y-58723641D02*
X128953247Y-58676022D01*
X128953247Y-58676022D02*
X129191342Y-58676022D01*
X129191342Y-58676022D02*
X129286580Y-58723641D01*
X129286580Y-58723641D02*
X129334200Y-58771260D01*
X129334200Y-58771260D02*
X129381819Y-58866498D01*
X129381819Y-58866498D02*
X129381819Y-59104593D01*
X129381819Y-59104593D02*
X129334200Y-59199831D01*
X129334200Y-59199831D02*
X129286580Y-59247450D01*
X128381819Y-58390307D02*
X129381819Y-58056974D01*
X129381819Y-58056974D02*
X128381819Y-57723641D01*
X125864038Y-59761717D02*
X125816419Y-59856955D01*
X125816419Y-59856955D02*
X125816419Y-59999812D01*
X125816419Y-59999812D02*
X125864038Y-60142669D01*
X125864038Y-60142669D02*
X125959276Y-60237907D01*
X125959276Y-60237907D02*
X126054514Y-60285526D01*
X126054514Y-60285526D02*
X126244990Y-60333145D01*
X126244990Y-60333145D02*
X126387847Y-60333145D01*
X126387847Y-60333145D02*
X126578323Y-60285526D01*
X126578323Y-60285526D02*
X126673561Y-60237907D01*
X126673561Y-60237907D02*
X126768800Y-60142669D01*
X126768800Y-60142669D02*
X126816419Y-59999812D01*
X126816419Y-59999812D02*
X126816419Y-59904574D01*
X126816419Y-59904574D02*
X126768800Y-59761717D01*
X126768800Y-59761717D02*
X126721180Y-59714098D01*
X126721180Y-59714098D02*
X126387847Y-59714098D01*
X126387847Y-59714098D02*
X126387847Y-59904574D01*
X126816419Y-59285526D02*
X125816419Y-59285526D01*
X125816419Y-59285526D02*
X126816419Y-58714098D01*
X126816419Y-58714098D02*
X125816419Y-58714098D01*
X126816419Y-58237907D02*
X125816419Y-58237907D01*
X125816419Y-58237907D02*
X125816419Y-57999812D01*
X125816419Y-57999812D02*
X125864038Y-57856955D01*
X125864038Y-57856955D02*
X125959276Y-57761717D01*
X125959276Y-57761717D02*
X126054514Y-57714098D01*
X126054514Y-57714098D02*
X126244990Y-57666479D01*
X126244990Y-57666479D02*
X126387847Y-57666479D01*
X126387847Y-57666479D02*
X126578323Y-57714098D01*
X126578323Y-57714098D02*
X126673561Y-57761717D01*
X126673561Y-57761717D02*
X126768800Y-57856955D01*
X126768800Y-57856955D02*
X126816419Y-57999812D01*
X126816419Y-57999812D02*
X126816419Y-58237907D01*
X146717438Y-101620917D02*
X146669819Y-101716155D01*
X146669819Y-101716155D02*
X146669819Y-101859012D01*
X146669819Y-101859012D02*
X146717438Y-102001869D01*
X146717438Y-102001869D02*
X146812676Y-102097107D01*
X146812676Y-102097107D02*
X146907914Y-102144726D01*
X146907914Y-102144726D02*
X147098390Y-102192345D01*
X147098390Y-102192345D02*
X147241247Y-102192345D01*
X147241247Y-102192345D02*
X147431723Y-102144726D01*
X147431723Y-102144726D02*
X147526961Y-102097107D01*
X147526961Y-102097107D02*
X147622200Y-102001869D01*
X147622200Y-102001869D02*
X147669819Y-101859012D01*
X147669819Y-101859012D02*
X147669819Y-101763774D01*
X147669819Y-101763774D02*
X147622200Y-101620917D01*
X147622200Y-101620917D02*
X147574580Y-101573298D01*
X147574580Y-101573298D02*
X147241247Y-101573298D01*
X147241247Y-101573298D02*
X147241247Y-101763774D01*
X147669819Y-101144726D02*
X146669819Y-101144726D01*
X146669819Y-101144726D02*
X147669819Y-100573298D01*
X147669819Y-100573298D02*
X146669819Y-100573298D01*
X147669819Y-100097107D02*
X146669819Y-100097107D01*
X146669819Y-100097107D02*
X146669819Y-99859012D01*
X146669819Y-99859012D02*
X146717438Y-99716155D01*
X146717438Y-99716155D02*
X146812676Y-99620917D01*
X146812676Y-99620917D02*
X146907914Y-99573298D01*
X146907914Y-99573298D02*
X147098390Y-99525679D01*
X147098390Y-99525679D02*
X147241247Y-99525679D01*
X147241247Y-99525679D02*
X147431723Y-99573298D01*
X147431723Y-99573298D02*
X147526961Y-99620917D01*
X147526961Y-99620917D02*
X147622200Y-99716155D01*
X147622200Y-99716155D02*
X147669819Y-99859012D01*
X147669819Y-99859012D02*
X147669819Y-100097107D01*
D10*
X174827284Y-123037066D02*
X175589189Y-123037066D01*
X175208236Y-123418019D02*
X175208236Y-122656114D01*
D11*
X121886406Y-123778009D02*
X121553073Y-123778009D01*
X121553073Y-124301819D02*
X121553073Y-123301819D01*
X121553073Y-123301819D02*
X122029263Y-123301819D01*
X122410216Y-124301819D02*
X122410216Y-123301819D01*
X123457834Y-124301819D02*
X123124501Y-123825628D01*
X122886406Y-124301819D02*
X122886406Y-123301819D01*
X122886406Y-123301819D02*
X123267358Y-123301819D01*
X123267358Y-123301819D02*
X123362596Y-123349438D01*
X123362596Y-123349438D02*
X123410215Y-123397057D01*
X123410215Y-123397057D02*
X123457834Y-123492295D01*
X123457834Y-123492295D02*
X123457834Y-123635152D01*
X123457834Y-123635152D02*
X123410215Y-123730390D01*
X123410215Y-123730390D02*
X123362596Y-123778009D01*
X123362596Y-123778009D02*
X123267358Y-123825628D01*
X123267358Y-123825628D02*
X122886406Y-123825628D01*
X123886406Y-123778009D02*
X124219739Y-123778009D01*
X124362596Y-124301819D02*
X123886406Y-124301819D01*
X123886406Y-124301819D02*
X123886406Y-123301819D01*
X123886406Y-123301819D02*
X124362596Y-123301819D01*
D10*
X181659884Y-123037066D02*
X182421789Y-123037066D01*
D11*
X117685238Y-58872717D02*
X117637619Y-58967955D01*
X117637619Y-58967955D02*
X117637619Y-59110812D01*
X117637619Y-59110812D02*
X117685238Y-59253669D01*
X117685238Y-59253669D02*
X117780476Y-59348907D01*
X117780476Y-59348907D02*
X117875714Y-59396526D01*
X117875714Y-59396526D02*
X118066190Y-59444145D01*
X118066190Y-59444145D02*
X118209047Y-59444145D01*
X118209047Y-59444145D02*
X118399523Y-59396526D01*
X118399523Y-59396526D02*
X118494761Y-59348907D01*
X118494761Y-59348907D02*
X118590000Y-59253669D01*
X118590000Y-59253669D02*
X118637619Y-59110812D01*
X118637619Y-59110812D02*
X118637619Y-59015574D01*
X118637619Y-59015574D02*
X118590000Y-58872717D01*
X118590000Y-58872717D02*
X118542380Y-58825098D01*
X118542380Y-58825098D02*
X118209047Y-58825098D01*
X118209047Y-58825098D02*
X118209047Y-59015574D01*
X118637619Y-58396526D02*
X117637619Y-58396526D01*
X117637619Y-58396526D02*
X118637619Y-57825098D01*
X118637619Y-57825098D02*
X117637619Y-57825098D01*
X118637619Y-57348907D02*
X117637619Y-57348907D01*
X117637619Y-57348907D02*
X117637619Y-57110812D01*
X117637619Y-57110812D02*
X117685238Y-56967955D01*
X117685238Y-56967955D02*
X117780476Y-56872717D01*
X117780476Y-56872717D02*
X117875714Y-56825098D01*
X117875714Y-56825098D02*
X118066190Y-56777479D01*
X118066190Y-56777479D02*
X118209047Y-56777479D01*
X118209047Y-56777479D02*
X118399523Y-56825098D01*
X118399523Y-56825098D02*
X118494761Y-56872717D01*
X118494761Y-56872717D02*
X118590000Y-56967955D01*
X118590000Y-56967955D02*
X118637619Y-57110812D01*
X118637619Y-57110812D02*
X118637619Y-57348907D01*
X111017619Y-59498126D02*
X110017619Y-59498126D01*
X110017619Y-59498126D02*
X110017619Y-59117174D01*
X110017619Y-59117174D02*
X110065238Y-59021936D01*
X110065238Y-59021936D02*
X110112857Y-58974317D01*
X110112857Y-58974317D02*
X110208095Y-58926698D01*
X110208095Y-58926698D02*
X110350952Y-58926698D01*
X110350952Y-58926698D02*
X110446190Y-58974317D01*
X110446190Y-58974317D02*
X110493809Y-59021936D01*
X110493809Y-59021936D02*
X110541428Y-59117174D01*
X110541428Y-59117174D02*
X110541428Y-59498126D01*
X110922380Y-57926698D02*
X110970000Y-57974317D01*
X110970000Y-57974317D02*
X111017619Y-58117174D01*
X111017619Y-58117174D02*
X111017619Y-58212412D01*
X111017619Y-58212412D02*
X110970000Y-58355269D01*
X110970000Y-58355269D02*
X110874761Y-58450507D01*
X110874761Y-58450507D02*
X110779523Y-58498126D01*
X110779523Y-58498126D02*
X110589047Y-58545745D01*
X110589047Y-58545745D02*
X110446190Y-58545745D01*
X110446190Y-58545745D02*
X110255714Y-58498126D01*
X110255714Y-58498126D02*
X110160476Y-58450507D01*
X110160476Y-58450507D02*
X110065238Y-58355269D01*
X110065238Y-58355269D02*
X110017619Y-58212412D01*
X110017619Y-58212412D02*
X110017619Y-58117174D01*
X110017619Y-58117174D02*
X110065238Y-57974317D01*
X110065238Y-57974317D02*
X110112857Y-57926698D01*
X110017619Y-57307650D02*
X110017619Y-57212412D01*
X110017619Y-57212412D02*
X110065238Y-57117174D01*
X110065238Y-57117174D02*
X110112857Y-57069555D01*
X110112857Y-57069555D02*
X110208095Y-57021936D01*
X110208095Y-57021936D02*
X110398571Y-56974317D01*
X110398571Y-56974317D02*
X110636666Y-56974317D01*
X110636666Y-56974317D02*
X110827142Y-57021936D01*
X110827142Y-57021936D02*
X110922380Y-57069555D01*
X110922380Y-57069555D02*
X110970000Y-57117174D01*
X110970000Y-57117174D02*
X111017619Y-57212412D01*
X111017619Y-57212412D02*
X111017619Y-57307650D01*
X111017619Y-57307650D02*
X110970000Y-57402888D01*
X110970000Y-57402888D02*
X110922380Y-57450507D01*
X110922380Y-57450507D02*
X110827142Y-57498126D01*
X110827142Y-57498126D02*
X110636666Y-57545745D01*
X110636666Y-57545745D02*
X110398571Y-57545745D01*
X110398571Y-57545745D02*
X110208095Y-57498126D01*
X110208095Y-57498126D02*
X110112857Y-57450507D01*
X110112857Y-57450507D02*
X110065238Y-57402888D01*
X110065238Y-57402888D02*
X110017619Y-57307650D01*
D12*
X94102971Y-68594653D02*
X94817257Y-68094653D01*
X94102971Y-67737510D02*
X95602971Y-67737510D01*
X95602971Y-67737510D02*
X95602971Y-68308939D01*
X95602971Y-68308939D02*
X95531542Y-68451796D01*
X95531542Y-68451796D02*
X95460114Y-68523225D01*
X95460114Y-68523225D02*
X95317257Y-68594653D01*
X95317257Y-68594653D02*
X95102971Y-68594653D01*
X95102971Y-68594653D02*
X94960114Y-68523225D01*
X94960114Y-68523225D02*
X94888685Y-68451796D01*
X94888685Y-68451796D02*
X94817257Y-68308939D01*
X94817257Y-68308939D02*
X94817257Y-67737510D01*
X94174400Y-69166082D02*
X94102971Y-69380368D01*
X94102971Y-69380368D02*
X94102971Y-69737510D01*
X94102971Y-69737510D02*
X94174400Y-69880368D01*
X94174400Y-69880368D02*
X94245828Y-69951796D01*
X94245828Y-69951796D02*
X94388685Y-70023225D01*
X94388685Y-70023225D02*
X94531542Y-70023225D01*
X94531542Y-70023225D02*
X94674400Y-69951796D01*
X94674400Y-69951796D02*
X94745828Y-69880368D01*
X94745828Y-69880368D02*
X94817257Y-69737510D01*
X94817257Y-69737510D02*
X94888685Y-69451796D01*
X94888685Y-69451796D02*
X94960114Y-69308939D01*
X94960114Y-69308939D02*
X95031542Y-69237510D01*
X95031542Y-69237510D02*
X95174400Y-69166082D01*
X95174400Y-69166082D02*
X95317257Y-69166082D01*
X95317257Y-69166082D02*
X95460114Y-69237510D01*
X95460114Y-69237510D02*
X95531542Y-69308939D01*
X95531542Y-69308939D02*
X95602971Y-69451796D01*
X95602971Y-69451796D02*
X95602971Y-69808939D01*
X95602971Y-69808939D02*
X95531542Y-70023225D01*
X94674400Y-70666081D02*
X94674400Y-71808939D01*
X95102971Y-73166082D02*
X94102971Y-73166082D01*
X95674400Y-72808939D02*
X94602971Y-72451796D01*
X94602971Y-72451796D02*
X94602971Y-73380367D01*
X94960114Y-74166081D02*
X95031542Y-74023224D01*
X95031542Y-74023224D02*
X95102971Y-73951795D01*
X95102971Y-73951795D02*
X95245828Y-73880367D01*
X95245828Y-73880367D02*
X95317257Y-73880367D01*
X95317257Y-73880367D02*
X95460114Y-73951795D01*
X95460114Y-73951795D02*
X95531542Y-74023224D01*
X95531542Y-74023224D02*
X95602971Y-74166081D01*
X95602971Y-74166081D02*
X95602971Y-74451795D01*
X95602971Y-74451795D02*
X95531542Y-74594653D01*
X95531542Y-74594653D02*
X95460114Y-74666081D01*
X95460114Y-74666081D02*
X95317257Y-74737510D01*
X95317257Y-74737510D02*
X95245828Y-74737510D01*
X95245828Y-74737510D02*
X95102971Y-74666081D01*
X95102971Y-74666081D02*
X95031542Y-74594653D01*
X95031542Y-74594653D02*
X94960114Y-74451795D01*
X94960114Y-74451795D02*
X94960114Y-74166081D01*
X94960114Y-74166081D02*
X94888685Y-74023224D01*
X94888685Y-74023224D02*
X94817257Y-73951795D01*
X94817257Y-73951795D02*
X94674400Y-73880367D01*
X94674400Y-73880367D02*
X94388685Y-73880367D01*
X94388685Y-73880367D02*
X94245828Y-73951795D01*
X94245828Y-73951795D02*
X94174400Y-74023224D01*
X94174400Y-74023224D02*
X94102971Y-74166081D01*
X94102971Y-74166081D02*
X94102971Y-74451795D01*
X94102971Y-74451795D02*
X94174400Y-74594653D01*
X94174400Y-74594653D02*
X94245828Y-74666081D01*
X94245828Y-74666081D02*
X94388685Y-74737510D01*
X94388685Y-74737510D02*
X94674400Y-74737510D01*
X94674400Y-74737510D02*
X94817257Y-74666081D01*
X94817257Y-74666081D02*
X94888685Y-74594653D01*
X94888685Y-74594653D02*
X94960114Y-74451795D01*
X95602971Y-76094652D02*
X95602971Y-75380366D01*
X95602971Y-75380366D02*
X94888685Y-75308938D01*
X94888685Y-75308938D02*
X94960114Y-75380366D01*
X94960114Y-75380366D02*
X95031542Y-75523224D01*
X95031542Y-75523224D02*
X95031542Y-75880366D01*
X95031542Y-75880366D02*
X94960114Y-76023224D01*
X94960114Y-76023224D02*
X94888685Y-76094652D01*
X94888685Y-76094652D02*
X94745828Y-76166081D01*
X94745828Y-76166081D02*
X94388685Y-76166081D01*
X94388685Y-76166081D02*
X94245828Y-76094652D01*
X94245828Y-76094652D02*
X94174400Y-76023224D01*
X94174400Y-76023224D02*
X94102971Y-75880366D01*
X94102971Y-75880366D02*
X94102971Y-75523224D01*
X94102971Y-75523224D02*
X94174400Y-75380366D01*
X94174400Y-75380366D02*
X94245828Y-75308938D01*
D11*
X152775219Y-102144726D02*
X151775219Y-102144726D01*
X151775219Y-102144726D02*
X152489504Y-101811393D01*
X152489504Y-101811393D02*
X151775219Y-101478060D01*
X151775219Y-101478060D02*
X152775219Y-101478060D01*
X151775219Y-100811393D02*
X151775219Y-100620917D01*
X151775219Y-100620917D02*
X151822838Y-100525679D01*
X151822838Y-100525679D02*
X151918076Y-100430441D01*
X151918076Y-100430441D02*
X152108552Y-100382822D01*
X152108552Y-100382822D02*
X152441885Y-100382822D01*
X152441885Y-100382822D02*
X152632361Y-100430441D01*
X152632361Y-100430441D02*
X152727600Y-100525679D01*
X152727600Y-100525679D02*
X152775219Y-100620917D01*
X152775219Y-100620917D02*
X152775219Y-100811393D01*
X152775219Y-100811393D02*
X152727600Y-100906631D01*
X152727600Y-100906631D02*
X152632361Y-101001869D01*
X152632361Y-101001869D02*
X152441885Y-101049488D01*
X152441885Y-101049488D02*
X152108552Y-101049488D01*
X152108552Y-101049488D02*
X151918076Y-101001869D01*
X151918076Y-101001869D02*
X151822838Y-100906631D01*
X151822838Y-100906631D02*
X151775219Y-100811393D01*
X152727600Y-100001869D02*
X152775219Y-99859012D01*
X152775219Y-99859012D02*
X152775219Y-99620917D01*
X152775219Y-99620917D02*
X152727600Y-99525679D01*
X152727600Y-99525679D02*
X152679980Y-99478060D01*
X152679980Y-99478060D02*
X152584742Y-99430441D01*
X152584742Y-99430441D02*
X152489504Y-99430441D01*
X152489504Y-99430441D02*
X152394266Y-99478060D01*
X152394266Y-99478060D02*
X152346647Y-99525679D01*
X152346647Y-99525679D02*
X152299028Y-99620917D01*
X152299028Y-99620917D02*
X152251409Y-99811393D01*
X152251409Y-99811393D02*
X152203790Y-99906631D01*
X152203790Y-99906631D02*
X152156171Y-99954250D01*
X152156171Y-99954250D02*
X152060933Y-100001869D01*
X152060933Y-100001869D02*
X151965695Y-100001869D01*
X151965695Y-100001869D02*
X151870457Y-99954250D01*
X151870457Y-99954250D02*
X151822838Y-99906631D01*
X151822838Y-99906631D02*
X151775219Y-99811393D01*
X151775219Y-99811393D02*
X151775219Y-99573298D01*
X151775219Y-99573298D02*
X151822838Y-99430441D01*
X152775219Y-99001869D02*
X151775219Y-99001869D01*
X96532095Y-73702654D02*
X96532095Y-74178844D01*
X96246380Y-73607416D02*
X97246380Y-73940749D01*
X97246380Y-73940749D02*
X96246380Y-74274082D01*
X189910066Y-73950726D02*
X189910066Y-73188822D01*
X190291019Y-73569774D02*
X189529114Y-73569774D01*
X189291019Y-72855488D02*
X190291019Y-72522155D01*
X190291019Y-72522155D02*
X189291019Y-72188822D01*
X189767209Y-71855488D02*
X189767209Y-71522155D01*
X190291019Y-71379298D02*
X190291019Y-71855488D01*
X190291019Y-71855488D02*
X189291019Y-71855488D01*
X189291019Y-71855488D02*
X189291019Y-71379298D01*
X111840682Y-123374838D02*
X111745444Y-123327219D01*
X111745444Y-123327219D02*
X111602587Y-123327219D01*
X111602587Y-123327219D02*
X111459730Y-123374838D01*
X111459730Y-123374838D02*
X111364492Y-123470076D01*
X111364492Y-123470076D02*
X111316873Y-123565314D01*
X111316873Y-123565314D02*
X111269254Y-123755790D01*
X111269254Y-123755790D02*
X111269254Y-123898647D01*
X111269254Y-123898647D02*
X111316873Y-124089123D01*
X111316873Y-124089123D02*
X111364492Y-124184361D01*
X111364492Y-124184361D02*
X111459730Y-124279600D01*
X111459730Y-124279600D02*
X111602587Y-124327219D01*
X111602587Y-124327219D02*
X111697825Y-124327219D01*
X111697825Y-124327219D02*
X111840682Y-124279600D01*
X111840682Y-124279600D02*
X111888301Y-124231980D01*
X111888301Y-124231980D02*
X111888301Y-123898647D01*
X111888301Y-123898647D02*
X111697825Y-123898647D01*
X112316873Y-124327219D02*
X112316873Y-123327219D01*
X112316873Y-123327219D02*
X112888301Y-124327219D01*
X112888301Y-124327219D02*
X112888301Y-123327219D01*
X113364492Y-124327219D02*
X113364492Y-123327219D01*
X113364492Y-123327219D02*
X113602587Y-123327219D01*
X113602587Y-123327219D02*
X113745444Y-123374838D01*
X113745444Y-123374838D02*
X113840682Y-123470076D01*
X113840682Y-123470076D02*
X113888301Y-123565314D01*
X113888301Y-123565314D02*
X113935920Y-123755790D01*
X113935920Y-123755790D02*
X113935920Y-123898647D01*
X113935920Y-123898647D02*
X113888301Y-124089123D01*
X113888301Y-124089123D02*
X113840682Y-124184361D01*
X113840682Y-124184361D02*
X113745444Y-124279600D01*
X113745444Y-124279600D02*
X113602587Y-124327219D01*
X113602587Y-124327219D02*
X113364492Y-124327219D01*
X113560800Y-59444145D02*
X113608419Y-59301288D01*
X113608419Y-59301288D02*
X113608419Y-59063193D01*
X113608419Y-59063193D02*
X113560800Y-58967955D01*
X113560800Y-58967955D02*
X113513180Y-58920336D01*
X113513180Y-58920336D02*
X113417942Y-58872717D01*
X113417942Y-58872717D02*
X113322704Y-58872717D01*
X113322704Y-58872717D02*
X113227466Y-58920336D01*
X113227466Y-58920336D02*
X113179847Y-58967955D01*
X113179847Y-58967955D02*
X113132228Y-59063193D01*
X113132228Y-59063193D02*
X113084609Y-59253669D01*
X113084609Y-59253669D02*
X113036990Y-59348907D01*
X113036990Y-59348907D02*
X112989371Y-59396526D01*
X112989371Y-59396526D02*
X112894133Y-59444145D01*
X112894133Y-59444145D02*
X112798895Y-59444145D01*
X112798895Y-59444145D02*
X112703657Y-59396526D01*
X112703657Y-59396526D02*
X112656038Y-59348907D01*
X112656038Y-59348907D02*
X112608419Y-59253669D01*
X112608419Y-59253669D02*
X112608419Y-59015574D01*
X112608419Y-59015574D02*
X112656038Y-58872717D01*
X113513180Y-57872717D02*
X113560800Y-57920336D01*
X113560800Y-57920336D02*
X113608419Y-58063193D01*
X113608419Y-58063193D02*
X113608419Y-58158431D01*
X113608419Y-58158431D02*
X113560800Y-58301288D01*
X113560800Y-58301288D02*
X113465561Y-58396526D01*
X113465561Y-58396526D02*
X113370323Y-58444145D01*
X113370323Y-58444145D02*
X113179847Y-58491764D01*
X113179847Y-58491764D02*
X113036990Y-58491764D01*
X113036990Y-58491764D02*
X112846514Y-58444145D01*
X112846514Y-58444145D02*
X112751276Y-58396526D01*
X112751276Y-58396526D02*
X112656038Y-58301288D01*
X112656038Y-58301288D02*
X112608419Y-58158431D01*
X112608419Y-58158431D02*
X112608419Y-58063193D01*
X112608419Y-58063193D02*
X112656038Y-57920336D01*
X112656038Y-57920336D02*
X112703657Y-57872717D01*
X113608419Y-56967955D02*
X113608419Y-57444145D01*
X113608419Y-57444145D02*
X112608419Y-57444145D01*
D13*
X149024142Y-86059180D02*
X148976523Y-86106800D01*
X148976523Y-86106800D02*
X148833666Y-86154419D01*
X148833666Y-86154419D02*
X148738428Y-86154419D01*
X148738428Y-86154419D02*
X148595571Y-86106800D01*
X148595571Y-86106800D02*
X148500333Y-86011561D01*
X148500333Y-86011561D02*
X148452714Y-85916323D01*
X148452714Y-85916323D02*
X148405095Y-85725847D01*
X148405095Y-85725847D02*
X148405095Y-85582990D01*
X148405095Y-85582990D02*
X148452714Y-85392514D01*
X148452714Y-85392514D02*
X148500333Y-85297276D01*
X148500333Y-85297276D02*
X148595571Y-85202038D01*
X148595571Y-85202038D02*
X148738428Y-85154419D01*
X148738428Y-85154419D02*
X148833666Y-85154419D01*
X148833666Y-85154419D02*
X148976523Y-85202038D01*
X148976523Y-85202038D02*
X149024142Y-85249657D01*
X149976523Y-86154419D02*
X149405095Y-86154419D01*
X149690809Y-86154419D02*
X149690809Y-85154419D01*
X149690809Y-85154419D02*
X149595571Y-85297276D01*
X149595571Y-85297276D02*
X149500333Y-85392514D01*
X149500333Y-85392514D02*
X149405095Y-85440133D01*
X150309857Y-85154419D02*
X150928904Y-85154419D01*
X150928904Y-85154419D02*
X150595571Y-85535371D01*
X150595571Y-85535371D02*
X150738428Y-85535371D01*
X150738428Y-85535371D02*
X150833666Y-85582990D01*
X150833666Y-85582990D02*
X150881285Y-85630609D01*
X150881285Y-85630609D02*
X150928904Y-85725847D01*
X150928904Y-85725847D02*
X150928904Y-85963942D01*
X150928904Y-85963942D02*
X150881285Y-86059180D01*
X150881285Y-86059180D02*
X150833666Y-86106800D01*
X150833666Y-86106800D02*
X150738428Y-86154419D01*
X150738428Y-86154419D02*
X150452714Y-86154419D01*
X150452714Y-86154419D02*
X150357476Y-86106800D01*
X150357476Y-86106800D02*
X150309857Y-86059180D01*
X112922395Y-97262619D02*
X112922395Y-98072142D01*
X112922395Y-98072142D02*
X112970014Y-98167380D01*
X112970014Y-98167380D02*
X113017633Y-98215000D01*
X113017633Y-98215000D02*
X113112871Y-98262619D01*
X113112871Y-98262619D02*
X113303347Y-98262619D01*
X113303347Y-98262619D02*
X113398585Y-98215000D01*
X113398585Y-98215000D02*
X113446204Y-98167380D01*
X113446204Y-98167380D02*
X113493823Y-98072142D01*
X113493823Y-98072142D02*
X113493823Y-97262619D01*
X114398585Y-97262619D02*
X114208109Y-97262619D01*
X114208109Y-97262619D02*
X114112871Y-97310238D01*
X114112871Y-97310238D02*
X114065252Y-97357857D01*
X114065252Y-97357857D02*
X113970014Y-97500714D01*
X113970014Y-97500714D02*
X113922395Y-97691190D01*
X113922395Y-97691190D02*
X113922395Y-98072142D01*
X113922395Y-98072142D02*
X113970014Y-98167380D01*
X113970014Y-98167380D02*
X114017633Y-98215000D01*
X114017633Y-98215000D02*
X114112871Y-98262619D01*
X114112871Y-98262619D02*
X114303347Y-98262619D01*
X114303347Y-98262619D02*
X114398585Y-98215000D01*
X114398585Y-98215000D02*
X114446204Y-98167380D01*
X114446204Y-98167380D02*
X114493823Y-98072142D01*
X114493823Y-98072142D02*
X114493823Y-97834047D01*
X114493823Y-97834047D02*
X114446204Y-97738809D01*
X114446204Y-97738809D02*
X114398585Y-97691190D01*
X114398585Y-97691190D02*
X114303347Y-97643571D01*
X114303347Y-97643571D02*
X114112871Y-97643571D01*
X114112871Y-97643571D02*
X114017633Y-97691190D01*
X114017633Y-97691190D02*
X113970014Y-97738809D01*
X113970014Y-97738809D02*
X113922395Y-97834047D01*
X168190219Y-104370094D02*
X167190219Y-104370094D01*
X167190219Y-104370094D02*
X167190219Y-104131999D01*
X167190219Y-104131999D02*
X167237838Y-103989142D01*
X167237838Y-103989142D02*
X167333076Y-103893904D01*
X167333076Y-103893904D02*
X167428314Y-103846285D01*
X167428314Y-103846285D02*
X167618790Y-103798666D01*
X167618790Y-103798666D02*
X167761647Y-103798666D01*
X167761647Y-103798666D02*
X167952123Y-103846285D01*
X167952123Y-103846285D02*
X168047361Y-103893904D01*
X168047361Y-103893904D02*
X168142600Y-103989142D01*
X168142600Y-103989142D02*
X168190219Y-104131999D01*
X168190219Y-104131999D02*
X168190219Y-104370094D01*
X168190219Y-102846285D02*
X168190219Y-103417713D01*
X168190219Y-103131999D02*
X167190219Y-103131999D01*
X167190219Y-103131999D02*
X167333076Y-103227237D01*
X167333076Y-103227237D02*
X167428314Y-103322475D01*
X167428314Y-103322475D02*
X167475933Y-103417713D01*
X168560219Y-108973904D02*
X167560219Y-108973904D01*
X168560219Y-108402476D02*
X167988790Y-108831047D01*
X167560219Y-108402476D02*
X168131647Y-108973904D01*
X129750780Y-97804266D02*
X129798400Y-97851885D01*
X129798400Y-97851885D02*
X129846019Y-97994742D01*
X129846019Y-97994742D02*
X129846019Y-98089980D01*
X129846019Y-98089980D02*
X129798400Y-98232837D01*
X129798400Y-98232837D02*
X129703161Y-98328075D01*
X129703161Y-98328075D02*
X129607923Y-98375694D01*
X129607923Y-98375694D02*
X129417447Y-98423313D01*
X129417447Y-98423313D02*
X129274590Y-98423313D01*
X129274590Y-98423313D02*
X129084114Y-98375694D01*
X129084114Y-98375694D02*
X128988876Y-98328075D01*
X128988876Y-98328075D02*
X128893638Y-98232837D01*
X128893638Y-98232837D02*
X128846019Y-98089980D01*
X128846019Y-98089980D02*
X128846019Y-97994742D01*
X128846019Y-97994742D02*
X128893638Y-97851885D01*
X128893638Y-97851885D02*
X128941257Y-97804266D01*
X128941257Y-97423313D02*
X128893638Y-97375694D01*
X128893638Y-97375694D02*
X128846019Y-97280456D01*
X128846019Y-97280456D02*
X128846019Y-97042361D01*
X128846019Y-97042361D02*
X128893638Y-96947123D01*
X128893638Y-96947123D02*
X128941257Y-96899504D01*
X128941257Y-96899504D02*
X129036495Y-96851885D01*
X129036495Y-96851885D02*
X129131733Y-96851885D01*
X129131733Y-96851885D02*
X129274590Y-96899504D01*
X129274590Y-96899504D02*
X129846019Y-97470932D01*
X129846019Y-97470932D02*
X129846019Y-96851885D01*
X113053595Y-105212819D02*
X113053595Y-106022342D01*
X113053595Y-106022342D02*
X113101214Y-106117580D01*
X113101214Y-106117580D02*
X113148833Y-106165200D01*
X113148833Y-106165200D02*
X113244071Y-106212819D01*
X113244071Y-106212819D02*
X113434547Y-106212819D01*
X113434547Y-106212819D02*
X113529785Y-106165200D01*
X113529785Y-106165200D02*
X113577404Y-106117580D01*
X113577404Y-106117580D02*
X113625023Y-106022342D01*
X113625023Y-106022342D02*
X113625023Y-105212819D01*
X114577404Y-105212819D02*
X114101214Y-105212819D01*
X114101214Y-105212819D02*
X114053595Y-105689009D01*
X114053595Y-105689009D02*
X114101214Y-105641390D01*
X114101214Y-105641390D02*
X114196452Y-105593771D01*
X114196452Y-105593771D02*
X114434547Y-105593771D01*
X114434547Y-105593771D02*
X114529785Y-105641390D01*
X114529785Y-105641390D02*
X114577404Y-105689009D01*
X114577404Y-105689009D02*
X114625023Y-105784247D01*
X114625023Y-105784247D02*
X114625023Y-106022342D01*
X114625023Y-106022342D02*
X114577404Y-106117580D01*
X114577404Y-106117580D02*
X114529785Y-106165200D01*
X114529785Y-106165200D02*
X114434547Y-106212819D01*
X114434547Y-106212819D02*
X114196452Y-106212819D01*
X114196452Y-106212819D02*
X114101214Y-106165200D01*
X114101214Y-106165200D02*
X114053595Y-106117580D01*
X134213695Y-76340619D02*
X134213695Y-77150142D01*
X134213695Y-77150142D02*
X134261314Y-77245380D01*
X134261314Y-77245380D02*
X134308933Y-77293000D01*
X134308933Y-77293000D02*
X134404171Y-77340619D01*
X134404171Y-77340619D02*
X134594647Y-77340619D01*
X134594647Y-77340619D02*
X134689885Y-77293000D01*
X134689885Y-77293000D02*
X134737504Y-77245380D01*
X134737504Y-77245380D02*
X134785123Y-77150142D01*
X134785123Y-77150142D02*
X134785123Y-76340619D01*
X135785123Y-77340619D02*
X135213695Y-77340619D01*
X135499409Y-77340619D02*
X135499409Y-76340619D01*
X135499409Y-76340619D02*
X135404171Y-76483476D01*
X135404171Y-76483476D02*
X135308933Y-76578714D01*
X135308933Y-76578714D02*
X135213695Y-76626333D01*
X119989695Y-74773419D02*
X119989695Y-75582942D01*
X119989695Y-75582942D02*
X120037314Y-75678180D01*
X120037314Y-75678180D02*
X120084933Y-75725800D01*
X120084933Y-75725800D02*
X120180171Y-75773419D01*
X120180171Y-75773419D02*
X120370647Y-75773419D01*
X120370647Y-75773419D02*
X120465885Y-75725800D01*
X120465885Y-75725800D02*
X120513504Y-75678180D01*
X120513504Y-75678180D02*
X120561123Y-75582942D01*
X120561123Y-75582942D02*
X120561123Y-74773419D01*
X121084933Y-75773419D02*
X121275409Y-75773419D01*
X121275409Y-75773419D02*
X121370647Y-75725800D01*
X121370647Y-75725800D02*
X121418266Y-75678180D01*
X121418266Y-75678180D02*
X121513504Y-75535323D01*
X121513504Y-75535323D02*
X121561123Y-75344847D01*
X121561123Y-75344847D02*
X121561123Y-74963895D01*
X121561123Y-74963895D02*
X121513504Y-74868657D01*
X121513504Y-74868657D02*
X121465885Y-74821038D01*
X121465885Y-74821038D02*
X121370647Y-74773419D01*
X121370647Y-74773419D02*
X121180171Y-74773419D01*
X121180171Y-74773419D02*
X121084933Y-74821038D01*
X121084933Y-74821038D02*
X121037314Y-74868657D01*
X121037314Y-74868657D02*
X120989695Y-74963895D01*
X120989695Y-74963895D02*
X120989695Y-75201990D01*
X120989695Y-75201990D02*
X121037314Y-75297228D01*
X121037314Y-75297228D02*
X121084933Y-75344847D01*
X121084933Y-75344847D02*
X121180171Y-75392466D01*
X121180171Y-75392466D02*
X121370647Y-75392466D01*
X121370647Y-75392466D02*
X121465885Y-75344847D01*
X121465885Y-75344847D02*
X121513504Y-75297228D01*
X121513504Y-75297228D02*
X121561123Y-75201990D01*
X138335980Y-67114657D02*
X138383600Y-67162276D01*
X138383600Y-67162276D02*
X138431219Y-67305133D01*
X138431219Y-67305133D02*
X138431219Y-67400371D01*
X138431219Y-67400371D02*
X138383600Y-67543228D01*
X138383600Y-67543228D02*
X138288361Y-67638466D01*
X138288361Y-67638466D02*
X138193123Y-67686085D01*
X138193123Y-67686085D02*
X138002647Y-67733704D01*
X138002647Y-67733704D02*
X137859790Y-67733704D01*
X137859790Y-67733704D02*
X137669314Y-67686085D01*
X137669314Y-67686085D02*
X137574076Y-67638466D01*
X137574076Y-67638466D02*
X137478838Y-67543228D01*
X137478838Y-67543228D02*
X137431219Y-67400371D01*
X137431219Y-67400371D02*
X137431219Y-67305133D01*
X137431219Y-67305133D02*
X137478838Y-67162276D01*
X137478838Y-67162276D02*
X137526457Y-67114657D01*
X138431219Y-66162276D02*
X138431219Y-66733704D01*
X138431219Y-66447990D02*
X137431219Y-66447990D01*
X137431219Y-66447990D02*
X137574076Y-66543228D01*
X137574076Y-66543228D02*
X137669314Y-66638466D01*
X137669314Y-66638466D02*
X137716933Y-66733704D01*
X138431219Y-65686085D02*
X138431219Y-65495609D01*
X138431219Y-65495609D02*
X138383600Y-65400371D01*
X138383600Y-65400371D02*
X138335980Y-65352752D01*
X138335980Y-65352752D02*
X138193123Y-65257514D01*
X138193123Y-65257514D02*
X138002647Y-65209895D01*
X138002647Y-65209895D02*
X137621695Y-65209895D01*
X137621695Y-65209895D02*
X137526457Y-65257514D01*
X137526457Y-65257514D02*
X137478838Y-65305133D01*
X137478838Y-65305133D02*
X137431219Y-65400371D01*
X137431219Y-65400371D02*
X137431219Y-65590847D01*
X137431219Y-65590847D02*
X137478838Y-65686085D01*
X137478838Y-65686085D02*
X137526457Y-65733704D01*
X137526457Y-65733704D02*
X137621695Y-65781323D01*
X137621695Y-65781323D02*
X137859790Y-65781323D01*
X137859790Y-65781323D02*
X137955028Y-65733704D01*
X137955028Y-65733704D02*
X138002647Y-65686085D01*
X138002647Y-65686085D02*
X138050266Y-65590847D01*
X138050266Y-65590847D02*
X138050266Y-65400371D01*
X138050266Y-65400371D02*
X138002647Y-65305133D01*
X138002647Y-65305133D02*
X137955028Y-65257514D01*
X137955028Y-65257514D02*
X137859790Y-65209895D01*
X102246133Y-98220419D02*
X101912800Y-97744228D01*
X101674705Y-98220419D02*
X101674705Y-97220419D01*
X101674705Y-97220419D02*
X102055657Y-97220419D01*
X102055657Y-97220419D02*
X102150895Y-97268038D01*
X102150895Y-97268038D02*
X102198514Y-97315657D01*
X102198514Y-97315657D02*
X102246133Y-97410895D01*
X102246133Y-97410895D02*
X102246133Y-97553752D01*
X102246133Y-97553752D02*
X102198514Y-97648990D01*
X102198514Y-97648990D02*
X102150895Y-97696609D01*
X102150895Y-97696609D02*
X102055657Y-97744228D01*
X102055657Y-97744228D02*
X101674705Y-97744228D01*
X102817562Y-97648990D02*
X102722324Y-97601371D01*
X102722324Y-97601371D02*
X102674705Y-97553752D01*
X102674705Y-97553752D02*
X102627086Y-97458514D01*
X102627086Y-97458514D02*
X102627086Y-97410895D01*
X102627086Y-97410895D02*
X102674705Y-97315657D01*
X102674705Y-97315657D02*
X102722324Y-97268038D01*
X102722324Y-97268038D02*
X102817562Y-97220419D01*
X102817562Y-97220419D02*
X103008038Y-97220419D01*
X103008038Y-97220419D02*
X103103276Y-97268038D01*
X103103276Y-97268038D02*
X103150895Y-97315657D01*
X103150895Y-97315657D02*
X103198514Y-97410895D01*
X103198514Y-97410895D02*
X103198514Y-97458514D01*
X103198514Y-97458514D02*
X103150895Y-97553752D01*
X103150895Y-97553752D02*
X103103276Y-97601371D01*
X103103276Y-97601371D02*
X103008038Y-97648990D01*
X103008038Y-97648990D02*
X102817562Y-97648990D01*
X102817562Y-97648990D02*
X102722324Y-97696609D01*
X102722324Y-97696609D02*
X102674705Y-97744228D01*
X102674705Y-97744228D02*
X102627086Y-97839466D01*
X102627086Y-97839466D02*
X102627086Y-98029942D01*
X102627086Y-98029942D02*
X102674705Y-98125180D01*
X102674705Y-98125180D02*
X102722324Y-98172800D01*
X102722324Y-98172800D02*
X102817562Y-98220419D01*
X102817562Y-98220419D02*
X103008038Y-98220419D01*
X103008038Y-98220419D02*
X103103276Y-98172800D01*
X103103276Y-98172800D02*
X103150895Y-98125180D01*
X103150895Y-98125180D02*
X103198514Y-98029942D01*
X103198514Y-98029942D02*
X103198514Y-97839466D01*
X103198514Y-97839466D02*
X103150895Y-97744228D01*
X103150895Y-97744228D02*
X103103276Y-97696609D01*
X103103276Y-97696609D02*
X103008038Y-97648990D01*
X115677192Y-81798469D02*
X115343859Y-81322278D01*
X115105764Y-81798469D02*
X115105764Y-80798469D01*
X115105764Y-80798469D02*
X115486716Y-80798469D01*
X115486716Y-80798469D02*
X115581954Y-80846088D01*
X115581954Y-80846088D02*
X115629573Y-80893707D01*
X115629573Y-80893707D02*
X115677192Y-80988945D01*
X115677192Y-80988945D02*
X115677192Y-81131802D01*
X115677192Y-81131802D02*
X115629573Y-81227040D01*
X115629573Y-81227040D02*
X115581954Y-81274659D01*
X115581954Y-81274659D02*
X115486716Y-81322278D01*
X115486716Y-81322278D02*
X115105764Y-81322278D01*
X116058145Y-80893707D02*
X116105764Y-80846088D01*
X116105764Y-80846088D02*
X116201002Y-80798469D01*
X116201002Y-80798469D02*
X116439097Y-80798469D01*
X116439097Y-80798469D02*
X116534335Y-80846088D01*
X116534335Y-80846088D02*
X116581954Y-80893707D01*
X116581954Y-80893707D02*
X116629573Y-80988945D01*
X116629573Y-80988945D02*
X116629573Y-81084183D01*
X116629573Y-81084183D02*
X116581954Y-81227040D01*
X116581954Y-81227040D02*
X116010526Y-81798469D01*
X116010526Y-81798469D02*
X116629573Y-81798469D01*
X117248621Y-80798469D02*
X117343859Y-80798469D01*
X117343859Y-80798469D02*
X117439097Y-80846088D01*
X117439097Y-80846088D02*
X117486716Y-80893707D01*
X117486716Y-80893707D02*
X117534335Y-80988945D01*
X117534335Y-80988945D02*
X117581954Y-81179421D01*
X117581954Y-81179421D02*
X117581954Y-81417516D01*
X117581954Y-81417516D02*
X117534335Y-81607992D01*
X117534335Y-81607992D02*
X117486716Y-81703230D01*
X117486716Y-81703230D02*
X117439097Y-81750850D01*
X117439097Y-81750850D02*
X117343859Y-81798469D01*
X117343859Y-81798469D02*
X117248621Y-81798469D01*
X117248621Y-81798469D02*
X117153383Y-81750850D01*
X117153383Y-81750850D02*
X117105764Y-81703230D01*
X117105764Y-81703230D02*
X117058145Y-81607992D01*
X117058145Y-81607992D02*
X117010526Y-81417516D01*
X117010526Y-81417516D02*
X117010526Y-81179421D01*
X117010526Y-81179421D02*
X117058145Y-80988945D01*
X117058145Y-80988945D02*
X117105764Y-80893707D01*
X117105764Y-80893707D02*
X117153383Y-80846088D01*
X117153383Y-80846088D02*
X117248621Y-80798469D01*
X176363333Y-96973819D02*
X176030000Y-96497628D01*
X175791905Y-96973819D02*
X175791905Y-95973819D01*
X175791905Y-95973819D02*
X176172857Y-95973819D01*
X176172857Y-95973819D02*
X176268095Y-96021438D01*
X176268095Y-96021438D02*
X176315714Y-96069057D01*
X176315714Y-96069057D02*
X176363333Y-96164295D01*
X176363333Y-96164295D02*
X176363333Y-96307152D01*
X176363333Y-96307152D02*
X176315714Y-96402390D01*
X176315714Y-96402390D02*
X176268095Y-96450009D01*
X176268095Y-96450009D02*
X176172857Y-96497628D01*
X176172857Y-96497628D02*
X175791905Y-96497628D01*
X177220476Y-96307152D02*
X177220476Y-96973819D01*
X176982381Y-95926200D02*
X176744286Y-96640485D01*
X176744286Y-96640485D02*
X177363333Y-96640485D01*
X148516793Y-68296780D02*
X148469174Y-68344400D01*
X148469174Y-68344400D02*
X148326317Y-68392019D01*
X148326317Y-68392019D02*
X148231079Y-68392019D01*
X148231079Y-68392019D02*
X148088222Y-68344400D01*
X148088222Y-68344400D02*
X147992984Y-68249161D01*
X147992984Y-68249161D02*
X147945365Y-68153923D01*
X147945365Y-68153923D02*
X147897746Y-67963447D01*
X147897746Y-67963447D02*
X147897746Y-67820590D01*
X147897746Y-67820590D02*
X147945365Y-67630114D01*
X147945365Y-67630114D02*
X147992984Y-67534876D01*
X147992984Y-67534876D02*
X148088222Y-67439638D01*
X148088222Y-67439638D02*
X148231079Y-67392019D01*
X148231079Y-67392019D02*
X148326317Y-67392019D01*
X148326317Y-67392019D02*
X148469174Y-67439638D01*
X148469174Y-67439638D02*
X148516793Y-67487257D01*
X148897746Y-67487257D02*
X148945365Y-67439638D01*
X148945365Y-67439638D02*
X149040603Y-67392019D01*
X149040603Y-67392019D02*
X149278698Y-67392019D01*
X149278698Y-67392019D02*
X149373936Y-67439638D01*
X149373936Y-67439638D02*
X149421555Y-67487257D01*
X149421555Y-67487257D02*
X149469174Y-67582495D01*
X149469174Y-67582495D02*
X149469174Y-67677733D01*
X149469174Y-67677733D02*
X149421555Y-67820590D01*
X149421555Y-67820590D02*
X148850127Y-68392019D01*
X148850127Y-68392019D02*
X149469174Y-68392019D01*
X149850127Y-67487257D02*
X149897746Y-67439638D01*
X149897746Y-67439638D02*
X149992984Y-67392019D01*
X149992984Y-67392019D02*
X150231079Y-67392019D01*
X150231079Y-67392019D02*
X150326317Y-67439638D01*
X150326317Y-67439638D02*
X150373936Y-67487257D01*
X150373936Y-67487257D02*
X150421555Y-67582495D01*
X150421555Y-67582495D02*
X150421555Y-67677733D01*
X150421555Y-67677733D02*
X150373936Y-67820590D01*
X150373936Y-67820590D02*
X149802508Y-68392019D01*
X149802508Y-68392019D02*
X150421555Y-68392019D01*
X166965333Y-92031780D02*
X166917714Y-92079400D01*
X166917714Y-92079400D02*
X166774857Y-92127019D01*
X166774857Y-92127019D02*
X166679619Y-92127019D01*
X166679619Y-92127019D02*
X166536762Y-92079400D01*
X166536762Y-92079400D02*
X166441524Y-91984161D01*
X166441524Y-91984161D02*
X166393905Y-91888923D01*
X166393905Y-91888923D02*
X166346286Y-91698447D01*
X166346286Y-91698447D02*
X166346286Y-91555590D01*
X166346286Y-91555590D02*
X166393905Y-91365114D01*
X166393905Y-91365114D02*
X166441524Y-91269876D01*
X166441524Y-91269876D02*
X166536762Y-91174638D01*
X166536762Y-91174638D02*
X166679619Y-91127019D01*
X166679619Y-91127019D02*
X166774857Y-91127019D01*
X166774857Y-91127019D02*
X166917714Y-91174638D01*
X166917714Y-91174638D02*
X166965333Y-91222257D01*
X167298667Y-91127019D02*
X167965333Y-91127019D01*
X167965333Y-91127019D02*
X167536762Y-92127019D01*
X174191705Y-72743219D02*
X174191705Y-71743219D01*
X174191705Y-71743219D02*
X174429800Y-71743219D01*
X174429800Y-71743219D02*
X174572657Y-71790838D01*
X174572657Y-71790838D02*
X174667895Y-71886076D01*
X174667895Y-71886076D02*
X174715514Y-71981314D01*
X174715514Y-71981314D02*
X174763133Y-72171790D01*
X174763133Y-72171790D02*
X174763133Y-72314647D01*
X174763133Y-72314647D02*
X174715514Y-72505123D01*
X174715514Y-72505123D02*
X174667895Y-72600361D01*
X174667895Y-72600361D02*
X174572657Y-72695600D01*
X174572657Y-72695600D02*
X174429800Y-72743219D01*
X174429800Y-72743219D02*
X174191705Y-72743219D01*
X175096467Y-71743219D02*
X175715514Y-71743219D01*
X175715514Y-71743219D02*
X175382181Y-72124171D01*
X175382181Y-72124171D02*
X175525038Y-72124171D01*
X175525038Y-72124171D02*
X175620276Y-72171790D01*
X175620276Y-72171790D02*
X175667895Y-72219409D01*
X175667895Y-72219409D02*
X175715514Y-72314647D01*
X175715514Y-72314647D02*
X175715514Y-72552742D01*
X175715514Y-72552742D02*
X175667895Y-72647980D01*
X175667895Y-72647980D02*
X175620276Y-72695600D01*
X175620276Y-72695600D02*
X175525038Y-72743219D01*
X175525038Y-72743219D02*
X175239324Y-72743219D01*
X175239324Y-72743219D02*
X175144086Y-72695600D01*
X175144086Y-72695600D02*
X175096467Y-72647980D01*
X126720980Y-82676066D02*
X126768600Y-82723685D01*
X126768600Y-82723685D02*
X126816219Y-82866542D01*
X126816219Y-82866542D02*
X126816219Y-82961780D01*
X126816219Y-82961780D02*
X126768600Y-83104637D01*
X126768600Y-83104637D02*
X126673361Y-83199875D01*
X126673361Y-83199875D02*
X126578123Y-83247494D01*
X126578123Y-83247494D02*
X126387647Y-83295113D01*
X126387647Y-83295113D02*
X126244790Y-83295113D01*
X126244790Y-83295113D02*
X126054314Y-83247494D01*
X126054314Y-83247494D02*
X125959076Y-83199875D01*
X125959076Y-83199875D02*
X125863838Y-83104637D01*
X125863838Y-83104637D02*
X125816219Y-82961780D01*
X125816219Y-82961780D02*
X125816219Y-82866542D01*
X125816219Y-82866542D02*
X125863838Y-82723685D01*
X125863838Y-82723685D02*
X125911457Y-82676066D01*
X125816219Y-82342732D02*
X125816219Y-81723685D01*
X125816219Y-81723685D02*
X126197171Y-82057018D01*
X126197171Y-82057018D02*
X126197171Y-81914161D01*
X126197171Y-81914161D02*
X126244790Y-81818923D01*
X126244790Y-81818923D02*
X126292409Y-81771304D01*
X126292409Y-81771304D02*
X126387647Y-81723685D01*
X126387647Y-81723685D02*
X126625742Y-81723685D01*
X126625742Y-81723685D02*
X126720980Y-81771304D01*
X126720980Y-81771304D02*
X126768600Y-81818923D01*
X126768600Y-81818923D02*
X126816219Y-81914161D01*
X126816219Y-81914161D02*
X126816219Y-82199875D01*
X126816219Y-82199875D02*
X126768600Y-82295113D01*
X126768600Y-82295113D02*
X126720980Y-82342732D01*
X164213380Y-64010534D02*
X164261000Y-64058153D01*
X164261000Y-64058153D02*
X164308619Y-64201010D01*
X164308619Y-64201010D02*
X164308619Y-64296248D01*
X164308619Y-64296248D02*
X164261000Y-64439105D01*
X164261000Y-64439105D02*
X164165761Y-64534343D01*
X164165761Y-64534343D02*
X164070523Y-64581962D01*
X164070523Y-64581962D02*
X163880047Y-64629581D01*
X163880047Y-64629581D02*
X163737190Y-64629581D01*
X163737190Y-64629581D02*
X163546714Y-64581962D01*
X163546714Y-64581962D02*
X163451476Y-64534343D01*
X163451476Y-64534343D02*
X163356238Y-64439105D01*
X163356238Y-64439105D02*
X163308619Y-64296248D01*
X163308619Y-64296248D02*
X163308619Y-64201010D01*
X163308619Y-64201010D02*
X163356238Y-64058153D01*
X163356238Y-64058153D02*
X163403857Y-64010534D01*
X163403857Y-63629581D02*
X163356238Y-63581962D01*
X163356238Y-63581962D02*
X163308619Y-63486724D01*
X163308619Y-63486724D02*
X163308619Y-63248629D01*
X163308619Y-63248629D02*
X163356238Y-63153391D01*
X163356238Y-63153391D02*
X163403857Y-63105772D01*
X163403857Y-63105772D02*
X163499095Y-63058153D01*
X163499095Y-63058153D02*
X163594333Y-63058153D01*
X163594333Y-63058153D02*
X163737190Y-63105772D01*
X163737190Y-63105772D02*
X164308619Y-63677200D01*
X164308619Y-63677200D02*
X164308619Y-63058153D01*
X163308619Y-62439105D02*
X163308619Y-62343867D01*
X163308619Y-62343867D02*
X163356238Y-62248629D01*
X163356238Y-62248629D02*
X163403857Y-62201010D01*
X163403857Y-62201010D02*
X163499095Y-62153391D01*
X163499095Y-62153391D02*
X163689571Y-62105772D01*
X163689571Y-62105772D02*
X163927666Y-62105772D01*
X163927666Y-62105772D02*
X164118142Y-62153391D01*
X164118142Y-62153391D02*
X164213380Y-62201010D01*
X164213380Y-62201010D02*
X164261000Y-62248629D01*
X164261000Y-62248629D02*
X164308619Y-62343867D01*
X164308619Y-62343867D02*
X164308619Y-62439105D01*
X164308619Y-62439105D02*
X164261000Y-62534343D01*
X164261000Y-62534343D02*
X164213380Y-62581962D01*
X164213380Y-62581962D02*
X164118142Y-62629581D01*
X164118142Y-62629581D02*
X163927666Y-62677200D01*
X163927666Y-62677200D02*
X163689571Y-62677200D01*
X163689571Y-62677200D02*
X163499095Y-62629581D01*
X163499095Y-62629581D02*
X163403857Y-62581962D01*
X163403857Y-62581962D02*
X163356238Y-62534343D01*
X163356238Y-62534343D02*
X163308619Y-62439105D01*
X98972019Y-71529533D02*
X99686304Y-71529533D01*
X99686304Y-71529533D02*
X99829161Y-71577152D01*
X99829161Y-71577152D02*
X99924400Y-71672390D01*
X99924400Y-71672390D02*
X99972019Y-71815247D01*
X99972019Y-71815247D02*
X99972019Y-71910485D01*
X99305352Y-70624771D02*
X99972019Y-70624771D01*
X98924400Y-70862866D02*
X99638685Y-71100961D01*
X99638685Y-71100961D02*
X99638685Y-70481914D01*
X132148342Y-67890819D02*
X131815009Y-67414628D01*
X131576914Y-67890819D02*
X131576914Y-66890819D01*
X131576914Y-66890819D02*
X131957866Y-66890819D01*
X131957866Y-66890819D02*
X132053104Y-66938438D01*
X132053104Y-66938438D02*
X132100723Y-66986057D01*
X132100723Y-66986057D02*
X132148342Y-67081295D01*
X132148342Y-67081295D02*
X132148342Y-67224152D01*
X132148342Y-67224152D02*
X132100723Y-67319390D01*
X132100723Y-67319390D02*
X132053104Y-67367009D01*
X132053104Y-67367009D02*
X131957866Y-67414628D01*
X131957866Y-67414628D02*
X131576914Y-67414628D01*
X133100723Y-67890819D02*
X132529295Y-67890819D01*
X132815009Y-67890819D02*
X132815009Y-66890819D01*
X132815009Y-66890819D02*
X132719771Y-67033676D01*
X132719771Y-67033676D02*
X132624533Y-67128914D01*
X132624533Y-67128914D02*
X132529295Y-67176533D01*
X134005485Y-66890819D02*
X133529295Y-66890819D01*
X133529295Y-66890819D02*
X133481676Y-67367009D01*
X133481676Y-67367009D02*
X133529295Y-67319390D01*
X133529295Y-67319390D02*
X133624533Y-67271771D01*
X133624533Y-67271771D02*
X133862628Y-67271771D01*
X133862628Y-67271771D02*
X133957866Y-67319390D01*
X133957866Y-67319390D02*
X134005485Y-67367009D01*
X134005485Y-67367009D02*
X134053104Y-67462247D01*
X134053104Y-67462247D02*
X134053104Y-67700342D01*
X134053104Y-67700342D02*
X134005485Y-67795580D01*
X134005485Y-67795580D02*
X133957866Y-67843200D01*
X133957866Y-67843200D02*
X133862628Y-67890819D01*
X133862628Y-67890819D02*
X133624533Y-67890819D01*
X133624533Y-67890819D02*
X133529295Y-67843200D01*
X133529295Y-67843200D02*
X133481676Y-67795580D01*
X173569333Y-90199380D02*
X173521714Y-90247000D01*
X173521714Y-90247000D02*
X173378857Y-90294619D01*
X173378857Y-90294619D02*
X173283619Y-90294619D01*
X173283619Y-90294619D02*
X173140762Y-90247000D01*
X173140762Y-90247000D02*
X173045524Y-90151761D01*
X173045524Y-90151761D02*
X172997905Y-90056523D01*
X172997905Y-90056523D02*
X172950286Y-89866047D01*
X172950286Y-89866047D02*
X172950286Y-89723190D01*
X172950286Y-89723190D02*
X172997905Y-89532714D01*
X172997905Y-89532714D02*
X173045524Y-89437476D01*
X173045524Y-89437476D02*
X173140762Y-89342238D01*
X173140762Y-89342238D02*
X173283619Y-89294619D01*
X173283619Y-89294619D02*
X173378857Y-89294619D01*
X173378857Y-89294619D02*
X173521714Y-89342238D01*
X173521714Y-89342238D02*
X173569333Y-89389857D01*
X174045524Y-90294619D02*
X174236000Y-90294619D01*
X174236000Y-90294619D02*
X174331238Y-90247000D01*
X174331238Y-90247000D02*
X174378857Y-90199380D01*
X174378857Y-90199380D02*
X174474095Y-90056523D01*
X174474095Y-90056523D02*
X174521714Y-89866047D01*
X174521714Y-89866047D02*
X174521714Y-89485095D01*
X174521714Y-89485095D02*
X174474095Y-89389857D01*
X174474095Y-89389857D02*
X174426476Y-89342238D01*
X174426476Y-89342238D02*
X174331238Y-89294619D01*
X174331238Y-89294619D02*
X174140762Y-89294619D01*
X174140762Y-89294619D02*
X174045524Y-89342238D01*
X174045524Y-89342238D02*
X173997905Y-89389857D01*
X173997905Y-89389857D02*
X173950286Y-89485095D01*
X173950286Y-89485095D02*
X173950286Y-89723190D01*
X173950286Y-89723190D02*
X173997905Y-89818428D01*
X173997905Y-89818428D02*
X174045524Y-89866047D01*
X174045524Y-89866047D02*
X174140762Y-89913666D01*
X174140762Y-89913666D02*
X174331238Y-89913666D01*
X174331238Y-89913666D02*
X174426476Y-89866047D01*
X174426476Y-89866047D02*
X174474095Y-89818428D01*
X174474095Y-89818428D02*
X174521714Y-89723190D01*
X145940542Y-111705819D02*
X145607209Y-111229628D01*
X145369114Y-111705819D02*
X145369114Y-110705819D01*
X145369114Y-110705819D02*
X145750066Y-110705819D01*
X145750066Y-110705819D02*
X145845304Y-110753438D01*
X145845304Y-110753438D02*
X145892923Y-110801057D01*
X145892923Y-110801057D02*
X145940542Y-110896295D01*
X145940542Y-110896295D02*
X145940542Y-111039152D01*
X145940542Y-111039152D02*
X145892923Y-111134390D01*
X145892923Y-111134390D02*
X145845304Y-111182009D01*
X145845304Y-111182009D02*
X145750066Y-111229628D01*
X145750066Y-111229628D02*
X145369114Y-111229628D01*
X146892923Y-111705819D02*
X146321495Y-111705819D01*
X146607209Y-111705819D02*
X146607209Y-110705819D01*
X146607209Y-110705819D02*
X146511971Y-110848676D01*
X146511971Y-110848676D02*
X146416733Y-110943914D01*
X146416733Y-110943914D02*
X146321495Y-110991533D01*
X147750066Y-110705819D02*
X147559590Y-110705819D01*
X147559590Y-110705819D02*
X147464352Y-110753438D01*
X147464352Y-110753438D02*
X147416733Y-110801057D01*
X147416733Y-110801057D02*
X147321495Y-110943914D01*
X147321495Y-110943914D02*
X147273876Y-111134390D01*
X147273876Y-111134390D02*
X147273876Y-111515342D01*
X147273876Y-111515342D02*
X147321495Y-111610580D01*
X147321495Y-111610580D02*
X147369114Y-111658200D01*
X147369114Y-111658200D02*
X147464352Y-111705819D01*
X147464352Y-111705819D02*
X147654828Y-111705819D01*
X147654828Y-111705819D02*
X147750066Y-111658200D01*
X147750066Y-111658200D02*
X147797685Y-111610580D01*
X147797685Y-111610580D02*
X147845304Y-111515342D01*
X147845304Y-111515342D02*
X147845304Y-111277247D01*
X147845304Y-111277247D02*
X147797685Y-111182009D01*
X147797685Y-111182009D02*
X147750066Y-111134390D01*
X147750066Y-111134390D02*
X147654828Y-111086771D01*
X147654828Y-111086771D02*
X147464352Y-111086771D01*
X147464352Y-111086771D02*
X147369114Y-111134390D01*
X147369114Y-111134390D02*
X147321495Y-111182009D01*
X147321495Y-111182009D02*
X147273876Y-111277247D01*
X106164142Y-89940019D02*
X105830809Y-89463828D01*
X105592714Y-89940019D02*
X105592714Y-88940019D01*
X105592714Y-88940019D02*
X105973666Y-88940019D01*
X105973666Y-88940019D02*
X106068904Y-88987638D01*
X106068904Y-88987638D02*
X106116523Y-89035257D01*
X106116523Y-89035257D02*
X106164142Y-89130495D01*
X106164142Y-89130495D02*
X106164142Y-89273352D01*
X106164142Y-89273352D02*
X106116523Y-89368590D01*
X106116523Y-89368590D02*
X106068904Y-89416209D01*
X106068904Y-89416209D02*
X105973666Y-89463828D01*
X105973666Y-89463828D02*
X105592714Y-89463828D01*
X107116523Y-89940019D02*
X106545095Y-89940019D01*
X106830809Y-89940019D02*
X106830809Y-88940019D01*
X106830809Y-88940019D02*
X106735571Y-89082876D01*
X106735571Y-89082876D02*
X106640333Y-89178114D01*
X106640333Y-89178114D02*
X106545095Y-89225733D01*
X107973666Y-89273352D02*
X107973666Y-89940019D01*
X107735571Y-88892400D02*
X107497476Y-89606685D01*
X107497476Y-89606685D02*
X108116523Y-89606685D01*
X172542580Y-83681866D02*
X172590200Y-83729485D01*
X172590200Y-83729485D02*
X172637819Y-83872342D01*
X172637819Y-83872342D02*
X172637819Y-83967580D01*
X172637819Y-83967580D02*
X172590200Y-84110437D01*
X172590200Y-84110437D02*
X172494961Y-84205675D01*
X172494961Y-84205675D02*
X172399723Y-84253294D01*
X172399723Y-84253294D02*
X172209247Y-84300913D01*
X172209247Y-84300913D02*
X172066390Y-84300913D01*
X172066390Y-84300913D02*
X171875914Y-84253294D01*
X171875914Y-84253294D02*
X171780676Y-84205675D01*
X171780676Y-84205675D02*
X171685438Y-84110437D01*
X171685438Y-84110437D02*
X171637819Y-83967580D01*
X171637819Y-83967580D02*
X171637819Y-83872342D01*
X171637819Y-83872342D02*
X171685438Y-83729485D01*
X171685438Y-83729485D02*
X171733057Y-83681866D01*
X172066390Y-83110437D02*
X172018771Y-83205675D01*
X172018771Y-83205675D02*
X171971152Y-83253294D01*
X171971152Y-83253294D02*
X171875914Y-83300913D01*
X171875914Y-83300913D02*
X171828295Y-83300913D01*
X171828295Y-83300913D02*
X171733057Y-83253294D01*
X171733057Y-83253294D02*
X171685438Y-83205675D01*
X171685438Y-83205675D02*
X171637819Y-83110437D01*
X171637819Y-83110437D02*
X171637819Y-82919961D01*
X171637819Y-82919961D02*
X171685438Y-82824723D01*
X171685438Y-82824723D02*
X171733057Y-82777104D01*
X171733057Y-82777104D02*
X171828295Y-82729485D01*
X171828295Y-82729485D02*
X171875914Y-82729485D01*
X171875914Y-82729485D02*
X171971152Y-82777104D01*
X171971152Y-82777104D02*
X172018771Y-82824723D01*
X172018771Y-82824723D02*
X172066390Y-82919961D01*
X172066390Y-82919961D02*
X172066390Y-83110437D01*
X172066390Y-83110437D02*
X172114009Y-83205675D01*
X172114009Y-83205675D02*
X172161628Y-83253294D01*
X172161628Y-83253294D02*
X172256866Y-83300913D01*
X172256866Y-83300913D02*
X172447342Y-83300913D01*
X172447342Y-83300913D02*
X172542580Y-83253294D01*
X172542580Y-83253294D02*
X172590200Y-83205675D01*
X172590200Y-83205675D02*
X172637819Y-83110437D01*
X172637819Y-83110437D02*
X172637819Y-82919961D01*
X172637819Y-82919961D02*
X172590200Y-82824723D01*
X172590200Y-82824723D02*
X172542580Y-82777104D01*
X172542580Y-82777104D02*
X172447342Y-82729485D01*
X172447342Y-82729485D02*
X172256866Y-82729485D01*
X172256866Y-82729485D02*
X172161628Y-82777104D01*
X172161628Y-82777104D02*
X172114009Y-82824723D01*
X172114009Y-82824723D02*
X172066390Y-82919961D01*
X138030419Y-62766533D02*
X138744704Y-62766533D01*
X138744704Y-62766533D02*
X138887561Y-62814152D01*
X138887561Y-62814152D02*
X138982800Y-62909390D01*
X138982800Y-62909390D02*
X139030419Y-63052247D01*
X139030419Y-63052247D02*
X139030419Y-63147485D01*
X138030419Y-61814152D02*
X138030419Y-62290342D01*
X138030419Y-62290342D02*
X138506609Y-62337961D01*
X138506609Y-62337961D02*
X138458990Y-62290342D01*
X138458990Y-62290342D02*
X138411371Y-62195104D01*
X138411371Y-62195104D02*
X138411371Y-61957009D01*
X138411371Y-61957009D02*
X138458990Y-61861771D01*
X138458990Y-61861771D02*
X138506609Y-61814152D01*
X138506609Y-61814152D02*
X138601847Y-61766533D01*
X138601847Y-61766533D02*
X138839942Y-61766533D01*
X138839942Y-61766533D02*
X138935180Y-61814152D01*
X138935180Y-61814152D02*
X138982800Y-61861771D01*
X138982800Y-61861771D02*
X139030419Y-61957009D01*
X139030419Y-61957009D02*
X139030419Y-62195104D01*
X139030419Y-62195104D02*
X138982800Y-62290342D01*
X138982800Y-62290342D02*
X138935180Y-62337961D01*
X111371142Y-76653819D02*
X111037809Y-76177628D01*
X110799714Y-76653819D02*
X110799714Y-75653819D01*
X110799714Y-75653819D02*
X111180666Y-75653819D01*
X111180666Y-75653819D02*
X111275904Y-75701438D01*
X111275904Y-75701438D02*
X111323523Y-75749057D01*
X111323523Y-75749057D02*
X111371142Y-75844295D01*
X111371142Y-75844295D02*
X111371142Y-75987152D01*
X111371142Y-75987152D02*
X111323523Y-76082390D01*
X111323523Y-76082390D02*
X111275904Y-76130009D01*
X111275904Y-76130009D02*
X111180666Y-76177628D01*
X111180666Y-76177628D02*
X110799714Y-76177628D01*
X111752095Y-75749057D02*
X111799714Y-75701438D01*
X111799714Y-75701438D02*
X111894952Y-75653819D01*
X111894952Y-75653819D02*
X112133047Y-75653819D01*
X112133047Y-75653819D02*
X112228285Y-75701438D01*
X112228285Y-75701438D02*
X112275904Y-75749057D01*
X112275904Y-75749057D02*
X112323523Y-75844295D01*
X112323523Y-75844295D02*
X112323523Y-75939533D01*
X112323523Y-75939533D02*
X112275904Y-76082390D01*
X112275904Y-76082390D02*
X111704476Y-76653819D01*
X111704476Y-76653819D02*
X112323523Y-76653819D01*
X112704476Y-75749057D02*
X112752095Y-75701438D01*
X112752095Y-75701438D02*
X112847333Y-75653819D01*
X112847333Y-75653819D02*
X113085428Y-75653819D01*
X113085428Y-75653819D02*
X113180666Y-75701438D01*
X113180666Y-75701438D02*
X113228285Y-75749057D01*
X113228285Y-75749057D02*
X113275904Y-75844295D01*
X113275904Y-75844295D02*
X113275904Y-75939533D01*
X113275904Y-75939533D02*
X113228285Y-76082390D01*
X113228285Y-76082390D02*
X112656857Y-76653819D01*
X112656857Y-76653819D02*
X113275904Y-76653819D01*
X116095542Y-65429019D02*
X115762209Y-64952828D01*
X115524114Y-65429019D02*
X115524114Y-64429019D01*
X115524114Y-64429019D02*
X115905066Y-64429019D01*
X115905066Y-64429019D02*
X116000304Y-64476638D01*
X116000304Y-64476638D02*
X116047923Y-64524257D01*
X116047923Y-64524257D02*
X116095542Y-64619495D01*
X116095542Y-64619495D02*
X116095542Y-64762352D01*
X116095542Y-64762352D02*
X116047923Y-64857590D01*
X116047923Y-64857590D02*
X116000304Y-64905209D01*
X116000304Y-64905209D02*
X115905066Y-64952828D01*
X115905066Y-64952828D02*
X115524114Y-64952828D01*
X116476495Y-64524257D02*
X116524114Y-64476638D01*
X116524114Y-64476638D02*
X116619352Y-64429019D01*
X116619352Y-64429019D02*
X116857447Y-64429019D01*
X116857447Y-64429019D02*
X116952685Y-64476638D01*
X116952685Y-64476638D02*
X117000304Y-64524257D01*
X117000304Y-64524257D02*
X117047923Y-64619495D01*
X117047923Y-64619495D02*
X117047923Y-64714733D01*
X117047923Y-64714733D02*
X117000304Y-64857590D01*
X117000304Y-64857590D02*
X116428876Y-65429019D01*
X116428876Y-65429019D02*
X117047923Y-65429019D01*
X117905066Y-64762352D02*
X117905066Y-65429019D01*
X117666971Y-64381400D02*
X117428876Y-65095685D01*
X117428876Y-65095685D02*
X118047923Y-65095685D01*
X116017442Y-106143219D02*
X115684109Y-105667028D01*
X115446014Y-106143219D02*
X115446014Y-105143219D01*
X115446014Y-105143219D02*
X115826966Y-105143219D01*
X115826966Y-105143219D02*
X115922204Y-105190838D01*
X115922204Y-105190838D02*
X115969823Y-105238457D01*
X115969823Y-105238457D02*
X116017442Y-105333695D01*
X116017442Y-105333695D02*
X116017442Y-105476552D01*
X116017442Y-105476552D02*
X115969823Y-105571790D01*
X115969823Y-105571790D02*
X115922204Y-105619409D01*
X115922204Y-105619409D02*
X115826966Y-105667028D01*
X115826966Y-105667028D02*
X115446014Y-105667028D01*
X116969823Y-106143219D02*
X116398395Y-106143219D01*
X116684109Y-106143219D02*
X116684109Y-105143219D01*
X116684109Y-105143219D02*
X116588871Y-105286076D01*
X116588871Y-105286076D02*
X116493633Y-105381314D01*
X116493633Y-105381314D02*
X116398395Y-105428933D01*
X117350776Y-105238457D02*
X117398395Y-105190838D01*
X117398395Y-105190838D02*
X117493633Y-105143219D01*
X117493633Y-105143219D02*
X117731728Y-105143219D01*
X117731728Y-105143219D02*
X117826966Y-105190838D01*
X117826966Y-105190838D02*
X117874585Y-105238457D01*
X117874585Y-105238457D02*
X117922204Y-105333695D01*
X117922204Y-105333695D02*
X117922204Y-105428933D01*
X117922204Y-105428933D02*
X117874585Y-105571790D01*
X117874585Y-105571790D02*
X117303157Y-106143219D01*
X117303157Y-106143219D02*
X117922204Y-106143219D01*
X143339409Y-90165133D02*
X143339409Y-90498466D01*
X143863219Y-90498466D02*
X142863219Y-90498466D01*
X142863219Y-90498466D02*
X142863219Y-90022276D01*
X143339409Y-89307990D02*
X143387028Y-89165133D01*
X143387028Y-89165133D02*
X143434647Y-89117514D01*
X143434647Y-89117514D02*
X143529885Y-89069895D01*
X143529885Y-89069895D02*
X143672742Y-89069895D01*
X143672742Y-89069895D02*
X143767980Y-89117514D01*
X143767980Y-89117514D02*
X143815600Y-89165133D01*
X143815600Y-89165133D02*
X143863219Y-89260371D01*
X143863219Y-89260371D02*
X143863219Y-89641323D01*
X143863219Y-89641323D02*
X142863219Y-89641323D01*
X142863219Y-89641323D02*
X142863219Y-89307990D01*
X142863219Y-89307990D02*
X142910838Y-89212752D01*
X142910838Y-89212752D02*
X142958457Y-89165133D01*
X142958457Y-89165133D02*
X143053695Y-89117514D01*
X143053695Y-89117514D02*
X143148933Y-89117514D01*
X143148933Y-89117514D02*
X143244171Y-89165133D01*
X143244171Y-89165133D02*
X143291790Y-89212752D01*
X143291790Y-89212752D02*
X143339409Y-89307990D01*
X143339409Y-89307990D02*
X143339409Y-89641323D01*
X143863219Y-88117514D02*
X143863219Y-88688942D01*
X143863219Y-88403228D02*
X142863219Y-88403228D01*
X142863219Y-88403228D02*
X143006076Y-88498466D01*
X143006076Y-88498466D02*
X143101314Y-88593704D01*
X143101314Y-88593704D02*
X143148933Y-88688942D01*
X115884742Y-89734819D02*
X115551409Y-89258628D01*
X115313314Y-89734819D02*
X115313314Y-88734819D01*
X115313314Y-88734819D02*
X115694266Y-88734819D01*
X115694266Y-88734819D02*
X115789504Y-88782438D01*
X115789504Y-88782438D02*
X115837123Y-88830057D01*
X115837123Y-88830057D02*
X115884742Y-88925295D01*
X115884742Y-88925295D02*
X115884742Y-89068152D01*
X115884742Y-89068152D02*
X115837123Y-89163390D01*
X115837123Y-89163390D02*
X115789504Y-89211009D01*
X115789504Y-89211009D02*
X115694266Y-89258628D01*
X115694266Y-89258628D02*
X115313314Y-89258628D01*
X116837123Y-89734819D02*
X116265695Y-89734819D01*
X116551409Y-89734819D02*
X116551409Y-88734819D01*
X116551409Y-88734819D02*
X116456171Y-88877676D01*
X116456171Y-88877676D02*
X116360933Y-88972914D01*
X116360933Y-88972914D02*
X116265695Y-89020533D01*
X117170457Y-88734819D02*
X117837123Y-88734819D01*
X117837123Y-88734819D02*
X117408552Y-89734819D01*
X168450419Y-110948694D02*
X167450419Y-110948694D01*
X168450419Y-110377266D02*
X167878990Y-110805837D01*
X167450419Y-110377266D02*
X168021847Y-110948694D01*
X168450419Y-109424885D02*
X168450419Y-109996313D01*
X168450419Y-109710599D02*
X167450419Y-109710599D01*
X167450419Y-109710599D02*
X167593276Y-109805837D01*
X167593276Y-109805837D02*
X167688514Y-109901075D01*
X167688514Y-109901075D02*
X167736133Y-109996313D01*
X102400433Y-106323019D02*
X102067100Y-105846828D01*
X101829005Y-106323019D02*
X101829005Y-105323019D01*
X101829005Y-105323019D02*
X102209957Y-105323019D01*
X102209957Y-105323019D02*
X102305195Y-105370638D01*
X102305195Y-105370638D02*
X102352814Y-105418257D01*
X102352814Y-105418257D02*
X102400433Y-105513495D01*
X102400433Y-105513495D02*
X102400433Y-105656352D01*
X102400433Y-105656352D02*
X102352814Y-105751590D01*
X102352814Y-105751590D02*
X102305195Y-105799209D01*
X102305195Y-105799209D02*
X102209957Y-105846828D01*
X102209957Y-105846828D02*
X101829005Y-105846828D01*
X102733767Y-105323019D02*
X103400433Y-105323019D01*
X103400433Y-105323019D02*
X102971862Y-106323019D01*
X106263842Y-106297619D02*
X105930509Y-105821428D01*
X105692414Y-106297619D02*
X105692414Y-105297619D01*
X105692414Y-105297619D02*
X106073366Y-105297619D01*
X106073366Y-105297619D02*
X106168604Y-105345238D01*
X106168604Y-105345238D02*
X106216223Y-105392857D01*
X106216223Y-105392857D02*
X106263842Y-105488095D01*
X106263842Y-105488095D02*
X106263842Y-105630952D01*
X106263842Y-105630952D02*
X106216223Y-105726190D01*
X106216223Y-105726190D02*
X106168604Y-105773809D01*
X106168604Y-105773809D02*
X106073366Y-105821428D01*
X106073366Y-105821428D02*
X105692414Y-105821428D01*
X107216223Y-106297619D02*
X106644795Y-106297619D01*
X106930509Y-106297619D02*
X106930509Y-105297619D01*
X106930509Y-105297619D02*
X106835271Y-105440476D01*
X106835271Y-105440476D02*
X106740033Y-105535714D01*
X106740033Y-105535714D02*
X106644795Y-105583333D01*
X107835271Y-105297619D02*
X107930509Y-105297619D01*
X107930509Y-105297619D02*
X108025747Y-105345238D01*
X108025747Y-105345238D02*
X108073366Y-105392857D01*
X108073366Y-105392857D02*
X108120985Y-105488095D01*
X108120985Y-105488095D02*
X108168604Y-105678571D01*
X108168604Y-105678571D02*
X108168604Y-105916666D01*
X108168604Y-105916666D02*
X108120985Y-106107142D01*
X108120985Y-106107142D02*
X108073366Y-106202380D01*
X108073366Y-106202380D02*
X108025747Y-106250000D01*
X108025747Y-106250000D02*
X107930509Y-106297619D01*
X107930509Y-106297619D02*
X107835271Y-106297619D01*
X107835271Y-106297619D02*
X107740033Y-106250000D01*
X107740033Y-106250000D02*
X107692414Y-106202380D01*
X107692414Y-106202380D02*
X107644795Y-106107142D01*
X107644795Y-106107142D02*
X107597176Y-105916666D01*
X107597176Y-105916666D02*
X107597176Y-105678571D01*
X107597176Y-105678571D02*
X107644795Y-105488095D01*
X107644795Y-105488095D02*
X107692414Y-105392857D01*
X107692414Y-105392857D02*
X107740033Y-105345238D01*
X107740033Y-105345238D02*
X107835271Y-105297619D01*
X140916066Y-57272019D02*
X140916066Y-57986304D01*
X140916066Y-57986304D02*
X140868447Y-58129161D01*
X140868447Y-58129161D02*
X140773209Y-58224400D01*
X140773209Y-58224400D02*
X140630352Y-58272019D01*
X140630352Y-58272019D02*
X140535114Y-58272019D01*
X141344638Y-57367257D02*
X141392257Y-57319638D01*
X141392257Y-57319638D02*
X141487495Y-57272019D01*
X141487495Y-57272019D02*
X141725590Y-57272019D01*
X141725590Y-57272019D02*
X141820828Y-57319638D01*
X141820828Y-57319638D02*
X141868447Y-57367257D01*
X141868447Y-57367257D02*
X141916066Y-57462495D01*
X141916066Y-57462495D02*
X141916066Y-57557733D01*
X141916066Y-57557733D02*
X141868447Y-57700590D01*
X141868447Y-57700590D02*
X141297019Y-58272019D01*
X141297019Y-58272019D02*
X141916066Y-58272019D01*
X112920895Y-80803419D02*
X112920895Y-81612942D01*
X112920895Y-81612942D02*
X112968514Y-81708180D01*
X112968514Y-81708180D02*
X113016133Y-81755800D01*
X113016133Y-81755800D02*
X113111371Y-81803419D01*
X113111371Y-81803419D02*
X113301847Y-81803419D01*
X113301847Y-81803419D02*
X113397085Y-81755800D01*
X113397085Y-81755800D02*
X113444704Y-81708180D01*
X113444704Y-81708180D02*
X113492323Y-81612942D01*
X113492323Y-81612942D02*
X113492323Y-80803419D01*
X114111371Y-81231990D02*
X114016133Y-81184371D01*
X114016133Y-81184371D02*
X113968514Y-81136752D01*
X113968514Y-81136752D02*
X113920895Y-81041514D01*
X113920895Y-81041514D02*
X113920895Y-80993895D01*
X113920895Y-80993895D02*
X113968514Y-80898657D01*
X113968514Y-80898657D02*
X114016133Y-80851038D01*
X114016133Y-80851038D02*
X114111371Y-80803419D01*
X114111371Y-80803419D02*
X114301847Y-80803419D01*
X114301847Y-80803419D02*
X114397085Y-80851038D01*
X114397085Y-80851038D02*
X114444704Y-80898657D01*
X114444704Y-80898657D02*
X114492323Y-80993895D01*
X114492323Y-80993895D02*
X114492323Y-81041514D01*
X114492323Y-81041514D02*
X114444704Y-81136752D01*
X114444704Y-81136752D02*
X114397085Y-81184371D01*
X114397085Y-81184371D02*
X114301847Y-81231990D01*
X114301847Y-81231990D02*
X114111371Y-81231990D01*
X114111371Y-81231990D02*
X114016133Y-81279609D01*
X114016133Y-81279609D02*
X113968514Y-81327228D01*
X113968514Y-81327228D02*
X113920895Y-81422466D01*
X113920895Y-81422466D02*
X113920895Y-81612942D01*
X113920895Y-81612942D02*
X113968514Y-81708180D01*
X113968514Y-81708180D02*
X114016133Y-81755800D01*
X114016133Y-81755800D02*
X114111371Y-81803419D01*
X114111371Y-81803419D02*
X114301847Y-81803419D01*
X114301847Y-81803419D02*
X114397085Y-81755800D01*
X114397085Y-81755800D02*
X114444704Y-81708180D01*
X114444704Y-81708180D02*
X114492323Y-81612942D01*
X114492323Y-81612942D02*
X114492323Y-81422466D01*
X114492323Y-81422466D02*
X114444704Y-81327228D01*
X114444704Y-81327228D02*
X114397085Y-81279609D01*
X114397085Y-81279609D02*
X114301847Y-81231990D01*
X145270180Y-82691266D02*
X145317800Y-82738885D01*
X145317800Y-82738885D02*
X145365419Y-82881742D01*
X145365419Y-82881742D02*
X145365419Y-82976980D01*
X145365419Y-82976980D02*
X145317800Y-83119837D01*
X145317800Y-83119837D02*
X145222561Y-83215075D01*
X145222561Y-83215075D02*
X145127323Y-83262694D01*
X145127323Y-83262694D02*
X144936847Y-83310313D01*
X144936847Y-83310313D02*
X144793990Y-83310313D01*
X144793990Y-83310313D02*
X144603514Y-83262694D01*
X144603514Y-83262694D02*
X144508276Y-83215075D01*
X144508276Y-83215075D02*
X144413038Y-83119837D01*
X144413038Y-83119837D02*
X144365419Y-82976980D01*
X144365419Y-82976980D02*
X144365419Y-82881742D01*
X144365419Y-82881742D02*
X144413038Y-82738885D01*
X144413038Y-82738885D02*
X144460657Y-82691266D01*
X144365419Y-81786504D02*
X144365419Y-82262694D01*
X144365419Y-82262694D02*
X144841609Y-82310313D01*
X144841609Y-82310313D02*
X144793990Y-82262694D01*
X144793990Y-82262694D02*
X144746371Y-82167456D01*
X144746371Y-82167456D02*
X144746371Y-81929361D01*
X144746371Y-81929361D02*
X144793990Y-81834123D01*
X144793990Y-81834123D02*
X144841609Y-81786504D01*
X144841609Y-81786504D02*
X144936847Y-81738885D01*
X144936847Y-81738885D02*
X145174942Y-81738885D01*
X145174942Y-81738885D02*
X145270180Y-81786504D01*
X145270180Y-81786504D02*
X145317800Y-81834123D01*
X145317800Y-81834123D02*
X145365419Y-81929361D01*
X145365419Y-81929361D02*
X145365419Y-82167456D01*
X145365419Y-82167456D02*
X145317800Y-82262694D01*
X145317800Y-82262694D02*
X145270180Y-82310313D01*
X148510666Y-120866819D02*
X148510666Y-121581104D01*
X148510666Y-121581104D02*
X148463047Y-121723961D01*
X148463047Y-121723961D02*
X148367809Y-121819200D01*
X148367809Y-121819200D02*
X148224952Y-121866819D01*
X148224952Y-121866819D02*
X148129714Y-121866819D01*
X148891619Y-120866819D02*
X149510666Y-120866819D01*
X149510666Y-120866819D02*
X149177333Y-121247771D01*
X149177333Y-121247771D02*
X149320190Y-121247771D01*
X149320190Y-121247771D02*
X149415428Y-121295390D01*
X149415428Y-121295390D02*
X149463047Y-121343009D01*
X149463047Y-121343009D02*
X149510666Y-121438247D01*
X149510666Y-121438247D02*
X149510666Y-121676342D01*
X149510666Y-121676342D02*
X149463047Y-121771580D01*
X149463047Y-121771580D02*
X149415428Y-121819200D01*
X149415428Y-121819200D02*
X149320190Y-121866819D01*
X149320190Y-121866819D02*
X149034476Y-121866819D01*
X149034476Y-121866819D02*
X148939238Y-121819200D01*
X148939238Y-121819200D02*
X148891619Y-121771580D01*
X173567433Y-92479019D02*
X173234100Y-92002828D01*
X172996005Y-92479019D02*
X172996005Y-91479019D01*
X172996005Y-91479019D02*
X173376957Y-91479019D01*
X173376957Y-91479019D02*
X173472195Y-91526638D01*
X173472195Y-91526638D02*
X173519814Y-91574257D01*
X173519814Y-91574257D02*
X173567433Y-91669495D01*
X173567433Y-91669495D02*
X173567433Y-91812352D01*
X173567433Y-91812352D02*
X173519814Y-91907590D01*
X173519814Y-91907590D02*
X173472195Y-91955209D01*
X173472195Y-91955209D02*
X173376957Y-92002828D01*
X173376957Y-92002828D02*
X172996005Y-92002828D01*
X173948386Y-91574257D02*
X173996005Y-91526638D01*
X173996005Y-91526638D02*
X174091243Y-91479019D01*
X174091243Y-91479019D02*
X174329338Y-91479019D01*
X174329338Y-91479019D02*
X174424576Y-91526638D01*
X174424576Y-91526638D02*
X174472195Y-91574257D01*
X174472195Y-91574257D02*
X174519814Y-91669495D01*
X174519814Y-91669495D02*
X174519814Y-91764733D01*
X174519814Y-91764733D02*
X174472195Y-91907590D01*
X174472195Y-91907590D02*
X173900767Y-92479019D01*
X173900767Y-92479019D02*
X174519814Y-92479019D01*
X159020419Y-72048666D02*
X159020419Y-72524856D01*
X159020419Y-72524856D02*
X158020419Y-72524856D01*
X159020419Y-71191523D02*
X159020419Y-71762951D01*
X159020419Y-71477237D02*
X158020419Y-71477237D01*
X158020419Y-71477237D02*
X158163276Y-71572475D01*
X158163276Y-71572475D02*
X158258514Y-71667713D01*
X158258514Y-71667713D02*
X158306133Y-71762951D01*
X125407380Y-97728066D02*
X125455000Y-97775685D01*
X125455000Y-97775685D02*
X125502619Y-97918542D01*
X125502619Y-97918542D02*
X125502619Y-98013780D01*
X125502619Y-98013780D02*
X125455000Y-98156637D01*
X125455000Y-98156637D02*
X125359761Y-98251875D01*
X125359761Y-98251875D02*
X125264523Y-98299494D01*
X125264523Y-98299494D02*
X125074047Y-98347113D01*
X125074047Y-98347113D02*
X124931190Y-98347113D01*
X124931190Y-98347113D02*
X124740714Y-98299494D01*
X124740714Y-98299494D02*
X124645476Y-98251875D01*
X124645476Y-98251875D02*
X124550238Y-98156637D01*
X124550238Y-98156637D02*
X124502619Y-98013780D01*
X124502619Y-98013780D02*
X124502619Y-97918542D01*
X124502619Y-97918542D02*
X124550238Y-97775685D01*
X124550238Y-97775685D02*
X124597857Y-97728066D01*
X125502619Y-96775685D02*
X125502619Y-97347113D01*
X125502619Y-97061399D02*
X124502619Y-97061399D01*
X124502619Y-97061399D02*
X124645476Y-97156637D01*
X124645476Y-97156637D02*
X124740714Y-97251875D01*
X124740714Y-97251875D02*
X124788333Y-97347113D01*
X106111442Y-81735819D02*
X105778109Y-81259628D01*
X105540014Y-81735819D02*
X105540014Y-80735819D01*
X105540014Y-80735819D02*
X105920966Y-80735819D01*
X105920966Y-80735819D02*
X106016204Y-80783438D01*
X106016204Y-80783438D02*
X106063823Y-80831057D01*
X106063823Y-80831057D02*
X106111442Y-80926295D01*
X106111442Y-80926295D02*
X106111442Y-81069152D01*
X106111442Y-81069152D02*
X106063823Y-81164390D01*
X106063823Y-81164390D02*
X106016204Y-81212009D01*
X106016204Y-81212009D02*
X105920966Y-81259628D01*
X105920966Y-81259628D02*
X105540014Y-81259628D01*
X107063823Y-81735819D02*
X106492395Y-81735819D01*
X106778109Y-81735819D02*
X106778109Y-80735819D01*
X106778109Y-80735819D02*
X106682871Y-80878676D01*
X106682871Y-80878676D02*
X106587633Y-80973914D01*
X106587633Y-80973914D02*
X106492395Y-81021533D01*
X107540014Y-81735819D02*
X107730490Y-81735819D01*
X107730490Y-81735819D02*
X107825728Y-81688200D01*
X107825728Y-81688200D02*
X107873347Y-81640580D01*
X107873347Y-81640580D02*
X107968585Y-81497723D01*
X107968585Y-81497723D02*
X108016204Y-81307247D01*
X108016204Y-81307247D02*
X108016204Y-80926295D01*
X108016204Y-80926295D02*
X107968585Y-80831057D01*
X107968585Y-80831057D02*
X107920966Y-80783438D01*
X107920966Y-80783438D02*
X107825728Y-80735819D01*
X107825728Y-80735819D02*
X107635252Y-80735819D01*
X107635252Y-80735819D02*
X107540014Y-80783438D01*
X107540014Y-80783438D02*
X107492395Y-80831057D01*
X107492395Y-80831057D02*
X107444776Y-80926295D01*
X107444776Y-80926295D02*
X107444776Y-81164390D01*
X107444776Y-81164390D02*
X107492395Y-81259628D01*
X107492395Y-81259628D02*
X107540014Y-81307247D01*
X107540014Y-81307247D02*
X107635252Y-81354866D01*
X107635252Y-81354866D02*
X107825728Y-81354866D01*
X107825728Y-81354866D02*
X107920966Y-81307247D01*
X107920966Y-81307247D02*
X107968585Y-81259628D01*
X107968585Y-81259628D02*
X108016204Y-81164390D01*
X168857819Y-118782766D02*
X168381628Y-119116099D01*
X168857819Y-119354194D02*
X167857819Y-119354194D01*
X167857819Y-119354194D02*
X167857819Y-118973242D01*
X167857819Y-118973242D02*
X167905438Y-118878004D01*
X167905438Y-118878004D02*
X167953057Y-118830385D01*
X167953057Y-118830385D02*
X168048295Y-118782766D01*
X168048295Y-118782766D02*
X168191152Y-118782766D01*
X168191152Y-118782766D02*
X168286390Y-118830385D01*
X168286390Y-118830385D02*
X168334009Y-118878004D01*
X168334009Y-118878004D02*
X168381628Y-118973242D01*
X168381628Y-118973242D02*
X168381628Y-119354194D01*
X167857819Y-117925623D02*
X167857819Y-118116099D01*
X167857819Y-118116099D02*
X167905438Y-118211337D01*
X167905438Y-118211337D02*
X167953057Y-118258956D01*
X167953057Y-118258956D02*
X168095914Y-118354194D01*
X168095914Y-118354194D02*
X168286390Y-118401813D01*
X168286390Y-118401813D02*
X168667342Y-118401813D01*
X168667342Y-118401813D02*
X168762580Y-118354194D01*
X168762580Y-118354194D02*
X168810200Y-118306575D01*
X168810200Y-118306575D02*
X168857819Y-118211337D01*
X168857819Y-118211337D02*
X168857819Y-118020861D01*
X168857819Y-118020861D02*
X168810200Y-117925623D01*
X168810200Y-117925623D02*
X168762580Y-117878004D01*
X168762580Y-117878004D02*
X168667342Y-117830385D01*
X168667342Y-117830385D02*
X168429247Y-117830385D01*
X168429247Y-117830385D02*
X168334009Y-117878004D01*
X168334009Y-117878004D02*
X168286390Y-117925623D01*
X168286390Y-117925623D02*
X168238771Y-118020861D01*
X168238771Y-118020861D02*
X168238771Y-118211337D01*
X168238771Y-118211337D02*
X168286390Y-118306575D01*
X168286390Y-118306575D02*
X168334009Y-118354194D01*
X168334009Y-118354194D02*
X168429247Y-118401813D01*
X160475980Y-72702657D02*
X160523600Y-72750276D01*
X160523600Y-72750276D02*
X160571219Y-72893133D01*
X160571219Y-72893133D02*
X160571219Y-72988371D01*
X160571219Y-72988371D02*
X160523600Y-73131228D01*
X160523600Y-73131228D02*
X160428361Y-73226466D01*
X160428361Y-73226466D02*
X160333123Y-73274085D01*
X160333123Y-73274085D02*
X160142647Y-73321704D01*
X160142647Y-73321704D02*
X159999790Y-73321704D01*
X159999790Y-73321704D02*
X159809314Y-73274085D01*
X159809314Y-73274085D02*
X159714076Y-73226466D01*
X159714076Y-73226466D02*
X159618838Y-73131228D01*
X159618838Y-73131228D02*
X159571219Y-72988371D01*
X159571219Y-72988371D02*
X159571219Y-72893133D01*
X159571219Y-72893133D02*
X159618838Y-72750276D01*
X159618838Y-72750276D02*
X159666457Y-72702657D01*
X159666457Y-72321704D02*
X159618838Y-72274085D01*
X159618838Y-72274085D02*
X159571219Y-72178847D01*
X159571219Y-72178847D02*
X159571219Y-71940752D01*
X159571219Y-71940752D02*
X159618838Y-71845514D01*
X159618838Y-71845514D02*
X159666457Y-71797895D01*
X159666457Y-71797895D02*
X159761695Y-71750276D01*
X159761695Y-71750276D02*
X159856933Y-71750276D01*
X159856933Y-71750276D02*
X159999790Y-71797895D01*
X159999790Y-71797895D02*
X160571219Y-72369323D01*
X160571219Y-72369323D02*
X160571219Y-71750276D01*
X160571219Y-70797895D02*
X160571219Y-71369323D01*
X160571219Y-71083609D02*
X159571219Y-71083609D01*
X159571219Y-71083609D02*
X159714076Y-71178847D01*
X159714076Y-71178847D02*
X159809314Y-71274085D01*
X159809314Y-71274085D02*
X159856933Y-71369323D01*
X151043419Y-72899494D02*
X150043419Y-72899494D01*
X150043419Y-72899494D02*
X150043419Y-72661399D01*
X150043419Y-72661399D02*
X150091038Y-72518542D01*
X150091038Y-72518542D02*
X150186276Y-72423304D01*
X150186276Y-72423304D02*
X150281514Y-72375685D01*
X150281514Y-72375685D02*
X150471990Y-72328066D01*
X150471990Y-72328066D02*
X150614847Y-72328066D01*
X150614847Y-72328066D02*
X150805323Y-72375685D01*
X150805323Y-72375685D02*
X150900561Y-72423304D01*
X150900561Y-72423304D02*
X150995800Y-72518542D01*
X150995800Y-72518542D02*
X151043419Y-72661399D01*
X151043419Y-72661399D02*
X151043419Y-72899494D01*
X150376752Y-71470923D02*
X151043419Y-71470923D01*
X149995800Y-71709018D02*
X150710085Y-71947113D01*
X150710085Y-71947113D02*
X150710085Y-71328066D01*
X186246419Y-70710323D02*
X186960704Y-70710323D01*
X186960704Y-70710323D02*
X187103561Y-70757942D01*
X187103561Y-70757942D02*
X187198800Y-70853180D01*
X187198800Y-70853180D02*
X187246419Y-70996037D01*
X187246419Y-70996037D02*
X187246419Y-71091275D01*
X187246419Y-69710323D02*
X187246419Y-70281751D01*
X187246419Y-69996037D02*
X186246419Y-69996037D01*
X186246419Y-69996037D02*
X186389276Y-70091275D01*
X186389276Y-70091275D02*
X186484514Y-70186513D01*
X186484514Y-70186513D02*
X186532133Y-70281751D01*
X187246419Y-68757942D02*
X187246419Y-69329370D01*
X187246419Y-69043656D02*
X186246419Y-69043656D01*
X186246419Y-69043656D02*
X186389276Y-69138894D01*
X186389276Y-69138894D02*
X186484514Y-69234132D01*
X186484514Y-69234132D02*
X186532133Y-69329370D01*
X158356361Y-78493419D02*
X158023028Y-78017228D01*
X157784933Y-78493419D02*
X157784933Y-77493419D01*
X157784933Y-77493419D02*
X158165885Y-77493419D01*
X158165885Y-77493419D02*
X158261123Y-77541038D01*
X158261123Y-77541038D02*
X158308742Y-77588657D01*
X158308742Y-77588657D02*
X158356361Y-77683895D01*
X158356361Y-77683895D02*
X158356361Y-77826752D01*
X158356361Y-77826752D02*
X158308742Y-77921990D01*
X158308742Y-77921990D02*
X158261123Y-77969609D01*
X158261123Y-77969609D02*
X158165885Y-78017228D01*
X158165885Y-78017228D02*
X157784933Y-78017228D01*
X158642076Y-77493419D02*
X158975409Y-78493419D01*
X158975409Y-78493419D02*
X159308742Y-77493419D01*
X160165885Y-78493419D02*
X159594457Y-78493419D01*
X159880171Y-78493419D02*
X159880171Y-77493419D01*
X159880171Y-77493419D02*
X159784933Y-77636276D01*
X159784933Y-77636276D02*
X159689695Y-77731514D01*
X159689695Y-77731514D02*
X159594457Y-77779133D01*
X141549219Y-105006733D02*
X142263504Y-105006733D01*
X142263504Y-105006733D02*
X142406361Y-105054352D01*
X142406361Y-105054352D02*
X142501600Y-105149590D01*
X142501600Y-105149590D02*
X142549219Y-105292447D01*
X142549219Y-105292447D02*
X142549219Y-105387685D01*
X141977790Y-104387685D02*
X141930171Y-104482923D01*
X141930171Y-104482923D02*
X141882552Y-104530542D01*
X141882552Y-104530542D02*
X141787314Y-104578161D01*
X141787314Y-104578161D02*
X141739695Y-104578161D01*
X141739695Y-104578161D02*
X141644457Y-104530542D01*
X141644457Y-104530542D02*
X141596838Y-104482923D01*
X141596838Y-104482923D02*
X141549219Y-104387685D01*
X141549219Y-104387685D02*
X141549219Y-104197209D01*
X141549219Y-104197209D02*
X141596838Y-104101971D01*
X141596838Y-104101971D02*
X141644457Y-104054352D01*
X141644457Y-104054352D02*
X141739695Y-104006733D01*
X141739695Y-104006733D02*
X141787314Y-104006733D01*
X141787314Y-104006733D02*
X141882552Y-104054352D01*
X141882552Y-104054352D02*
X141930171Y-104101971D01*
X141930171Y-104101971D02*
X141977790Y-104197209D01*
X141977790Y-104197209D02*
X141977790Y-104387685D01*
X141977790Y-104387685D02*
X142025409Y-104482923D01*
X142025409Y-104482923D02*
X142073028Y-104530542D01*
X142073028Y-104530542D02*
X142168266Y-104578161D01*
X142168266Y-104578161D02*
X142358742Y-104578161D01*
X142358742Y-104578161D02*
X142453980Y-104530542D01*
X142453980Y-104530542D02*
X142501600Y-104482923D01*
X142501600Y-104482923D02*
X142549219Y-104387685D01*
X142549219Y-104387685D02*
X142549219Y-104197209D01*
X142549219Y-104197209D02*
X142501600Y-104101971D01*
X142501600Y-104101971D02*
X142453980Y-104054352D01*
X142453980Y-104054352D02*
X142358742Y-104006733D01*
X142358742Y-104006733D02*
X142168266Y-104006733D01*
X142168266Y-104006733D02*
X142073028Y-104054352D01*
X142073028Y-104054352D02*
X142025409Y-104101971D01*
X142025409Y-104101971D02*
X141977790Y-104197209D01*
X147343542Y-79907780D02*
X147295923Y-79955400D01*
X147295923Y-79955400D02*
X147153066Y-80003019D01*
X147153066Y-80003019D02*
X147057828Y-80003019D01*
X147057828Y-80003019D02*
X146914971Y-79955400D01*
X146914971Y-79955400D02*
X146819733Y-79860161D01*
X146819733Y-79860161D02*
X146772114Y-79764923D01*
X146772114Y-79764923D02*
X146724495Y-79574447D01*
X146724495Y-79574447D02*
X146724495Y-79431590D01*
X146724495Y-79431590D02*
X146772114Y-79241114D01*
X146772114Y-79241114D02*
X146819733Y-79145876D01*
X146819733Y-79145876D02*
X146914971Y-79050638D01*
X146914971Y-79050638D02*
X147057828Y-79003019D01*
X147057828Y-79003019D02*
X147153066Y-79003019D01*
X147153066Y-79003019D02*
X147295923Y-79050638D01*
X147295923Y-79050638D02*
X147343542Y-79098257D01*
X147724495Y-79098257D02*
X147772114Y-79050638D01*
X147772114Y-79050638D02*
X147867352Y-79003019D01*
X147867352Y-79003019D02*
X148105447Y-79003019D01*
X148105447Y-79003019D02*
X148200685Y-79050638D01*
X148200685Y-79050638D02*
X148248304Y-79098257D01*
X148248304Y-79098257D02*
X148295923Y-79193495D01*
X148295923Y-79193495D02*
X148295923Y-79288733D01*
X148295923Y-79288733D02*
X148248304Y-79431590D01*
X148248304Y-79431590D02*
X147676876Y-80003019D01*
X147676876Y-80003019D02*
X148295923Y-80003019D01*
X148629257Y-79003019D02*
X149248304Y-79003019D01*
X149248304Y-79003019D02*
X148914971Y-79383971D01*
X148914971Y-79383971D02*
X149057828Y-79383971D01*
X149057828Y-79383971D02*
X149153066Y-79431590D01*
X149153066Y-79431590D02*
X149200685Y-79479209D01*
X149200685Y-79479209D02*
X149248304Y-79574447D01*
X149248304Y-79574447D02*
X149248304Y-79812542D01*
X149248304Y-79812542D02*
X149200685Y-79907780D01*
X149200685Y-79907780D02*
X149153066Y-79955400D01*
X149153066Y-79955400D02*
X149057828Y-80003019D01*
X149057828Y-80003019D02*
X148772114Y-80003019D01*
X148772114Y-80003019D02*
X148676876Y-79955400D01*
X148676876Y-79955400D02*
X148629257Y-79907780D01*
X175877180Y-87263266D02*
X175924800Y-87310885D01*
X175924800Y-87310885D02*
X175972419Y-87453742D01*
X175972419Y-87453742D02*
X175972419Y-87548980D01*
X175972419Y-87548980D02*
X175924800Y-87691837D01*
X175924800Y-87691837D02*
X175829561Y-87787075D01*
X175829561Y-87787075D02*
X175734323Y-87834694D01*
X175734323Y-87834694D02*
X175543847Y-87882313D01*
X175543847Y-87882313D02*
X175400990Y-87882313D01*
X175400990Y-87882313D02*
X175210514Y-87834694D01*
X175210514Y-87834694D02*
X175115276Y-87787075D01*
X175115276Y-87787075D02*
X175020038Y-87691837D01*
X175020038Y-87691837D02*
X174972419Y-87548980D01*
X174972419Y-87548980D02*
X174972419Y-87453742D01*
X174972419Y-87453742D02*
X175020038Y-87310885D01*
X175020038Y-87310885D02*
X175067657Y-87263266D01*
X174972419Y-86406123D02*
X174972419Y-86596599D01*
X174972419Y-86596599D02*
X175020038Y-86691837D01*
X175020038Y-86691837D02*
X175067657Y-86739456D01*
X175067657Y-86739456D02*
X175210514Y-86834694D01*
X175210514Y-86834694D02*
X175400990Y-86882313D01*
X175400990Y-86882313D02*
X175781942Y-86882313D01*
X175781942Y-86882313D02*
X175877180Y-86834694D01*
X175877180Y-86834694D02*
X175924800Y-86787075D01*
X175924800Y-86787075D02*
X175972419Y-86691837D01*
X175972419Y-86691837D02*
X175972419Y-86501361D01*
X175972419Y-86501361D02*
X175924800Y-86406123D01*
X175924800Y-86406123D02*
X175877180Y-86358504D01*
X175877180Y-86358504D02*
X175781942Y-86310885D01*
X175781942Y-86310885D02*
X175543847Y-86310885D01*
X175543847Y-86310885D02*
X175448609Y-86358504D01*
X175448609Y-86358504D02*
X175400990Y-86406123D01*
X175400990Y-86406123D02*
X175353371Y-86501361D01*
X175353371Y-86501361D02*
X175353371Y-86691837D01*
X175353371Y-86691837D02*
X175400990Y-86787075D01*
X175400990Y-86787075D02*
X175448609Y-86834694D01*
X175448609Y-86834694D02*
X175543847Y-86882313D01*
X149024142Y-88345180D02*
X148976523Y-88392800D01*
X148976523Y-88392800D02*
X148833666Y-88440419D01*
X148833666Y-88440419D02*
X148738428Y-88440419D01*
X148738428Y-88440419D02*
X148595571Y-88392800D01*
X148595571Y-88392800D02*
X148500333Y-88297561D01*
X148500333Y-88297561D02*
X148452714Y-88202323D01*
X148452714Y-88202323D02*
X148405095Y-88011847D01*
X148405095Y-88011847D02*
X148405095Y-87868990D01*
X148405095Y-87868990D02*
X148452714Y-87678514D01*
X148452714Y-87678514D02*
X148500333Y-87583276D01*
X148500333Y-87583276D02*
X148595571Y-87488038D01*
X148595571Y-87488038D02*
X148738428Y-87440419D01*
X148738428Y-87440419D02*
X148833666Y-87440419D01*
X148833666Y-87440419D02*
X148976523Y-87488038D01*
X148976523Y-87488038D02*
X149024142Y-87535657D01*
X149976523Y-88440419D02*
X149405095Y-88440419D01*
X149690809Y-88440419D02*
X149690809Y-87440419D01*
X149690809Y-87440419D02*
X149595571Y-87583276D01*
X149595571Y-87583276D02*
X149500333Y-87678514D01*
X149500333Y-87678514D02*
X149405095Y-87726133D01*
X150357476Y-87535657D02*
X150405095Y-87488038D01*
X150405095Y-87488038D02*
X150500333Y-87440419D01*
X150500333Y-87440419D02*
X150738428Y-87440419D01*
X150738428Y-87440419D02*
X150833666Y-87488038D01*
X150833666Y-87488038D02*
X150881285Y-87535657D01*
X150881285Y-87535657D02*
X150928904Y-87630895D01*
X150928904Y-87630895D02*
X150928904Y-87726133D01*
X150928904Y-87726133D02*
X150881285Y-87868990D01*
X150881285Y-87868990D02*
X150309857Y-88440419D01*
X150309857Y-88440419D02*
X150928904Y-88440419D01*
X115939342Y-98091419D02*
X115606009Y-97615228D01*
X115367914Y-98091419D02*
X115367914Y-97091419D01*
X115367914Y-97091419D02*
X115748866Y-97091419D01*
X115748866Y-97091419D02*
X115844104Y-97139038D01*
X115844104Y-97139038D02*
X115891723Y-97186657D01*
X115891723Y-97186657D02*
X115939342Y-97281895D01*
X115939342Y-97281895D02*
X115939342Y-97424752D01*
X115939342Y-97424752D02*
X115891723Y-97519990D01*
X115891723Y-97519990D02*
X115844104Y-97567609D01*
X115844104Y-97567609D02*
X115748866Y-97615228D01*
X115748866Y-97615228D02*
X115367914Y-97615228D01*
X116891723Y-98091419D02*
X116320295Y-98091419D01*
X116606009Y-98091419D02*
X116606009Y-97091419D01*
X116606009Y-97091419D02*
X116510771Y-97234276D01*
X116510771Y-97234276D02*
X116415533Y-97329514D01*
X116415533Y-97329514D02*
X116320295Y-97377133D01*
X117844104Y-98091419D02*
X117272676Y-98091419D01*
X117558390Y-98091419D02*
X117558390Y-97091419D01*
X117558390Y-97091419D02*
X117463152Y-97234276D01*
X117463152Y-97234276D02*
X117367914Y-97329514D01*
X117367914Y-97329514D02*
X117272676Y-97377133D01*
X172148833Y-97051019D02*
X171815500Y-96574828D01*
X171577405Y-97051019D02*
X171577405Y-96051019D01*
X171577405Y-96051019D02*
X171958357Y-96051019D01*
X171958357Y-96051019D02*
X172053595Y-96098638D01*
X172053595Y-96098638D02*
X172101214Y-96146257D01*
X172101214Y-96146257D02*
X172148833Y-96241495D01*
X172148833Y-96241495D02*
X172148833Y-96384352D01*
X172148833Y-96384352D02*
X172101214Y-96479590D01*
X172101214Y-96479590D02*
X172053595Y-96527209D01*
X172053595Y-96527209D02*
X171958357Y-96574828D01*
X171958357Y-96574828D02*
X171577405Y-96574828D01*
X173053595Y-96051019D02*
X172577405Y-96051019D01*
X172577405Y-96051019D02*
X172529786Y-96527209D01*
X172529786Y-96527209D02*
X172577405Y-96479590D01*
X172577405Y-96479590D02*
X172672643Y-96431971D01*
X172672643Y-96431971D02*
X172910738Y-96431971D01*
X172910738Y-96431971D02*
X173005976Y-96479590D01*
X173005976Y-96479590D02*
X173053595Y-96527209D01*
X173053595Y-96527209D02*
X173101214Y-96622447D01*
X173101214Y-96622447D02*
X173101214Y-96860542D01*
X173101214Y-96860542D02*
X173053595Y-96955780D01*
X173053595Y-96955780D02*
X173005976Y-97003400D01*
X173005976Y-97003400D02*
X172910738Y-97051019D01*
X172910738Y-97051019D02*
X172672643Y-97051019D01*
X172672643Y-97051019D02*
X172577405Y-97003400D01*
X172577405Y-97003400D02*
X172529786Y-96955780D01*
X122257019Y-61877533D02*
X122971304Y-61877533D01*
X122971304Y-61877533D02*
X123114161Y-61925152D01*
X123114161Y-61925152D02*
X123209400Y-62020390D01*
X123209400Y-62020390D02*
X123257019Y-62163247D01*
X123257019Y-62163247D02*
X123257019Y-62258485D01*
X122257019Y-60972771D02*
X122257019Y-61163247D01*
X122257019Y-61163247D02*
X122304638Y-61258485D01*
X122304638Y-61258485D02*
X122352257Y-61306104D01*
X122352257Y-61306104D02*
X122495114Y-61401342D01*
X122495114Y-61401342D02*
X122685590Y-61448961D01*
X122685590Y-61448961D02*
X123066542Y-61448961D01*
X123066542Y-61448961D02*
X123161780Y-61401342D01*
X123161780Y-61401342D02*
X123209400Y-61353723D01*
X123209400Y-61353723D02*
X123257019Y-61258485D01*
X123257019Y-61258485D02*
X123257019Y-61068009D01*
X123257019Y-61068009D02*
X123209400Y-60972771D01*
X123209400Y-60972771D02*
X123161780Y-60925152D01*
X123161780Y-60925152D02*
X123066542Y-60877533D01*
X123066542Y-60877533D02*
X122828447Y-60877533D01*
X122828447Y-60877533D02*
X122733209Y-60925152D01*
X122733209Y-60925152D02*
X122685590Y-60972771D01*
X122685590Y-60972771D02*
X122637971Y-61068009D01*
X122637971Y-61068009D02*
X122637971Y-61258485D01*
X122637971Y-61258485D02*
X122685590Y-61353723D01*
X122685590Y-61353723D02*
X122733209Y-61401342D01*
X122733209Y-61401342D02*
X122828447Y-61448961D01*
X138618933Y-75689619D02*
X138285600Y-75213428D01*
X138047505Y-75689619D02*
X138047505Y-74689619D01*
X138047505Y-74689619D02*
X138428457Y-74689619D01*
X138428457Y-74689619D02*
X138523695Y-74737238D01*
X138523695Y-74737238D02*
X138571314Y-74784857D01*
X138571314Y-74784857D02*
X138618933Y-74880095D01*
X138618933Y-74880095D02*
X138618933Y-75022952D01*
X138618933Y-75022952D02*
X138571314Y-75118190D01*
X138571314Y-75118190D02*
X138523695Y-75165809D01*
X138523695Y-75165809D02*
X138428457Y-75213428D01*
X138428457Y-75213428D02*
X138047505Y-75213428D01*
X139571314Y-75689619D02*
X138999886Y-75689619D01*
X139285600Y-75689619D02*
X139285600Y-74689619D01*
X139285600Y-74689619D02*
X139190362Y-74832476D01*
X139190362Y-74832476D02*
X139095124Y-74927714D01*
X139095124Y-74927714D02*
X138999886Y-74975333D01*
X113968305Y-68997019D02*
X113968305Y-67997019D01*
X113968305Y-67997019D02*
X114206400Y-67997019D01*
X114206400Y-67997019D02*
X114349257Y-68044638D01*
X114349257Y-68044638D02*
X114444495Y-68139876D01*
X114444495Y-68139876D02*
X114492114Y-68235114D01*
X114492114Y-68235114D02*
X114539733Y-68425590D01*
X114539733Y-68425590D02*
X114539733Y-68568447D01*
X114539733Y-68568447D02*
X114492114Y-68758923D01*
X114492114Y-68758923D02*
X114444495Y-68854161D01*
X114444495Y-68854161D02*
X114349257Y-68949400D01*
X114349257Y-68949400D02*
X114206400Y-68997019D01*
X114206400Y-68997019D02*
X113968305Y-68997019D01*
X114920686Y-68092257D02*
X114968305Y-68044638D01*
X114968305Y-68044638D02*
X115063543Y-67997019D01*
X115063543Y-67997019D02*
X115301638Y-67997019D01*
X115301638Y-67997019D02*
X115396876Y-68044638D01*
X115396876Y-68044638D02*
X115444495Y-68092257D01*
X115444495Y-68092257D02*
X115492114Y-68187495D01*
X115492114Y-68187495D02*
X115492114Y-68282733D01*
X115492114Y-68282733D02*
X115444495Y-68425590D01*
X115444495Y-68425590D02*
X114873067Y-68997019D01*
X114873067Y-68997019D02*
X115492114Y-68997019D01*
X112870095Y-88931419D02*
X112870095Y-89740942D01*
X112870095Y-89740942D02*
X112917714Y-89836180D01*
X112917714Y-89836180D02*
X112965333Y-89883800D01*
X112965333Y-89883800D02*
X113060571Y-89931419D01*
X113060571Y-89931419D02*
X113251047Y-89931419D01*
X113251047Y-89931419D02*
X113346285Y-89883800D01*
X113346285Y-89883800D02*
X113393904Y-89836180D01*
X113393904Y-89836180D02*
X113441523Y-89740942D01*
X113441523Y-89740942D02*
X113441523Y-88931419D01*
X113822476Y-88931419D02*
X114489142Y-88931419D01*
X114489142Y-88931419D02*
X114060571Y-89931419D01*
X125142209Y-88833428D02*
X125142209Y-89309619D01*
X124808876Y-88309619D02*
X125142209Y-88833428D01*
X125142209Y-88833428D02*
X125475542Y-88309619D01*
X126332685Y-89309619D02*
X125761257Y-89309619D01*
X126046971Y-89309619D02*
X126046971Y-88309619D01*
X126046971Y-88309619D02*
X125951733Y-88452476D01*
X125951733Y-88452476D02*
X125856495Y-88547714D01*
X125856495Y-88547714D02*
X125761257Y-88595333D01*
X101822642Y-81786619D02*
X101489309Y-81310428D01*
X101251214Y-81786619D02*
X101251214Y-80786619D01*
X101251214Y-80786619D02*
X101632166Y-80786619D01*
X101632166Y-80786619D02*
X101727404Y-80834238D01*
X101727404Y-80834238D02*
X101775023Y-80881857D01*
X101775023Y-80881857D02*
X101822642Y-80977095D01*
X101822642Y-80977095D02*
X101822642Y-81119952D01*
X101822642Y-81119952D02*
X101775023Y-81215190D01*
X101775023Y-81215190D02*
X101727404Y-81262809D01*
X101727404Y-81262809D02*
X101632166Y-81310428D01*
X101632166Y-81310428D02*
X101251214Y-81310428D01*
X102775023Y-81786619D02*
X102203595Y-81786619D01*
X102489309Y-81786619D02*
X102489309Y-80786619D01*
X102489309Y-80786619D02*
X102394071Y-80929476D01*
X102394071Y-80929476D02*
X102298833Y-81024714D01*
X102298833Y-81024714D02*
X102203595Y-81072333D01*
X103346452Y-81215190D02*
X103251214Y-81167571D01*
X103251214Y-81167571D02*
X103203595Y-81119952D01*
X103203595Y-81119952D02*
X103155976Y-81024714D01*
X103155976Y-81024714D02*
X103155976Y-80977095D01*
X103155976Y-80977095D02*
X103203595Y-80881857D01*
X103203595Y-80881857D02*
X103251214Y-80834238D01*
X103251214Y-80834238D02*
X103346452Y-80786619D01*
X103346452Y-80786619D02*
X103536928Y-80786619D01*
X103536928Y-80786619D02*
X103632166Y-80834238D01*
X103632166Y-80834238D02*
X103679785Y-80881857D01*
X103679785Y-80881857D02*
X103727404Y-80977095D01*
X103727404Y-80977095D02*
X103727404Y-81024714D01*
X103727404Y-81024714D02*
X103679785Y-81119952D01*
X103679785Y-81119952D02*
X103632166Y-81167571D01*
X103632166Y-81167571D02*
X103536928Y-81215190D01*
X103536928Y-81215190D02*
X103346452Y-81215190D01*
X103346452Y-81215190D02*
X103251214Y-81262809D01*
X103251214Y-81262809D02*
X103203595Y-81310428D01*
X103203595Y-81310428D02*
X103155976Y-81405666D01*
X103155976Y-81405666D02*
X103155976Y-81596142D01*
X103155976Y-81596142D02*
X103203595Y-81691380D01*
X103203595Y-81691380D02*
X103251214Y-81739000D01*
X103251214Y-81739000D02*
X103346452Y-81786619D01*
X103346452Y-81786619D02*
X103536928Y-81786619D01*
X103536928Y-81786619D02*
X103632166Y-81739000D01*
X103632166Y-81739000D02*
X103679785Y-81691380D01*
X103679785Y-81691380D02*
X103727404Y-81596142D01*
X103727404Y-81596142D02*
X103727404Y-81405666D01*
X103727404Y-81405666D02*
X103679785Y-81310428D01*
X103679785Y-81310428D02*
X103632166Y-81262809D01*
X103632166Y-81262809D02*
X103536928Y-81215190D01*
X119930942Y-65453419D02*
X119597609Y-64977228D01*
X119359514Y-65453419D02*
X119359514Y-64453419D01*
X119359514Y-64453419D02*
X119740466Y-64453419D01*
X119740466Y-64453419D02*
X119835704Y-64501038D01*
X119835704Y-64501038D02*
X119883323Y-64548657D01*
X119883323Y-64548657D02*
X119930942Y-64643895D01*
X119930942Y-64643895D02*
X119930942Y-64786752D01*
X119930942Y-64786752D02*
X119883323Y-64881990D01*
X119883323Y-64881990D02*
X119835704Y-64929609D01*
X119835704Y-64929609D02*
X119740466Y-64977228D01*
X119740466Y-64977228D02*
X119359514Y-64977228D01*
X120311895Y-64548657D02*
X120359514Y-64501038D01*
X120359514Y-64501038D02*
X120454752Y-64453419D01*
X120454752Y-64453419D02*
X120692847Y-64453419D01*
X120692847Y-64453419D02*
X120788085Y-64501038D01*
X120788085Y-64501038D02*
X120835704Y-64548657D01*
X120835704Y-64548657D02*
X120883323Y-64643895D01*
X120883323Y-64643895D02*
X120883323Y-64739133D01*
X120883323Y-64739133D02*
X120835704Y-64881990D01*
X120835704Y-64881990D02*
X120264276Y-65453419D01*
X120264276Y-65453419D02*
X120883323Y-65453419D01*
X121788085Y-64453419D02*
X121311895Y-64453419D01*
X121311895Y-64453419D02*
X121264276Y-64929609D01*
X121264276Y-64929609D02*
X121311895Y-64881990D01*
X121311895Y-64881990D02*
X121407133Y-64834371D01*
X121407133Y-64834371D02*
X121645228Y-64834371D01*
X121645228Y-64834371D02*
X121740466Y-64881990D01*
X121740466Y-64881990D02*
X121788085Y-64929609D01*
X121788085Y-64929609D02*
X121835704Y-65024847D01*
X121835704Y-65024847D02*
X121835704Y-65262942D01*
X121835704Y-65262942D02*
X121788085Y-65358180D01*
X121788085Y-65358180D02*
X121740466Y-65405800D01*
X121740466Y-65405800D02*
X121645228Y-65453419D01*
X121645228Y-65453419D02*
X121407133Y-65453419D01*
X121407133Y-65453419D02*
X121311895Y-65405800D01*
X121311895Y-65405800D02*
X121264276Y-65358180D01*
X166776495Y-81297219D02*
X166776495Y-82106742D01*
X166776495Y-82106742D02*
X166824114Y-82201980D01*
X166824114Y-82201980D02*
X166871733Y-82249600D01*
X166871733Y-82249600D02*
X166966971Y-82297219D01*
X166966971Y-82297219D02*
X167157447Y-82297219D01*
X167157447Y-82297219D02*
X167252685Y-82249600D01*
X167252685Y-82249600D02*
X167300304Y-82201980D01*
X167300304Y-82201980D02*
X167347923Y-82106742D01*
X167347923Y-82106742D02*
X167347923Y-81297219D01*
X167776495Y-81392457D02*
X167824114Y-81344838D01*
X167824114Y-81344838D02*
X167919352Y-81297219D01*
X167919352Y-81297219D02*
X168157447Y-81297219D01*
X168157447Y-81297219D02*
X168252685Y-81344838D01*
X168252685Y-81344838D02*
X168300304Y-81392457D01*
X168300304Y-81392457D02*
X168347923Y-81487695D01*
X168347923Y-81487695D02*
X168347923Y-81582933D01*
X168347923Y-81582933D02*
X168300304Y-81725790D01*
X168300304Y-81725790D02*
X167728876Y-82297219D01*
X167728876Y-82297219D02*
X168347923Y-82297219D01*
X178457266Y-120511219D02*
X178457266Y-121225504D01*
X178457266Y-121225504D02*
X178409647Y-121368361D01*
X178409647Y-121368361D02*
X178314409Y-121463600D01*
X178314409Y-121463600D02*
X178171552Y-121511219D01*
X178171552Y-121511219D02*
X178076314Y-121511219D01*
X179457266Y-121511219D02*
X178885838Y-121511219D01*
X179171552Y-121511219D02*
X179171552Y-120511219D01*
X179171552Y-120511219D02*
X179076314Y-120654076D01*
X179076314Y-120654076D02*
X178981076Y-120749314D01*
X178981076Y-120749314D02*
X178885838Y-120796933D01*
X156846905Y-60189819D02*
X156846905Y-60999342D01*
X156846905Y-60999342D02*
X156894524Y-61094580D01*
X156894524Y-61094580D02*
X156942143Y-61142200D01*
X156942143Y-61142200D02*
X157037381Y-61189819D01*
X157037381Y-61189819D02*
X157227857Y-61189819D01*
X157227857Y-61189819D02*
X157323095Y-61142200D01*
X157323095Y-61142200D02*
X157370714Y-61094580D01*
X157370714Y-61094580D02*
X157418333Y-60999342D01*
X157418333Y-60999342D02*
X157418333Y-60189819D01*
X158418333Y-61189819D02*
X157846905Y-61189819D01*
X158132619Y-61189819D02*
X158132619Y-60189819D01*
X158132619Y-60189819D02*
X158037381Y-60332676D01*
X158037381Y-60332676D02*
X157942143Y-60427914D01*
X157942143Y-60427914D02*
X157846905Y-60475533D01*
X159037381Y-60189819D02*
X159132619Y-60189819D01*
X159132619Y-60189819D02*
X159227857Y-60237438D01*
X159227857Y-60237438D02*
X159275476Y-60285057D01*
X159275476Y-60285057D02*
X159323095Y-60380295D01*
X159323095Y-60380295D02*
X159370714Y-60570771D01*
X159370714Y-60570771D02*
X159370714Y-60808866D01*
X159370714Y-60808866D02*
X159323095Y-60999342D01*
X159323095Y-60999342D02*
X159275476Y-61094580D01*
X159275476Y-61094580D02*
X159227857Y-61142200D01*
X159227857Y-61142200D02*
X159132619Y-61189819D01*
X159132619Y-61189819D02*
X159037381Y-61189819D01*
X159037381Y-61189819D02*
X158942143Y-61142200D01*
X158942143Y-61142200D02*
X158894524Y-61094580D01*
X158894524Y-61094580D02*
X158846905Y-60999342D01*
X158846905Y-60999342D02*
X158799286Y-60808866D01*
X158799286Y-60808866D02*
X158799286Y-60570771D01*
X158799286Y-60570771D02*
X158846905Y-60380295D01*
X158846905Y-60380295D02*
X158894524Y-60285057D01*
X158894524Y-60285057D02*
X158942143Y-60237438D01*
X158942143Y-60237438D02*
X159037381Y-60189819D01*
X170222942Y-82201980D02*
X170175323Y-82249600D01*
X170175323Y-82249600D02*
X170032466Y-82297219D01*
X170032466Y-82297219D02*
X169937228Y-82297219D01*
X169937228Y-82297219D02*
X169794371Y-82249600D01*
X169794371Y-82249600D02*
X169699133Y-82154361D01*
X169699133Y-82154361D02*
X169651514Y-82059123D01*
X169651514Y-82059123D02*
X169603895Y-81868647D01*
X169603895Y-81868647D02*
X169603895Y-81725790D01*
X169603895Y-81725790D02*
X169651514Y-81535314D01*
X169651514Y-81535314D02*
X169699133Y-81440076D01*
X169699133Y-81440076D02*
X169794371Y-81344838D01*
X169794371Y-81344838D02*
X169937228Y-81297219D01*
X169937228Y-81297219D02*
X170032466Y-81297219D01*
X170032466Y-81297219D02*
X170175323Y-81344838D01*
X170175323Y-81344838D02*
X170222942Y-81392457D01*
X171175323Y-82297219D02*
X170603895Y-82297219D01*
X170889609Y-82297219D02*
X170889609Y-81297219D01*
X170889609Y-81297219D02*
X170794371Y-81440076D01*
X170794371Y-81440076D02*
X170699133Y-81535314D01*
X170699133Y-81535314D02*
X170603895Y-81582933D01*
X172127704Y-82297219D02*
X171556276Y-82297219D01*
X171841990Y-82297219D02*
X171841990Y-81297219D01*
X171841990Y-81297219D02*
X171746752Y-81440076D01*
X171746752Y-81440076D02*
X171651514Y-81535314D01*
X171651514Y-81535314D02*
X171556276Y-81582933D01*
X111472742Y-66495819D02*
X111139409Y-66019628D01*
X110901314Y-66495819D02*
X110901314Y-65495819D01*
X110901314Y-65495819D02*
X111282266Y-65495819D01*
X111282266Y-65495819D02*
X111377504Y-65543438D01*
X111377504Y-65543438D02*
X111425123Y-65591057D01*
X111425123Y-65591057D02*
X111472742Y-65686295D01*
X111472742Y-65686295D02*
X111472742Y-65829152D01*
X111472742Y-65829152D02*
X111425123Y-65924390D01*
X111425123Y-65924390D02*
X111377504Y-65972009D01*
X111377504Y-65972009D02*
X111282266Y-66019628D01*
X111282266Y-66019628D02*
X110901314Y-66019628D01*
X111853695Y-65591057D02*
X111901314Y-65543438D01*
X111901314Y-65543438D02*
X111996552Y-65495819D01*
X111996552Y-65495819D02*
X112234647Y-65495819D01*
X112234647Y-65495819D02*
X112329885Y-65543438D01*
X112329885Y-65543438D02*
X112377504Y-65591057D01*
X112377504Y-65591057D02*
X112425123Y-65686295D01*
X112425123Y-65686295D02*
X112425123Y-65781533D01*
X112425123Y-65781533D02*
X112377504Y-65924390D01*
X112377504Y-65924390D02*
X111806076Y-66495819D01*
X111806076Y-66495819D02*
X112425123Y-66495819D01*
X113377504Y-66495819D02*
X112806076Y-66495819D01*
X113091790Y-66495819D02*
X113091790Y-65495819D01*
X113091790Y-65495819D02*
X112996552Y-65638676D01*
X112996552Y-65638676D02*
X112901314Y-65733914D01*
X112901314Y-65733914D02*
X112806076Y-65781533D01*
X110055819Y-71483457D02*
X109579628Y-71816790D01*
X110055819Y-72054885D02*
X109055819Y-72054885D01*
X109055819Y-72054885D02*
X109055819Y-71673933D01*
X109055819Y-71673933D02*
X109103438Y-71578695D01*
X109103438Y-71578695D02*
X109151057Y-71531076D01*
X109151057Y-71531076D02*
X109246295Y-71483457D01*
X109246295Y-71483457D02*
X109389152Y-71483457D01*
X109389152Y-71483457D02*
X109484390Y-71531076D01*
X109484390Y-71531076D02*
X109532009Y-71578695D01*
X109532009Y-71578695D02*
X109579628Y-71673933D01*
X109579628Y-71673933D02*
X109579628Y-72054885D01*
X109151057Y-71102504D02*
X109103438Y-71054885D01*
X109103438Y-71054885D02*
X109055819Y-70959647D01*
X109055819Y-70959647D02*
X109055819Y-70721552D01*
X109055819Y-70721552D02*
X109103438Y-70626314D01*
X109103438Y-70626314D02*
X109151057Y-70578695D01*
X109151057Y-70578695D02*
X109246295Y-70531076D01*
X109246295Y-70531076D02*
X109341533Y-70531076D01*
X109341533Y-70531076D02*
X109484390Y-70578695D01*
X109484390Y-70578695D02*
X110055819Y-71150123D01*
X110055819Y-71150123D02*
X110055819Y-70531076D01*
X109055819Y-70197742D02*
X109055819Y-69578695D01*
X109055819Y-69578695D02*
X109436771Y-69912028D01*
X109436771Y-69912028D02*
X109436771Y-69769171D01*
X109436771Y-69769171D02*
X109484390Y-69673933D01*
X109484390Y-69673933D02*
X109532009Y-69626314D01*
X109532009Y-69626314D02*
X109627247Y-69578695D01*
X109627247Y-69578695D02*
X109865342Y-69578695D01*
X109865342Y-69578695D02*
X109960580Y-69626314D01*
X109960580Y-69626314D02*
X110008200Y-69673933D01*
X110008200Y-69673933D02*
X110055819Y-69769171D01*
X110055819Y-69769171D02*
X110055819Y-70054885D01*
X110055819Y-70054885D02*
X110008200Y-70150123D01*
X110008200Y-70150123D02*
X109960580Y-70197742D01*
X144421019Y-76131657D02*
X143944828Y-76464990D01*
X144421019Y-76703085D02*
X143421019Y-76703085D01*
X143421019Y-76703085D02*
X143421019Y-76322133D01*
X143421019Y-76322133D02*
X143468638Y-76226895D01*
X143468638Y-76226895D02*
X143516257Y-76179276D01*
X143516257Y-76179276D02*
X143611495Y-76131657D01*
X143611495Y-76131657D02*
X143754352Y-76131657D01*
X143754352Y-76131657D02*
X143849590Y-76179276D01*
X143849590Y-76179276D02*
X143897209Y-76226895D01*
X143897209Y-76226895D02*
X143944828Y-76322133D01*
X143944828Y-76322133D02*
X143944828Y-76703085D01*
X143516257Y-75750704D02*
X143468638Y-75703085D01*
X143468638Y-75703085D02*
X143421019Y-75607847D01*
X143421019Y-75607847D02*
X143421019Y-75369752D01*
X143421019Y-75369752D02*
X143468638Y-75274514D01*
X143468638Y-75274514D02*
X143516257Y-75226895D01*
X143516257Y-75226895D02*
X143611495Y-75179276D01*
X143611495Y-75179276D02*
X143706733Y-75179276D01*
X143706733Y-75179276D02*
X143849590Y-75226895D01*
X143849590Y-75226895D02*
X144421019Y-75798323D01*
X144421019Y-75798323D02*
X144421019Y-75179276D01*
X143421019Y-74322133D02*
X143421019Y-74512609D01*
X143421019Y-74512609D02*
X143468638Y-74607847D01*
X143468638Y-74607847D02*
X143516257Y-74655466D01*
X143516257Y-74655466D02*
X143659114Y-74750704D01*
X143659114Y-74750704D02*
X143849590Y-74798323D01*
X143849590Y-74798323D02*
X144230542Y-74798323D01*
X144230542Y-74798323D02*
X144325780Y-74750704D01*
X144325780Y-74750704D02*
X144373400Y-74703085D01*
X144373400Y-74703085D02*
X144421019Y-74607847D01*
X144421019Y-74607847D02*
X144421019Y-74417371D01*
X144421019Y-74417371D02*
X144373400Y-74322133D01*
X144373400Y-74322133D02*
X144325780Y-74274514D01*
X144325780Y-74274514D02*
X144230542Y-74226895D01*
X144230542Y-74226895D02*
X143992447Y-74226895D01*
X143992447Y-74226895D02*
X143897209Y-74274514D01*
X143897209Y-74274514D02*
X143849590Y-74322133D01*
X143849590Y-74322133D02*
X143801971Y-74417371D01*
X143801971Y-74417371D02*
X143801971Y-74607847D01*
X143801971Y-74607847D02*
X143849590Y-74703085D01*
X143849590Y-74703085D02*
X143897209Y-74750704D01*
X143897209Y-74750704D02*
X143992447Y-74798323D01*
X151020542Y-111691380D02*
X150972923Y-111739000D01*
X150972923Y-111739000D02*
X150830066Y-111786619D01*
X150830066Y-111786619D02*
X150734828Y-111786619D01*
X150734828Y-111786619D02*
X150591971Y-111739000D01*
X150591971Y-111739000D02*
X150496733Y-111643761D01*
X150496733Y-111643761D02*
X150449114Y-111548523D01*
X150449114Y-111548523D02*
X150401495Y-111358047D01*
X150401495Y-111358047D02*
X150401495Y-111215190D01*
X150401495Y-111215190D02*
X150449114Y-111024714D01*
X150449114Y-111024714D02*
X150496733Y-110929476D01*
X150496733Y-110929476D02*
X150591971Y-110834238D01*
X150591971Y-110834238D02*
X150734828Y-110786619D01*
X150734828Y-110786619D02*
X150830066Y-110786619D01*
X150830066Y-110786619D02*
X150972923Y-110834238D01*
X150972923Y-110834238D02*
X151020542Y-110881857D01*
X151972923Y-111786619D02*
X151401495Y-111786619D01*
X151687209Y-111786619D02*
X151687209Y-110786619D01*
X151687209Y-110786619D02*
X151591971Y-110929476D01*
X151591971Y-110929476D02*
X151496733Y-111024714D01*
X151496733Y-111024714D02*
X151401495Y-111072333D01*
X152544352Y-111215190D02*
X152449114Y-111167571D01*
X152449114Y-111167571D02*
X152401495Y-111119952D01*
X152401495Y-111119952D02*
X152353876Y-111024714D01*
X152353876Y-111024714D02*
X152353876Y-110977095D01*
X152353876Y-110977095D02*
X152401495Y-110881857D01*
X152401495Y-110881857D02*
X152449114Y-110834238D01*
X152449114Y-110834238D02*
X152544352Y-110786619D01*
X152544352Y-110786619D02*
X152734828Y-110786619D01*
X152734828Y-110786619D02*
X152830066Y-110834238D01*
X152830066Y-110834238D02*
X152877685Y-110881857D01*
X152877685Y-110881857D02*
X152925304Y-110977095D01*
X152925304Y-110977095D02*
X152925304Y-111024714D01*
X152925304Y-111024714D02*
X152877685Y-111119952D01*
X152877685Y-111119952D02*
X152830066Y-111167571D01*
X152830066Y-111167571D02*
X152734828Y-111215190D01*
X152734828Y-111215190D02*
X152544352Y-111215190D01*
X152544352Y-111215190D02*
X152449114Y-111262809D01*
X152449114Y-111262809D02*
X152401495Y-111310428D01*
X152401495Y-111310428D02*
X152353876Y-111405666D01*
X152353876Y-111405666D02*
X152353876Y-111596142D01*
X152353876Y-111596142D02*
X152401495Y-111691380D01*
X152401495Y-111691380D02*
X152449114Y-111739000D01*
X152449114Y-111739000D02*
X152544352Y-111786619D01*
X152544352Y-111786619D02*
X152734828Y-111786619D01*
X152734828Y-111786619D02*
X152830066Y-111739000D01*
X152830066Y-111739000D02*
X152877685Y-111691380D01*
X152877685Y-111691380D02*
X152925304Y-111596142D01*
X152925304Y-111596142D02*
X152925304Y-111405666D01*
X152925304Y-111405666D02*
X152877685Y-111310428D01*
X152877685Y-111310428D02*
X152830066Y-111262809D01*
X152830066Y-111262809D02*
X152734828Y-111215190D01*
X145731019Y-71578694D02*
X144731019Y-71578694D01*
X144731019Y-71578694D02*
X144731019Y-71340599D01*
X144731019Y-71340599D02*
X144778638Y-71197742D01*
X144778638Y-71197742D02*
X144873876Y-71102504D01*
X144873876Y-71102504D02*
X144969114Y-71054885D01*
X144969114Y-71054885D02*
X145159590Y-71007266D01*
X145159590Y-71007266D02*
X145302447Y-71007266D01*
X145302447Y-71007266D02*
X145492923Y-71054885D01*
X145492923Y-71054885D02*
X145588161Y-71102504D01*
X145588161Y-71102504D02*
X145683400Y-71197742D01*
X145683400Y-71197742D02*
X145731019Y-71340599D01*
X145731019Y-71340599D02*
X145731019Y-71578694D01*
X144731019Y-70102504D02*
X144731019Y-70578694D01*
X144731019Y-70578694D02*
X145207209Y-70626313D01*
X145207209Y-70626313D02*
X145159590Y-70578694D01*
X145159590Y-70578694D02*
X145111971Y-70483456D01*
X145111971Y-70483456D02*
X145111971Y-70245361D01*
X145111971Y-70245361D02*
X145159590Y-70150123D01*
X145159590Y-70150123D02*
X145207209Y-70102504D01*
X145207209Y-70102504D02*
X145302447Y-70054885D01*
X145302447Y-70054885D02*
X145540542Y-70054885D01*
X145540542Y-70054885D02*
X145635780Y-70102504D01*
X145635780Y-70102504D02*
X145683400Y-70150123D01*
X145683400Y-70150123D02*
X145731019Y-70245361D01*
X145731019Y-70245361D02*
X145731019Y-70483456D01*
X145731019Y-70483456D02*
X145683400Y-70578694D01*
X145683400Y-70578694D02*
X145635780Y-70626313D01*
X101975042Y-89889219D02*
X101641709Y-89413028D01*
X101403614Y-89889219D02*
X101403614Y-88889219D01*
X101403614Y-88889219D02*
X101784566Y-88889219D01*
X101784566Y-88889219D02*
X101879804Y-88936838D01*
X101879804Y-88936838D02*
X101927423Y-88984457D01*
X101927423Y-88984457D02*
X101975042Y-89079695D01*
X101975042Y-89079695D02*
X101975042Y-89222552D01*
X101975042Y-89222552D02*
X101927423Y-89317790D01*
X101927423Y-89317790D02*
X101879804Y-89365409D01*
X101879804Y-89365409D02*
X101784566Y-89413028D01*
X101784566Y-89413028D02*
X101403614Y-89413028D01*
X102927423Y-89889219D02*
X102355995Y-89889219D01*
X102641709Y-89889219D02*
X102641709Y-88889219D01*
X102641709Y-88889219D02*
X102546471Y-89032076D01*
X102546471Y-89032076D02*
X102451233Y-89127314D01*
X102451233Y-89127314D02*
X102355995Y-89174933D01*
X103260757Y-88889219D02*
X103879804Y-88889219D01*
X103879804Y-88889219D02*
X103546471Y-89270171D01*
X103546471Y-89270171D02*
X103689328Y-89270171D01*
X103689328Y-89270171D02*
X103784566Y-89317790D01*
X103784566Y-89317790D02*
X103832185Y-89365409D01*
X103832185Y-89365409D02*
X103879804Y-89460647D01*
X103879804Y-89460647D02*
X103879804Y-89698742D01*
X103879804Y-89698742D02*
X103832185Y-89793980D01*
X103832185Y-89793980D02*
X103784566Y-89841600D01*
X103784566Y-89841600D02*
X103689328Y-89889219D01*
X103689328Y-89889219D02*
X103403614Y-89889219D01*
X103403614Y-89889219D02*
X103308376Y-89841600D01*
X103308376Y-89841600D02*
X103260757Y-89793980D01*
X122475666Y-120663619D02*
X122475666Y-121377904D01*
X122475666Y-121377904D02*
X122428047Y-121520761D01*
X122428047Y-121520761D02*
X122332809Y-121616000D01*
X122332809Y-121616000D02*
X122189952Y-121663619D01*
X122189952Y-121663619D02*
X122094714Y-121663619D01*
X122856619Y-120663619D02*
X123523285Y-120663619D01*
X123523285Y-120663619D02*
X123094714Y-121663619D01*
X165847733Y-78941819D02*
X165514400Y-78465628D01*
X165276305Y-78941819D02*
X165276305Y-77941819D01*
X165276305Y-77941819D02*
X165657257Y-77941819D01*
X165657257Y-77941819D02*
X165752495Y-77989438D01*
X165752495Y-77989438D02*
X165800114Y-78037057D01*
X165800114Y-78037057D02*
X165847733Y-78132295D01*
X165847733Y-78132295D02*
X165847733Y-78275152D01*
X165847733Y-78275152D02*
X165800114Y-78370390D01*
X165800114Y-78370390D02*
X165752495Y-78418009D01*
X165752495Y-78418009D02*
X165657257Y-78465628D01*
X165657257Y-78465628D02*
X165276305Y-78465628D01*
X166181067Y-77941819D02*
X166800114Y-77941819D01*
X166800114Y-77941819D02*
X166466781Y-78322771D01*
X166466781Y-78322771D02*
X166609638Y-78322771D01*
X166609638Y-78322771D02*
X166704876Y-78370390D01*
X166704876Y-78370390D02*
X166752495Y-78418009D01*
X166752495Y-78418009D02*
X166800114Y-78513247D01*
X166800114Y-78513247D02*
X166800114Y-78751342D01*
X166800114Y-78751342D02*
X166752495Y-78846580D01*
X166752495Y-78846580D02*
X166704876Y-78894200D01*
X166704876Y-78894200D02*
X166609638Y-78941819D01*
X166609638Y-78941819D02*
X166323924Y-78941819D01*
X166323924Y-78941819D02*
X166228686Y-78894200D01*
X166228686Y-78894200D02*
X166181067Y-78846580D01*
X138074666Y-72048019D02*
X138074666Y-72762304D01*
X138074666Y-72762304D02*
X138027047Y-72905161D01*
X138027047Y-72905161D02*
X137931809Y-73000400D01*
X137931809Y-73000400D02*
X137788952Y-73048019D01*
X137788952Y-73048019D02*
X137693714Y-73048019D01*
X138550857Y-73048019D02*
X138550857Y-72048019D01*
X138550857Y-72048019D02*
X138931809Y-72048019D01*
X138931809Y-72048019D02*
X139027047Y-72095638D01*
X139027047Y-72095638D02*
X139074666Y-72143257D01*
X139074666Y-72143257D02*
X139122285Y-72238495D01*
X139122285Y-72238495D02*
X139122285Y-72381352D01*
X139122285Y-72381352D02*
X139074666Y-72476590D01*
X139074666Y-72476590D02*
X139027047Y-72524209D01*
X139027047Y-72524209D02*
X138931809Y-72571828D01*
X138931809Y-72571828D02*
X138550857Y-72571828D01*
X140074666Y-73048019D02*
X139503238Y-73048019D01*
X139788952Y-73048019D02*
X139788952Y-72048019D01*
X139788952Y-72048019D02*
X139693714Y-72190876D01*
X139693714Y-72190876D02*
X139598476Y-72286114D01*
X139598476Y-72286114D02*
X139503238Y-72333733D01*
X106486033Y-98195019D02*
X106152700Y-97718828D01*
X105914605Y-98195019D02*
X105914605Y-97195019D01*
X105914605Y-97195019D02*
X106295557Y-97195019D01*
X106295557Y-97195019D02*
X106390795Y-97242638D01*
X106390795Y-97242638D02*
X106438414Y-97290257D01*
X106438414Y-97290257D02*
X106486033Y-97385495D01*
X106486033Y-97385495D02*
X106486033Y-97528352D01*
X106486033Y-97528352D02*
X106438414Y-97623590D01*
X106438414Y-97623590D02*
X106390795Y-97671209D01*
X106390795Y-97671209D02*
X106295557Y-97718828D01*
X106295557Y-97718828D02*
X105914605Y-97718828D01*
X106962224Y-98195019D02*
X107152700Y-98195019D01*
X107152700Y-98195019D02*
X107247938Y-98147400D01*
X107247938Y-98147400D02*
X107295557Y-98099780D01*
X107295557Y-98099780D02*
X107390795Y-97956923D01*
X107390795Y-97956923D02*
X107438414Y-97766447D01*
X107438414Y-97766447D02*
X107438414Y-97385495D01*
X107438414Y-97385495D02*
X107390795Y-97290257D01*
X107390795Y-97290257D02*
X107343176Y-97242638D01*
X107343176Y-97242638D02*
X107247938Y-97195019D01*
X107247938Y-97195019D02*
X107057462Y-97195019D01*
X107057462Y-97195019D02*
X106962224Y-97242638D01*
X106962224Y-97242638D02*
X106914605Y-97290257D01*
X106914605Y-97290257D02*
X106866986Y-97385495D01*
X106866986Y-97385495D02*
X106866986Y-97623590D01*
X106866986Y-97623590D02*
X106914605Y-97718828D01*
X106914605Y-97718828D02*
X106962224Y-97766447D01*
X106962224Y-97766447D02*
X107057462Y-97814066D01*
X107057462Y-97814066D02*
X107247938Y-97814066D01*
X107247938Y-97814066D02*
X107343176Y-97766447D01*
X107343176Y-97766447D02*
X107390795Y-97718828D01*
X107390795Y-97718828D02*
X107438414Y-97623590D01*
X176282361Y-103369257D02*
X176187123Y-103321638D01*
X176187123Y-103321638D02*
X176091885Y-103226400D01*
X176091885Y-103226400D02*
X175949028Y-103083542D01*
X175949028Y-103083542D02*
X175853790Y-103035923D01*
X175853790Y-103035923D02*
X175758552Y-103035923D01*
X175806171Y-103274019D02*
X175710933Y-103226400D01*
X175710933Y-103226400D02*
X175615695Y-103131161D01*
X175615695Y-103131161D02*
X175568076Y-102940685D01*
X175568076Y-102940685D02*
X175568076Y-102607352D01*
X175568076Y-102607352D02*
X175615695Y-102416876D01*
X175615695Y-102416876D02*
X175710933Y-102321638D01*
X175710933Y-102321638D02*
X175806171Y-102274019D01*
X175806171Y-102274019D02*
X175996647Y-102274019D01*
X175996647Y-102274019D02*
X176091885Y-102321638D01*
X176091885Y-102321638D02*
X176187123Y-102416876D01*
X176187123Y-102416876D02*
X176234742Y-102607352D01*
X176234742Y-102607352D02*
X176234742Y-102940685D01*
X176234742Y-102940685D02*
X176187123Y-103131161D01*
X176187123Y-103131161D02*
X176091885Y-103226400D01*
X176091885Y-103226400D02*
X175996647Y-103274019D01*
X175996647Y-103274019D02*
X175806171Y-103274019D01*
X177187123Y-103274019D02*
X176615695Y-103274019D01*
X176901409Y-103274019D02*
X176901409Y-102274019D01*
X176901409Y-102274019D02*
X176806171Y-102416876D01*
X176806171Y-102416876D02*
X176710933Y-102512114D01*
X176710933Y-102512114D02*
X176615695Y-102559733D01*
X158087655Y-96032180D02*
X158040036Y-96079800D01*
X158040036Y-96079800D02*
X157897179Y-96127419D01*
X157897179Y-96127419D02*
X157801941Y-96127419D01*
X157801941Y-96127419D02*
X157659084Y-96079800D01*
X157659084Y-96079800D02*
X157563846Y-95984561D01*
X157563846Y-95984561D02*
X157516227Y-95889323D01*
X157516227Y-95889323D02*
X157468608Y-95698847D01*
X157468608Y-95698847D02*
X157468608Y-95555990D01*
X157468608Y-95555990D02*
X157516227Y-95365514D01*
X157516227Y-95365514D02*
X157563846Y-95270276D01*
X157563846Y-95270276D02*
X157659084Y-95175038D01*
X157659084Y-95175038D02*
X157801941Y-95127419D01*
X157801941Y-95127419D02*
X157897179Y-95127419D01*
X157897179Y-95127419D02*
X158040036Y-95175038D01*
X158040036Y-95175038D02*
X158087655Y-95222657D01*
X159040036Y-96127419D02*
X158468608Y-96127419D01*
X158754322Y-96127419D02*
X158754322Y-95127419D01*
X158754322Y-95127419D02*
X158659084Y-95270276D01*
X158659084Y-95270276D02*
X158563846Y-95365514D01*
X158563846Y-95365514D02*
X158468608Y-95413133D01*
X159659084Y-95127419D02*
X159754322Y-95127419D01*
X159754322Y-95127419D02*
X159849560Y-95175038D01*
X159849560Y-95175038D02*
X159897179Y-95222657D01*
X159897179Y-95222657D02*
X159944798Y-95317895D01*
X159944798Y-95317895D02*
X159992417Y-95508371D01*
X159992417Y-95508371D02*
X159992417Y-95746466D01*
X159992417Y-95746466D02*
X159944798Y-95936942D01*
X159944798Y-95936942D02*
X159897179Y-96032180D01*
X159897179Y-96032180D02*
X159849560Y-96079800D01*
X159849560Y-96079800D02*
X159754322Y-96127419D01*
X159754322Y-96127419D02*
X159659084Y-96127419D01*
X159659084Y-96127419D02*
X159563846Y-96079800D01*
X159563846Y-96079800D02*
X159516227Y-96032180D01*
X159516227Y-96032180D02*
X159468608Y-95936942D01*
X159468608Y-95936942D02*
X159420989Y-95746466D01*
X159420989Y-95746466D02*
X159420989Y-95508371D01*
X159420989Y-95508371D02*
X159468608Y-95317895D01*
X159468608Y-95317895D02*
X159516227Y-95222657D01*
X159516227Y-95222657D02*
X159563846Y-95175038D01*
X159563846Y-95175038D02*
X159659084Y-95127419D01*
D14*
%TO.C,C13*%
X146195148Y-84863000D02*
X146717652Y-84863000D01*
X146195148Y-86333000D02*
X146717652Y-86333000D01*
%TO.C,U6*%
X111284300Y-98507800D02*
X116084300Y-98507800D01*
X111284300Y-98657800D02*
X111284300Y-98507800D01*
X111284300Y-102507800D02*
X111284300Y-102357800D01*
X116084300Y-98507800D02*
X116084300Y-98657800D01*
X116084300Y-102357800D02*
X116084300Y-102507800D01*
X116084300Y-102507800D02*
X111284300Y-102507800D01*
X110834300Y-98657800D02*
X110594300Y-98327800D01*
X111074300Y-98327800D01*
X110834300Y-98657800D01*
G36*
X110834300Y-98657800D02*
G01*
X110594300Y-98327800D01*
X111074300Y-98327800D01*
X110834300Y-98657800D01*
G37*
%TO.C,D1*%
X168735400Y-100912000D02*
X168735400Y-106352000D01*
X168735400Y-105332000D02*
X171675400Y-105332000D01*
X168735400Y-105452000D02*
X171675400Y-105452000D01*
X168735400Y-105572000D02*
X171675400Y-105572000D01*
X168735400Y-106352000D02*
X171675400Y-106352000D01*
X170205400Y-99892000D02*
X170205400Y-100912000D01*
X170205400Y-107372000D02*
X170205400Y-106352000D01*
X171675400Y-100912000D02*
X168735400Y-100912000D01*
X171675400Y-106352000D02*
X171675400Y-100912000D01*
%TO.C,C2*%
X126976200Y-97376348D02*
X126976200Y-97898852D01*
X128446200Y-97376348D02*
X128446200Y-97898852D01*
%TO.C,U5*%
X111415500Y-106458000D02*
X116215500Y-106458000D01*
X111415500Y-106608000D02*
X111415500Y-106458000D01*
X111415500Y-110458000D02*
X111415500Y-110308000D01*
X116215500Y-106458000D02*
X116215500Y-106608000D01*
X116215500Y-110308000D02*
X116215500Y-110458000D01*
X116215500Y-110458000D02*
X111415500Y-110458000D01*
X110965500Y-106608000D02*
X110725500Y-106278000D01*
X111205500Y-106278000D01*
X110965500Y-106608000D01*
G36*
X110965500Y-106608000D02*
G01*
X110725500Y-106278000D01*
X111205500Y-106278000D01*
X110965500Y-106608000D01*
G37*
D13*
%TO.C,U1*%
X131858600Y-79204400D02*
X131858600Y-79429400D01*
X131858600Y-79204400D02*
X132183600Y-79204400D01*
X131858600Y-86454400D02*
X131858600Y-86129400D01*
X131858600Y-86454400D02*
X132183600Y-86454400D01*
X139108600Y-79204400D02*
X138783600Y-79204400D01*
X139108600Y-79204400D02*
X139108600Y-79529400D01*
X139108600Y-86454400D02*
X138783600Y-86454400D01*
X139108600Y-86454400D02*
X139108600Y-86129400D01*
D14*
X131093600Y-79489400D02*
X130753600Y-79019400D01*
X131433600Y-79019400D01*
X131093600Y-79489400D01*
G36*
X131093600Y-79489400D02*
G01*
X130753600Y-79019400D01*
X131433600Y-79019400D01*
X131093600Y-79489400D01*
G37*
%TO.C,U9*%
X120751600Y-69358600D02*
X118801600Y-69358600D01*
X120751600Y-69358600D02*
X122701600Y-69358600D01*
X120751600Y-74478600D02*
X118801600Y-74478600D01*
X120751600Y-74478600D02*
X122701600Y-74478600D01*
X123691600Y-74713600D02*
X123211600Y-74713600D01*
X123451600Y-74383600D01*
X123691600Y-74713600D01*
G36*
X123691600Y-74713600D02*
G01*
X123211600Y-74713600D01*
X123451600Y-74383600D01*
X123691600Y-74713600D01*
G37*
%TO.C,C19*%
X135561400Y-66210548D02*
X135561400Y-66733052D01*
X137031400Y-66210548D02*
X137031400Y-66733052D01*
%TO.C,R8*%
X102185736Y-98680600D02*
X102639864Y-98680600D01*
X102185736Y-100150600D02*
X102639864Y-100150600D01*
%TO.C,R20*%
X116547114Y-78958650D02*
X116092986Y-78958650D01*
X116547114Y-80428650D02*
X116092986Y-80428650D01*
%TO.C,R4*%
X176757064Y-94134000D02*
X176302936Y-94134000D01*
X176757064Y-95604000D02*
X176302936Y-95604000D01*
%TO.C,C22*%
X145078651Y-63220200D02*
X145078651Y-62154200D01*
X145118651Y-63455200D02*
X145118651Y-61919200D01*
X145158651Y-63635200D02*
X145158651Y-61739200D01*
X145198651Y-63785200D02*
X145198651Y-61589200D01*
X145238651Y-63916200D02*
X145238651Y-61458200D01*
X145278651Y-64033200D02*
X145278651Y-61341200D01*
X145318651Y-64140200D02*
X145318651Y-61234200D01*
X145358651Y-64239200D02*
X145358651Y-61135200D01*
X145398651Y-64332200D02*
X145398651Y-61042200D01*
X145438651Y-64418200D02*
X145438651Y-60956200D01*
X145478651Y-64500200D02*
X145478651Y-60874200D01*
X145518651Y-64577200D02*
X145518651Y-60797200D01*
X145558651Y-64651200D02*
X145558651Y-60723200D01*
X145598651Y-64721200D02*
X145598651Y-60653200D01*
X145638651Y-61647200D02*
X145638651Y-60585200D01*
X145638651Y-64789200D02*
X145638651Y-63727200D01*
X145678651Y-61647200D02*
X145678651Y-60521200D01*
X145678651Y-64853200D02*
X145678651Y-63727200D01*
X145718651Y-61647200D02*
X145718651Y-60459200D01*
X145718651Y-64915200D02*
X145718651Y-63727200D01*
X145758651Y-61647200D02*
X145758651Y-60400200D01*
X145758651Y-64974200D02*
X145758651Y-63727200D01*
X145798651Y-61647200D02*
X145798651Y-60342200D01*
X145798651Y-65032200D02*
X145798651Y-63727200D01*
X145838651Y-61647200D02*
X145838651Y-60287200D01*
X145838651Y-65087200D02*
X145838651Y-63727200D01*
X145878651Y-61647200D02*
X145878651Y-60233200D01*
X145878651Y-65141200D02*
X145878651Y-63727200D01*
X145918651Y-61647200D02*
X145918651Y-60182200D01*
X145918651Y-65192200D02*
X145918651Y-63727200D01*
X145958651Y-61647200D02*
X145958651Y-60131200D01*
X145958651Y-65243200D02*
X145958651Y-63727200D01*
X145998651Y-61647200D02*
X145998651Y-60083200D01*
X145998651Y-65291200D02*
X145998651Y-63727200D01*
X146038651Y-61647200D02*
X146038651Y-60036200D01*
X146038651Y-65338200D02*
X146038651Y-63727200D01*
X146078651Y-61647200D02*
X146078651Y-59990200D01*
X146078651Y-65384200D02*
X146078651Y-63727200D01*
X146118651Y-61647200D02*
X146118651Y-59946200D01*
X146118651Y-65428200D02*
X146118651Y-63727200D01*
X146158651Y-61647200D02*
X146158651Y-59903200D01*
X146158651Y-65471200D02*
X146158651Y-63727200D01*
X146198651Y-61647200D02*
X146198651Y-59861200D01*
X146198651Y-65513200D02*
X146198651Y-63727200D01*
X146238651Y-61647200D02*
X146238651Y-59820200D01*
X146238651Y-65554200D02*
X146238651Y-63727200D01*
X146278651Y-61647200D02*
X146278651Y-59780200D01*
X146278651Y-65594200D02*
X146278651Y-63727200D01*
X146318651Y-61647200D02*
X146318651Y-59742200D01*
X146318651Y-65632200D02*
X146318651Y-63727200D01*
X146358651Y-61647200D02*
X146358651Y-59704200D01*
X146358651Y-65670200D02*
X146358651Y-63727200D01*
X146398651Y-61647200D02*
X146398651Y-59668200D01*
X146398651Y-65706200D02*
X146398651Y-63727200D01*
X146438651Y-61647200D02*
X146438651Y-59632200D01*
X146438651Y-65742200D02*
X146438651Y-63727200D01*
X146478651Y-61647200D02*
X146478651Y-59597200D01*
X146478651Y-65777200D02*
X146478651Y-63727200D01*
X146518651Y-61647200D02*
X146518651Y-59563200D01*
X146518651Y-65811200D02*
X146518651Y-63727200D01*
X146558651Y-61647200D02*
X146558651Y-59531200D01*
X146558651Y-65843200D02*
X146558651Y-63727200D01*
X146598651Y-61647200D02*
X146598651Y-59498200D01*
X146598651Y-65876200D02*
X146598651Y-63727200D01*
X146638651Y-61647200D02*
X146638651Y-59467200D01*
X146638651Y-65907200D02*
X146638651Y-63727200D01*
X146678651Y-61647200D02*
X146678651Y-59437200D01*
X146678651Y-65937200D02*
X146678651Y-63727200D01*
X146718651Y-61647200D02*
X146718651Y-59407200D01*
X146718651Y-65967200D02*
X146718651Y-63727200D01*
X146758651Y-61647200D02*
X146758651Y-59378200D01*
X146758651Y-65996200D02*
X146758651Y-63727200D01*
X146798651Y-61647200D02*
X146798651Y-59349200D01*
X146798651Y-66025200D02*
X146798651Y-63727200D01*
X146838651Y-61647200D02*
X146838651Y-59322200D01*
X146838651Y-66052200D02*
X146838651Y-63727200D01*
X146878651Y-61647200D02*
X146878651Y-59295200D01*
X146878651Y-66079200D02*
X146878651Y-63727200D01*
X146918651Y-61647200D02*
X146918651Y-59269200D01*
X146918651Y-66105200D02*
X146918651Y-63727200D01*
X146958651Y-61647200D02*
X146958651Y-59243200D01*
X146958651Y-66131200D02*
X146958651Y-63727200D01*
X146998651Y-61647200D02*
X146998651Y-59218200D01*
X146998651Y-66156200D02*
X146998651Y-63727200D01*
X147038651Y-61647200D02*
X147038651Y-59194200D01*
X147038651Y-66180200D02*
X147038651Y-63727200D01*
X147078651Y-61647200D02*
X147078651Y-59170200D01*
X147078651Y-66204200D02*
X147078651Y-63727200D01*
X147118651Y-61647200D02*
X147118651Y-59147200D01*
X147118651Y-66227200D02*
X147118651Y-63727200D01*
X147158651Y-61647200D02*
X147158651Y-59125200D01*
X147158651Y-66249200D02*
X147158651Y-63727200D01*
X147198651Y-61647200D02*
X147198651Y-59103200D01*
X147198651Y-66271200D02*
X147198651Y-63727200D01*
X147238651Y-61647200D02*
X147238651Y-59081200D01*
X147238651Y-66293200D02*
X147238651Y-63727200D01*
X147278651Y-61647200D02*
X147278651Y-59060200D01*
X147278651Y-66314200D02*
X147278651Y-63727200D01*
X147318651Y-61647200D02*
X147318651Y-59040200D01*
X147318651Y-66334200D02*
X147318651Y-63727200D01*
X147358651Y-61647200D02*
X147358651Y-59021200D01*
X147358651Y-66353200D02*
X147358651Y-63727200D01*
X147398651Y-61647200D02*
X147398651Y-59001200D01*
X147398651Y-66373200D02*
X147398651Y-63727200D01*
X147438651Y-61647200D02*
X147438651Y-58983200D01*
X147438651Y-66391200D02*
X147438651Y-63727200D01*
X147478651Y-61647200D02*
X147478651Y-58965200D01*
X147478651Y-66409200D02*
X147478651Y-63727200D01*
X147518651Y-61647200D02*
X147518651Y-58947200D01*
X147518651Y-66427200D02*
X147518651Y-63727200D01*
X147558651Y-61647200D02*
X147558651Y-58930200D01*
X147558651Y-66444200D02*
X147558651Y-63727200D01*
X147598651Y-61647200D02*
X147598651Y-58913200D01*
X147598651Y-66461200D02*
X147598651Y-63727200D01*
X147638651Y-61647200D02*
X147638651Y-58897200D01*
X147638651Y-66477200D02*
X147638651Y-63727200D01*
X147678651Y-61647200D02*
X147678651Y-58882200D01*
X147678651Y-66492200D02*
X147678651Y-63727200D01*
X147718651Y-66508200D02*
X147718651Y-58866200D01*
X147758651Y-66522200D02*
X147758651Y-58852200D01*
X147798651Y-66537200D02*
X147798651Y-58837200D01*
X147838651Y-66550200D02*
X147838651Y-58824200D01*
X147878651Y-66564200D02*
X147878651Y-58810200D01*
X147918651Y-66576200D02*
X147918651Y-58798200D01*
X147958651Y-66589200D02*
X147958651Y-58785200D01*
X147998651Y-66601200D02*
X147998651Y-58773200D01*
X148038651Y-66612200D02*
X148038651Y-58762200D01*
X148078651Y-66623200D02*
X148078651Y-58751200D01*
X148118651Y-66634200D02*
X148118651Y-58740200D01*
X148158651Y-66644200D02*
X148158651Y-58730200D01*
X148198651Y-66654200D02*
X148198651Y-58720200D01*
X148238651Y-66663200D02*
X148238651Y-58711200D01*
X148278651Y-66672200D02*
X148278651Y-58702200D01*
X148318651Y-66681200D02*
X148318651Y-58693200D01*
X148358651Y-66689200D02*
X148358651Y-58685200D01*
X148398651Y-66697200D02*
X148398651Y-58677200D01*
X148438651Y-66704200D02*
X148438651Y-58670200D01*
X148479651Y-66711200D02*
X148479651Y-58663200D01*
X148519651Y-66717200D02*
X148519651Y-58657200D01*
X148559651Y-66724200D02*
X148559651Y-58650200D01*
X148599651Y-66729200D02*
X148599651Y-58645200D01*
X148639651Y-66735200D02*
X148639651Y-58639200D01*
X148679651Y-66739200D02*
X148679651Y-58635200D01*
X148719651Y-66744200D02*
X148719651Y-58630200D01*
X148759651Y-66748200D02*
X148759651Y-58626200D01*
X148799651Y-66752200D02*
X148799651Y-58622200D01*
X148839651Y-66755200D02*
X148839651Y-58619200D01*
X148879651Y-66758200D02*
X148879651Y-58616200D01*
X148919651Y-66761200D02*
X148919651Y-58613200D01*
X148959651Y-66763200D02*
X148959651Y-58611200D01*
X148999651Y-66764200D02*
X148999651Y-58610200D01*
X149039651Y-66766200D02*
X149039651Y-58608200D01*
X149079651Y-66767200D02*
X149079651Y-58607200D01*
X149119651Y-66767200D02*
X149119651Y-58607200D01*
X149159651Y-66767200D02*
X149159651Y-58607200D01*
X153169349Y-65402200D02*
X153169349Y-64602200D01*
X153569349Y-65002200D02*
X152769349Y-65002200D01*
X153279651Y-62687200D02*
G75*
G02*
X145039651Y-62687200I-4120000J0D01*
G01*
X145039651Y-62687200D02*
G75*
G02*
X153279651Y-62687200I4120000J0D01*
G01*
%TO.C,C7*%
X167393252Y-89257200D02*
X166870748Y-89257200D01*
X167393252Y-90727200D02*
X166870748Y-90727200D01*
%TO.C,D3*%
X166720800Y-70740000D02*
X166720800Y-74040000D01*
X166720800Y-70740000D02*
X172230800Y-70740000D01*
X166720800Y-74040000D02*
X172230800Y-74040000D01*
%TO.C,C3*%
X127306400Y-82770652D02*
X127306400Y-82248148D01*
X128776400Y-82770652D02*
X128776400Y-82248148D01*
%TO.C,C20*%
X165023800Y-63287677D02*
X175183800Y-63287677D01*
X165023800Y-63327677D02*
X175183800Y-63327677D01*
X165023800Y-63367677D02*
X175183800Y-63367677D01*
X165024800Y-63247677D02*
X175182800Y-63247677D01*
X165025800Y-63207677D02*
X175181800Y-63207677D01*
X165026800Y-63167677D02*
X175180800Y-63167677D01*
X165028800Y-63127677D02*
X175178800Y-63127677D01*
X165030800Y-63087677D02*
X175176800Y-63087677D01*
X165033800Y-63047677D02*
X175173800Y-63047677D01*
X165035800Y-63007677D02*
X175171800Y-63007677D01*
X165038800Y-62967677D02*
X175168800Y-62967677D01*
X165041800Y-62927677D02*
X175165800Y-62927677D01*
X165045800Y-62887677D02*
X175161800Y-62887677D01*
X165049800Y-62847677D02*
X175157800Y-62847677D01*
X165053800Y-62807677D02*
X175153800Y-62807677D01*
X165058800Y-62767677D02*
X175148800Y-62767677D01*
X165063800Y-62727677D02*
X175143800Y-62727677D01*
X165068800Y-62687677D02*
X175138800Y-62687677D01*
X165073800Y-62646677D02*
X175133800Y-62646677D01*
X165079800Y-62606677D02*
X175127800Y-62606677D01*
X165085800Y-62566677D02*
X175121800Y-62566677D01*
X165092800Y-62526677D02*
X175114800Y-62526677D01*
X165099800Y-62486677D02*
X175107800Y-62486677D01*
X165106800Y-62446677D02*
X175100800Y-62446677D01*
X165113800Y-62406677D02*
X175093800Y-62406677D01*
X165121800Y-62366677D02*
X175085800Y-62366677D01*
X165129800Y-62326677D02*
X175077800Y-62326677D01*
X165138800Y-62286677D02*
X175068800Y-62286677D01*
X165147800Y-62246677D02*
X175059800Y-62246677D01*
X165156800Y-62206677D02*
X175050800Y-62206677D01*
X165165800Y-62166677D02*
X175041800Y-62166677D01*
X165175800Y-62126677D02*
X175031800Y-62126677D01*
X165185800Y-62086677D02*
X168862800Y-62086677D01*
X165196800Y-62046677D02*
X168862800Y-62046677D01*
X165206800Y-62006677D02*
X168862800Y-62006677D01*
X165218800Y-61966677D02*
X168862800Y-61966677D01*
X165229800Y-61926677D02*
X168862800Y-61926677D01*
X165241800Y-61886677D02*
X168862800Y-61886677D01*
X165253800Y-61846677D02*
X168862800Y-61846677D01*
X165266800Y-61806677D02*
X168862800Y-61806677D01*
X165279800Y-61766677D02*
X168862800Y-61766677D01*
X165292800Y-61726677D02*
X168862800Y-61726677D01*
X165306800Y-61686677D02*
X168862800Y-61686677D01*
X165320800Y-61646677D02*
X168862800Y-61646677D01*
X165335800Y-61606677D02*
X168862800Y-61606677D01*
X165349800Y-61566677D02*
X168862800Y-61566677D01*
X165365800Y-61526677D02*
X168862800Y-61526677D01*
X165380800Y-61486677D02*
X168862800Y-61486677D01*
X165396800Y-61446677D02*
X168862800Y-61446677D01*
X165413800Y-61406677D02*
X168862800Y-61406677D01*
X165429800Y-61366677D02*
X168862800Y-61366677D01*
X165446800Y-61326677D02*
X168862800Y-61326677D01*
X165464800Y-61286677D02*
X168862800Y-61286677D01*
X165482800Y-61246677D02*
X168862800Y-61246677D01*
X165500800Y-61206677D02*
X168862800Y-61206677D01*
X165519800Y-61166677D02*
X168862800Y-61166677D01*
X165539800Y-61126677D02*
X168862800Y-61126677D01*
X165558800Y-61086677D02*
X168862800Y-61086677D01*
X165578800Y-61046677D02*
X168862800Y-61046677D01*
X165599800Y-61006677D02*
X168862800Y-61006677D01*
X165620800Y-60966677D02*
X168862800Y-60966677D01*
X165641800Y-60926677D02*
X168862800Y-60926677D01*
X165663800Y-60886677D02*
X168862800Y-60886677D01*
X165686800Y-60846677D02*
X168862800Y-60846677D01*
X165708800Y-60806677D02*
X168862800Y-60806677D01*
X165732800Y-60766677D02*
X168862800Y-60766677D01*
X165756800Y-60726677D02*
X168862800Y-60726677D01*
X165780800Y-60686677D02*
X168862800Y-60686677D01*
X165805800Y-60646677D02*
X168862800Y-60646677D01*
X165830800Y-60606677D02*
X168862800Y-60606677D01*
X165856800Y-60566677D02*
X168862800Y-60566677D01*
X165882800Y-60526677D02*
X168862800Y-60526677D01*
X165909800Y-60486677D02*
X168862800Y-60486677D01*
X165937800Y-60446677D02*
X168862800Y-60446677D01*
X165965800Y-60406677D02*
X168862800Y-60406677D01*
X165993800Y-60366677D02*
X168862800Y-60366677D01*
X166023800Y-60326677D02*
X168862800Y-60326677D01*
X166053800Y-60286677D02*
X168862800Y-60286677D01*
X166083800Y-60246677D02*
X168862800Y-60246677D01*
X166114800Y-60206677D02*
X168862800Y-60206677D01*
X166146800Y-60166677D02*
X168862800Y-60166677D01*
X166178800Y-60126677D02*
X168862800Y-60126677D01*
X166211800Y-60086677D02*
X168862800Y-60086677D01*
X166245800Y-60046677D02*
X168862800Y-60046677D01*
X166279800Y-60006677D02*
X168862800Y-60006677D01*
X166314800Y-59966677D02*
X168862800Y-59966677D01*
X166350800Y-59926677D02*
X168862800Y-59926677D01*
X166387800Y-59886677D02*
X168862800Y-59886677D01*
X166424800Y-59846677D02*
X168862800Y-59846677D01*
X166463800Y-59806677D02*
X168862800Y-59806677D01*
X166502800Y-59766677D02*
X168862800Y-59766677D01*
X166542800Y-59726677D02*
X168862800Y-59726677D01*
X166583800Y-59686677D02*
X168862800Y-59686677D01*
X166625800Y-59646677D02*
X168862800Y-59646677D01*
X166667800Y-59606677D02*
X173539800Y-59606677D01*
X166711800Y-59566677D02*
X173495800Y-59566677D01*
X166728800Y-68347323D02*
X167728800Y-68347323D01*
X166756800Y-59526677D02*
X173450800Y-59526677D01*
X166802800Y-59486677D02*
X173404800Y-59486677D01*
X166849800Y-59446677D02*
X173357800Y-59446677D01*
X166897800Y-59406677D02*
X173309800Y-59406677D01*
X166947800Y-59366677D02*
X173259800Y-59366677D01*
X166997800Y-59326677D02*
X173209800Y-59326677D01*
X167049800Y-59286677D02*
X173157800Y-59286677D01*
X167103800Y-59246677D02*
X173103800Y-59246677D01*
X167158800Y-59206677D02*
X173048800Y-59206677D01*
X167214800Y-59166677D02*
X172992800Y-59166677D01*
X167228800Y-68847323D02*
X167228800Y-67847323D01*
X167273800Y-59126677D02*
X172933800Y-59126677D01*
X167333800Y-59086677D02*
X172873800Y-59086677D01*
X167394800Y-59046677D02*
X172812800Y-59046677D01*
X167458800Y-59006677D02*
X172748800Y-59006677D01*
X167524800Y-58966677D02*
X172682800Y-58966677D01*
X167593800Y-58926677D02*
X172613800Y-58926677D01*
X167664800Y-58886677D02*
X172542800Y-58886677D01*
X167738800Y-58846677D02*
X172468800Y-58846677D01*
X167814800Y-58806677D02*
X172392800Y-58806677D01*
X167894800Y-58766677D02*
X172312800Y-58766677D01*
X167978800Y-58726677D02*
X172228800Y-58726677D01*
X168066800Y-58686677D02*
X172140800Y-58686677D01*
X168159800Y-58646677D02*
X172047800Y-58646677D01*
X168257800Y-58606677D02*
X171949800Y-58606677D01*
X168361800Y-58566677D02*
X171845800Y-58566677D01*
X168473800Y-58526677D02*
X171733800Y-58526677D01*
X168593800Y-58486677D02*
X171613800Y-58486677D01*
X168725800Y-58446677D02*
X171481800Y-58446677D01*
X168873800Y-58406677D02*
X171333800Y-58406677D01*
X169041800Y-58366677D02*
X171165800Y-58366677D01*
X169241800Y-58326677D02*
X170965800Y-58326677D01*
X169504800Y-58286677D02*
X170702800Y-58286677D01*
X171344800Y-59646677D02*
X173581800Y-59646677D01*
X171344800Y-59686677D02*
X173623800Y-59686677D01*
X171344800Y-59726677D02*
X173664800Y-59726677D01*
X171344800Y-59766677D02*
X173704800Y-59766677D01*
X171344800Y-59806677D02*
X173743800Y-59806677D01*
X171344800Y-59846677D02*
X173782800Y-59846677D01*
X171344800Y-59886677D02*
X173819800Y-59886677D01*
X171344800Y-59926677D02*
X173856800Y-59926677D01*
X171344800Y-59966677D02*
X173892800Y-59966677D01*
X171344800Y-60006677D02*
X173927800Y-60006677D01*
X171344800Y-60046677D02*
X173961800Y-60046677D01*
X171344800Y-60086677D02*
X173995800Y-60086677D01*
X171344800Y-60126677D02*
X174028800Y-60126677D01*
X171344800Y-60166677D02*
X174060800Y-60166677D01*
X171344800Y-60206677D02*
X174092800Y-60206677D01*
X171344800Y-60246677D02*
X174123800Y-60246677D01*
X171344800Y-60286677D02*
X174153800Y-60286677D01*
X171344800Y-60326677D02*
X174183800Y-60326677D01*
X171344800Y-60366677D02*
X174213800Y-60366677D01*
X171344800Y-60406677D02*
X174241800Y-60406677D01*
X171344800Y-60446677D02*
X174269800Y-60446677D01*
X171344800Y-60486677D02*
X174297800Y-60486677D01*
X171344800Y-60526677D02*
X174324800Y-60526677D01*
X171344800Y-60566677D02*
X174350800Y-60566677D01*
X171344800Y-60606677D02*
X174376800Y-60606677D01*
X171344800Y-60646677D02*
X174401800Y-60646677D01*
X171344800Y-60686677D02*
X174426800Y-60686677D01*
X171344800Y-60726677D02*
X174450800Y-60726677D01*
X171344800Y-60766677D02*
X174474800Y-60766677D01*
X171344800Y-60806677D02*
X174498800Y-60806677D01*
X171344800Y-60846677D02*
X174520800Y-60846677D01*
X171344800Y-60886677D02*
X174543800Y-60886677D01*
X171344800Y-60926677D02*
X174565800Y-60926677D01*
X171344800Y-60966677D02*
X174586800Y-60966677D01*
X171344800Y-61006677D02*
X174607800Y-61006677D01*
X171344800Y-61046677D02*
X174628800Y-61046677D01*
X171344800Y-61086677D02*
X174648800Y-61086677D01*
X171344800Y-61126677D02*
X174667800Y-61126677D01*
X171344800Y-61166677D02*
X174687800Y-61166677D01*
X171344800Y-61206677D02*
X174706800Y-61206677D01*
X171344800Y-61246677D02*
X174724800Y-61246677D01*
X171344800Y-61286677D02*
X174742800Y-61286677D01*
X171344800Y-61326677D02*
X174760800Y-61326677D01*
X171344800Y-61366677D02*
X174777800Y-61366677D01*
X171344800Y-61406677D02*
X174793800Y-61406677D01*
X171344800Y-61446677D02*
X174810800Y-61446677D01*
X171344800Y-61486677D02*
X174826800Y-61486677D01*
X171344800Y-61526677D02*
X174841800Y-61526677D01*
X171344800Y-61566677D02*
X174857800Y-61566677D01*
X171344800Y-61606677D02*
X174871800Y-61606677D01*
X171344800Y-61646677D02*
X174886800Y-61646677D01*
X171344800Y-61686677D02*
X174900800Y-61686677D01*
X171344800Y-61726677D02*
X174914800Y-61726677D01*
X171344800Y-61766677D02*
X174927800Y-61766677D01*
X171344800Y-61806677D02*
X174940800Y-61806677D01*
X171344800Y-61846677D02*
X174953800Y-61846677D01*
X171344800Y-61886677D02*
X174965800Y-61886677D01*
X171344800Y-61926677D02*
X174977800Y-61926677D01*
X171344800Y-61966677D02*
X174988800Y-61966677D01*
X171344800Y-62006677D02*
X175000800Y-62006677D01*
X171344800Y-62046677D02*
X175010800Y-62046677D01*
X171344800Y-62086677D02*
X175021800Y-62086677D01*
X175223800Y-63367677D02*
G75*
G02*
X164983800Y-63367677I-5120000J0D01*
G01*
X164983800Y-63367677D02*
G75*
G02*
X175223800Y-63367677I5120000J0D01*
G01*
%TO.C,J4*%
X98498000Y-66227000D02*
X108419000Y-66227000D01*
X98498000Y-76347000D02*
X98498000Y-66227000D01*
X98498000Y-76347000D02*
X108419000Y-76347000D01*
X101458000Y-76347000D02*
X101458000Y-66227000D01*
X102484000Y-67717000D02*
X102520000Y-67752000D01*
X102690000Y-67512000D02*
X102736000Y-67559000D01*
X104782000Y-70014000D02*
X104828000Y-70061000D01*
X104998000Y-69821000D02*
X105033000Y-69856000D01*
X106359000Y-76347000D02*
X106359000Y-66227000D01*
X107859000Y-76347000D02*
X107859000Y-66227000D01*
X107919000Y-76587000D02*
X108659000Y-76587000D01*
X108419000Y-76347000D02*
X108419000Y-66227000D01*
X108659000Y-76587000D02*
X108659000Y-76087000D01*
X102223573Y-74470042D02*
G75*
G02*
X102224000Y-73103000I1535420J683041D01*
G01*
X103075958Y-72251573D02*
G75*
G02*
X104443000Y-72252000I683042J-1535427D01*
G01*
X104442042Y-75322427D02*
G75*
G02*
X103075000Y-75322000I-683041J1535420D01*
G01*
X105293756Y-73103682D02*
G75*
G02*
X105439000Y-73787000I-1534756J-683318D01*
G01*
X105439253Y-73758195D02*
G75*
G02*
X105294000Y-74471000I-1680254J-28806D01*
G01*
X105439000Y-68787000D02*
G75*
G02*
X102079000Y-68787000I-1680000J0D01*
G01*
X102079000Y-68787000D02*
G75*
G02*
X105439000Y-68787000I1680000J0D01*
G01*
%TO.C,R15*%
X133018264Y-65051000D02*
X132564136Y-65051000D01*
X133018264Y-66521000D02*
X132564136Y-66521000D01*
%TO.C,C9*%
X171254052Y-89231800D02*
X170731548Y-89231800D01*
X171254052Y-90701800D02*
X170731548Y-90701800D01*
%TO.C,R16*%
X146810464Y-108866000D02*
X146356336Y-108866000D01*
X146810464Y-110336000D02*
X146356336Y-110336000D01*
%TO.C,R14*%
X106579936Y-90400200D02*
X107034064Y-90400200D01*
X106579936Y-91870200D02*
X107034064Y-91870200D01*
%TO.C,C8*%
X173128000Y-83776452D02*
X173128000Y-83253948D01*
X174598000Y-83776452D02*
X174598000Y-83253948D01*
%TO.C,J5*%
X124755600Y-61103200D02*
X124755600Y-63763200D01*
X134975600Y-61103200D02*
X124755600Y-61103200D01*
X134975600Y-61103200D02*
X134975600Y-63763200D01*
X134975600Y-63763200D02*
X124755600Y-63763200D01*
X136245600Y-61103200D02*
X137575600Y-61103200D01*
X137575600Y-61103200D02*
X137575600Y-62433200D01*
%TO.C,R22*%
X112241064Y-73814000D02*
X111786936Y-73814000D01*
X112241064Y-75284000D02*
X111786936Y-75284000D01*
%TO.C,R24*%
X116511336Y-65889200D02*
X116965464Y-65889200D01*
X116511336Y-67359200D02*
X116965464Y-67359200D01*
%TO.C,R12*%
X116887364Y-103303400D02*
X116433236Y-103303400D01*
X116887364Y-104773400D02*
X116433236Y-104773400D01*
%TO.C,FB1*%
X142721400Y-85934978D02*
X142721400Y-86734222D01*
X143841400Y-85934978D02*
X143841400Y-86734222D01*
%TO.C,R17*%
X116754664Y-86895000D02*
X116300536Y-86895000D01*
X116754664Y-88365000D02*
X116300536Y-88365000D01*
%TO.C,K1*%
X161506400Y-94017600D02*
X162806400Y-94017600D01*
X161506400Y-95317600D02*
X161506400Y-94017600D01*
X161706400Y-94217600D02*
X166906400Y-94217600D01*
X161706400Y-122417600D02*
X161706400Y-94217600D01*
X166906400Y-94217600D02*
X166906400Y-122417600D01*
X166906400Y-122417600D02*
X161706400Y-122417600D01*
%TO.C,R7*%
X102340036Y-106783200D02*
X102794164Y-106783200D01*
X102340036Y-108253200D02*
X102794164Y-108253200D01*
%TO.C,R10*%
X106679636Y-106757800D02*
X107133764Y-106757800D01*
X106679636Y-108227800D02*
X107133764Y-108227800D01*
%TO.C,J2*%
X139919400Y-58817200D02*
X141249400Y-58817200D01*
X139919400Y-60147200D02*
X139919400Y-58817200D01*
X139919400Y-61417200D02*
X139919400Y-66557200D01*
X139919400Y-61417200D02*
X142579400Y-61417200D01*
X139919400Y-66557200D02*
X142579400Y-66557200D01*
X142579400Y-61417200D02*
X142579400Y-66557200D01*
%TO.C,U8*%
X111282800Y-82048600D02*
X116082800Y-82048600D01*
X111282800Y-82198600D02*
X111282800Y-82048600D01*
X111282800Y-86048600D02*
X111282800Y-85898600D01*
X116082800Y-82048600D02*
X116082800Y-82198600D01*
X116082800Y-85898600D02*
X116082800Y-86048600D01*
X116082800Y-86048600D02*
X111282800Y-86048600D01*
X110832800Y-82198600D02*
X110592800Y-81868600D01*
X111072800Y-81868600D01*
X110832800Y-82198600D01*
G36*
X110832800Y-82198600D02*
G01*
X110592800Y-81868600D01*
X111072800Y-81868600D01*
X110832800Y-82198600D01*
G37*
%TO.C,C5*%
X142495600Y-82263348D02*
X142495600Y-82785852D01*
X143965600Y-82263348D02*
X143965600Y-82785852D01*
%TO.C,J3*%
X143530000Y-122456400D02*
X143530000Y-112535400D01*
X144815000Y-118264400D02*
X144862000Y-118218400D01*
X145020000Y-118470400D02*
X145055000Y-118434400D01*
X147124000Y-115956400D02*
X147159000Y-115921400D01*
X147317000Y-116172400D02*
X147364000Y-116126400D01*
X153650000Y-112535400D02*
X143530000Y-112535400D01*
X153650000Y-113095400D02*
X143530000Y-113095400D01*
X153650000Y-114595400D02*
X143530000Y-114595400D01*
X153650000Y-119496400D02*
X143530000Y-119496400D01*
X153650000Y-122456400D02*
X143530000Y-122456400D01*
X153650000Y-122456400D02*
X153650000Y-112535400D01*
X153890000Y-112295400D02*
X153390000Y-112295400D01*
X153890000Y-113035400D02*
X153890000Y-112295400D01*
X149554573Y-117878442D02*
G75*
G02*
X149555000Y-116511400I1535427J683042D01*
G01*
X150406682Y-115660644D02*
G75*
G02*
X151090000Y-115515400I683318J-1534756D01*
G01*
X151061195Y-115515147D02*
G75*
G02*
X151774000Y-115660400I28806J-1680254D01*
G01*
X151773042Y-118730827D02*
G75*
G02*
X150406000Y-118730400I-683041J1535420D01*
G01*
X152625427Y-116512358D02*
G75*
G02*
X152625000Y-117879400I-1535420J-683041D01*
G01*
X147770000Y-117195400D02*
G75*
G02*
X144410000Y-117195400I-1680000J0D01*
G01*
X144410000Y-117195400D02*
G75*
G02*
X147770000Y-117195400I1680000J0D01*
G01*
%TO.C,R2*%
X170738436Y-91340000D02*
X171192564Y-91340000D01*
X170738436Y-92810000D02*
X171192564Y-92810000D01*
%TO.C,L1*%
X151305600Y-68622000D02*
X151305600Y-75142000D01*
X151305600Y-68622000D02*
X151455600Y-68622000D01*
X151305600Y-75142000D02*
X151455600Y-75142000D01*
X157825600Y-68622000D02*
X157675600Y-68622000D01*
X157825600Y-68622000D02*
X157825600Y-75142000D01*
X157825600Y-75142000D02*
X157675600Y-75142000D01*
%TO.C,C1*%
X122632800Y-97300148D02*
X122632800Y-97822652D01*
X124102800Y-97300148D02*
X124102800Y-97822652D01*
%TO.C,R19*%
X106527236Y-82196000D02*
X106981364Y-82196000D01*
X106527236Y-83666000D02*
X106981364Y-83666000D01*
%TO.C,R6*%
X169318000Y-118843164D02*
X169318000Y-118389036D01*
X170788000Y-118843164D02*
X170788000Y-118389036D01*
%TO.C,C21*%
X161245400Y-69389800D02*
X161911400Y-69389800D01*
X161245400Y-74729800D02*
X161245400Y-69389800D01*
X161245400Y-74729800D02*
X161911400Y-74729800D01*
X164021400Y-69389800D02*
X164687400Y-69389800D01*
X164021400Y-74729800D02*
X164687400Y-74729800D01*
X164687400Y-74729800D02*
X164687400Y-69389800D01*
%TO.C,D4*%
X146438600Y-68651400D02*
X146438600Y-74161400D01*
X149738600Y-68651400D02*
X146438600Y-68651400D01*
X149738600Y-68651400D02*
X149738600Y-74161400D01*
%TO.C,J11*%
X178233800Y-64702400D02*
X178233800Y-65202400D01*
X178473800Y-64942400D02*
X178473800Y-75062400D01*
X178973800Y-64702400D02*
X178233800Y-64702400D01*
X179033800Y-64942400D02*
X179033800Y-75062400D01*
X180533800Y-64942400D02*
X180533800Y-75062400D01*
X181894800Y-71468400D02*
X181859800Y-71433400D01*
X182110800Y-71275400D02*
X182064800Y-71228400D01*
X184202800Y-73777400D02*
X184156800Y-73730400D01*
X184408800Y-73572400D02*
X184372800Y-73537400D01*
X185434800Y-64942400D02*
X185434800Y-75062400D01*
X188394800Y-64942400D02*
X178473800Y-64942400D01*
X188394800Y-64942400D02*
X188394800Y-75062400D01*
X188394800Y-75062400D02*
X178473800Y-75062400D01*
X181453547Y-67531205D02*
G75*
G02*
X181598800Y-66818400I1680254J28806D01*
G01*
X181599044Y-68185718D02*
G75*
G02*
X181453800Y-67502400I1534756J683318D01*
G01*
X182450758Y-65966973D02*
G75*
G02*
X183817800Y-65967400I683041J-1535420D01*
G01*
X183816842Y-69037827D02*
G75*
G02*
X182449800Y-69037400I-683042J1535427D01*
G01*
X184669227Y-66819358D02*
G75*
G02*
X184668800Y-68186400I-1535420J-683041D01*
G01*
X184813800Y-72502400D02*
G75*
G02*
X181453800Y-72502400I-1680000J0D01*
G01*
X181453800Y-72502400D02*
G75*
G02*
X184813800Y-72502400I1680000J0D01*
G01*
%TO.C,RV1*%
X155541600Y-79328600D02*
X155541600Y-79578600D01*
X155541600Y-85038600D02*
X155541600Y-81498600D01*
X155641600Y-79128600D02*
X155641600Y-79328600D01*
X155641600Y-79128600D02*
X157061600Y-79128600D01*
X155641600Y-79328600D02*
X155541600Y-79328600D01*
X157061600Y-79328600D02*
X157061600Y-79128600D01*
X157061600Y-79328600D02*
X160641600Y-79328600D01*
X158341600Y-86348600D02*
X156851600Y-86348600D01*
X160641600Y-79128600D02*
X162061600Y-79128600D01*
X160641600Y-79328600D02*
X160641600Y-79128600D01*
X160851600Y-86348600D02*
X159361600Y-86348600D01*
X162061600Y-79128600D02*
X162061600Y-79328600D01*
X162061600Y-79328600D02*
X162161600Y-79328600D01*
X162161600Y-79328600D02*
X162161600Y-80018600D01*
X162161600Y-81058600D02*
X162161600Y-85038600D01*
X156851600Y-86348600D02*
G75*
G02*
X155541600Y-85038600I0J1310000D01*
G01*
X162161600Y-85038600D02*
G75*
G02*
X160851600Y-86348600I-1310000J0D01*
G01*
%TO.C,J8*%
X143094400Y-106003400D02*
X143094400Y-104673400D01*
X144424400Y-106003400D02*
X143094400Y-106003400D01*
X145694400Y-103343400D02*
X158454400Y-103343400D01*
X145694400Y-106003400D02*
X145694400Y-103343400D01*
X145694400Y-106003400D02*
X158454400Y-106003400D01*
X158454400Y-106003400D02*
X158454400Y-103343400D01*
%TO.C,C23*%
X148368652Y-76735000D02*
X147846148Y-76735000D01*
X148368652Y-78205000D02*
X147846148Y-78205000D01*
%TO.C,C6*%
X173102600Y-86835348D02*
X173102600Y-87357852D01*
X174572600Y-86835348D02*
X174572600Y-87357852D01*
%TO.C,C12*%
X146230748Y-87301400D02*
X146753252Y-87301400D01*
X146230748Y-88771400D02*
X146753252Y-88771400D01*
%TO.C,R11*%
X116809264Y-95251600D02*
X116355136Y-95251600D01*
X116809264Y-96721600D02*
X116355136Y-96721600D01*
%TO.C,R5*%
X171859836Y-94134000D02*
X172313964Y-94134000D01*
X171859836Y-95604000D02*
X172313964Y-95604000D01*
%TO.C,J6*%
X106442200Y-60214200D02*
X106442200Y-62874200D01*
X119202200Y-60214200D02*
X106442200Y-60214200D01*
X119202200Y-60214200D02*
X119202200Y-62874200D01*
X119202200Y-62874200D02*
X106442200Y-62874200D01*
X120472200Y-60214200D02*
X121802200Y-60214200D01*
X121802200Y-60214200D02*
X121802200Y-61544200D01*
%TO.C,R1*%
X135737236Y-74499800D02*
X136191364Y-74499800D01*
X135737236Y-75969800D02*
X136191364Y-75969800D01*
%TO.C,D2*%
X114706400Y-69382200D02*
X114056400Y-69382200D01*
X114706400Y-69382200D02*
X115356400Y-69382200D01*
X114706400Y-72502200D02*
X114056400Y-72502200D01*
X114706400Y-72502200D02*
X115356400Y-72502200D01*
X113543900Y-69432200D02*
X113303900Y-69102200D01*
X113783900Y-69102200D01*
X113543900Y-69432200D01*
G36*
X113543900Y-69432200D02*
G01*
X113303900Y-69102200D01*
X113783900Y-69102200D01*
X113543900Y-69432200D01*
G37*
%TO.C,U7*%
X111232000Y-90176600D02*
X116032000Y-90176600D01*
X111232000Y-90326600D02*
X111232000Y-90176600D01*
X111232000Y-94176600D02*
X111232000Y-94026600D01*
X116032000Y-90176600D02*
X116032000Y-90326600D01*
X116032000Y-94026600D02*
X116032000Y-94176600D01*
X116032000Y-94176600D02*
X111232000Y-94176600D01*
X110782000Y-90326600D02*
X110542000Y-89996600D01*
X111022000Y-89996600D01*
X110782000Y-90326600D01*
G36*
X110782000Y-90326600D02*
G01*
X110542000Y-89996600D01*
X111022000Y-89996600D01*
X110782000Y-90326600D01*
G37*
%TO.C,Y1*%
X122493400Y-89854800D02*
X128743400Y-89854800D01*
X122493400Y-94904800D02*
X128743400Y-94904800D01*
X122493400Y-94904800D02*
G75*
G02*
X122493400Y-89854800I0J2525000D01*
G01*
X128743400Y-89854800D02*
G75*
G02*
X128743400Y-94904800I0J-2525000D01*
G01*
%TO.C,R18*%
X102238436Y-82246800D02*
X102692564Y-82246800D01*
X102238436Y-83716800D02*
X102692564Y-83716800D01*
%TO.C,R25*%
X120724664Y-65889200D02*
X120270536Y-65889200D01*
X120724664Y-67359200D02*
X120270536Y-67359200D01*
%TO.C,U2*%
X167538400Y-82682400D02*
X165588400Y-82682400D01*
X167538400Y-82682400D02*
X169488400Y-82682400D01*
X167538400Y-87802400D02*
X165588400Y-87802400D01*
X167538400Y-87802400D02*
X169488400Y-87802400D01*
X164838400Y-82777400D02*
X164598400Y-82447400D01*
X165078400Y-82447400D01*
X164838400Y-82777400D01*
G36*
X164838400Y-82777400D02*
G01*
X164598400Y-82447400D01*
X165078400Y-82447400D01*
X164838400Y-82777400D01*
G37*
%TO.C,J1*%
X173578200Y-122380200D02*
X173578200Y-112459200D01*
X174863200Y-118188200D02*
X174910200Y-118142200D01*
X175068200Y-118394200D02*
X175103200Y-118358200D01*
X177172200Y-115880200D02*
X177207200Y-115845200D01*
X177365200Y-116096200D02*
X177412200Y-116050200D01*
X183698200Y-112459200D02*
X173578200Y-112459200D01*
X183698200Y-113019200D02*
X173578200Y-113019200D01*
X183698200Y-114519200D02*
X173578200Y-114519200D01*
X183698200Y-119420200D02*
X173578200Y-119420200D01*
X183698200Y-122380200D02*
X173578200Y-122380200D01*
X183698200Y-122380200D02*
X183698200Y-112459200D01*
X183938200Y-112219200D02*
X183438200Y-112219200D01*
X183938200Y-112959200D02*
X183938200Y-112219200D01*
X179602773Y-117802242D02*
G75*
G02*
X179603200Y-116435200I1535427J683042D01*
G01*
X180454882Y-115584444D02*
G75*
G02*
X181138200Y-115439200I683318J-1534756D01*
G01*
X181109395Y-115438947D02*
G75*
G02*
X181822200Y-115584200I28806J-1680254D01*
G01*
X181821242Y-118654627D02*
G75*
G02*
X180454200Y-118654200I-683041J1535420D01*
G01*
X182673627Y-116436158D02*
G75*
G02*
X182673200Y-117803200I-1535420J-683041D01*
G01*
X177818200Y-117119200D02*
G75*
G02*
X174458200Y-117119200I-1680000J0D01*
G01*
X174458200Y-117119200D02*
G75*
G02*
X177818200Y-117119200I1680000J0D01*
G01*
%TO.C,U10*%
X158085000Y-61575000D02*
X156135000Y-61575000D01*
X158085000Y-61575000D02*
X160035000Y-61575000D01*
X158085000Y-66695000D02*
X156135000Y-66695000D01*
X158085000Y-66695000D02*
X160035000Y-66695000D01*
X155385000Y-61670000D02*
X155145000Y-61340000D01*
X155625000Y-61340000D01*
X155385000Y-61670000D01*
G36*
X155385000Y-61670000D02*
G01*
X155145000Y-61340000D01*
X155625000Y-61340000D01*
X155385000Y-61670000D01*
G37*
%TO.C,C11*%
X171127052Y-79427400D02*
X170604548Y-79427400D01*
X171127052Y-80897400D02*
X170604548Y-80897400D01*
%TO.C,R21*%
X111888536Y-66956000D02*
X112342664Y-66956000D01*
X111888536Y-68426000D02*
X112342664Y-68426000D01*
%TO.C,R23*%
X110579700Y-70690736D02*
X110579700Y-71144864D01*
X112049700Y-70690736D02*
X112049700Y-71144864D01*
%TO.C,R26*%
X141581200Y-75261736D02*
X141581200Y-75715864D01*
X143051200Y-75261736D02*
X143051200Y-75715864D01*
%TO.C,C18*%
X151924652Y-108916800D02*
X151402148Y-108916800D01*
X151924652Y-110386800D02*
X151402148Y-110386800D01*
%TO.C,D5*%
X141236200Y-69280600D02*
X141080200Y-69280600D01*
X143552200Y-69280600D02*
X143396200Y-69280600D01*
X141236363Y-71881730D02*
G75*
G02*
X141236200Y-69799639I1079837J1041130D01*
G01*
X141237592Y-72512935D02*
G75*
G02*
X141080684Y-69280600I1078608J1672335D01*
G01*
X143396200Y-69799639D02*
G75*
G02*
X143396037Y-71881730I-1080000J-1040961D01*
G01*
X143551716Y-69280600D02*
G75*
G02*
X143394808Y-72512935I-1235516J-1560000D01*
G01*
%TO.C,R13*%
X102390836Y-90349400D02*
X102844964Y-90349400D01*
X102390836Y-91819400D02*
X102844964Y-91819400D01*
%TO.C,J7*%
X104816600Y-122405800D02*
X104816600Y-112484800D01*
X106141600Y-118213800D02*
X106188600Y-118167800D01*
X106346600Y-118419800D02*
X106381600Y-118383800D01*
X108450600Y-115905800D02*
X108485600Y-115870800D01*
X108643600Y-116121800D02*
X108690600Y-116075800D01*
X111221600Y-118213800D02*
X111268600Y-118167800D01*
X111426600Y-118419800D02*
X111461600Y-118383800D01*
X113530600Y-115905800D02*
X113565600Y-115870800D01*
X113723600Y-116121800D02*
X113770600Y-116075800D01*
X116301600Y-118213800D02*
X116348600Y-118167800D01*
X116506600Y-118419800D02*
X116541600Y-118383800D01*
X118610600Y-115905800D02*
X118645600Y-115870800D01*
X118803600Y-116121800D02*
X118850600Y-116075800D01*
X121381600Y-118213800D02*
X121428600Y-118167800D01*
X121586600Y-118419800D02*
X121621600Y-118383800D01*
X123690600Y-115905800D02*
X123725600Y-115870800D01*
X123883600Y-116121800D02*
X123930600Y-116075800D01*
X126461600Y-118213800D02*
X126508600Y-118167800D01*
X126666600Y-118419800D02*
X126701600Y-118383800D01*
X128770600Y-115905800D02*
X128805600Y-115870800D01*
X128963600Y-116121800D02*
X129010600Y-116075800D01*
X131541600Y-118213800D02*
X131588600Y-118167800D01*
X131746600Y-118419800D02*
X131781600Y-118383800D01*
X133850600Y-115905800D02*
X133885600Y-115870800D01*
X134043600Y-116121800D02*
X134090600Y-116075800D01*
X140496600Y-112484800D02*
X104816600Y-112484800D01*
X140496600Y-113044800D02*
X104816600Y-113044800D01*
X140496600Y-114544800D02*
X104816600Y-114544800D01*
X140496600Y-119445800D02*
X104816600Y-119445800D01*
X140496600Y-122405800D02*
X104816600Y-122405800D01*
X140496600Y-122405800D02*
X140496600Y-112484800D01*
X140736600Y-112244800D02*
X140236600Y-112244800D01*
X140736600Y-112984800D02*
X140736600Y-112244800D01*
X136361173Y-117827842D02*
G75*
G02*
X136361600Y-116460800I1535427J683042D01*
G01*
X137213282Y-115610044D02*
G75*
G02*
X137896600Y-115464800I683318J-1534756D01*
G01*
X137867795Y-115464547D02*
G75*
G02*
X138580600Y-115609800I28806J-1680254D01*
G01*
X138579642Y-118680227D02*
G75*
G02*
X137212600Y-118679800I-683041J1535420D01*
G01*
X139432027Y-116461758D02*
G75*
G02*
X139431600Y-117828800I-1535420J-683041D01*
G01*
X109096600Y-117144800D02*
G75*
G02*
X105736600Y-117144800I-1680000J0D01*
G01*
X105736600Y-117144800D02*
G75*
G02*
X109096600Y-117144800I1680000J0D01*
G01*
X114176600Y-117144800D02*
G75*
G02*
X110816600Y-117144800I-1680000J0D01*
G01*
X110816600Y-117144800D02*
G75*
G02*
X114176600Y-117144800I1680000J0D01*
G01*
X119256600Y-117144800D02*
G75*
G02*
X115896600Y-117144800I-1680000J0D01*
G01*
X115896600Y-117144800D02*
G75*
G02*
X119256600Y-117144800I1680000J0D01*
G01*
X124336600Y-117144800D02*
G75*
G02*
X120976600Y-117144800I-1680000J0D01*
G01*
X120976600Y-117144800D02*
G75*
G02*
X124336600Y-117144800I1680000J0D01*
G01*
X129416600Y-117144800D02*
G75*
G02*
X126056600Y-117144800I-1680000J0D01*
G01*
X126056600Y-117144800D02*
G75*
G02*
X129416600Y-117144800I1680000J0D01*
G01*
X134496600Y-117144800D02*
G75*
G02*
X131136600Y-117144800I-1680000J0D01*
G01*
X131136600Y-117144800D02*
G75*
G02*
X134496600Y-117144800I1680000J0D01*
G01*
%TO.C,R3*%
X165787336Y-79402000D02*
X166241464Y-79402000D01*
X165787336Y-80872000D02*
X166241464Y-80872000D01*
%TO.C,JP1*%
X134449600Y-71618600D02*
X137249600Y-71618600D01*
X134449600Y-73618600D02*
X134449600Y-71618600D01*
X137249600Y-71618600D02*
X137249600Y-73618600D01*
X137249600Y-73618600D02*
X134449600Y-73618600D01*
%TO.C,R9*%
X106425636Y-98655200D02*
X106879764Y-98655200D01*
X106425636Y-100125200D02*
X106879764Y-100125200D01*
%TO.C,Q1*%
X174476000Y-101701800D02*
X178076000Y-101701800D01*
X174437522Y-101690278D02*
G75*
G02*
X176276000Y-97251799I1838478J1838478D01*
G01*
X176276000Y-97251800D02*
G75*
G02*
X178114478Y-101690278I0J-2600000D01*
G01*
%TO.C,C10*%
X156129513Y-92206600D02*
X156129513Y-91638600D01*
X156169513Y-92440600D02*
X156169513Y-91404600D01*
X156209513Y-92599600D02*
X156209513Y-91245600D01*
X156249513Y-92727600D02*
X156249513Y-91117600D01*
X156289513Y-92837600D02*
X156289513Y-91007600D01*
X156329513Y-92933600D02*
X156329513Y-90911600D01*
X156369513Y-93020600D02*
X156369513Y-90824600D01*
X156409513Y-93100600D02*
X156409513Y-90744600D01*
X156449513Y-90882600D02*
X156449513Y-90671600D01*
X156449513Y-93173600D02*
X156449513Y-92962600D01*
X156489513Y-90882600D02*
X156489513Y-90603600D01*
X156489513Y-93241600D02*
X156489513Y-92962600D01*
X156529513Y-90882600D02*
X156529513Y-90539600D01*
X156529513Y-93305600D02*
X156529513Y-92962600D01*
X156569513Y-90882600D02*
X156569513Y-90479600D01*
X156569513Y-93365600D02*
X156569513Y-92962600D01*
X156609513Y-90882600D02*
X156609513Y-90422600D01*
X156609513Y-93422600D02*
X156609513Y-92962600D01*
X156649513Y-90882600D02*
X156649513Y-90368600D01*
X156649513Y-93476600D02*
X156649513Y-92962600D01*
X156689513Y-90882600D02*
X156689513Y-90317600D01*
X156689513Y-93527600D02*
X156689513Y-92962600D01*
X156729513Y-90882600D02*
X156729513Y-90269600D01*
X156729513Y-93575600D02*
X156729513Y-92962600D01*
X156769513Y-90882600D02*
X156769513Y-90223600D01*
X156769513Y-93621600D02*
X156769513Y-92962600D01*
X156809513Y-90882600D02*
X156809513Y-90179600D01*
X156809513Y-93665600D02*
X156809513Y-92962600D01*
X156849513Y-90882600D02*
X156849513Y-90137600D01*
X156849513Y-93707600D02*
X156849513Y-92962600D01*
X156889513Y-90882600D02*
X156889513Y-90096600D01*
X156889513Y-93748600D02*
X156889513Y-92962600D01*
X156929513Y-90882600D02*
X156929513Y-90058600D01*
X156929513Y-93786600D02*
X156929513Y-92962600D01*
X156969513Y-90882600D02*
X156969513Y-90021600D01*
X156969513Y-93823600D02*
X156969513Y-92962600D01*
X157009513Y-90882600D02*
X157009513Y-89985600D01*
X157009513Y-93859600D02*
X157009513Y-92962600D01*
X157049513Y-90882600D02*
X157049513Y-89951600D01*
X157049513Y-93893600D02*
X157049513Y-92962600D01*
X157089513Y-90882600D02*
X157089513Y-89918600D01*
X157089513Y-93926600D02*
X157089513Y-92962600D01*
X157129513Y-90882600D02*
X157129513Y-89887600D01*
X157129513Y-93957600D02*
X157129513Y-92962600D01*
X157169513Y-90882600D02*
X157169513Y-89857600D01*
X157169513Y-93987600D02*
X157169513Y-92962600D01*
X157209513Y-90882600D02*
X157209513Y-89827600D01*
X157209513Y-94017600D02*
X157209513Y-92962600D01*
X157249513Y-90882600D02*
X157249513Y-89800600D01*
X157249513Y-94044600D02*
X157249513Y-92962600D01*
X157289513Y-90882600D02*
X157289513Y-89773600D01*
X157289513Y-94071600D02*
X157289513Y-92962600D01*
X157329513Y-90882600D02*
X157329513Y-89747600D01*
X157329513Y-94097600D02*
X157329513Y-92962600D01*
X157369513Y-90882600D02*
X157369513Y-89722600D01*
X157369513Y-94122600D02*
X157369513Y-92962600D01*
X157409513Y-90882600D02*
X157409513Y-89698600D01*
X157409513Y-94146600D02*
X157409513Y-92962600D01*
X157449513Y-90882600D02*
X157449513Y-89675600D01*
X157449513Y-94169600D02*
X157449513Y-92962600D01*
X157489513Y-90882600D02*
X157489513Y-89654600D01*
X157489513Y-94190600D02*
X157489513Y-92962600D01*
X157529513Y-90882600D02*
X157529513Y-89632600D01*
X157529513Y-94212600D02*
X157529513Y-92962600D01*
X157569513Y-90882600D02*
X157569513Y-89612600D01*
X157569513Y-94232600D02*
X157569513Y-92962600D01*
X157609513Y-90882600D02*
X157609513Y-89593600D01*
X157609513Y-94251600D02*
X157609513Y-92962600D01*
X157649513Y-90882600D02*
X157649513Y-89574600D01*
X157649513Y-94270600D02*
X157649513Y-92962600D01*
X157689513Y-90882600D02*
X157689513Y-89557600D01*
X157689513Y-94287600D02*
X157689513Y-92962600D01*
X157729513Y-90882600D02*
X157729513Y-89540600D01*
X157729513Y-94304600D02*
X157729513Y-92962600D01*
X157769513Y-90882600D02*
X157769513Y-89524600D01*
X157769513Y-94320600D02*
X157769513Y-92962600D01*
X157809513Y-90882600D02*
X157809513Y-89508600D01*
X157809513Y-94336600D02*
X157809513Y-92962600D01*
X157849513Y-90882600D02*
X157849513Y-89494600D01*
X157849513Y-94350600D02*
X157849513Y-92962600D01*
X157889513Y-90882600D02*
X157889513Y-89480600D01*
X157889513Y-94364600D02*
X157889513Y-92962600D01*
X157929513Y-90882600D02*
X157929513Y-89467600D01*
X157929513Y-94377600D02*
X157929513Y-92962600D01*
X157969513Y-90882600D02*
X157969513Y-89454600D01*
X157969513Y-94390600D02*
X157969513Y-92962600D01*
X158009513Y-90882600D02*
X158009513Y-89442600D01*
X158009513Y-94402600D02*
X158009513Y-92962600D01*
X158050513Y-90882600D02*
X158050513Y-89431600D01*
X158050513Y-94413600D02*
X158050513Y-92962600D01*
X158090513Y-90882600D02*
X158090513Y-89421600D01*
X158090513Y-94423600D02*
X158090513Y-92962600D01*
X158130513Y-90882600D02*
X158130513Y-89411600D01*
X158130513Y-94433600D02*
X158130513Y-92962600D01*
X158170513Y-90882600D02*
X158170513Y-89402600D01*
X158170513Y-94442600D02*
X158170513Y-92962600D01*
X158210513Y-90882600D02*
X158210513Y-89394600D01*
X158210513Y-94450600D02*
X158210513Y-92962600D01*
X158250513Y-90882600D02*
X158250513Y-89386600D01*
X158250513Y-94458600D02*
X158250513Y-92962600D01*
X158290513Y-90882600D02*
X158290513Y-89379600D01*
X158290513Y-94465600D02*
X158290513Y-92962600D01*
X158330513Y-90882600D02*
X158330513Y-89372600D01*
X158330513Y-94472600D02*
X158330513Y-92962600D01*
X158370513Y-90882600D02*
X158370513Y-89366600D01*
X158370513Y-94478600D02*
X158370513Y-92962600D01*
X158410513Y-90882600D02*
X158410513Y-89361600D01*
X158410513Y-94483600D02*
X158410513Y-92962600D01*
X158450513Y-90882600D02*
X158450513Y-89357600D01*
X158450513Y-94487600D02*
X158450513Y-92962600D01*
X158490513Y-90882600D02*
X158490513Y-89353600D01*
X158490513Y-94491600D02*
X158490513Y-92962600D01*
X158530513Y-94495600D02*
X158530513Y-89349600D01*
X158570513Y-94498600D02*
X158570513Y-89346600D01*
X158610513Y-94500600D02*
X158610513Y-89344600D01*
X158650513Y-94501600D02*
X158650513Y-89343600D01*
X158690513Y-94502600D02*
X158690513Y-89342600D01*
X158730513Y-94502600D02*
X158730513Y-89342600D01*
X161285288Y-93647600D02*
X161285288Y-93147600D01*
X161535288Y-93397600D02*
X161035288Y-93397600D01*
X161350513Y-91922600D02*
G75*
G02*
X156110513Y-91922600I-2620000J0D01*
G01*
X156110513Y-91922600D02*
G75*
G02*
X161350513Y-91922600I2620000J0D01*
G01*
%TD*%
M02*
