M48
; DRILL file {KiCad 8.0.3} date 2025-02-24T14:24:00+0530
; FORMAT={-:-/ absolute / inch / decimal}
; #@! TF.CreationDate,2025-02-24T14:24:00+05:30
; #@! TF.GenerationSoftware,Kicad,Pcbnew,8.0.3
; #@! TF.FileFunction,Plated,1,2,PTH
FMAT,2
INCH
; #@! TA.AperFunction,Plated,PTH,ViaDrill
T1C0.0118
; #@! TA.AperFunction,Plated,PTH,ComponentDrill
T2C0.0295
; #@! TA.AperFunction,Plated,PTH,ComponentDrill
T3C0.0315
; #@! TA.AperFunction,Plated,PTH,ComponentDrill
T4C0.0354
; #@! TA.AperFunction,Plated,PTH,ComponentDrill
T5C0.0394
; #@! TA.AperFunction,Plated,PTH,ComponentDrill
T6C0.0433
; #@! TA.AperFunction,Plated,PTH,ComponentDrill
T7C0.0512
%
G90
G05
T1
X3.886Y-3.321
X3.893Y-3.722
X3.924Y-4.066
X4.329Y-2.865
X4.444Y-2.792
X4.449Y-4.26
X4.45Y-4.291
X4.484Y-2.792
X4.6566Y-2.7564
X4.657Y-2.72
X4.672Y-2.623
X4.699Y-3.519
X4.717Y-3.276
X4.746Y-4.046
X4.773Y-2.684
X4.84Y-3.139
X4.8795Y-3.256
X4.9075Y-3.218
X4.917Y-2.974
X4.932Y-3.242
X4.956Y-3.076
X4.964Y-3.292
X5.03Y-3.155
X5.101Y-3.132
X5.116Y-3.308
X5.169Y-3.482
X5.188Y-2.706
X5.245Y-2.704
X5.272Y-3.198
X5.274Y-3.341
X5.314Y-2.765
X5.327Y-3.66
X5.329Y-2.331
X5.348Y-3.567
X5.351Y-3.03
X5.387Y-3.722
X5.393Y-3.016
X5.399Y-3.198
X5.403Y-3.341
X5.426Y-2.861
X5.436Y-2.798
X5.467Y-2.332
X5.599Y-3.152
X5.664Y-3.105
X5.683Y-3.401
X5.689Y-3.051
X5.692Y-3.2864
X5.749Y-4.229
X5.753Y-3.99
X5.815Y-3.994
X5.825Y-4.23
X6.035Y-2.924
X6.043Y-2.629
X6.062Y-2.61
X6.077Y-3.467
X6.128Y-2.924
X6.209Y-3.43
X6.388Y-3.556
X6.42Y-3.445
X6.4465Y-3.5285
X6.921Y-3.664
T2
X6.89Y-3.9312
X6.94Y-3.9312
X6.99Y-3.9312
T3
X4.8495Y-3.637
X5.0417Y-3.637
X5.774Y-2.468
X5.9709Y-2.468
X6.2Y-3.619
X6.2984Y-3.619
X6.416Y-2.7386
X6.416Y-2.9354
T4
X5.603Y-2.739
X5.603Y-2.839
T5
X4.243Y-2.423
X4.343Y-2.423
X4.443Y-2.423
X4.543Y-2.423
X4.643Y-2.423
X4.743Y-2.423
X4.964Y-2.458
X5.064Y-2.458
X5.164Y-2.458
X5.264Y-2.458
X5.364Y-2.458
X5.561Y-2.368
X5.561Y-2.468
X5.561Y-2.568
X5.686Y-4.121
X5.786Y-4.121
X5.886Y-4.121
X5.986Y-4.121
X6.086Y-4.121
X6.1556Y-3.1708
X6.186Y-4.121
X6.254Y-3.3677
X6.3524Y-3.1708
X6.516Y-3.7566
X6.516Y-3.9042
X6.697Y-2.3964
X6.697Y-2.5932
T6
X6.701Y-3.88
X6.701Y-4.28
T7
X4.085Y-2.7081
X4.085Y-2.905
X4.229Y-4.612
X4.429Y-4.612
X4.629Y-4.612
X4.829Y-4.612
X5.029Y-4.612
X5.229Y-4.612
X5.429Y-4.612
X5.7516Y-4.614
X5.9484Y-4.614
X6.516Y-4.3471
X6.516Y-4.544
X6.516Y-4.7409
X6.9346Y-4.611
X7.1314Y-4.611
X7.21Y-2.6576
X7.21Y-2.8544
M30
