%TF.GenerationSoftware,KiCad,Pcbnew,8.0.3*%
%TF.CreationDate,2025-02-22T15:06:49+05:30*%
%TF.ProjectId,messenger_Project,6d657373-656e-4676-9572-5f50726f6a65,rev?*%
%TF.SameCoordinates,Original*%
%TF.FileFunction,Copper,L2,Bot*%
%TF.FilePolarity,Positive*%
%FSLAX46Y46*%
G04 Gerber Fmt 4.6, Leading zero omitted, Abs format (unit mm)*
G04 Created by KiCad (PCBNEW 8.0.3) date 2025-02-22 15:06:49*
%MOMM*%
%LPD*%
G01*
G04 APERTURE LIST*
%TA.AperFunction,ComponentPad*%
%ADD10R,2.200000X2.200000*%
%TD*%
%TA.AperFunction,ComponentPad*%
%ADD11O,2.200000X2.200000*%
%TD*%
%TA.AperFunction,ComponentPad*%
%ADD12R,1.600000X1.600000*%
%TD*%
%TA.AperFunction,ComponentPad*%
%ADD13C,1.600000*%
%TD*%
%TA.AperFunction,ComponentPad*%
%ADD14R,2.000000X2.000000*%
%TD*%
%TA.AperFunction,ComponentPad*%
%ADD15C,2.000000*%
%TD*%
%TA.AperFunction,ComponentPad*%
%ADD16R,2.600000X2.600000*%
%TD*%
%TA.AperFunction,ComponentPad*%
%ADD17C,2.600000*%
%TD*%
%TA.AperFunction,ComponentPad*%
%ADD18R,1.700000X1.700000*%
%TD*%
%TA.AperFunction,ComponentPad*%
%ADD19O,1.700000X1.700000*%
%TD*%
%TA.AperFunction,ComponentPad*%
%ADD20C,2.400000*%
%TD*%
%TA.AperFunction,ComponentPad*%
%ADD21R,1.560000X1.560000*%
%TD*%
%TA.AperFunction,ComponentPad*%
%ADD22C,1.560000*%
%TD*%
%TA.AperFunction,ComponentPad*%
%ADD23C,1.500000*%
%TD*%
%TA.AperFunction,ComponentPad*%
%ADD24R,1.800000X1.800000*%
%TD*%
%TA.AperFunction,ComponentPad*%
%ADD25C,1.800000*%
%TD*%
%TA.AperFunction,ComponentPad*%
%ADD26R,1.050000X1.500000*%
%TD*%
%TA.AperFunction,ComponentPad*%
%ADD27O,1.050000X1.500000*%
%TD*%
%TA.AperFunction,ViaPad*%
%ADD28C,0.600000*%
%TD*%
%TA.AperFunction,Conductor*%
%ADD29C,0.500000*%
%TD*%
%TA.AperFunction,Conductor*%
%ADD30C,1.000000*%
%TD*%
%TA.AperFunction,Conductor*%
%ADD31C,1.500000*%
%TD*%
G04 APERTURE END LIST*
D10*
%TO.P,D1,1,K*%
%TO.N,+24V*%
X170205400Y-108712000D03*
D11*
%TO.P,D1,2,A*%
%TO.N,Net-(D1-A)*%
X170205400Y-98552000D03*
%TD*%
D12*
%TO.P,C22,1*%
%TO.N,+5V*%
X151659651Y-62687200D03*
D13*
%TO.P,C22,2*%
%TO.N,GND*%
X146659651Y-62687200D03*
%TD*%
D14*
%TO.P,C20,1*%
%TO.N,+24V*%
X170103800Y-65867677D03*
D15*
%TO.P,C20,2*%
%TO.N,GND*%
X170103800Y-60867677D03*
%TD*%
D16*
%TO.P,J4,1,Pin_1*%
%TO.N,A*%
X103759000Y-73787000D03*
D17*
%TO.P,J4,2,Pin_2*%
%TO.N,B*%
X103759000Y-68787000D03*
%TD*%
D18*
%TO.P,J5,1,Pin_1*%
%TO.N,Net-(J5-Pin_1)*%
X136245600Y-62433200D03*
D19*
%TO.P,J5,2,Pin_2*%
%TO.N,RXD*%
X133705600Y-62433200D03*
%TO.P,J5,3,Pin_3*%
%TO.N,TXD*%
X131165600Y-62433200D03*
%TO.P,J5,4,Pin_4*%
%TO.N,+5V*%
X128625600Y-62433200D03*
%TO.P,J5,5,Pin_5*%
%TO.N,GND*%
X126085600Y-62433200D03*
%TD*%
D20*
%TO.P,K1,11*%
%TO.N,Net-(J1-Pin_1)*%
X165506400Y-115417600D03*
%TO.P,K1,12*%
%TO.N,OUT*%
X165506400Y-110417600D03*
%TO.P,K1,14*%
%TO.N,Net-(K1-Pad14)*%
X165506400Y-120417600D03*
D14*
%TO.P,K1,A1*%
%TO.N,+24V*%
X165506400Y-99167600D03*
D15*
%TO.P,K1,A2*%
%TO.N,Net-(D1-A)*%
X165506400Y-95417600D03*
%TD*%
D18*
%TO.P,J2,1,Pin_1*%
%TO.N,+24V*%
X141249400Y-60147200D03*
D19*
%TO.P,J2,2,Pin_2*%
%TO.N,+5V*%
X141249400Y-62687200D03*
%TO.P,J2,3,Pin_3*%
%TO.N,GND*%
X141249400Y-65227200D03*
%TD*%
D16*
%TO.P,J3,1,Pin_1*%
%TO.N,GND*%
X151090000Y-117195400D03*
D17*
%TO.P,J3,2,Pin_2*%
%TO.N,MUTE*%
X146090000Y-117195400D03*
%TD*%
D13*
%TO.P,C21,1*%
%TO.N,+24V*%
X162966400Y-74559800D03*
%TO.P,C21,2*%
%TO.N,GND*%
X162966400Y-69559800D03*
%TD*%
D16*
%TO.P,J11,1,Pin_1*%
%TO.N,GND*%
X183133800Y-67502400D03*
D17*
%TO.P,J11,2,Pin_2*%
%TO.N,Net-(D3-A)*%
X183133800Y-72502400D03*
%TD*%
D21*
%TO.P,RV1,1,1*%
%TO.N,IN*%
X156351600Y-80538600D03*
D22*
%TO.P,RV1,2,2*%
%TO.N,Net-(U2-+)*%
X158851600Y-85538600D03*
%TO.P,RV1,3,3*%
%TO.N,GND*%
X161351600Y-80538600D03*
%TD*%
D18*
%TO.P,J8,1,Pin_1*%
%TO.N,+5V*%
X144424400Y-104673400D03*
D19*
%TO.P,J8,2,Pin_2*%
%TO.N,GND*%
X146964400Y-104673400D03*
%TO.P,J8,3,Pin_3*%
%TO.N,SS*%
X149504400Y-104673400D03*
%TO.P,J8,4,Pin_4*%
%TO.N,MOSI*%
X152044400Y-104673400D03*
%TO.P,J8,5,Pin_5*%
%TO.N,MISO*%
X154584400Y-104673400D03*
%TO.P,J8,6,Pin_6*%
%TO.N,SCK*%
X157124400Y-104673400D03*
%TD*%
D18*
%TO.P,J6,1,Pin_1*%
%TO.N,+5V*%
X120472200Y-61544200D03*
D19*
%TO.P,J6,2,Pin_2*%
%TO.N,GND*%
X117932200Y-61544200D03*
%TO.P,J6,3,Pin_3*%
%TO.N,SDA*%
X115392200Y-61544200D03*
%TO.P,J6,4,Pin_4*%
%TO.N,SCL*%
X112852200Y-61544200D03*
%TO.P,J6,5,Pin_5*%
%TO.N,PC0*%
X110312200Y-61544200D03*
%TO.P,J6,6,Pin_6*%
%TO.N,PC1*%
X107772200Y-61544200D03*
%TD*%
D23*
%TO.P,Y1,1,1*%
%TO.N,Net-(U1-XTAL1{slash}PB6)*%
X123178400Y-92379800D03*
%TO.P,Y1,2,2*%
%TO.N,Net-(U1-XTAL2{slash}PB7)*%
X128058400Y-92379800D03*
%TD*%
D16*
%TO.P,J1,1,Pin_1*%
%TO.N,Net-(J1-Pin_1)*%
X181138200Y-117119200D03*
D17*
%TO.P,J1,2,Pin_2*%
%TO.N,GND*%
X176138200Y-117119200D03*
%TD*%
D24*
%TO.P,D5,1,K*%
%TO.N,GND*%
X142316200Y-69570600D03*
D25*
%TO.P,D5,2,A*%
%TO.N,Net-(D5-A)*%
X142316200Y-72110600D03*
%TD*%
D16*
%TO.P,J7,1,Pin_1*%
%TO.N,Net-(J7-Pin_1)*%
X137896600Y-117144800D03*
D17*
%TO.P,J7,2,Pin_2*%
%TO.N,Net-(J7-Pin_2)*%
X132816600Y-117144800D03*
%TO.P,J7,3,Pin_3*%
%TO.N,Net-(J7-Pin_3)*%
X127736600Y-117144800D03*
%TO.P,J7,4,Pin_4*%
%TO.N,Net-(J7-Pin_4)*%
X122656600Y-117144800D03*
%TO.P,J7,5,Pin_5*%
%TO.N,OUT_GND*%
X117576600Y-117144800D03*
%TO.P,J7,6,Pin_6*%
%TO.N,GND*%
X112496600Y-117144800D03*
%TO.P,J7,7,Pin_7*%
%TO.N,+24V*%
X107416600Y-117144800D03*
%TD*%
D26*
%TO.P,Q1,1,C*%
%TO.N,Net-(D1-A)*%
X175006000Y-99851800D03*
D27*
%TO.P,Q1,2,B*%
%TO.N,Net-(Q1-B)*%
X176276000Y-99851800D03*
%TO.P,Q1,3,E*%
%TO.N,GND*%
X177546000Y-99851800D03*
%TD*%
D12*
%TO.P,C10,1*%
%TO.N,Net-(C10-Pad1)*%
X159980513Y-91922600D03*
D13*
%TO.P,C10,2*%
%TO.N,OUT*%
X157480513Y-91922600D03*
%TD*%
D28*
%TO.N,+5V*%
X129946400Y-84023200D03*
%TO.N,GND*%
X153974800Y-66294000D03*
X153492200Y-66776600D03*
X113893600Y-70916800D03*
X112877600Y-70916800D03*
X147955000Y-107442000D03*
X146024600Y-107416600D03*
X147701000Y-101447600D03*
X146126200Y-101346000D03*
X163741100Y-89623900D03*
X163068000Y-87503000D03*
X118276600Y-70013600D03*
X118287800Y-69088000D03*
X137236200Y-84861400D03*
X133959600Y-84861400D03*
X137134600Y-81229200D03*
X133908800Y-81229200D03*
X119811800Y-83210400D03*
X137820400Y-72669400D03*
%TO.N,+5V*%
X157708600Y-87122000D03*
%TO.N,RS_MODE*%
X144500600Y-77495400D03*
X138074400Y-71069200D03*
X134975600Y-70231000D03*
%TO.N,+5V*%
X144348200Y-86385400D03*
X155651200Y-74269600D03*
X153289000Y-74269600D03*
X125272800Y-82346800D03*
X144576800Y-83474600D03*
X118668800Y-66624200D03*
%TO.N,B*%
X109956600Y-72771000D03*
%TO.N,TXD*%
X131775200Y-68732400D03*
%TO.N,RXD*%
X133223000Y-68681600D03*
%TO.N,OUT_GND*%
X113004600Y-108204000D03*
X113030000Y-108991400D03*
%TO.N,Net-(J7-Pin_1)*%
X98704400Y-84353400D03*
%TO.N,Net-(J7-Pin_3)*%
X99669600Y-103276400D03*
%TO.N,Net-(J7-Pin_2)*%
X98882200Y-94538800D03*
%TO.N,Relay*%
X162255200Y-90322400D03*
X135305800Y-92964000D03*
X154355800Y-88061800D03*
X175793400Y-93065600D03*
%TO.N,H2S*%
X129565400Y-79552800D03*
X119354600Y-89382600D03*
%TO.N,FIRE*%
X120548400Y-102768400D03*
X124651200Y-81737200D03*
%TO.N,ABANDOWN*%
X126085600Y-83616800D03*
X131292600Y-88442800D03*
%TO.N,EMG*%
X122936000Y-79730600D03*
X127762000Y-80137000D03*
%TO.N,SCL*%
X135915400Y-76962000D03*
%TO.N,SDA*%
X135356600Y-59207400D03*
X136982200Y-76606400D03*
X138861800Y-59232800D03*
%TO.N,IN*%
X136829800Y-94538800D03*
%TO.N,RS_MODE*%
X124891800Y-75539600D03*
%TO.N,PC1*%
X143865600Y-78867000D03*
%TO.N,PC0*%
X125882400Y-78130400D03*
X142214600Y-80060800D03*
X121234200Y-68173600D03*
%TO.N,RXD_S*%
X123940000Y-82702400D03*
X135839200Y-90601800D03*
%TD*%
D29*
%TO.N,+5V*%
X128092200Y-84023200D02*
X126415800Y-82346800D01*
X129946400Y-84023200D02*
X128092200Y-84023200D01*
X126415800Y-82346800D02*
X125272800Y-82346800D01*
%TO.N,RXD_S*%
X123940000Y-85179600D02*
X129362200Y-90601800D01*
X123940000Y-82702400D02*
X123940000Y-85179600D01*
X129362200Y-90601800D02*
X135839200Y-90601800D01*
%TO.N,GND*%
X163068000Y-88950800D02*
X163068000Y-87503000D01*
X163741100Y-89623900D02*
X163068000Y-88950800D01*
%TO.N,+5V*%
X144424400Y-97866200D02*
X144424400Y-104673400D01*
X145872200Y-96418400D02*
X144424400Y-97866200D01*
X157708600Y-88900000D02*
X150190200Y-96418400D01*
X150190200Y-96418400D02*
X145872200Y-96418400D01*
X157708600Y-87122000D02*
X157708600Y-88900000D01*
%TO.N,RS_MODE*%
X144500600Y-77495400D02*
X138074400Y-71069200D01*
%TO.N,PC0*%
X126415800Y-78663800D02*
X125882400Y-78130400D01*
X141325600Y-78663800D02*
X126415800Y-78663800D01*
X142214600Y-80060800D02*
X142214600Y-79552800D01*
X142214600Y-79552800D02*
X141325600Y-78663800D01*
%TO.N,PC1*%
X103352600Y-61544200D02*
X107772200Y-61544200D01*
X100279200Y-75869800D02*
X100279200Y-64617600D01*
X100279200Y-64617600D02*
X103352600Y-61544200D01*
X126605600Y-77380400D02*
X101789800Y-77380400D01*
X101789800Y-77380400D02*
X100279200Y-75869800D01*
X126961200Y-77712000D02*
X126949200Y-77724000D01*
X126949200Y-77724000D02*
X126605600Y-77380400D01*
X138696000Y-77712000D02*
X126961200Y-77712000D01*
X142290800Y-77292200D02*
X139115800Y-77292200D01*
X139115800Y-77292200D02*
X138696000Y-77712000D01*
X143865600Y-78867000D02*
X142290800Y-77292200D01*
%TO.N,RS_MODE*%
X130505200Y-75412600D02*
X129616200Y-76301600D01*
X130505200Y-70993000D02*
X130505200Y-75412600D01*
X129616200Y-76301600D02*
X125653800Y-76301600D01*
X131267200Y-70231000D02*
X130505200Y-70993000D01*
X134975600Y-70231000D02*
X131267200Y-70231000D01*
X125653800Y-76301600D02*
X124891800Y-75539600D01*
X134975600Y-70231000D02*
X135001000Y-70231000D01*
D30*
%TO.N,+5V*%
X151659651Y-72640251D02*
X151659651Y-62687200D01*
D29*
X120472200Y-61544200D02*
X120472200Y-63957200D01*
X142214600Y-89382600D02*
X144348200Y-87249000D01*
D30*
X153289000Y-74269600D02*
X155651200Y-74269600D01*
D29*
X125272800Y-85115400D02*
X129540000Y-89382600D01*
X120472200Y-63957200D02*
X118643400Y-65786000D01*
X125272800Y-82346800D02*
X125272800Y-85115400D01*
X144348200Y-87249000D02*
X144348200Y-86385400D01*
X129540000Y-89382600D02*
X142214600Y-89382600D01*
X144576800Y-83474600D02*
X144576800Y-86156800D01*
X144576800Y-86156800D02*
X144348200Y-86385400D01*
D30*
X153289000Y-74269600D02*
X151659651Y-72640251D01*
D29*
X118643400Y-66598800D02*
X118668800Y-66624200D01*
X118643400Y-65786000D02*
X118643400Y-66598800D01*
D31*
%TO.N,+24V*%
X156032200Y-124841000D02*
X158877000Y-121996200D01*
X113030000Y-124841000D02*
X156032200Y-124841000D01*
X165506400Y-102819200D02*
X165506400Y-99167600D01*
X158877000Y-121996200D02*
X158877000Y-109448600D01*
X107416600Y-117144800D02*
X107416600Y-119227600D01*
X107416600Y-119227600D02*
X113030000Y-124841000D01*
X158877000Y-109448600D02*
X165506400Y-102819200D01*
D29*
%TO.N,B*%
X105972600Y-68787000D02*
X103759000Y-68787000D01*
X109956600Y-72771000D02*
X105972600Y-68787000D01*
%TO.N,TXD*%
X131165600Y-62433200D02*
X131165600Y-68148200D01*
X131775200Y-68757800D02*
X131699000Y-68681600D01*
X131165600Y-68148200D02*
X131749800Y-68732400D01*
X131775200Y-68732400D02*
X131775200Y-68757800D01*
X131749800Y-68732400D02*
X131775200Y-68732400D01*
%TO.N,RXD*%
X133705600Y-62433200D02*
X133705600Y-68199000D01*
X133705600Y-68199000D02*
X133223000Y-68681600D01*
X133223000Y-68681600D02*
X133273800Y-68630800D01*
D30*
%TO.N,OUT_GND*%
X117576600Y-117144800D02*
X117576600Y-114782600D01*
X113030000Y-108991400D02*
X113030000Y-108229400D01*
X117576600Y-114782600D02*
X113004600Y-110210600D01*
X113004600Y-110210600D02*
X113004600Y-109016800D01*
X113030000Y-108229400D02*
X113004600Y-108204000D01*
X113004600Y-109016800D02*
X113030000Y-108991400D01*
%TO.N,Net-(J7-Pin_1)*%
X118643400Y-104038400D02*
X120650000Y-106045000D01*
X98704400Y-84353400D02*
X102438200Y-88087200D01*
X102438200Y-88087200D02*
X112166400Y-88087200D01*
X112166400Y-88087200D02*
X118643400Y-94564200D01*
X118643400Y-94564200D02*
X118643400Y-104038400D01*
X135661400Y-106045000D02*
X137896600Y-108280200D01*
X137896600Y-108280200D02*
X137896600Y-117144800D01*
X120650000Y-106045000D02*
X135661400Y-106045000D01*
%TO.N,Net-(J7-Pin_3)*%
X124866400Y-110058200D02*
X127736600Y-112928400D01*
X112801400Y-104292400D02*
X118592600Y-110083600D01*
X124841000Y-110083600D02*
X124866400Y-110058200D01*
X100685600Y-104292400D02*
X112801400Y-104292400D01*
X99669600Y-103276400D02*
X100685600Y-104292400D01*
X127736600Y-112928400D02*
X127736600Y-117144800D01*
X118592600Y-110083600D02*
X124841000Y-110083600D01*
%TO.N,Net-(J7-Pin_2)*%
X113665000Y-95681800D02*
X115290600Y-97307400D01*
X131267200Y-108026200D02*
X132816600Y-109575600D01*
X119684800Y-108026200D02*
X131267200Y-108026200D01*
X115290600Y-103632000D02*
X119684800Y-108026200D01*
X98882200Y-94538800D02*
X100025200Y-95681800D01*
X100025200Y-95681800D02*
X113665000Y-95681800D01*
X115290600Y-97307400D02*
X115290600Y-103632000D01*
X132816600Y-109575600D02*
X132816600Y-117144800D01*
D29*
%TO.N,Relay*%
X154355800Y-88036400D02*
X154355800Y-88036400D01*
X162255200Y-90322400D02*
X164973000Y-93040200D01*
X149428200Y-92964000D02*
X154330400Y-88061800D01*
X154330400Y-88061800D02*
X154355800Y-88061800D01*
X164973000Y-93040200D02*
X175793400Y-93065600D01*
X175793400Y-93065600D02*
X175818800Y-93040200D01*
X154355800Y-88061800D02*
X154355800Y-88036400D01*
X135305800Y-92964000D02*
X149428200Y-92964000D01*
%TO.N,H2S*%
X122682000Y-78689200D02*
X124942600Y-78689200D01*
X121945400Y-86791800D02*
X121945400Y-79425800D01*
X125640400Y-79387000D02*
X129399600Y-79387000D01*
X129399600Y-79387000D02*
X129565400Y-79552800D01*
X119354600Y-89382600D02*
X121945400Y-86791800D01*
X129565400Y-79552800D02*
X129540000Y-79527400D01*
X121945400Y-79425800D02*
X122682000Y-78689200D01*
X124942600Y-78689200D02*
X125640400Y-79387000D01*
%TO.N,FIRE*%
X123596400Y-81737200D02*
X123190000Y-82143600D01*
X120548400Y-102717600D02*
X120548400Y-102717600D01*
X120548400Y-102768400D02*
X120599200Y-102768400D01*
X120548400Y-89560400D02*
X120548400Y-102768400D01*
X123190000Y-86918800D02*
X120548400Y-89560400D01*
X123190000Y-82143600D02*
X123190000Y-86918800D01*
X124651200Y-81737200D02*
X123596400Y-81737200D01*
X120599200Y-102768400D02*
X120599200Y-102768400D01*
%TO.N,ABANDOWN*%
X129971800Y-88442800D02*
X131292600Y-88442800D01*
X126085600Y-84556600D02*
X129895600Y-88366600D01*
X126085600Y-83616800D02*
X126085600Y-84556600D01*
X129895600Y-88366600D02*
X129971800Y-88442800D01*
%TO.N,EMG*%
X127762000Y-80162400D02*
X127711200Y-80111600D01*
X125349000Y-80492600D02*
X127406400Y-80492600D01*
X127762000Y-80137000D02*
X127762000Y-80162400D01*
X124587000Y-79730600D02*
X125349000Y-80492600D01*
X127406400Y-80492600D02*
X127762000Y-80137000D01*
X122936000Y-79730600D02*
X124587000Y-79730600D01*
%TO.N,SCL*%
X138125200Y-59918600D02*
X138125200Y-66344800D01*
X112852200Y-61544200D02*
X112852200Y-58699400D01*
X112852200Y-58699400D02*
X114249200Y-57302400D01*
X135915400Y-68554600D02*
X135915400Y-76962000D01*
X114249200Y-57302400D02*
X135509000Y-57302400D01*
X135509000Y-57302400D02*
X138125200Y-59918600D01*
X138125200Y-66344800D02*
X135915400Y-68554600D01*
%TO.N,SDA*%
X134797800Y-58648600D02*
X135356600Y-59207400D01*
X139192000Y-59563000D02*
X139192000Y-66802000D01*
X116103400Y-58648600D02*
X134797800Y-58648600D01*
X115392200Y-61544200D02*
X115392200Y-59359800D01*
X136982200Y-69011800D02*
X136982200Y-76606400D01*
X115392200Y-59359800D02*
X116103400Y-58648600D01*
X138861800Y-59232800D02*
X139192000Y-59563000D01*
X135356600Y-59207400D02*
X135305800Y-59156600D01*
X139192000Y-66802000D02*
X136982200Y-69011800D01*
%TO.N,IN*%
X149961600Y-94538800D02*
X156351600Y-88148800D01*
X136829800Y-94538800D02*
X149961600Y-94538800D01*
X156351600Y-88148800D02*
X156351600Y-80538600D01*
%TO.N,PC0*%
X115062000Y-68173600D02*
X121234200Y-68173600D01*
X121234200Y-68173600D02*
X121183400Y-68173600D01*
X110312200Y-63423800D02*
X115062000Y-68173600D01*
X110312200Y-61544200D02*
X110312200Y-63423800D01*
%TO.N,RXD_S*%
X135839200Y-90601800D02*
X135661400Y-90601800D01*
%TD*%
%TA.AperFunction,Conductor*%
%TO.N,GND*%
G36*
X192380939Y-56028185D02*
G01*
X192426694Y-56080989D01*
X192437900Y-56132500D01*
X192437900Y-126883500D01*
X192418215Y-126950539D01*
X192365411Y-126996294D01*
X192313900Y-127007500D01*
X93562900Y-127007500D01*
X93495861Y-126987815D01*
X93450106Y-126935011D01*
X93438900Y-126883500D01*
X93438900Y-124358398D01*
X94336590Y-124358398D01*
X94336590Y-124358401D01*
X94357004Y-124643833D01*
X94417828Y-124923437D01*
X94517835Y-125191566D01*
X94654970Y-125442709D01*
X94654975Y-125442717D01*
X94826454Y-125671787D01*
X94826470Y-125671805D01*
X95028794Y-125874129D01*
X95028812Y-125874145D01*
X95257882Y-126045624D01*
X95257890Y-126045629D01*
X95509033Y-126182764D01*
X95509032Y-126182764D01*
X95509036Y-126182765D01*
X95509039Y-126182767D01*
X95777154Y-126282769D01*
X95777160Y-126282770D01*
X95777162Y-126282771D01*
X96056766Y-126343595D01*
X96056768Y-126343595D01*
X96056772Y-126343596D01*
X96310420Y-126361737D01*
X96342199Y-126364010D01*
X96342200Y-126364010D01*
X96342201Y-126364010D01*
X96370795Y-126361964D01*
X96627628Y-126343596D01*
X96907246Y-126282769D01*
X97175361Y-126182767D01*
X97426515Y-126045626D01*
X97655595Y-125874139D01*
X97857939Y-125671795D01*
X98029426Y-125442715D01*
X98166567Y-125191561D01*
X98266569Y-124923446D01*
X98327396Y-124643828D01*
X98347810Y-124358400D01*
X98327396Y-124072972D01*
X98288672Y-123894962D01*
X98266571Y-123793362D01*
X98266570Y-123793360D01*
X98266569Y-123793354D01*
X98166567Y-123525239D01*
X98141703Y-123479705D01*
X98029429Y-123274090D01*
X98029424Y-123274082D01*
X97857945Y-123045012D01*
X97857929Y-123044994D01*
X97655605Y-122842670D01*
X97655587Y-122842654D01*
X97426517Y-122671175D01*
X97426509Y-122671170D01*
X97175366Y-122534035D01*
X97175367Y-122534035D01*
X96961830Y-122454390D01*
X96907246Y-122434031D01*
X96907243Y-122434030D01*
X96907237Y-122434028D01*
X96627633Y-122373204D01*
X96342201Y-122352790D01*
X96342199Y-122352790D01*
X96056766Y-122373204D01*
X95777162Y-122434028D01*
X95509033Y-122534035D01*
X95257890Y-122671170D01*
X95257882Y-122671175D01*
X95028812Y-122842654D01*
X95028794Y-122842670D01*
X94826470Y-123044994D01*
X94826454Y-123045012D01*
X94654975Y-123274082D01*
X94654970Y-123274090D01*
X94517835Y-123525233D01*
X94417828Y-123793362D01*
X94357004Y-124072966D01*
X94336590Y-124358398D01*
X93438900Y-124358398D01*
X93438900Y-117144800D01*
X105811151Y-117144800D01*
X105830917Y-117395951D01*
X105889726Y-117640910D01*
X105986133Y-117873659D01*
X106117760Y-118088453D01*
X106117761Y-118088456D01*
X106281375Y-118280023D01*
X106281376Y-118280024D01*
X106322632Y-118315260D01*
X106360824Y-118373765D01*
X106366100Y-118409549D01*
X106366100Y-119331069D01*
X106406468Y-119534012D01*
X106406470Y-119534020D01*
X106485658Y-119725196D01*
X106600624Y-119897257D01*
X106751264Y-120047897D01*
X106751286Y-120047917D01*
X112210897Y-125507528D01*
X112210926Y-125507559D01*
X112360342Y-125656975D01*
X112360345Y-125656977D01*
X112532402Y-125771941D01*
X112723580Y-125851130D01*
X112892861Y-125884802D01*
X112915309Y-125889267D01*
X112926533Y-125891500D01*
X112926534Y-125891500D01*
X156135666Y-125891500D01*
X156135667Y-125891499D01*
X156338620Y-125851130D01*
X156529798Y-125771941D01*
X156701855Y-125656977D01*
X156848177Y-125510655D01*
X156848177Y-125510653D01*
X156858385Y-125500446D01*
X156858386Y-125500443D01*
X157898832Y-124459998D01*
X187478390Y-124459998D01*
X187478390Y-124460001D01*
X187498804Y-124745433D01*
X187559628Y-125025037D01*
X187559630Y-125025043D01*
X187559631Y-125025046D01*
X187612485Y-125166753D01*
X187659635Y-125293166D01*
X187796770Y-125544309D01*
X187796775Y-125544317D01*
X187968254Y-125773387D01*
X187968270Y-125773405D01*
X188170594Y-125975729D01*
X188170612Y-125975745D01*
X188399682Y-126147224D01*
X188399690Y-126147229D01*
X188650833Y-126284364D01*
X188650832Y-126284364D01*
X188650836Y-126284365D01*
X188650839Y-126284367D01*
X188918954Y-126384369D01*
X188918960Y-126384370D01*
X188918962Y-126384371D01*
X189198566Y-126445195D01*
X189198568Y-126445195D01*
X189198572Y-126445196D01*
X189452220Y-126463337D01*
X189483999Y-126465610D01*
X189484000Y-126465610D01*
X189484001Y-126465610D01*
X189512595Y-126463564D01*
X189769428Y-126445196D01*
X190049046Y-126384369D01*
X190317161Y-126284367D01*
X190568315Y-126147226D01*
X190797395Y-125975739D01*
X190999739Y-125773395D01*
X191171226Y-125544315D01*
X191308367Y-125293161D01*
X191408369Y-125025046D01*
X191469196Y-124745428D01*
X191489610Y-124460000D01*
X191469196Y-124174572D01*
X191466767Y-124163407D01*
X191408371Y-123894962D01*
X191408370Y-123894960D01*
X191408369Y-123894954D01*
X191308367Y-123626839D01*
X191254039Y-123527346D01*
X191171229Y-123375690D01*
X191171224Y-123375682D01*
X190999745Y-123146612D01*
X190999729Y-123146594D01*
X190797405Y-122944270D01*
X190797387Y-122944254D01*
X190568317Y-122772775D01*
X190568309Y-122772770D01*
X190317166Y-122635635D01*
X190317167Y-122635635D01*
X190209915Y-122595632D01*
X190049046Y-122535631D01*
X190049043Y-122535630D01*
X190049037Y-122535628D01*
X189769433Y-122474804D01*
X189484001Y-122454390D01*
X189483999Y-122454390D01*
X189198566Y-122474804D01*
X188918962Y-122535628D01*
X188650833Y-122635635D01*
X188399690Y-122772770D01*
X188399682Y-122772775D01*
X188170612Y-122944254D01*
X188170594Y-122944270D01*
X187968270Y-123146594D01*
X187968254Y-123146612D01*
X187796775Y-123375682D01*
X187796770Y-123375690D01*
X187659635Y-123626833D01*
X187559628Y-123894962D01*
X187498804Y-124174566D01*
X187478390Y-124459998D01*
X157898832Y-124459998D01*
X159692977Y-122665855D01*
X159807942Y-122493798D01*
X159887130Y-122302620D01*
X159927501Y-122099665D01*
X159927501Y-121892735D01*
X159927501Y-121887625D01*
X159927500Y-121887599D01*
X159927500Y-120417594D01*
X164000757Y-120417594D01*
X164000757Y-120417605D01*
X164021290Y-120665412D01*
X164021292Y-120665424D01*
X164082336Y-120906481D01*
X164182226Y-121134206D01*
X164318233Y-121342382D01*
X164318236Y-121342385D01*
X164486656Y-121525338D01*
X164682891Y-121678074D01*
X164901590Y-121796428D01*
X165136786Y-121877171D01*
X165382065Y-121918100D01*
X165630735Y-121918100D01*
X165876014Y-121877171D01*
X166111210Y-121796428D01*
X166329909Y-121678074D01*
X166526144Y-121525338D01*
X166694564Y-121342385D01*
X166830573Y-121134207D01*
X166930463Y-120906481D01*
X166991508Y-120665421D01*
X167012043Y-120417600D01*
X166991508Y-120169779D01*
X166930463Y-119928719D01*
X166916662Y-119897257D01*
X166830573Y-119700993D01*
X166694566Y-119492817D01*
X166672957Y-119469344D01*
X166526144Y-119309862D01*
X166329909Y-119157126D01*
X166329907Y-119157125D01*
X166329906Y-119157124D01*
X166111211Y-119038772D01*
X166111202Y-119038769D01*
X165876016Y-118958029D01*
X165630735Y-118917100D01*
X165382065Y-118917100D01*
X165136783Y-118958029D01*
X164901597Y-119038769D01*
X164901588Y-119038772D01*
X164682893Y-119157124D01*
X164486657Y-119309861D01*
X164318233Y-119492817D01*
X164182226Y-119700993D01*
X164082336Y-119928718D01*
X164021292Y-120169775D01*
X164021290Y-120169787D01*
X164000757Y-120417594D01*
X159927500Y-120417594D01*
X159927500Y-117119195D01*
X174333153Y-117119195D01*
X174333153Y-117119204D01*
X174353313Y-117388226D01*
X174353313Y-117388228D01*
X174413342Y-117651233D01*
X174413348Y-117651252D01*
X174511909Y-117902381D01*
X174511908Y-117902381D01*
X174646802Y-118136022D01*
X174700494Y-118203351D01*
X174700495Y-118203351D01*
X175537158Y-117366688D01*
X175562178Y-117427090D01*
X175633312Y-117533551D01*
X175723849Y-117624088D01*
X175830310Y-117695222D01*
X175890710Y-117720241D01*
X175053048Y-118557902D01*
X175235683Y-118682420D01*
X175235685Y-118682421D01*
X175478739Y-118799469D01*
X175478737Y-118799469D01*
X175736537Y-118878990D01*
X175736543Y-118878992D01*
X176003301Y-118919199D01*
X176003310Y-118919200D01*
X176273090Y-118919200D01*
X176273098Y-118919199D01*
X176539856Y-118878992D01*
X176539862Y-118878990D01*
X176797661Y-118799469D01*
X177040721Y-118682418D01*
X177223350Y-118557902D01*
X176385688Y-117720241D01*
X176446090Y-117695222D01*
X176552551Y-117624088D01*
X176643088Y-117533551D01*
X176714222Y-117427090D01*
X176739241Y-117366688D01*
X177575903Y-118203351D01*
X177575904Y-118203350D01*
X177629593Y-118136028D01*
X177629600Y-118136017D01*
X177764490Y-117902381D01*
X177863051Y-117651252D01*
X177863057Y-117651233D01*
X177923086Y-117388228D01*
X177923086Y-117388226D01*
X177943247Y-117119204D01*
X177943247Y-117119195D01*
X177923086Y-116850173D01*
X177923086Y-116850171D01*
X177863057Y-116587166D01*
X177863051Y-116587147D01*
X177764490Y-116336018D01*
X177764491Y-116336018D01*
X177629597Y-116102377D01*
X177575904Y-116035047D01*
X176739241Y-116871710D01*
X176714222Y-116811310D01*
X176643088Y-116704849D01*
X176552551Y-116614312D01*
X176446090Y-116543178D01*
X176385688Y-116518158D01*
X177129515Y-115774331D01*
X179537700Y-115774331D01*
X179537700Y-118464056D01*
X179537702Y-118464082D01*
X179540613Y-118489187D01*
X179540615Y-118489191D01*
X179585993Y-118591964D01*
X179585994Y-118591965D01*
X179665435Y-118671406D01*
X179768209Y-118716785D01*
X179793335Y-118719700D01*
X182483064Y-118719699D01*
X182483079Y-118719697D01*
X182483082Y-118719697D01*
X182508187Y-118716786D01*
X182508188Y-118716785D01*
X182508191Y-118716785D01*
X182610965Y-118671406D01*
X182690406Y-118591965D01*
X182735785Y-118489191D01*
X182738700Y-118464065D01*
X182738699Y-115774336D01*
X182736553Y-115755831D01*
X182735786Y-115749212D01*
X182735785Y-115749210D01*
X182735785Y-115749209D01*
X182690406Y-115646435D01*
X182610965Y-115566994D01*
X182593125Y-115559117D01*
X182508192Y-115521615D01*
X182483065Y-115518700D01*
X179793343Y-115518700D01*
X179793317Y-115518702D01*
X179768212Y-115521613D01*
X179768208Y-115521615D01*
X179665435Y-115566993D01*
X179585994Y-115646434D01*
X179540615Y-115749206D01*
X179540615Y-115749208D01*
X179537700Y-115774331D01*
X177129515Y-115774331D01*
X177223350Y-115680496D01*
X177040717Y-115555979D01*
X177040716Y-115555978D01*
X176797660Y-115438930D01*
X176797662Y-115438930D01*
X176539862Y-115359409D01*
X176539856Y-115359407D01*
X176273098Y-115319200D01*
X176003301Y-115319200D01*
X175736543Y-115359407D01*
X175736537Y-115359409D01*
X175478738Y-115438930D01*
X175235685Y-115555978D01*
X175235676Y-115555983D01*
X175053048Y-115680496D01*
X175890711Y-116518158D01*
X175830310Y-116543178D01*
X175723849Y-116614312D01*
X175633312Y-116704849D01*
X175562178Y-116811310D01*
X175537158Y-116871711D01*
X174700495Y-116035048D01*
X174646800Y-116102380D01*
X174511909Y-116336018D01*
X174413348Y-116587147D01*
X174413342Y-116587166D01*
X174353313Y-116850171D01*
X174353313Y-116850173D01*
X174333153Y-117119195D01*
X159927500Y-117119195D01*
X159927500Y-115417594D01*
X164000757Y-115417594D01*
X164000757Y-115417605D01*
X164021290Y-115665412D01*
X164021292Y-115665424D01*
X164082336Y-115906481D01*
X164182226Y-116134206D01*
X164318233Y-116342382D01*
X164318236Y-116342385D01*
X164486656Y-116525338D01*
X164682891Y-116678074D01*
X164901590Y-116796428D01*
X165136786Y-116877171D01*
X165382065Y-116918100D01*
X165630735Y-116918100D01*
X165876014Y-116877171D01*
X166111210Y-116796428D01*
X166329909Y-116678074D01*
X166526144Y-116525338D01*
X166694564Y-116342385D01*
X166830573Y-116134207D01*
X166930463Y-115906481D01*
X166991508Y-115665421D01*
X166991509Y-115665412D01*
X167012043Y-115417605D01*
X167012043Y-115417594D01*
X166991509Y-115169787D01*
X166991507Y-115169775D01*
X166930463Y-114928718D01*
X166830573Y-114700993D01*
X166694566Y-114492817D01*
X166672957Y-114469344D01*
X166526144Y-114309862D01*
X166329909Y-114157126D01*
X166329907Y-114157125D01*
X166329906Y-114157124D01*
X166111211Y-114038772D01*
X166111202Y-114038769D01*
X165876016Y-113958029D01*
X165630735Y-113917100D01*
X165382065Y-113917100D01*
X165136783Y-113958029D01*
X164901597Y-114038769D01*
X164901588Y-114038772D01*
X164682893Y-114157124D01*
X164486657Y-114309861D01*
X164318233Y-114492817D01*
X164182226Y-114700993D01*
X164082336Y-114928718D01*
X164021292Y-115169775D01*
X164021290Y-115169787D01*
X164000757Y-115417594D01*
X159927500Y-115417594D01*
X159927500Y-110417594D01*
X164000757Y-110417594D01*
X164000757Y-110417605D01*
X164021290Y-110665412D01*
X164021292Y-110665424D01*
X164082336Y-110906481D01*
X164182226Y-111134206D01*
X164318233Y-111342382D01*
X164318236Y-111342385D01*
X164486656Y-111525338D01*
X164682891Y-111678074D01*
X164901590Y-111796428D01*
X165136786Y-111877171D01*
X165382065Y-111918100D01*
X165630735Y-111918100D01*
X165876014Y-111877171D01*
X166111210Y-111796428D01*
X166329909Y-111678074D01*
X166526144Y-111525338D01*
X166694564Y-111342385D01*
X166830573Y-111134207D01*
X166930463Y-110906481D01*
X166991508Y-110665421D01*
X166991509Y-110665412D01*
X167012043Y-110417605D01*
X167012043Y-110417594D01*
X166991509Y-110169787D01*
X166991507Y-110169775D01*
X166930463Y-109928718D01*
X166830573Y-109700993D01*
X166694566Y-109492817D01*
X166642640Y-109436411D01*
X166526144Y-109309862D01*
X166329909Y-109157126D01*
X166329907Y-109157125D01*
X166329906Y-109157124D01*
X166111211Y-109038772D01*
X166111202Y-109038769D01*
X165876016Y-108958029D01*
X165630735Y-108917100D01*
X165382065Y-108917100D01*
X165136783Y-108958029D01*
X164901597Y-109038769D01*
X164901588Y-109038772D01*
X164682893Y-109157124D01*
X164486657Y-109309861D01*
X164318233Y-109492817D01*
X164182226Y-109700993D01*
X164082336Y-109928718D01*
X164021292Y-110169775D01*
X164021290Y-110169787D01*
X164000757Y-110417594D01*
X159927500Y-110417594D01*
X159927500Y-109935092D01*
X159947185Y-109868053D01*
X159963814Y-109847416D01*
X162244099Y-107567131D01*
X168804900Y-107567131D01*
X168804900Y-109856856D01*
X168804902Y-109856882D01*
X168807813Y-109881987D01*
X168807815Y-109881991D01*
X168853193Y-109984764D01*
X168853194Y-109984765D01*
X168932635Y-110064206D01*
X169035409Y-110109585D01*
X169060535Y-110112500D01*
X171350264Y-110112499D01*
X171350279Y-110112497D01*
X171350282Y-110112497D01*
X171375387Y-110109586D01*
X171375388Y-110109585D01*
X171375391Y-110109585D01*
X171478165Y-110064206D01*
X171557606Y-109984765D01*
X171602985Y-109881991D01*
X171605900Y-109856865D01*
X171605899Y-107567136D01*
X171605897Y-107567117D01*
X171602986Y-107542012D01*
X171602985Y-107542010D01*
X171602985Y-107542009D01*
X171557606Y-107439235D01*
X171478165Y-107359794D01*
X171478163Y-107359793D01*
X171375392Y-107314415D01*
X171350265Y-107311500D01*
X169060543Y-107311500D01*
X169060517Y-107311502D01*
X169035412Y-107314413D01*
X169035408Y-107314415D01*
X168932635Y-107359793D01*
X168853194Y-107439234D01*
X168807815Y-107542006D01*
X168807815Y-107542008D01*
X168804900Y-107567131D01*
X162244099Y-107567131D01*
X166176051Y-103635179D01*
X166176055Y-103635177D01*
X166322377Y-103488855D01*
X166437341Y-103316798D01*
X166516530Y-103125620D01*
X166555424Y-102930085D01*
X166556900Y-102922666D01*
X166556900Y-102715735D01*
X166556900Y-100554589D01*
X166576585Y-100487550D01*
X166629389Y-100441795D01*
X166630695Y-100441207D01*
X166679165Y-100419806D01*
X166758606Y-100340365D01*
X166803985Y-100237591D01*
X166806900Y-100212465D01*
X166806899Y-98551993D01*
X168800100Y-98551993D01*
X168800100Y-98552006D01*
X168819264Y-98783297D01*
X168819266Y-98783308D01*
X168876242Y-99008300D01*
X168969475Y-99220848D01*
X169096416Y-99415147D01*
X169096419Y-99415151D01*
X169096421Y-99415153D01*
X169253616Y-99585913D01*
X169253619Y-99585915D01*
X169253622Y-99585918D01*
X169436765Y-99728464D01*
X169436771Y-99728468D01*
X169436774Y-99728470D01*
X169640897Y-99838936D01*
X169754887Y-99878068D01*
X169860415Y-99914297D01*
X169860417Y-99914297D01*
X169860419Y-99914298D01*
X170089351Y-99952500D01*
X170089352Y-99952500D01*
X170321448Y-99952500D01*
X170321449Y-99952500D01*
X170550381Y-99914298D01*
X170769903Y-99838936D01*
X170974026Y-99728470D01*
X171157184Y-99585913D01*
X171314379Y-99415153D01*
X171441324Y-99220849D01*
X171513225Y-99056931D01*
X174180500Y-99056931D01*
X174180500Y-100646656D01*
X174180502Y-100646682D01*
X174183413Y-100671787D01*
X174183415Y-100671791D01*
X174228793Y-100774564D01*
X174228794Y-100774565D01*
X174308235Y-100854006D01*
X174411009Y-100899385D01*
X174436135Y-100902300D01*
X175575864Y-100902299D01*
X175575879Y-100902297D01*
X175575882Y-100902297D01*
X175600987Y-100899386D01*
X175600988Y-100899385D01*
X175600991Y-100899385D01*
X175703765Y-100854006D01*
X175731761Y-100826009D01*
X175793081Y-100792525D01*
X175862773Y-100797509D01*
X175879332Y-100805983D01*
X175879604Y-100805475D01*
X175884985Y-100808351D01*
X175995205Y-100854005D01*
X176035211Y-100870576D01*
X176035215Y-100870576D01*
X176035216Y-100870577D01*
X176194692Y-100902300D01*
X176194695Y-100902300D01*
X176357307Y-100902300D01*
X176464598Y-100880957D01*
X176516789Y-100870576D01*
X176667021Y-100808348D01*
X176678892Y-100800416D01*
X176745565Y-100779536D01*
X176812946Y-100798018D01*
X176835466Y-100815835D01*
X176892601Y-100872971D01*
X177060473Y-100985140D01*
X177060486Y-100985147D01*
X177247016Y-101062409D01*
X177247025Y-101062412D01*
X177296000Y-101072153D01*
X177296000Y-100132130D01*
X177315745Y-100151875D01*
X177401255Y-100201244D01*
X177496630Y-100226800D01*
X177595370Y-100226800D01*
X177690745Y-100201244D01*
X177776255Y-100151875D01*
X177796000Y-100132130D01*
X177796000Y-101072152D01*
X177844974Y-101062412D01*
X177844983Y-101062409D01*
X178031513Y-100985147D01*
X178031526Y-100985140D01*
X178199399Y-100872970D01*
X178199403Y-100872967D01*
X178342167Y-100730203D01*
X178342170Y-100730199D01*
X178454340Y-100562326D01*
X178454347Y-100562313D01*
X178531609Y-100375783D01*
X178531612Y-100375774D01*
X178570999Y-100177758D01*
X178571000Y-100177755D01*
X178571000Y-100101800D01*
X177826330Y-100101800D01*
X177846075Y-100082055D01*
X177895444Y-99996545D01*
X177921000Y-99901170D01*
X177921000Y-99802430D01*
X177895444Y-99707055D01*
X177846075Y-99621545D01*
X177826330Y-99601800D01*
X178571000Y-99601800D01*
X178571000Y-99525845D01*
X178570999Y-99525841D01*
X178531612Y-99327825D01*
X178531609Y-99327816D01*
X178454347Y-99141286D01*
X178454340Y-99141273D01*
X178342170Y-98973400D01*
X178342167Y-98973396D01*
X178199403Y-98830632D01*
X178199399Y-98830629D01*
X178031526Y-98718459D01*
X178031513Y-98718452D01*
X177844984Y-98641190D01*
X177844977Y-98641188D01*
X177796000Y-98631445D01*
X177796000Y-99571470D01*
X177776255Y-99551725D01*
X177690745Y-99502356D01*
X177595370Y-99476800D01*
X177496630Y-99476800D01*
X177401255Y-99502356D01*
X177315745Y-99551725D01*
X177296000Y-99571470D01*
X177296000Y-98631446D01*
X177295999Y-98631445D01*
X177247022Y-98641188D01*
X177247015Y-98641190D01*
X177060486Y-98718452D01*
X177060473Y-98718459D01*
X176892603Y-98830627D01*
X176835464Y-98887765D01*
X176774140Y-98921249D01*
X176704449Y-98916263D01*
X176678893Y-98903184D01*
X176667027Y-98895255D01*
X176667014Y-98895248D01*
X176516793Y-98833025D01*
X176516783Y-98833022D01*
X176357307Y-98801300D01*
X176357305Y-98801300D01*
X176194695Y-98801300D01*
X176194693Y-98801300D01*
X176035216Y-98833022D01*
X176035206Y-98833025D01*
X175884980Y-98895250D01*
X175879609Y-98898122D01*
X175878526Y-98896096D01*
X175821575Y-98913890D01*
X175754206Y-98895362D01*
X175731760Y-98877589D01*
X175703765Y-98849594D01*
X175600992Y-98804215D01*
X175575865Y-98801300D01*
X174436143Y-98801300D01*
X174436117Y-98801302D01*
X174411012Y-98804213D01*
X174411008Y-98804215D01*
X174308235Y-98849593D01*
X174228794Y-98929034D01*
X174183415Y-99031806D01*
X174183415Y-99031808D01*
X174180500Y-99056931D01*
X171513225Y-99056931D01*
X171534557Y-99008300D01*
X171591534Y-98783305D01*
X171591535Y-98783297D01*
X171610700Y-98552006D01*
X171610700Y-98551993D01*
X171591535Y-98320702D01*
X171591533Y-98320691D01*
X171534557Y-98095699D01*
X171441324Y-97883151D01*
X171314383Y-97688852D01*
X171314380Y-97688849D01*
X171314379Y-97688847D01*
X171157184Y-97518087D01*
X171157179Y-97518083D01*
X171157177Y-97518081D01*
X170974034Y-97375535D01*
X170974028Y-97375531D01*
X170769904Y-97265064D01*
X170769895Y-97265061D01*
X170550384Y-97189702D01*
X170378682Y-97161050D01*
X170321449Y-97151500D01*
X170089351Y-97151500D01*
X170043564Y-97159140D01*
X169860415Y-97189702D01*
X169640904Y-97265061D01*
X169640895Y-97265064D01*
X169436771Y-97375531D01*
X169436765Y-97375535D01*
X169253622Y-97518081D01*
X169253619Y-97518084D01*
X169096416Y-97688852D01*
X168969475Y-97883151D01*
X168876242Y-98095699D01*
X168819266Y-98320691D01*
X168819264Y-98320702D01*
X168800100Y-98551993D01*
X166806899Y-98551993D01*
X166806899Y-98122736D01*
X166806897Y-98122717D01*
X166803986Y-98097612D01*
X166803985Y-98097610D01*
X166803985Y-98097609D01*
X166758606Y-97994835D01*
X166679165Y-97915394D01*
X166679163Y-97915393D01*
X166576392Y-97870015D01*
X166551265Y-97867100D01*
X164461543Y-97867100D01*
X164461517Y-97867102D01*
X164436412Y-97870013D01*
X164436408Y-97870015D01*
X164333635Y-97915393D01*
X164254194Y-97994834D01*
X164208815Y-98097606D01*
X164208815Y-98097608D01*
X164205900Y-98122731D01*
X164205900Y-100212456D01*
X164205902Y-100212482D01*
X164208813Y-100237587D01*
X164208815Y-100237591D01*
X164254193Y-100340364D01*
X164254194Y-100340365D01*
X164333635Y-100419806D01*
X164381988Y-100441156D01*
X164435362Y-100486240D01*
X164455890Y-100553026D01*
X164455900Y-100554589D01*
X164455900Y-102332706D01*
X164436215Y-102399745D01*
X164419581Y-102420387D01*
X161295490Y-105544478D01*
X158207348Y-108632620D01*
X158207345Y-108632623D01*
X158134184Y-108705784D01*
X158061023Y-108778944D01*
X157946058Y-108951003D01*
X157866870Y-109142179D01*
X157866868Y-109142187D01*
X157826500Y-109345130D01*
X157826500Y-121509706D01*
X157806815Y-121576745D01*
X157790181Y-121597387D01*
X155633388Y-123754181D01*
X155572065Y-123787666D01*
X155545707Y-123790500D01*
X113516493Y-123790500D01*
X113449454Y-123770815D01*
X113428812Y-123754181D01*
X108503419Y-118828788D01*
X108469934Y-118767465D01*
X108467100Y-118741107D01*
X108467100Y-118409549D01*
X108486785Y-118342510D01*
X108510565Y-118315262D01*
X108551824Y-118280024D01*
X108715436Y-118088459D01*
X108847066Y-117873659D01*
X108943473Y-117640911D01*
X109002283Y-117395948D01*
X109022049Y-117144800D01*
X109022049Y-117144795D01*
X110691553Y-117144795D01*
X110691553Y-117144804D01*
X110711713Y-117413826D01*
X110711713Y-117413828D01*
X110771742Y-117676833D01*
X110771748Y-117676852D01*
X110870309Y-117927981D01*
X110870308Y-117927981D01*
X111005202Y-118161622D01*
X111058894Y-118228951D01*
X111895557Y-117392287D01*
X111920578Y-117452690D01*
X111991712Y-117559151D01*
X112082249Y-117649688D01*
X112188710Y-117720822D01*
X112249110Y-117745841D01*
X111411448Y-118583502D01*
X111594083Y-118708020D01*
X111594085Y-118708021D01*
X111837139Y-118825069D01*
X111837137Y-118825069D01*
X112094937Y-118904590D01*
X112094943Y-118904592D01*
X112361701Y-118944799D01*
X112361710Y-118944800D01*
X112631490Y-118944800D01*
X112631498Y-118944799D01*
X112898256Y-118904592D01*
X112898262Y-118904590D01*
X113156061Y-118825069D01*
X113399121Y-118708018D01*
X113581750Y-118583502D01*
X112744088Y-117745841D01*
X112804490Y-117720822D01*
X112910951Y-117649688D01*
X113001488Y-117559151D01*
X113072622Y-117452690D01*
X113097641Y-117392288D01*
X113934303Y-118228951D01*
X113934304Y-118228950D01*
X113987993Y-118161628D01*
X113988000Y-118161617D01*
X114122890Y-117927981D01*
X114221451Y-117676852D01*
X114221457Y-117676833D01*
X114281486Y-117413828D01*
X114281486Y-117413826D01*
X114301647Y-117144804D01*
X114301647Y-117144795D01*
X114281486Y-116875773D01*
X114281486Y-116875771D01*
X114221457Y-116612766D01*
X114221451Y-116612747D01*
X114122890Y-116361618D01*
X114122891Y-116361618D01*
X113987997Y-116127977D01*
X113934304Y-116060647D01*
X113097641Y-116897310D01*
X113072622Y-116836910D01*
X113001488Y-116730449D01*
X112910951Y-116639912D01*
X112804490Y-116568778D01*
X112744088Y-116543758D01*
X113581750Y-115706096D01*
X113399117Y-115581579D01*
X113399116Y-115581578D01*
X113156060Y-115464530D01*
X113156062Y-115464530D01*
X112898262Y-115385009D01*
X112898256Y-115385007D01*
X112631498Y-115344800D01*
X112361701Y-115344800D01*
X112094943Y-115385007D01*
X112094937Y-115385009D01*
X111837138Y-115464530D01*
X111594085Y-115581578D01*
X111594076Y-115581583D01*
X111411448Y-115706096D01*
X112249111Y-116543758D01*
X112188710Y-116568778D01*
X112082249Y-116639912D01*
X111991712Y-116730449D01*
X111920578Y-116836910D01*
X111895558Y-116897311D01*
X111058895Y-116060648D01*
X111005200Y-116127980D01*
X110870309Y-116361618D01*
X110771748Y-116612747D01*
X110771742Y-116612766D01*
X110711713Y-116875771D01*
X110711713Y-116875773D01*
X110691553Y-117144795D01*
X109022049Y-117144795D01*
X109002283Y-116893652D01*
X108943473Y-116648689D01*
X108928585Y-116612747D01*
X108847066Y-116415940D01*
X108715439Y-116201146D01*
X108715438Y-116201143D01*
X108658268Y-116134206D01*
X108551824Y-116009576D01*
X108419504Y-115896564D01*
X108360256Y-115845961D01*
X108360253Y-115845960D01*
X108145459Y-115714333D01*
X107912710Y-115617926D01*
X107667751Y-115559117D01*
X107416600Y-115539351D01*
X107165448Y-115559117D01*
X106920489Y-115617926D01*
X106687740Y-115714333D01*
X106472946Y-115845960D01*
X106472943Y-115845961D01*
X106281376Y-116009576D01*
X106117761Y-116201143D01*
X106117760Y-116201146D01*
X105986133Y-116415940D01*
X105889726Y-116648689D01*
X105830917Y-116893648D01*
X105811151Y-117144800D01*
X93438900Y-117144800D01*
X93438900Y-108282844D01*
X112204099Y-108282844D01*
X112227117Y-108398554D01*
X112229500Y-108422746D01*
X112229500Y-108798052D01*
X112227117Y-108822244D01*
X112204100Y-108937955D01*
X112204100Y-110289446D01*
X112234861Y-110444089D01*
X112234864Y-110444101D01*
X112295202Y-110589772D01*
X112295209Y-110589785D01*
X112382810Y-110720888D01*
X112382813Y-110720892D01*
X116739781Y-115077859D01*
X116773266Y-115139182D01*
X116776100Y-115165540D01*
X116776100Y-115688792D01*
X116756415Y-115755831D01*
X116716891Y-115794518D01*
X116708053Y-115799935D01*
X116632938Y-115845966D01*
X116441376Y-116009576D01*
X116277761Y-116201143D01*
X116277760Y-116201146D01*
X116146133Y-116415940D01*
X116049726Y-116648689D01*
X115990917Y-116893648D01*
X115971151Y-117144800D01*
X115990917Y-117395951D01*
X116049726Y-117640910D01*
X116146133Y-117873659D01*
X116277760Y-118088453D01*
X116277761Y-118088456D01*
X116277764Y-118088459D01*
X116441376Y-118280024D01*
X116514538Y-118342510D01*
X116632943Y-118443638D01*
X116632946Y-118443639D01*
X116847740Y-118575266D01*
X117079842Y-118671405D01*
X117080489Y-118671673D01*
X117325452Y-118730483D01*
X117576600Y-118750249D01*
X117827748Y-118730483D01*
X118072711Y-118671673D01*
X118305459Y-118575266D01*
X118520259Y-118443636D01*
X118711824Y-118280024D01*
X118875436Y-118088459D01*
X119007066Y-117873659D01*
X119103473Y-117640911D01*
X119162283Y-117395948D01*
X119182049Y-117144800D01*
X121051151Y-117144800D01*
X121070917Y-117395951D01*
X121129726Y-117640910D01*
X121226133Y-117873659D01*
X121357760Y-118088453D01*
X121357761Y-118088456D01*
X121357764Y-118088459D01*
X121521376Y-118280024D01*
X121594538Y-118342510D01*
X121712943Y-118443638D01*
X121712946Y-118443639D01*
X121927740Y-118575266D01*
X122159842Y-118671405D01*
X122160489Y-118671673D01*
X122405452Y-118730483D01*
X122656600Y-118750249D01*
X122907748Y-118730483D01*
X123152711Y-118671673D01*
X123385459Y-118575266D01*
X123600259Y-118443636D01*
X123791824Y-118280024D01*
X123955436Y-118088459D01*
X124087066Y-117873659D01*
X124183473Y-117640911D01*
X124242283Y-117395948D01*
X124262049Y-117144800D01*
X124242283Y-116893652D01*
X124183473Y-116648689D01*
X124168585Y-116612747D01*
X124087066Y-116415940D01*
X123955439Y-116201146D01*
X123955438Y-116201143D01*
X123898268Y-116134206D01*
X123791824Y-116009576D01*
X123659504Y-115896564D01*
X123600256Y-115845961D01*
X123600253Y-115845960D01*
X123385459Y-115714333D01*
X123152710Y-115617926D01*
X122907751Y-115559117D01*
X122656600Y-115539351D01*
X122405448Y-115559117D01*
X122160489Y-115617926D01*
X121927740Y-115714333D01*
X121712946Y-115845960D01*
X121712943Y-115845961D01*
X121521376Y-116009576D01*
X121357761Y-116201143D01*
X121357760Y-116201146D01*
X121226133Y-116415940D01*
X121129726Y-116648689D01*
X121070917Y-116893648D01*
X121051151Y-117144800D01*
X119182049Y-117144800D01*
X119162283Y-116893652D01*
X119103473Y-116648689D01*
X119088585Y-116612747D01*
X119007066Y-116415940D01*
X118875439Y-116201146D01*
X118875438Y-116201143D01*
X118818268Y-116134206D01*
X118711824Y-116009576D01*
X118520259Y-115845964D01*
X118436308Y-115794518D01*
X118389434Y-115742706D01*
X118377100Y-115688792D01*
X118377100Y-114703755D01*
X118377099Y-114703753D01*
X118346338Y-114549110D01*
X118346337Y-114549103D01*
X118323022Y-114492815D01*
X118285997Y-114403427D01*
X118285990Y-114403414D01*
X118198390Y-114272312D01*
X118198389Y-114272311D01*
X118086889Y-114160811D01*
X113841419Y-109915341D01*
X113807934Y-109854018D01*
X113805100Y-109827660D01*
X113805100Y-109210146D01*
X113807483Y-109185954D01*
X113813218Y-109157126D01*
X113816189Y-109142187D01*
X113830500Y-109070244D01*
X113830500Y-108150555D01*
X113830499Y-108150553D01*
X113799738Y-107995910D01*
X113799737Y-107995903D01*
X113760436Y-107901021D01*
X113739397Y-107850227D01*
X113739390Y-107850214D01*
X113651790Y-107719112D01*
X113626385Y-107693707D01*
X113540289Y-107607611D01*
X113514889Y-107582211D01*
X113514888Y-107582210D01*
X113514887Y-107582209D01*
X113383785Y-107494609D01*
X113383772Y-107494602D01*
X113238101Y-107434264D01*
X113238089Y-107434261D01*
X113083445Y-107403500D01*
X113083442Y-107403500D01*
X112925758Y-107403500D01*
X112925755Y-107403500D01*
X112771110Y-107434261D01*
X112771098Y-107434264D01*
X112625427Y-107494602D01*
X112625414Y-107494609D01*
X112494311Y-107582210D01*
X112494307Y-107582213D01*
X112382813Y-107693707D01*
X112382810Y-107693711D01*
X112295209Y-107824814D01*
X112295202Y-107824827D01*
X112234864Y-107970498D01*
X112234861Y-107970510D01*
X112204100Y-108125153D01*
X112204100Y-108125158D01*
X112204100Y-108282842D01*
X112204100Y-108282844D01*
X112204099Y-108282844D01*
X93438900Y-108282844D01*
X93438900Y-103197553D01*
X98869100Y-103197553D01*
X98869100Y-103355246D01*
X98899861Y-103509889D01*
X98899864Y-103509901D01*
X98960202Y-103655572D01*
X98960209Y-103655585D01*
X99047810Y-103786688D01*
X99047813Y-103786692D01*
X100175307Y-104914186D01*
X100175311Y-104914189D01*
X100306414Y-105001790D01*
X100306427Y-105001797D01*
X100452098Y-105062135D01*
X100452103Y-105062137D01*
X100606753Y-105092899D01*
X100606756Y-105092900D01*
X100606758Y-105092900D01*
X100764442Y-105092900D01*
X112418460Y-105092900D01*
X112485499Y-105112585D01*
X112506141Y-105129219D01*
X118082307Y-110705386D01*
X118082311Y-110705389D01*
X118213414Y-110792990D01*
X118213418Y-110792992D01*
X118213421Y-110792994D01*
X118359103Y-110853338D01*
X118513753Y-110884099D01*
X118513757Y-110884100D01*
X118513758Y-110884100D01*
X124508860Y-110884100D01*
X124575899Y-110903785D01*
X124596541Y-110920419D01*
X126899781Y-113223659D01*
X126933266Y-113284982D01*
X126936100Y-113311340D01*
X126936100Y-115688792D01*
X126916415Y-115755831D01*
X126876891Y-115794518D01*
X126868053Y-115799935D01*
X126792938Y-115845966D01*
X126601376Y-116009576D01*
X126437761Y-116201143D01*
X126437760Y-116201146D01*
X126306133Y-116415940D01*
X126209726Y-116648689D01*
X126150917Y-116893648D01*
X126131151Y-117144800D01*
X126150917Y-117395951D01*
X126209726Y-117640910D01*
X126306133Y-117873659D01*
X126437760Y-118088453D01*
X126437761Y-118088456D01*
X126437764Y-118088459D01*
X126601376Y-118280024D01*
X126674538Y-118342510D01*
X126792943Y-118443638D01*
X126792946Y-118443639D01*
X127007740Y-118575266D01*
X127239842Y-118671405D01*
X127240489Y-118671673D01*
X127485452Y-118730483D01*
X127736600Y-118750249D01*
X127987748Y-118730483D01*
X128232711Y-118671673D01*
X128465459Y-118575266D01*
X128680259Y-118443636D01*
X128871824Y-118280024D01*
X129035436Y-118088459D01*
X129167066Y-117873659D01*
X129263473Y-117640911D01*
X129322283Y-117395948D01*
X129342049Y-117144800D01*
X129322283Y-116893652D01*
X129263473Y-116648689D01*
X129248585Y-116612747D01*
X129167066Y-116415940D01*
X129035439Y-116201146D01*
X129035438Y-116201143D01*
X128978268Y-116134206D01*
X128871824Y-116009576D01*
X128680259Y-115845964D01*
X128596308Y-115794518D01*
X128549434Y-115742706D01*
X128537100Y-115688792D01*
X128537100Y-112849557D01*
X128537099Y-112849553D01*
X128506339Y-112694910D01*
X128506338Y-112694903D01*
X128445994Y-112549221D01*
X128445992Y-112549218D01*
X128445990Y-112549214D01*
X128358389Y-112418111D01*
X128358386Y-112418107D01*
X125376692Y-109436413D01*
X125376688Y-109436410D01*
X125245585Y-109348809D01*
X125245572Y-109348802D01*
X125099901Y-109288464D01*
X125099889Y-109288461D01*
X124945245Y-109257700D01*
X124945242Y-109257700D01*
X124787558Y-109257700D01*
X124787556Y-109257700D01*
X124707470Y-109273630D01*
X124671843Y-109280717D01*
X124647653Y-109283100D01*
X118975540Y-109283100D01*
X118908501Y-109263415D01*
X118887859Y-109246781D01*
X113311692Y-103670613D01*
X113311688Y-103670610D01*
X113180585Y-103583009D01*
X113180572Y-103583002D01*
X113034901Y-103522664D01*
X113034889Y-103522661D01*
X112880245Y-103491900D01*
X112880242Y-103491900D01*
X101068540Y-103491900D01*
X101001501Y-103472215D01*
X100980859Y-103455581D01*
X100179892Y-102654613D01*
X100179888Y-102654610D01*
X100048785Y-102567009D01*
X100048772Y-102567002D01*
X99903101Y-102506664D01*
X99903089Y-102506661D01*
X99748445Y-102475900D01*
X99748442Y-102475900D01*
X99590758Y-102475900D01*
X99590755Y-102475900D01*
X99436110Y-102506661D01*
X99436098Y-102506664D01*
X99290427Y-102567002D01*
X99290414Y-102567009D01*
X99159311Y-102654610D01*
X99159307Y-102654613D01*
X99047813Y-102766107D01*
X99047810Y-102766111D01*
X98960209Y-102897214D01*
X98960202Y-102897227D01*
X98899864Y-103042898D01*
X98899861Y-103042910D01*
X98869100Y-103197553D01*
X93438900Y-103197553D01*
X93438900Y-94459953D01*
X98081700Y-94459953D01*
X98081700Y-94617646D01*
X98112461Y-94772289D01*
X98112464Y-94772301D01*
X98172802Y-94917972D01*
X98172809Y-94917985D01*
X98260410Y-95049088D01*
X98260413Y-95049092D01*
X99403411Y-96192089D01*
X99468061Y-96256739D01*
X99514912Y-96303590D01*
X99646014Y-96391190D01*
X99646027Y-96391197D01*
X99791698Y-96451535D01*
X99791703Y-96451537D01*
X99946353Y-96482299D01*
X99946356Y-96482300D01*
X99946358Y-96482300D01*
X113282060Y-96482300D01*
X113349099Y-96501985D01*
X113369741Y-96518619D01*
X114453781Y-97602659D01*
X114487266Y-97663982D01*
X114490100Y-97690340D01*
X114490100Y-103710846D01*
X114520861Y-103865489D01*
X114520864Y-103865501D01*
X114581202Y-104011172D01*
X114581209Y-104011185D01*
X114668810Y-104142288D01*
X114668813Y-104142292D01*
X119063011Y-108536489D01*
X119138300Y-108611778D01*
X119174512Y-108647990D01*
X119305614Y-108735590D01*
X119305616Y-108735591D01*
X119305621Y-108735594D01*
X119420802Y-108783303D01*
X119420805Y-108783304D01*
X119420806Y-108783305D01*
X119451298Y-108795935D01*
X119451303Y-108795937D01*
X119451307Y-108795937D01*
X119451308Y-108795938D01*
X119605954Y-108826700D01*
X119605957Y-108826700D01*
X119605958Y-108826700D01*
X130884260Y-108826700D01*
X130951299Y-108846385D01*
X130971941Y-108863019D01*
X131979781Y-109870859D01*
X132013266Y-109932182D01*
X132016100Y-109958540D01*
X132016100Y-115688792D01*
X131996415Y-115755831D01*
X131956891Y-115794518D01*
X131948053Y-115799935D01*
X131872938Y-115845966D01*
X131681376Y-116009576D01*
X131517761Y-116201143D01*
X131517760Y-116201146D01*
X131386133Y-116415940D01*
X131289726Y-116648689D01*
X131230917Y-116893648D01*
X131211151Y-117144800D01*
X131230917Y-117395951D01*
X131289726Y-117640910D01*
X131386133Y-117873659D01*
X131517760Y-118088453D01*
X131517761Y-118088456D01*
X131517764Y-118088459D01*
X131681376Y-118280024D01*
X131754538Y-118342510D01*
X131872943Y-118443638D01*
X131872946Y-118443639D01*
X132087740Y-118575266D01*
X132319842Y-118671405D01*
X132320489Y-118671673D01*
X132565452Y-118730483D01*
X132816600Y-118750249D01*
X133067748Y-118730483D01*
X133312711Y-118671673D01*
X133545459Y-118575266D01*
X133760259Y-118443636D01*
X133951824Y-118280024D01*
X134115436Y-118088459D01*
X134247066Y-117873659D01*
X134343473Y-117640911D01*
X134402283Y-117395948D01*
X134422049Y-117144800D01*
X134402283Y-116893652D01*
X134343473Y-116648689D01*
X134328585Y-116612747D01*
X134247066Y-116415940D01*
X134115439Y-116201146D01*
X134115438Y-116201143D01*
X134058268Y-116134206D01*
X133951824Y-116009576D01*
X133760259Y-115845964D01*
X133676308Y-115794518D01*
X133629434Y-115742706D01*
X133617100Y-115688792D01*
X133617100Y-109496757D01*
X133617099Y-109496754D01*
X133605096Y-109436411D01*
X133598929Y-109405404D01*
X133586339Y-109342108D01*
X133586337Y-109342103D01*
X133572982Y-109309862D01*
X133551376Y-109257700D01*
X133546853Y-109246781D01*
X133525997Y-109196428D01*
X133525996Y-109196427D01*
X133525994Y-109196421D01*
X133438389Y-109065311D01*
X133326889Y-108953811D01*
X132574434Y-108201356D01*
X131777492Y-107404413D01*
X131777488Y-107404410D01*
X131646385Y-107316809D01*
X131646372Y-107316802D01*
X131500701Y-107256464D01*
X131500689Y-107256461D01*
X131346045Y-107225700D01*
X131346042Y-107225700D01*
X120067740Y-107225700D01*
X120000701Y-107206015D01*
X119980059Y-107189381D01*
X116127419Y-103336741D01*
X116093934Y-103275418D01*
X116091100Y-103249060D01*
X116091100Y-97228558D01*
X116083371Y-97189702D01*
X116075772Y-97151500D01*
X116060339Y-97073910D01*
X116060338Y-97073903D01*
X115999994Y-96928221D01*
X115999992Y-96928218D01*
X115999990Y-96928214D01*
X115912389Y-96797111D01*
X115912386Y-96797107D01*
X114175292Y-95060013D01*
X114175288Y-95060010D01*
X114044185Y-94972409D01*
X114044172Y-94972402D01*
X113898501Y-94912064D01*
X113898489Y-94912061D01*
X113743845Y-94881300D01*
X113743842Y-94881300D01*
X100408140Y-94881300D01*
X100341101Y-94861615D01*
X100320459Y-94844981D01*
X99392492Y-93917013D01*
X99392488Y-93917010D01*
X99261385Y-93829409D01*
X99261372Y-93829402D01*
X99115701Y-93769064D01*
X99115689Y-93769061D01*
X98961045Y-93738300D01*
X98961042Y-93738300D01*
X98803358Y-93738300D01*
X98803355Y-93738300D01*
X98648710Y-93769061D01*
X98648698Y-93769064D01*
X98503027Y-93829402D01*
X98503014Y-93829409D01*
X98371911Y-93917010D01*
X98371907Y-93917013D01*
X98260413Y-94028507D01*
X98260410Y-94028511D01*
X98172809Y-94159614D01*
X98172802Y-94159627D01*
X98112464Y-94305298D01*
X98112461Y-94305310D01*
X98081700Y-94459953D01*
X93438900Y-94459953D01*
X93438900Y-84274553D01*
X97903900Y-84274553D01*
X97903900Y-84432246D01*
X97934661Y-84586889D01*
X97934664Y-84586901D01*
X97995002Y-84732572D01*
X97995009Y-84732585D01*
X98082610Y-84863688D01*
X98082613Y-84863692D01*
X101927907Y-88708986D01*
X101927911Y-88708989D01*
X102059014Y-88796590D01*
X102059018Y-88796592D01*
X102059021Y-88796594D01*
X102204703Y-88856938D01*
X102359353Y-88887699D01*
X102359357Y-88887700D01*
X102359358Y-88887700D01*
X111783460Y-88887700D01*
X111850499Y-88907385D01*
X111871141Y-88924019D01*
X117806581Y-94859459D01*
X117840066Y-94920782D01*
X117842900Y-94947140D01*
X117842900Y-104117246D01*
X117873661Y-104271889D01*
X117873664Y-104271901D01*
X117934002Y-104417572D01*
X117934009Y-104417585D01*
X118021610Y-104548688D01*
X118021613Y-104548692D01*
X120028211Y-106555289D01*
X120139711Y-106666789D01*
X120139712Y-106666790D01*
X120270814Y-106754390D01*
X120270827Y-106754397D01*
X120416498Y-106814735D01*
X120416503Y-106814737D01*
X120571153Y-106845499D01*
X120571156Y-106845500D01*
X120571158Y-106845500D01*
X135278460Y-106845500D01*
X135345499Y-106865185D01*
X135366141Y-106881819D01*
X137059781Y-108575459D01*
X137093266Y-108636782D01*
X137096100Y-108663140D01*
X137096100Y-115420300D01*
X137076415Y-115487339D01*
X137023611Y-115533094D01*
X136972100Y-115544300D01*
X136551743Y-115544300D01*
X136551717Y-115544302D01*
X136526612Y-115547213D01*
X136526608Y-115547215D01*
X136423835Y-115592593D01*
X136344394Y-115672034D01*
X136299015Y-115774806D01*
X136299015Y-115774808D01*
X136296100Y-115799931D01*
X136296100Y-118489656D01*
X136296102Y-118489682D01*
X136299013Y-118514787D01*
X136299015Y-118514791D01*
X136344393Y-118617564D01*
X136344394Y-118617565D01*
X136423835Y-118697006D01*
X136526609Y-118742385D01*
X136551735Y-118745300D01*
X139241464Y-118745299D01*
X139241479Y-118745297D01*
X139241482Y-118745297D01*
X139266587Y-118742386D01*
X139266588Y-118742385D01*
X139266591Y-118742385D01*
X139369365Y-118697006D01*
X139448806Y-118617565D01*
X139494185Y-118514791D01*
X139497100Y-118489665D01*
X139497100Y-117195400D01*
X144484551Y-117195400D01*
X144504317Y-117446551D01*
X144563126Y-117691510D01*
X144659533Y-117924259D01*
X144791160Y-118139053D01*
X144791161Y-118139056D01*
X144846074Y-118203350D01*
X144954776Y-118330624D01*
X145087096Y-118443636D01*
X145146343Y-118494238D01*
X145146346Y-118494239D01*
X145361140Y-118625866D01*
X145471729Y-118671673D01*
X145593889Y-118722273D01*
X145838852Y-118781083D01*
X146090000Y-118800849D01*
X146341148Y-118781083D01*
X146586111Y-118722273D01*
X146818859Y-118625866D01*
X147033659Y-118494236D01*
X147225224Y-118330624D01*
X147388836Y-118139059D01*
X147520466Y-117924259D01*
X147616873Y-117691511D01*
X147675683Y-117446548D01*
X147695449Y-117195400D01*
X147675683Y-116944252D01*
X147616873Y-116699289D01*
X147608086Y-116678075D01*
X147520466Y-116466540D01*
X147388839Y-116251746D01*
X147388838Y-116251743D01*
X147345621Y-116201143D01*
X147225224Y-116060176D01*
X147098571Y-115952004D01*
X147033656Y-115896561D01*
X147033653Y-115896560D01*
X146953685Y-115847555D01*
X149290000Y-115847555D01*
X149290000Y-116945400D01*
X150489999Y-116945400D01*
X150464979Y-117005802D01*
X150440000Y-117131381D01*
X150440000Y-117259419D01*
X150464979Y-117384998D01*
X150489999Y-117445400D01*
X149290000Y-117445400D01*
X149290000Y-118543244D01*
X149296401Y-118602772D01*
X149296403Y-118602779D01*
X149346645Y-118737486D01*
X149346649Y-118737493D01*
X149432809Y-118852587D01*
X149432812Y-118852590D01*
X149547906Y-118938750D01*
X149547913Y-118938754D01*
X149682620Y-118988996D01*
X149682627Y-118988998D01*
X149742155Y-118995399D01*
X149742172Y-118995400D01*
X150840000Y-118995400D01*
X150840000Y-117795401D01*
X150900402Y-117820421D01*
X151025981Y-117845400D01*
X151154019Y-117845400D01*
X151279598Y-117820421D01*
X151340000Y-117795401D01*
X151340000Y-118995400D01*
X152437828Y-118995400D01*
X152437844Y-118995399D01*
X152497372Y-118988998D01*
X152497379Y-118988996D01*
X152632086Y-118938754D01*
X152632093Y-118938750D01*
X152747187Y-118852590D01*
X152747190Y-118852587D01*
X152833350Y-118737493D01*
X152833354Y-118737486D01*
X152883596Y-118602779D01*
X152883598Y-118602772D01*
X152889999Y-118543244D01*
X152890000Y-118543227D01*
X152890000Y-117445400D01*
X151690001Y-117445400D01*
X151715021Y-117384998D01*
X151740000Y-117259419D01*
X151740000Y-117131381D01*
X151715021Y-117005802D01*
X151690001Y-116945400D01*
X152890000Y-116945400D01*
X152890000Y-115847572D01*
X152889999Y-115847555D01*
X152883598Y-115788027D01*
X152883596Y-115788020D01*
X152833354Y-115653313D01*
X152833350Y-115653306D01*
X152747190Y-115538212D01*
X152747187Y-115538209D01*
X152632093Y-115452049D01*
X152632086Y-115452045D01*
X152497379Y-115401803D01*
X152497372Y-115401801D01*
X152437844Y-115395400D01*
X151340000Y-115395400D01*
X151340000Y-116595398D01*
X151279598Y-116570379D01*
X151154019Y-116545400D01*
X151025981Y-116545400D01*
X150900402Y-116570379D01*
X150840000Y-116595398D01*
X150840000Y-115395400D01*
X149742155Y-115395400D01*
X149682627Y-115401801D01*
X149682620Y-115401803D01*
X149547913Y-115452045D01*
X149547906Y-115452049D01*
X149432812Y-115538209D01*
X149432809Y-115538212D01*
X149346649Y-115653306D01*
X149346645Y-115653313D01*
X149296403Y-115788020D01*
X149296401Y-115788027D01*
X149290000Y-115847555D01*
X146953685Y-115847555D01*
X146818859Y-115764933D01*
X146586110Y-115668526D01*
X146341151Y-115609717D01*
X146090000Y-115589951D01*
X145838848Y-115609717D01*
X145593889Y-115668526D01*
X145361140Y-115764933D01*
X145146346Y-115896560D01*
X145146343Y-115896561D01*
X144954776Y-116060176D01*
X144791161Y-116251743D01*
X144791160Y-116251746D01*
X144659533Y-116466540D01*
X144563126Y-116699289D01*
X144504317Y-116944248D01*
X144484551Y-117195400D01*
X139497100Y-117195400D01*
X139497099Y-115799936D01*
X139495718Y-115788027D01*
X139494186Y-115774812D01*
X139494185Y-115774810D01*
X139494185Y-115774809D01*
X139448806Y-115672035D01*
X139369365Y-115592594D01*
X139363379Y-115589951D01*
X139266592Y-115547215D01*
X139241468Y-115544300D01*
X139241465Y-115544300D01*
X138821100Y-115544300D01*
X138754061Y-115524615D01*
X138708306Y-115471811D01*
X138697100Y-115420300D01*
X138697100Y-108201356D01*
X138677941Y-108105044D01*
X138677941Y-108105039D01*
X138666338Y-108046709D01*
X138666337Y-108046703D01*
X138625187Y-107947358D01*
X138605994Y-107901021D01*
X138605990Y-107901015D01*
X138518390Y-107769912D01*
X138467589Y-107719111D01*
X138406889Y-107658411D01*
X137303767Y-106555289D01*
X136171692Y-105423213D01*
X136171688Y-105423210D01*
X136040585Y-105335609D01*
X136040572Y-105335602D01*
X135894901Y-105275264D01*
X135894889Y-105275261D01*
X135740245Y-105244500D01*
X135740242Y-105244500D01*
X121032940Y-105244500D01*
X120965901Y-105224815D01*
X120945259Y-105208181D01*
X119480219Y-103743141D01*
X119446734Y-103681818D01*
X119443900Y-103655460D01*
X119443900Y-94485356D01*
X119429024Y-94410575D01*
X119429024Y-94410573D01*
X119413138Y-94330710D01*
X119413137Y-94330703D01*
X119395048Y-94287032D01*
X119395048Y-94287031D01*
X119352797Y-94185027D01*
X119352790Y-94185014D01*
X119265190Y-94053912D01*
X119225541Y-94014263D01*
X119153689Y-93942411D01*
X115961959Y-90750681D01*
X112676692Y-87465413D01*
X112676688Y-87465410D01*
X112545581Y-87377807D01*
X112545572Y-87377802D01*
X112399901Y-87317464D01*
X112399889Y-87317461D01*
X112245245Y-87286700D01*
X112245242Y-87286700D01*
X102821140Y-87286700D01*
X102754101Y-87267015D01*
X102733459Y-87250381D01*
X99214692Y-83731613D01*
X99214688Y-83731610D01*
X99083585Y-83644009D01*
X99083572Y-83644002D01*
X98937901Y-83583664D01*
X98937889Y-83583661D01*
X98783245Y-83552900D01*
X98783242Y-83552900D01*
X98625558Y-83552900D01*
X98625555Y-83552900D01*
X98470910Y-83583661D01*
X98470898Y-83583664D01*
X98325227Y-83644002D01*
X98325214Y-83644009D01*
X98194111Y-83731610D01*
X98194107Y-83731613D01*
X98082613Y-83843107D01*
X98082610Y-83843111D01*
X97995009Y-83974214D01*
X97995002Y-83974227D01*
X97934664Y-84119898D01*
X97934661Y-84119910D01*
X97903900Y-84274553D01*
X93438900Y-84274553D01*
X93438900Y-64545125D01*
X99728700Y-64545125D01*
X99728700Y-75942275D01*
X99741515Y-75990100D01*
X99766216Y-76082285D01*
X99838690Y-76207815D01*
X101451785Y-77820910D01*
X101561645Y-77884337D01*
X101577315Y-77893384D01*
X101717325Y-77930900D01*
X101717326Y-77930900D01*
X101862274Y-77930900D01*
X122443174Y-77930900D01*
X122510213Y-77950585D01*
X122555968Y-78003389D01*
X122565912Y-78072547D01*
X122536887Y-78136103D01*
X122478109Y-78173877D01*
X122475308Y-78174663D01*
X122471457Y-78175695D01*
X122469514Y-78176216D01*
X122343986Y-78248689D01*
X122343983Y-78248691D01*
X121504891Y-79087783D01*
X121504890Y-79087785D01*
X121457516Y-79169841D01*
X121437209Y-79205014D01*
X121437208Y-79205015D01*
X121432417Y-79213312D01*
X121432416Y-79213313D01*
X121432152Y-79214300D01*
X121394900Y-79353325D01*
X121394900Y-79353327D01*
X121394900Y-86512412D01*
X121375215Y-86579451D01*
X121358581Y-86600093D01*
X119152595Y-88806078D01*
X119112368Y-88832957D01*
X119051765Y-88858060D01*
X119051758Y-88858064D01*
X118926319Y-88954316D01*
X118859252Y-89041720D01*
X118830064Y-89079759D01*
X118794619Y-89165329D01*
X118769556Y-89225837D01*
X118769555Y-89225839D01*
X118748918Y-89382598D01*
X118748918Y-89382601D01*
X118769555Y-89539360D01*
X118769556Y-89539362D01*
X118830064Y-89685441D01*
X118926318Y-89810882D01*
X119051759Y-89907136D01*
X119197838Y-89967644D01*
X119276219Y-89977963D01*
X119354599Y-89988282D01*
X119354600Y-89988282D01*
X119354601Y-89988282D01*
X119406854Y-89981402D01*
X119511362Y-89967644D01*
X119657441Y-89907136D01*
X119782882Y-89810882D01*
X119782886Y-89810877D01*
X119786219Y-89807545D01*
X119847542Y-89774060D01*
X119917234Y-89779044D01*
X119973167Y-89820916D01*
X119997584Y-89886380D01*
X119997900Y-89895226D01*
X119997900Y-102503576D01*
X119988461Y-102551028D01*
X119963357Y-102611634D01*
X119963355Y-102611639D01*
X119942718Y-102768398D01*
X119942718Y-102768401D01*
X119963355Y-102925160D01*
X119963356Y-102925162D01*
X120023864Y-103071241D01*
X120120118Y-103196682D01*
X120245559Y-103292936D01*
X120391638Y-103353444D01*
X120405326Y-103355246D01*
X120548399Y-103374082D01*
X120548400Y-103374082D01*
X120548401Y-103374082D01*
X120600654Y-103367202D01*
X120705162Y-103353444D01*
X120851241Y-103292936D01*
X120976682Y-103196682D01*
X121072936Y-103071241D01*
X121102629Y-102999553D01*
X121109802Y-102985010D01*
X121112184Y-102980885D01*
X121113417Y-102976281D01*
X121118629Y-102960926D01*
X121133444Y-102925162D01*
X121138496Y-102886786D01*
X121141659Y-102870882D01*
X121149700Y-102840875D01*
X121149700Y-102809811D01*
X121150761Y-102793625D01*
X121154082Y-102768400D01*
X121154082Y-102768398D01*
X121150761Y-102743173D01*
X121149700Y-102726988D01*
X121149700Y-102695927D01*
X121149700Y-102695925D01*
X121141657Y-102665909D01*
X121138495Y-102650008D01*
X121133444Y-102611638D01*
X121118630Y-102575874D01*
X121113415Y-102560511D01*
X121112184Y-102555915D01*
X121112181Y-102555911D01*
X121109073Y-102548405D01*
X121111662Y-102547332D01*
X121098900Y-102499680D01*
X121098900Y-94538798D01*
X136224118Y-94538798D01*
X136224118Y-94538801D01*
X136244755Y-94695560D01*
X136244756Y-94695562D01*
X136305264Y-94841641D01*
X136401518Y-94967082D01*
X136526959Y-95063336D01*
X136673038Y-95123844D01*
X136751419Y-95134163D01*
X136829799Y-95144482D01*
X136829800Y-95144482D01*
X136829801Y-95144482D01*
X136882054Y-95137602D01*
X136986562Y-95123844D01*
X137047170Y-95098738D01*
X137094623Y-95089300D01*
X150034072Y-95089300D01*
X150034074Y-95089300D01*
X150034075Y-95089300D01*
X150174085Y-95051784D01*
X150178753Y-95049089D01*
X150299615Y-94979310D01*
X156792110Y-88486814D01*
X156864584Y-88361285D01*
X156877100Y-88314574D01*
X156902100Y-88221275D01*
X156902100Y-87367509D01*
X156921785Y-87300470D01*
X156974589Y-87254715D01*
X157043747Y-87244771D01*
X157107303Y-87273796D01*
X157140661Y-87320057D01*
X157148661Y-87339371D01*
X157158100Y-87386823D01*
X157158100Y-88620613D01*
X157138415Y-88687652D01*
X157121781Y-88708294D01*
X149998494Y-95831581D01*
X149937171Y-95865066D01*
X149910813Y-95867900D01*
X145799725Y-95867900D01*
X145694717Y-95896037D01*
X145659714Y-95905416D01*
X145534186Y-95977889D01*
X145534183Y-95977891D01*
X143983891Y-97528183D01*
X143983889Y-97528186D01*
X143911416Y-97653714D01*
X143911416Y-97653715D01*
X143873900Y-97793725D01*
X143873900Y-97793727D01*
X143873900Y-103398900D01*
X143854215Y-103465939D01*
X143801411Y-103511694D01*
X143749901Y-103522900D01*
X143529543Y-103522900D01*
X143529517Y-103522902D01*
X143504412Y-103525813D01*
X143504408Y-103525815D01*
X143401635Y-103571193D01*
X143322194Y-103650634D01*
X143276815Y-103753406D01*
X143276815Y-103753408D01*
X143273900Y-103778531D01*
X143273900Y-105568256D01*
X143273902Y-105568282D01*
X143276813Y-105593387D01*
X143276815Y-105593391D01*
X143322193Y-105696164D01*
X143322194Y-105696165D01*
X143401635Y-105775606D01*
X143504409Y-105820985D01*
X143529535Y-105823900D01*
X145319264Y-105823899D01*
X145319279Y-105823897D01*
X145319282Y-105823897D01*
X145344387Y-105820986D01*
X145344388Y-105820985D01*
X145344391Y-105820985D01*
X145447165Y-105775606D01*
X145526606Y-105696165D01*
X145571985Y-105593391D01*
X145574900Y-105568265D01*
X145574899Y-105435916D01*
X145594583Y-105368880D01*
X145647387Y-105323125D01*
X145716545Y-105313181D01*
X145780101Y-105342205D01*
X145800473Y-105364795D01*
X145926290Y-105544478D01*
X146093317Y-105711505D01*
X146286821Y-105847000D01*
X146500907Y-105946829D01*
X146500916Y-105946833D01*
X146714400Y-106004034D01*
X146714400Y-105106412D01*
X146771407Y-105139325D01*
X146898574Y-105173400D01*
X147030226Y-105173400D01*
X147157393Y-105139325D01*
X147214400Y-105106412D01*
X147214400Y-106004033D01*
X147427883Y-105946833D01*
X147427892Y-105946829D01*
X147641978Y-105847000D01*
X147835482Y-105711505D01*
X148002505Y-105544482D01*
X148138000Y-105350978D01*
X148231694Y-105150051D01*
X148277866Y-105097612D01*
X148345060Y-105078460D01*
X148411941Y-105098676D01*
X148455076Y-105147185D01*
X148522032Y-105281653D01*
X148650527Y-105451806D01*
X148650528Y-105451807D01*
X148808098Y-105595452D01*
X148989381Y-105707698D01*
X149188202Y-105784721D01*
X149397790Y-105823900D01*
X149397792Y-105823900D01*
X149611008Y-105823900D01*
X149611010Y-105823900D01*
X149820598Y-105784721D01*
X150019419Y-105707698D01*
X150200702Y-105595452D01*
X150358272Y-105451807D01*
X150486766Y-105281655D01*
X150515069Y-105224815D01*
X150581803Y-105090794D01*
X150581803Y-105090793D01*
X150581805Y-105090789D01*
X150640156Y-104885710D01*
X150650929Y-104769447D01*
X150676715Y-104704511D01*
X150719022Y-104674204D01*
X150827530Y-104674204D01*
X150863903Y-104695068D01*
X150896093Y-104757081D01*
X150897870Y-104769447D01*
X150908644Y-104885710D01*
X150962075Y-105073499D01*
X150966996Y-105090792D01*
X150966996Y-105090794D01*
X151062032Y-105281653D01*
X151190527Y-105451806D01*
X151190528Y-105451807D01*
X151348098Y-105595452D01*
X151529381Y-105707698D01*
X151728202Y-105784721D01*
X151937790Y-105823900D01*
X151937792Y-105823900D01*
X152151008Y-105823900D01*
X152151010Y-105823900D01*
X152360598Y-105784721D01*
X152559419Y-105707698D01*
X152740702Y-105595452D01*
X152898272Y-105451807D01*
X153026766Y-105281655D01*
X153055069Y-105224815D01*
X153121803Y-105090794D01*
X153121803Y-105090793D01*
X153121805Y-105090789D01*
X153180156Y-104885710D01*
X153190929Y-104769447D01*
X153216715Y-104704511D01*
X153259022Y-104674204D01*
X153367530Y-104674204D01*
X153403903Y-104695068D01*
X153436093Y-104757081D01*
X153437870Y-104769447D01*
X153448644Y-104885710D01*
X153502075Y-105073499D01*
X153506996Y-105090792D01*
X153506996Y-105090794D01*
X153602032Y-105281653D01*
X153730527Y-105451806D01*
X153730528Y-105451807D01*
X153888098Y-105595452D01*
X154069381Y-105707698D01*
X154268202Y-105784721D01*
X154477790Y-105823900D01*
X154477792Y-105823900D01*
X154691008Y-105823900D01*
X154691010Y-105823900D01*
X154900598Y-105784721D01*
X155099419Y-105707698D01*
X155280702Y-105595452D01*
X155438272Y-105451807D01*
X155566766Y-105281655D01*
X155595069Y-105224815D01*
X155661803Y-105090794D01*
X155661803Y-105090793D01*
X155661805Y-105090789D01*
X155720156Y-104885710D01*
X155730929Y-104769447D01*
X155756715Y-104704511D01*
X155799022Y-104674204D01*
X155907530Y-104674204D01*
X155943903Y-104695068D01*
X155976093Y-104757081D01*
X155977870Y-104769447D01*
X155988644Y-104885710D01*
X156042075Y-105073499D01*
X156046996Y-105090792D01*
X156046996Y-105090794D01*
X156142032Y-105281653D01*
X156270527Y-105451806D01*
X156270528Y-105451807D01*
X156428098Y-105595452D01*
X156609381Y-105707698D01*
X156808202Y-105784721D01*
X157017790Y-105823900D01*
X157017792Y-105823900D01*
X157231008Y-105823900D01*
X157231010Y-105823900D01*
X157440598Y-105784721D01*
X157639419Y-105707698D01*
X157820702Y-105595452D01*
X157978272Y-105451807D01*
X158106766Y-105281655D01*
X158135069Y-105224815D01*
X158201803Y-105090794D01*
X158201803Y-105090793D01*
X158201805Y-105090789D01*
X158260156Y-104885710D01*
X158279829Y-104673400D01*
X158260156Y-104461090D01*
X158201805Y-104256011D01*
X158201803Y-104256006D01*
X158201803Y-104256005D01*
X158106767Y-104065146D01*
X157978272Y-103894993D01*
X157945921Y-103865501D01*
X157820702Y-103751348D01*
X157639419Y-103639102D01*
X157639417Y-103639101D01*
X157494607Y-103583002D01*
X157440598Y-103562079D01*
X157231010Y-103522900D01*
X157017790Y-103522900D01*
X156808202Y-103562079D01*
X156808199Y-103562079D01*
X156808199Y-103562080D01*
X156609382Y-103639101D01*
X156609380Y-103639102D01*
X156428099Y-103751347D01*
X156270527Y-103894993D01*
X156142032Y-104065146D01*
X156046996Y-104256005D01*
X156046996Y-104256007D01*
X155988644Y-104461089D01*
X155977871Y-104577351D01*
X155952085Y-104642288D01*
X155907530Y-104674204D01*
X155799022Y-104674204D01*
X155801269Y-104672594D01*
X155764897Y-104651731D01*
X155732707Y-104589718D01*
X155730929Y-104577351D01*
X155728273Y-104548688D01*
X155720156Y-104461090D01*
X155661805Y-104256011D01*
X155661803Y-104256006D01*
X155661803Y-104256005D01*
X155566767Y-104065146D01*
X155438272Y-103894993D01*
X155405921Y-103865501D01*
X155280702Y-103751348D01*
X155099419Y-103639102D01*
X155099417Y-103639101D01*
X154954607Y-103583002D01*
X154900598Y-103562079D01*
X154691010Y-103522900D01*
X154477790Y-103522900D01*
X154268202Y-103562079D01*
X154268199Y-103562079D01*
X154268199Y-103562080D01*
X154069382Y-103639101D01*
X154069380Y-103639102D01*
X153888099Y-103751347D01*
X153730527Y-103894993D01*
X153602032Y-104065146D01*
X153506996Y-104256005D01*
X153506996Y-104256007D01*
X153448644Y-104461089D01*
X153437871Y-104577351D01*
X153412085Y-104642288D01*
X153367530Y-104674204D01*
X153259022Y-104674204D01*
X153261269Y-104672594D01*
X153224897Y-104651731D01*
X153192707Y-104589718D01*
X153190929Y-104577351D01*
X153188273Y-104548688D01*
X153180156Y-104461090D01*
X153121805Y-104256011D01*
X153121803Y-104256006D01*
X153121803Y-104256005D01*
X153026767Y-104065146D01*
X152898272Y-103894993D01*
X152865921Y-103865501D01*
X152740702Y-103751348D01*
X152559419Y-103639102D01*
X152559417Y-103639101D01*
X152414607Y-103583002D01*
X152360598Y-103562079D01*
X152151010Y-103522900D01*
X151937790Y-103522900D01*
X151728202Y-103562079D01*
X151728199Y-103562079D01*
X151728199Y-103562080D01*
X151529382Y-103639101D01*
X151529380Y-103639102D01*
X151348099Y-103751347D01*
X151190527Y-103894993D01*
X151062032Y-104065146D01*
X150966996Y-104256005D01*
X150966996Y-104256007D01*
X150908644Y-104461089D01*
X150897871Y-104577351D01*
X150872085Y-104642288D01*
X150827530Y-104674204D01*
X150719022Y-104674204D01*
X150721269Y-104672594D01*
X150684897Y-104651731D01*
X150652707Y-104589718D01*
X150650929Y-104577351D01*
X150648273Y-104548688D01*
X150640156Y-104461090D01*
X150581805Y-104256011D01*
X150581803Y-104256006D01*
X150581803Y-104256005D01*
X150486767Y-104065146D01*
X150358272Y-103894993D01*
X150325921Y-103865501D01*
X150200702Y-103751348D01*
X150019419Y-103639102D01*
X150019417Y-103639101D01*
X149874607Y-103583002D01*
X149820598Y-103562079D01*
X149611010Y-103522900D01*
X149397790Y-103522900D01*
X149188202Y-103562079D01*
X149188199Y-103562079D01*
X149188199Y-103562080D01*
X148989382Y-103639101D01*
X148989380Y-103639102D01*
X148808099Y-103751347D01*
X148650527Y-103894993D01*
X148522034Y-104065144D01*
X148455076Y-104199615D01*
X148407573Y-104250852D01*
X148339910Y-104268273D01*
X148273570Y-104246347D01*
X148231694Y-104196748D01*
X148138000Y-103995822D01*
X148137999Y-103995820D01*
X148002513Y-103802326D01*
X148002508Y-103802320D01*
X147835482Y-103635294D01*
X147641978Y-103499799D01*
X147427892Y-103399970D01*
X147427886Y-103399967D01*
X147214400Y-103342764D01*
X147214400Y-104240388D01*
X147157393Y-104207475D01*
X147030226Y-104173400D01*
X146898574Y-104173400D01*
X146771407Y-104207475D01*
X146714400Y-104240388D01*
X146714400Y-103342764D01*
X146714399Y-103342764D01*
X146500913Y-103399967D01*
X146500907Y-103399970D01*
X146286822Y-103499799D01*
X146286820Y-103499800D01*
X146093326Y-103635286D01*
X146093320Y-103635291D01*
X145926291Y-103802320D01*
X145926290Y-103802322D01*
X145800474Y-103982006D01*
X145745897Y-104025630D01*
X145676398Y-104032823D01*
X145614044Y-104001301D01*
X145578630Y-103941071D01*
X145574899Y-103910882D01*
X145574899Y-103778543D01*
X145574899Y-103778536D01*
X145574897Y-103778517D01*
X145571986Y-103753412D01*
X145571985Y-103753410D01*
X145571985Y-103753409D01*
X145526606Y-103650635D01*
X145447165Y-103571194D01*
X145426524Y-103562080D01*
X145344392Y-103525815D01*
X145319268Y-103522900D01*
X145319265Y-103522900D01*
X145098900Y-103522900D01*
X145031861Y-103503215D01*
X144986106Y-103450411D01*
X144974900Y-103398900D01*
X144974900Y-98145587D01*
X144994585Y-98078548D01*
X145011219Y-98057906D01*
X146063906Y-97005219D01*
X146125229Y-96971734D01*
X146151587Y-96968900D01*
X150262672Y-96968900D01*
X150262674Y-96968900D01*
X150262675Y-96968900D01*
X150402685Y-96931384D01*
X150528215Y-96858910D01*
X151969527Y-95417598D01*
X164200932Y-95417598D01*
X164200932Y-95417601D01*
X164220764Y-95644286D01*
X164220766Y-95644297D01*
X164279658Y-95864088D01*
X164279661Y-95864097D01*
X164375831Y-96070332D01*
X164375832Y-96070334D01*
X164506354Y-96256741D01*
X164667258Y-96417645D01*
X164667261Y-96417647D01*
X164853666Y-96548168D01*
X165059904Y-96644339D01*
X165279708Y-96703235D01*
X165441630Y-96717401D01*
X165506398Y-96723068D01*
X165506400Y-96723068D01*
X165506402Y-96723068D01*
X165563073Y-96718109D01*
X165733092Y-96703235D01*
X165952896Y-96644339D01*
X166159134Y-96548168D01*
X166345539Y-96417647D01*
X166506447Y-96256739D01*
X166636968Y-96070334D01*
X166733139Y-95864096D01*
X166792035Y-95644292D01*
X166811868Y-95417600D01*
X166792035Y-95190908D01*
X166733139Y-94971104D01*
X166636968Y-94764866D01*
X166506447Y-94578461D01*
X166506445Y-94578458D01*
X166345541Y-94417554D01*
X166159134Y-94287032D01*
X166159132Y-94287031D01*
X165952897Y-94190861D01*
X165952888Y-94190858D01*
X165733097Y-94131966D01*
X165733093Y-94131965D01*
X165733092Y-94131965D01*
X165733091Y-94131964D01*
X165733086Y-94131964D01*
X165506402Y-94112132D01*
X165506398Y-94112132D01*
X165279713Y-94131964D01*
X165279702Y-94131966D01*
X165059911Y-94190858D01*
X165059902Y-94190861D01*
X164853667Y-94287031D01*
X164853665Y-94287032D01*
X164667258Y-94417554D01*
X164506354Y-94578458D01*
X164375832Y-94764865D01*
X164375831Y-94764867D01*
X164279661Y-94971102D01*
X164279658Y-94971111D01*
X164220766Y-95190902D01*
X164220764Y-95190913D01*
X164200932Y-95417598D01*
X151969527Y-95417598D01*
X155464526Y-91922599D01*
X156375298Y-91922599D01*
X156375298Y-91922600D01*
X156394115Y-92125682D01*
X156449930Y-92321847D01*
X156449935Y-92321860D01*
X156540840Y-92504421D01*
X156663750Y-92667181D01*
X156814471Y-92804580D01*
X156814473Y-92804582D01*
X156913654Y-92865992D01*
X156987876Y-92911948D01*
X157178057Y-92985624D01*
X157378537Y-93023100D01*
X157378539Y-93023100D01*
X157582487Y-93023100D01*
X157582489Y-93023100D01*
X157782969Y-92985624D01*
X157973150Y-92911948D01*
X158146554Y-92804581D01*
X158297277Y-92667179D01*
X158420186Y-92504421D01*
X158511095Y-92321850D01*
X158566910Y-92125683D01*
X158585728Y-91922600D01*
X158573751Y-91793350D01*
X158566910Y-91719517D01*
X158542404Y-91633389D01*
X158511095Y-91523350D01*
X158500522Y-91502117D01*
X158451949Y-91404568D01*
X158420186Y-91340779D01*
X158297277Y-91178021D01*
X158297275Y-91178018D01*
X158187264Y-91077731D01*
X158880013Y-91077731D01*
X158880013Y-92767456D01*
X158880015Y-92767482D01*
X158882926Y-92792587D01*
X158882928Y-92792591D01*
X158928306Y-92895364D01*
X158928307Y-92895365D01*
X159007748Y-92974806D01*
X159110522Y-93020185D01*
X159135648Y-93023100D01*
X160825377Y-93023099D01*
X160825392Y-93023097D01*
X160825395Y-93023097D01*
X160850500Y-93020186D01*
X160850501Y-93020185D01*
X160850504Y-93020185D01*
X160953278Y-92974806D01*
X161032719Y-92895365D01*
X161078098Y-92792591D01*
X161081013Y-92767465D01*
X161081012Y-91077736D01*
X161081010Y-91077717D01*
X161078099Y-91052612D01*
X161078098Y-91052610D01*
X161078098Y-91052609D01*
X161032719Y-90949835D01*
X160953278Y-90870394D01*
X160928780Y-90859577D01*
X160850505Y-90825015D01*
X160825378Y-90822100D01*
X159135656Y-90822100D01*
X159135630Y-90822102D01*
X159110525Y-90825013D01*
X159110521Y-90825015D01*
X159007748Y-90870393D01*
X158928307Y-90949834D01*
X158882928Y-91052606D01*
X158882928Y-91052608D01*
X158880013Y-91077731D01*
X158187264Y-91077731D01*
X158146554Y-91040619D01*
X158146552Y-91040617D01*
X157973155Y-90933255D01*
X157973148Y-90933251D01*
X157878059Y-90896414D01*
X157782969Y-90859576D01*
X157582489Y-90822100D01*
X157378537Y-90822100D01*
X157178057Y-90859576D01*
X157178054Y-90859576D01*
X157178054Y-90859577D01*
X156987877Y-90933251D01*
X156987870Y-90933255D01*
X156814473Y-91040617D01*
X156814471Y-91040619D01*
X156663750Y-91178018D01*
X156540840Y-91340778D01*
X156449935Y-91523339D01*
X156449930Y-91523352D01*
X156394115Y-91719517D01*
X156375298Y-91922599D01*
X155464526Y-91922599D01*
X157064727Y-90322398D01*
X161649518Y-90322398D01*
X161649518Y-90322401D01*
X161670155Y-90479160D01*
X161670156Y-90479162D01*
X161720953Y-90601798D01*
X161730664Y-90625241D01*
X161826918Y-90750682D01*
X161952359Y-90846936D01*
X161952360Y-90846936D01*
X161952361Y-90846937D01*
X162012966Y-90872040D01*
X162053195Y-90898920D01*
X164583154Y-93428878D01*
X164583360Y-93429084D01*
X164633963Y-93479925D01*
X164634493Y-93480332D01*
X164634702Y-93480493D01*
X164634978Y-93480705D01*
X164634985Y-93480709D01*
X164634986Y-93480710D01*
X164696996Y-93516511D01*
X164697206Y-93516731D01*
X164697249Y-93516658D01*
X164737171Y-93539832D01*
X164759311Y-93552684D01*
X164759312Y-93552684D01*
X164759315Y-93552686D01*
X164760043Y-93552988D01*
X164760233Y-93553067D01*
X164760511Y-93553183D01*
X164760515Y-93553184D01*
X164829854Y-93571763D01*
X164899233Y-93590528D01*
X164899234Y-93590528D01*
X164899246Y-93590531D01*
X164900108Y-93590645D01*
X164900324Y-93590673D01*
X164900526Y-93590700D01*
X164972503Y-93590700D01*
X175527364Y-93615476D01*
X175574523Y-93624914D01*
X175636638Y-93650644D01*
X175775162Y-93668880D01*
X175793399Y-93671282D01*
X175793400Y-93671282D01*
X175793401Y-93671282D01*
X175845654Y-93664402D01*
X175950162Y-93650644D01*
X176096241Y-93590136D01*
X176221682Y-93493882D01*
X176317936Y-93368441D01*
X176378444Y-93222362D01*
X176399082Y-93065600D01*
X176393486Y-93023097D01*
X176378444Y-92908839D01*
X176378444Y-92908838D01*
X176317936Y-92762759D01*
X176221682Y-92637318D01*
X176096241Y-92541064D01*
X175950162Y-92480556D01*
X175950160Y-92480555D01*
X175793401Y-92459918D01*
X175793399Y-92459918D01*
X175636639Y-92480555D01*
X175636637Y-92480556D01*
X175577524Y-92505041D01*
X175529782Y-92514479D01*
X165252749Y-92490354D01*
X165185756Y-92470512D01*
X165165359Y-92454035D01*
X162831720Y-90120395D01*
X162804840Y-90080166D01*
X162779737Y-90019561D01*
X162779736Y-90019560D01*
X162779736Y-90019559D01*
X162683482Y-89894118D01*
X162558041Y-89797864D01*
X162497403Y-89772747D01*
X162411962Y-89737356D01*
X162411960Y-89737355D01*
X162255201Y-89716718D01*
X162255199Y-89716718D01*
X162098439Y-89737355D01*
X162098437Y-89737356D01*
X161952360Y-89797863D01*
X161826918Y-89894118D01*
X161730663Y-90019560D01*
X161670156Y-90165637D01*
X161670155Y-90165639D01*
X161649518Y-90322398D01*
X157064727Y-90322398D01*
X158149110Y-89238015D01*
X158221584Y-89112485D01*
X158224364Y-89102107D01*
X158230354Y-89079758D01*
X158240875Y-89040489D01*
X158259100Y-88972475D01*
X158259100Y-87386823D01*
X158268539Y-87339370D01*
X158293644Y-87278762D01*
X158313059Y-87131287D01*
X158314282Y-87122001D01*
X158314282Y-87121998D01*
X158293644Y-86965239D01*
X158293644Y-86965238D01*
X158233136Y-86819159D01*
X158136882Y-86693718D01*
X158011441Y-86597464D01*
X157865362Y-86536956D01*
X157865360Y-86536955D01*
X157708601Y-86516318D01*
X157708599Y-86516318D01*
X157551839Y-86536955D01*
X157551837Y-86536956D01*
X157405760Y-86597463D01*
X157280318Y-86693718D01*
X157184063Y-86819160D01*
X157140661Y-86923943D01*
X157096820Y-86978346D01*
X157030526Y-87000411D01*
X156962826Y-86983132D01*
X156915216Y-86931994D01*
X156902100Y-86876490D01*
X156902100Y-85538599D01*
X157766471Y-85538599D01*
X157766471Y-85538600D01*
X157784946Y-85737991D01*
X157784947Y-85737993D01*
X157839745Y-85930589D01*
X157839751Y-85930604D01*
X157929001Y-86109841D01*
X157929006Y-86109849D01*
X158049681Y-86269649D01*
X158157886Y-86368290D01*
X158197664Y-86404552D01*
X158327334Y-86484840D01*
X158343441Y-86494814D01*
X158367916Y-86509968D01*
X158554640Y-86582305D01*
X158751477Y-86619100D01*
X158751479Y-86619100D01*
X158951721Y-86619100D01*
X158951723Y-86619100D01*
X159148560Y-86582305D01*
X159335284Y-86509968D01*
X159505536Y-86404552D01*
X159653520Y-86269647D01*
X159774195Y-86109847D01*
X159863453Y-85930594D01*
X159918253Y-85737992D01*
X159936729Y-85538600D01*
X159918253Y-85339208D01*
X159863453Y-85146606D01*
X159863448Y-85146595D01*
X159774198Y-84967358D01*
X159774193Y-84967350D01*
X159653518Y-84807550D01*
X159505537Y-84672649D01*
X159505536Y-84672648D01*
X159434852Y-84628882D01*
X159335285Y-84567232D01*
X159335283Y-84567231D01*
X159198752Y-84514339D01*
X159148560Y-84494895D01*
X158951723Y-84458100D01*
X158751477Y-84458100D01*
X158554640Y-84494895D01*
X158554637Y-84494895D01*
X158554637Y-84494896D01*
X158367916Y-84567231D01*
X158367914Y-84567232D01*
X158197662Y-84672649D01*
X158049681Y-84807550D01*
X157929006Y-84967350D01*
X157929001Y-84967358D01*
X157839751Y-85146595D01*
X157839745Y-85146610D01*
X157784947Y-85339206D01*
X157784946Y-85339208D01*
X157766471Y-85538599D01*
X156902100Y-85538599D01*
X156902100Y-81743099D01*
X156921785Y-81676060D01*
X156974589Y-81630305D01*
X157026100Y-81619099D01*
X157176456Y-81619099D01*
X157176464Y-81619099D01*
X157176479Y-81619097D01*
X157176482Y-81619097D01*
X157201587Y-81616186D01*
X157201588Y-81616185D01*
X157201591Y-81616185D01*
X157304365Y-81570806D01*
X157383806Y-81491365D01*
X157429185Y-81388591D01*
X157432100Y-81363465D01*
X157432099Y-80538597D01*
X160066711Y-80538597D01*
X160066711Y-80538602D01*
X160086230Y-80761713D01*
X160086232Y-80761724D01*
X160144196Y-80978050D01*
X160144200Y-80978059D01*
X160238852Y-81181043D01*
X160238853Y-81181045D01*
X160286934Y-81249712D01*
X160868637Y-80668009D01*
X160885675Y-80731593D01*
X160951501Y-80845607D01*
X161044593Y-80938699D01*
X161158607Y-81004525D01*
X161222190Y-81021562D01*
X160640486Y-81603264D01*
X160709155Y-81651346D01*
X160912140Y-81745999D01*
X160912149Y-81746003D01*
X161128475Y-81803967D01*
X161128486Y-81803969D01*
X161351598Y-81823489D01*
X161351602Y-81823489D01*
X161574713Y-81803969D01*
X161574724Y-81803967D01*
X161791050Y-81746003D01*
X161791059Y-81745999D01*
X161994045Y-81651346D01*
X161994051Y-81651342D01*
X162062712Y-81603265D01*
X161481009Y-81021562D01*
X161544593Y-81004525D01*
X161658607Y-80938699D01*
X161751699Y-80845607D01*
X161817525Y-80731593D01*
X161834562Y-80668009D01*
X162416265Y-81249712D01*
X162464342Y-81181051D01*
X162464346Y-81181045D01*
X162558999Y-80978059D01*
X162559003Y-80978050D01*
X162616967Y-80761724D01*
X162616969Y-80761713D01*
X162636489Y-80538602D01*
X162636489Y-80538597D01*
X162616969Y-80315486D01*
X162616967Y-80315475D01*
X162559003Y-80099149D01*
X162558999Y-80099140D01*
X162464347Y-79896157D01*
X162464346Y-79896155D01*
X162416264Y-79827487D01*
X162416264Y-79827486D01*
X161834562Y-80409189D01*
X161817525Y-80345607D01*
X161751699Y-80231593D01*
X161658607Y-80138501D01*
X161544593Y-80072675D01*
X161481010Y-80055637D01*
X162062712Y-79473934D01*
X162062712Y-79473933D01*
X161994045Y-79425853D01*
X161994043Y-79425852D01*
X161791059Y-79331200D01*
X161791050Y-79331196D01*
X161574724Y-79273232D01*
X161574713Y-79273230D01*
X161351602Y-79253711D01*
X161351598Y-79253711D01*
X161128486Y-79273230D01*
X161128475Y-79273232D01*
X160912149Y-79331196D01*
X160912140Y-79331200D01*
X160709156Y-79425853D01*
X160640487Y-79473934D01*
X161222190Y-80055637D01*
X161158607Y-80072675D01*
X161044593Y-80138501D01*
X160951501Y-80231593D01*
X160885675Y-80345607D01*
X160868637Y-80409190D01*
X160286934Y-79827487D01*
X160238853Y-79896156D01*
X160144200Y-80099140D01*
X160144196Y-80099149D01*
X160086232Y-80315475D01*
X160086230Y-80315486D01*
X160066711Y-80538597D01*
X157432099Y-80538597D01*
X157432099Y-79713736D01*
X157431615Y-79709560D01*
X157429186Y-79688612D01*
X157429185Y-79688610D01*
X157429185Y-79688609D01*
X157383806Y-79585835D01*
X157304365Y-79506394D01*
X157245329Y-79480327D01*
X157201592Y-79461015D01*
X157176465Y-79458100D01*
X155526743Y-79458100D01*
X155526717Y-79458102D01*
X155501612Y-79461013D01*
X155501608Y-79461015D01*
X155398835Y-79506393D01*
X155319394Y-79585834D01*
X155274015Y-79688606D01*
X155274015Y-79688608D01*
X155271100Y-79713731D01*
X155271100Y-81363456D01*
X155271102Y-81363482D01*
X155274013Y-81388587D01*
X155274015Y-81388591D01*
X155319393Y-81491364D01*
X155319394Y-81491365D01*
X155398835Y-81570806D01*
X155501609Y-81616185D01*
X155526735Y-81619100D01*
X155677100Y-81619099D01*
X155744139Y-81638783D01*
X155789894Y-81691587D01*
X155801100Y-81743099D01*
X155801100Y-87869413D01*
X155781415Y-87936452D01*
X155764781Y-87957094D01*
X149769894Y-93951981D01*
X149708571Y-93985466D01*
X149682213Y-93988300D01*
X137094623Y-93988300D01*
X137047170Y-93978861D01*
X136986562Y-93953756D01*
X136986560Y-93953755D01*
X136829801Y-93933118D01*
X136829799Y-93933118D01*
X136673039Y-93953755D01*
X136673037Y-93953756D01*
X136526960Y-94014263D01*
X136401518Y-94110518D01*
X136305263Y-94235960D01*
X136244756Y-94382037D01*
X136244755Y-94382039D01*
X136224118Y-94538798D01*
X121098900Y-94538798D01*
X121098900Y-92379800D01*
X122122817Y-92379800D01*
X122143099Y-92585732D01*
X122165980Y-92661159D01*
X122196799Y-92762759D01*
X122203169Y-92783756D01*
X122207893Y-92792593D01*
X122300715Y-92966250D01*
X122300717Y-92966252D01*
X122431989Y-93126210D01*
X122528609Y-93205502D01*
X122591950Y-93257485D01*
X122774446Y-93355032D01*
X122972466Y-93415100D01*
X122972465Y-93415100D01*
X122990929Y-93416918D01*
X123178400Y-93435383D01*
X123384334Y-93415100D01*
X123582354Y-93355032D01*
X123764850Y-93257485D01*
X123924810Y-93126210D01*
X124056085Y-92966250D01*
X124153632Y-92783754D01*
X124213700Y-92585734D01*
X124233983Y-92379800D01*
X127002817Y-92379800D01*
X127023099Y-92585732D01*
X127045980Y-92661159D01*
X127076799Y-92762759D01*
X127083169Y-92783756D01*
X127087893Y-92792593D01*
X127180715Y-92966250D01*
X127180717Y-92966252D01*
X127311989Y-93126210D01*
X127408609Y-93205502D01*
X127471950Y-93257485D01*
X127654446Y-93355032D01*
X127852466Y-93415100D01*
X127852465Y-93415100D01*
X127870929Y-93416918D01*
X128058400Y-93435383D01*
X128264334Y-93415100D01*
X128462354Y-93355032D01*
X128644850Y-93257485D01*
X128804810Y-93126210D01*
X128936085Y-92966250D01*
X128937289Y-92963998D01*
X134700118Y-92963998D01*
X134700118Y-92964001D01*
X134720755Y-93120760D01*
X134720756Y-93120762D01*
X134777388Y-93257485D01*
X134781264Y-93266841D01*
X134877518Y-93392282D01*
X135002959Y-93488536D01*
X135149038Y-93549044D01*
X135180485Y-93553184D01*
X135305799Y-93569682D01*
X135305800Y-93569682D01*
X135305801Y-93569682D01*
X135358054Y-93562802D01*
X135462562Y-93549044D01*
X135523170Y-93523938D01*
X135570623Y-93514500D01*
X149500672Y-93514500D01*
X149500674Y-93514500D01*
X149500675Y-93514500D01*
X149640685Y-93476984D01*
X149766215Y-93404510D01*
X154514445Y-88656278D01*
X154554669Y-88629402D01*
X154658641Y-88586336D01*
X154784082Y-88490082D01*
X154880336Y-88364641D01*
X154940844Y-88218562D01*
X154961482Y-88061800D01*
X154940844Y-87905038D01*
X154880336Y-87758959D01*
X154784082Y-87633518D01*
X154658641Y-87537264D01*
X154512562Y-87476756D01*
X154512560Y-87476755D01*
X154355801Y-87456118D01*
X154355799Y-87456118D01*
X154199039Y-87476755D01*
X154199037Y-87476756D01*
X154052960Y-87537263D01*
X153927516Y-87633519D01*
X153831263Y-87758959D01*
X153824117Y-87776211D01*
X153797239Y-87816434D01*
X149236494Y-92377181D01*
X149175171Y-92410666D01*
X149148813Y-92413500D01*
X135570623Y-92413500D01*
X135523170Y-92404061D01*
X135462562Y-92378956D01*
X135462560Y-92378955D01*
X135305801Y-92358318D01*
X135305799Y-92358318D01*
X135149039Y-92378955D01*
X135149037Y-92378956D01*
X135002960Y-92439463D01*
X134877518Y-92535718D01*
X134781263Y-92661160D01*
X134720756Y-92807237D01*
X134720755Y-92807239D01*
X134700118Y-92963998D01*
X128937289Y-92963998D01*
X129033632Y-92783754D01*
X129093700Y-92585734D01*
X129113983Y-92379800D01*
X129093700Y-92173866D01*
X129033632Y-91975846D01*
X128936085Y-91793350D01*
X128875492Y-91719517D01*
X128804810Y-91633389D01*
X128687077Y-91536769D01*
X128644850Y-91502115D01*
X128462354Y-91404568D01*
X128264334Y-91344500D01*
X128264332Y-91344499D01*
X128264334Y-91344499D01*
X128058400Y-91324217D01*
X127852467Y-91344499D01*
X127654443Y-91404569D01*
X127544298Y-91463443D01*
X127471950Y-91502115D01*
X127471948Y-91502116D01*
X127471947Y-91502117D01*
X127311989Y-91633389D01*
X127180717Y-91793347D01*
X127083169Y-91975843D01*
X127023099Y-92173867D01*
X127002817Y-92379800D01*
X124233983Y-92379800D01*
X124213700Y-92173866D01*
X124153632Y-91975846D01*
X124056085Y-91793350D01*
X123995492Y-91719517D01*
X123924810Y-91633389D01*
X123807077Y-91536769D01*
X123764850Y-91502115D01*
X123582354Y-91404568D01*
X123384334Y-91344500D01*
X123384332Y-91344499D01*
X123384334Y-91344499D01*
X123178400Y-91324217D01*
X122972467Y-91344499D01*
X122774443Y-91404569D01*
X122664298Y-91463443D01*
X122591950Y-91502115D01*
X122591948Y-91502116D01*
X122591947Y-91502117D01*
X122431989Y-91633389D01*
X122300717Y-91793347D01*
X122203169Y-91975843D01*
X122143099Y-92173867D01*
X122122817Y-92379800D01*
X121098900Y-92379800D01*
X121098900Y-89839786D01*
X121118585Y-89772747D01*
X121135219Y-89752105D01*
X122300988Y-88586336D01*
X123630510Y-87256814D01*
X123702984Y-87131285D01*
X123740500Y-86991274D01*
X123740500Y-86846325D01*
X123740500Y-86057987D01*
X123760185Y-85990948D01*
X123812989Y-85945193D01*
X123882147Y-85935249D01*
X123945703Y-85964274D01*
X123952181Y-85970306D01*
X129024185Y-91042310D01*
X129149715Y-91114784D01*
X129289725Y-91152300D01*
X129289726Y-91152300D01*
X129434674Y-91152300D01*
X135574377Y-91152300D01*
X135621829Y-91161738D01*
X135682438Y-91186844D01*
X135760819Y-91197163D01*
X135839199Y-91207482D01*
X135839200Y-91207482D01*
X135839201Y-91207482D01*
X135891454Y-91200602D01*
X135995962Y-91186844D01*
X136142041Y-91126336D01*
X136267482Y-91030082D01*
X136363736Y-90904641D01*
X136424244Y-90758562D01*
X136444882Y-90601800D01*
X136424244Y-90445038D01*
X136363736Y-90298959D01*
X136267482Y-90173518D01*
X136243966Y-90155474D01*
X136202766Y-90099048D01*
X136198611Y-90029302D01*
X136232824Y-89968381D01*
X136294541Y-89935629D01*
X136319455Y-89933100D01*
X142287072Y-89933100D01*
X142287074Y-89933100D01*
X142287075Y-89933100D01*
X142427085Y-89895584D01*
X142468107Y-89871900D01*
X142552615Y-89823110D01*
X144788710Y-87587015D01*
X144861184Y-87461485D01*
X144883606Y-87377806D01*
X144898700Y-87321475D01*
X144898700Y-86664787D01*
X144918385Y-86597748D01*
X144935019Y-86577105D01*
X144948349Y-86563775D01*
X145017310Y-86494815D01*
X145080480Y-86385400D01*
X145089782Y-86369289D01*
X145089784Y-86369284D01*
X145090051Y-86368290D01*
X145097566Y-86340242D01*
X145127300Y-86229275D01*
X145127300Y-83739423D01*
X145136739Y-83691970D01*
X145156605Y-83644009D01*
X145161844Y-83631362D01*
X145182482Y-83474600D01*
X145179640Y-83453015D01*
X145161844Y-83317839D01*
X145161844Y-83317838D01*
X145101336Y-83171759D01*
X145005082Y-83046318D01*
X144879641Y-82950064D01*
X144733562Y-82889556D01*
X144733560Y-82889555D01*
X144576801Y-82868918D01*
X144576799Y-82868918D01*
X144420039Y-82889555D01*
X144420037Y-82889556D01*
X144273960Y-82950063D01*
X144148518Y-83046318D01*
X144052263Y-83171760D01*
X143991756Y-83317837D01*
X143991755Y-83317839D01*
X143971118Y-83474598D01*
X143971118Y-83474601D01*
X143991755Y-83631360D01*
X143991756Y-83631362D01*
X144016861Y-83691970D01*
X144026300Y-83739423D01*
X144026300Y-85814337D01*
X144006615Y-85881376D01*
X143977788Y-85912712D01*
X143919919Y-85957117D01*
X143919918Y-85957118D01*
X143871791Y-86019838D01*
X143823663Y-86082560D01*
X143763156Y-86228637D01*
X143763155Y-86228639D01*
X143742518Y-86385398D01*
X143742518Y-86385401D01*
X143763155Y-86542160D01*
X143763156Y-86542162D01*
X143772108Y-86563775D01*
X143788261Y-86602770D01*
X143797700Y-86650223D01*
X143797700Y-86969613D01*
X143778015Y-87036652D01*
X143761381Y-87057294D01*
X142022894Y-88795781D01*
X141961571Y-88829266D01*
X141935213Y-88832100D01*
X131966902Y-88832100D01*
X131899863Y-88812415D01*
X131854108Y-88759611D01*
X131844164Y-88690453D01*
X131852339Y-88660652D01*
X131877644Y-88599562D01*
X131898282Y-88442800D01*
X131877644Y-88286038D01*
X131817136Y-88139959D01*
X131720882Y-88014518D01*
X131595441Y-87918264D01*
X131563508Y-87905037D01*
X131449362Y-87857756D01*
X131449360Y-87857755D01*
X131292601Y-87837118D01*
X131292599Y-87837118D01*
X131135839Y-87857755D01*
X131135837Y-87857756D01*
X131075230Y-87882861D01*
X131027777Y-87892300D01*
X130251186Y-87892300D01*
X130184147Y-87872615D01*
X130163505Y-87855981D01*
X126672419Y-84364894D01*
X126638934Y-84303571D01*
X126636100Y-84277213D01*
X126636100Y-83881623D01*
X126645539Y-83834170D01*
X126670644Y-83773562D01*
X126683589Y-83675228D01*
X126711855Y-83611334D01*
X126770179Y-83572862D01*
X126840044Y-83572030D01*
X126894209Y-83603734D01*
X127410374Y-84119898D01*
X127754186Y-84463710D01*
X127879715Y-84536184D01*
X128019725Y-84573700D01*
X128019726Y-84573700D01*
X128164674Y-84573700D01*
X129681577Y-84573700D01*
X129729029Y-84583138D01*
X129789638Y-84608244D01*
X129868019Y-84618563D01*
X129946399Y-84628882D01*
X129946400Y-84628882D01*
X129946401Y-84628882D01*
X129998654Y-84622002D01*
X130103162Y-84608244D01*
X130249241Y-84547736D01*
X130374682Y-84451482D01*
X130470936Y-84326041D01*
X130531444Y-84179962D01*
X130552082Y-84023200D01*
X130531444Y-83866438D01*
X130470936Y-83720359D01*
X130374682Y-83594918D01*
X130249241Y-83498664D01*
X130191145Y-83474600D01*
X130103162Y-83438156D01*
X130103160Y-83438155D01*
X129946401Y-83417518D01*
X129946399Y-83417518D01*
X129789639Y-83438155D01*
X129789637Y-83438156D01*
X129729030Y-83463261D01*
X129681577Y-83472700D01*
X128371586Y-83472700D01*
X128304547Y-83453015D01*
X128283905Y-83436381D01*
X126753816Y-81906291D01*
X126753815Y-81906290D01*
X126628285Y-81833816D01*
X126628280Y-81833814D01*
X126585174Y-81822263D01*
X126585174Y-81822264D01*
X126522938Y-81805588D01*
X126488275Y-81796300D01*
X126488274Y-81796300D01*
X125537623Y-81796300D01*
X125490170Y-81786861D01*
X125429562Y-81761756D01*
X125415492Y-81759903D01*
X125351459Y-81751473D01*
X125287562Y-81723206D01*
X125249092Y-81664881D01*
X125244707Y-81644724D01*
X125236244Y-81580438D01*
X125175736Y-81434359D01*
X125079482Y-81308918D01*
X124954041Y-81212664D01*
X124891358Y-81186700D01*
X124807962Y-81152156D01*
X124807960Y-81152155D01*
X124651201Y-81131518D01*
X124651199Y-81131518D01*
X124494439Y-81152155D01*
X124494437Y-81152156D01*
X124433830Y-81177261D01*
X124386377Y-81186700D01*
X123523925Y-81186700D01*
X123427031Y-81212663D01*
X123383914Y-81224216D01*
X123258386Y-81296689D01*
X123258383Y-81296691D01*
X122749491Y-81805583D01*
X122749487Y-81805588D01*
X122727287Y-81844041D01*
X122676720Y-81892257D01*
X122608113Y-81905480D01*
X122543248Y-81879512D01*
X122502720Y-81822597D01*
X122495900Y-81782041D01*
X122495900Y-80383860D01*
X122515585Y-80316821D01*
X122568389Y-80271066D01*
X122637547Y-80261122D01*
X122667348Y-80269297D01*
X122779238Y-80315644D01*
X122792721Y-80317419D01*
X122935999Y-80336282D01*
X122936000Y-80336282D01*
X122936001Y-80336282D01*
X122988254Y-80329402D01*
X123092762Y-80315644D01*
X123153370Y-80290538D01*
X123200823Y-80281100D01*
X124307613Y-80281100D01*
X124374652Y-80300785D01*
X124395294Y-80317419D01*
X125010985Y-80933110D01*
X125136515Y-81005584D01*
X125276525Y-81043100D01*
X125276526Y-81043100D01*
X125276528Y-81043100D01*
X127478872Y-81043100D01*
X127478874Y-81043100D01*
X127478875Y-81043100D01*
X127618885Y-81005584D01*
X127744415Y-80933110D01*
X127964008Y-80713515D01*
X128004228Y-80686641D01*
X128064841Y-80661536D01*
X128190282Y-80565282D01*
X128286536Y-80439841D01*
X128347044Y-80293762D01*
X128366829Y-80143480D01*
X128367682Y-80137001D01*
X128367682Y-80137000D01*
X128359873Y-80077686D01*
X128370638Y-80008650D01*
X128417018Y-79956394D01*
X128482812Y-79937500D01*
X129042526Y-79937500D01*
X129109565Y-79957185D01*
X129130372Y-79976326D01*
X129131367Y-79975332D01*
X129137111Y-79981075D01*
X129137114Y-79981078D01*
X129137118Y-79981082D01*
X129262559Y-80077336D01*
X129408638Y-80137844D01*
X129451448Y-80143480D01*
X129565399Y-80158482D01*
X129565400Y-80158482D01*
X129565401Y-80158482D01*
X129617654Y-80151602D01*
X129722162Y-80137844D01*
X129868241Y-80077336D01*
X129993682Y-79981082D01*
X130089936Y-79855641D01*
X130150444Y-79709562D01*
X130171082Y-79552800D01*
X130164972Y-79506393D01*
X130150444Y-79396039D01*
X130150442Y-79396034D01*
X130146183Y-79385750D01*
X130138716Y-79316280D01*
X130169992Y-79253802D01*
X130230082Y-79218151D01*
X130260745Y-79214300D01*
X141046213Y-79214300D01*
X141113252Y-79233985D01*
X141133894Y-79250619D01*
X141617175Y-79733900D01*
X141650660Y-79795223D01*
X141645676Y-79864915D01*
X141644065Y-79869007D01*
X141633127Y-79895416D01*
X141629555Y-79904040D01*
X141608918Y-80060798D01*
X141608918Y-80060801D01*
X141629555Y-80217560D01*
X141629556Y-80217562D01*
X141678731Y-80336282D01*
X141690064Y-80363641D01*
X141786318Y-80489082D01*
X141911759Y-80585336D01*
X142057838Y-80645844D01*
X142136219Y-80656163D01*
X142214599Y-80666482D01*
X142214600Y-80666482D01*
X142214601Y-80666482D01*
X142266854Y-80659602D01*
X142371362Y-80645844D01*
X142517441Y-80585336D01*
X142642882Y-80489082D01*
X142739136Y-80363641D01*
X142799644Y-80217562D01*
X142815233Y-80099149D01*
X142820282Y-80060801D01*
X142820282Y-80060798D01*
X142799644Y-79904039D01*
X142799642Y-79904034D01*
X142796379Y-79896157D01*
X142783439Y-79864915D01*
X142774539Y-79843428D01*
X142765100Y-79795976D01*
X142765100Y-79480327D01*
X142765100Y-79480325D01*
X142727584Y-79340315D01*
X142708198Y-79306737D01*
X142655110Y-79214785D01*
X141663615Y-78223290D01*
X141538085Y-78150816D01*
X141461892Y-78130400D01*
X141461891Y-78130399D01*
X141415174Y-78117881D01*
X141398075Y-78113300D01*
X141398074Y-78113300D01*
X139372587Y-78113300D01*
X139305548Y-78093615D01*
X139259793Y-78040811D01*
X139249849Y-77971653D01*
X139278874Y-77908097D01*
X139284906Y-77901619D01*
X139307506Y-77879019D01*
X139368829Y-77845534D01*
X139395187Y-77842700D01*
X142011413Y-77842700D01*
X142078452Y-77862385D01*
X142099094Y-77879019D01*
X143289077Y-79069001D01*
X143315957Y-79109229D01*
X143341062Y-79169838D01*
X143341064Y-79169841D01*
X143405419Y-79253711D01*
X143437318Y-79295282D01*
X143562759Y-79391536D01*
X143708838Y-79452044D01*
X143776965Y-79461013D01*
X143865599Y-79472682D01*
X143865600Y-79472682D01*
X143865601Y-79472682D01*
X143917854Y-79465802D01*
X144022362Y-79452044D01*
X144168441Y-79391536D01*
X144293882Y-79295282D01*
X144390136Y-79169841D01*
X144450644Y-79023762D01*
X144471282Y-78867000D01*
X144450644Y-78710238D01*
X144390136Y-78564159D01*
X144293882Y-78438718D01*
X144293880Y-78438717D01*
X144293880Y-78438716D01*
X144168441Y-78342464D01*
X144168438Y-78342462D01*
X144107829Y-78317357D01*
X144067601Y-78290477D01*
X142628816Y-76851691D01*
X142628815Y-76851690D01*
X142503285Y-76779216D01*
X142503280Y-76779214D01*
X142443372Y-76763161D01*
X142443372Y-76763162D01*
X142374202Y-76744628D01*
X142363275Y-76741700D01*
X139043325Y-76741700D01*
X138963228Y-76763162D01*
X138963227Y-76763161D01*
X138903319Y-76779214D01*
X138903314Y-76779216D01*
X138777786Y-76851689D01*
X138777783Y-76851691D01*
X138504294Y-77125181D01*
X138442971Y-77158666D01*
X138416613Y-77161500D01*
X137564618Y-77161500D01*
X137497579Y-77141815D01*
X137451824Y-77089011D01*
X137441880Y-77019853D01*
X137466241Y-76962015D01*
X137506736Y-76909241D01*
X137567244Y-76763162D01*
X137587882Y-76606400D01*
X137567244Y-76449638D01*
X137542139Y-76389028D01*
X137532700Y-76341576D01*
X137532700Y-71661900D01*
X137552385Y-71594861D01*
X137605189Y-71549106D01*
X137674347Y-71539162D01*
X137732187Y-71563525D01*
X137771558Y-71593736D01*
X137832166Y-71618840D01*
X137872395Y-71645720D01*
X143924078Y-77697403D01*
X143950958Y-77737631D01*
X143976062Y-77798238D01*
X143976063Y-77798239D01*
X143976064Y-77798241D01*
X144012353Y-77845534D01*
X144055388Y-77901619D01*
X144072318Y-77923682D01*
X144197759Y-78019936D01*
X144343838Y-78080444D01*
X144422219Y-78090763D01*
X144500599Y-78101082D01*
X144500600Y-78101082D01*
X144500601Y-78101082D01*
X144557318Y-78093615D01*
X144657362Y-78080444D01*
X144803441Y-78019936D01*
X144928882Y-77923682D01*
X145025136Y-77798241D01*
X145085644Y-77652162D01*
X145106282Y-77495400D01*
X145085644Y-77338638D01*
X145025136Y-77192559D01*
X144928882Y-77067118D01*
X144928880Y-77067117D01*
X144928880Y-77067116D01*
X144867285Y-77019853D01*
X144803441Y-76970864D01*
X144803437Y-76970862D01*
X144803438Y-76970862D01*
X144742831Y-76945758D01*
X144702603Y-76918878D01*
X138650920Y-70867195D01*
X138624040Y-70826966D01*
X138598937Y-70766361D01*
X138598936Y-70766360D01*
X138598936Y-70766359D01*
X138502682Y-70640918D01*
X138377241Y-70544664D01*
X138313940Y-70518444D01*
X138231162Y-70484156D01*
X138231160Y-70484155D01*
X138074401Y-70463518D01*
X138074399Y-70463518D01*
X137917639Y-70484155D01*
X137917637Y-70484156D01*
X137771558Y-70544664D01*
X137732185Y-70574876D01*
X137667016Y-70600069D01*
X137598571Y-70586030D01*
X137548582Y-70537216D01*
X137532700Y-70476499D01*
X137532700Y-69291187D01*
X137552385Y-69224148D01*
X137569019Y-69203506D01*
X138149770Y-68622755D01*
X140916200Y-68622755D01*
X140916200Y-69320600D01*
X141940922Y-69320600D01*
X141896867Y-69396906D01*
X141866200Y-69511356D01*
X141866200Y-69629844D01*
X141896867Y-69744294D01*
X141940922Y-69820600D01*
X140916200Y-69820600D01*
X140916200Y-70518444D01*
X140922601Y-70577972D01*
X140922603Y-70577979D01*
X140972845Y-70712686D01*
X140972849Y-70712693D01*
X141059009Y-70827787D01*
X141059012Y-70827790D01*
X141174106Y-70913950D01*
X141174113Y-70913954D01*
X141308820Y-70964196D01*
X141308827Y-70964198D01*
X141368355Y-70970599D01*
X141368372Y-70970600D01*
X141464678Y-70970600D01*
X141531717Y-70990285D01*
X141577472Y-71043089D01*
X141587416Y-71112247D01*
X141558391Y-71175803D01*
X141548216Y-71186237D01*
X141425220Y-71298361D01*
X141291143Y-71475908D01*
X141291138Y-71475916D01*
X141191975Y-71675061D01*
X141191969Y-71675076D01*
X141131085Y-71889062D01*
X141131084Y-71889064D01*
X141110557Y-72110599D01*
X141110557Y-72110600D01*
X141131084Y-72332135D01*
X141131085Y-72332137D01*
X141191969Y-72546123D01*
X141191975Y-72546138D01*
X141291138Y-72745283D01*
X141291143Y-72745291D01*
X141425220Y-72922838D01*
X141589637Y-73072723D01*
X141589639Y-73072725D01*
X141778795Y-73189845D01*
X141778796Y-73189845D01*
X141778799Y-73189847D01*
X141986260Y-73270218D01*
X142204957Y-73311100D01*
X142204959Y-73311100D01*
X142427441Y-73311100D01*
X142427443Y-73311100D01*
X142646140Y-73270218D01*
X142853601Y-73189847D01*
X143042762Y-73072724D01*
X143182482Y-72945351D01*
X143207179Y-72922838D01*
X143244257Y-72873740D01*
X143341258Y-72745289D01*
X143440429Y-72546128D01*
X143501315Y-72332136D01*
X143521843Y-72110600D01*
X143501315Y-71889064D01*
X143440429Y-71675072D01*
X143440424Y-71675061D01*
X143341261Y-71475916D01*
X143341256Y-71475908D01*
X143207179Y-71298361D01*
X143084184Y-71186237D01*
X143047902Y-71126526D01*
X143049663Y-71056678D01*
X143088906Y-70998871D01*
X143153173Y-70971456D01*
X143167722Y-70970600D01*
X143264028Y-70970600D01*
X143264044Y-70970599D01*
X143323572Y-70964198D01*
X143323579Y-70964196D01*
X143458286Y-70913954D01*
X143458293Y-70913950D01*
X143573387Y-70827790D01*
X143573390Y-70827787D01*
X143659550Y-70712693D01*
X143659554Y-70712686D01*
X143709796Y-70577979D01*
X143709798Y-70577972D01*
X143716199Y-70518444D01*
X143716200Y-70518427D01*
X143716200Y-69820600D01*
X142691478Y-69820600D01*
X142735533Y-69744294D01*
X142766200Y-69629844D01*
X142766200Y-69511356D01*
X142735533Y-69396906D01*
X142691478Y-69320600D01*
X143716200Y-69320600D01*
X143716200Y-68622772D01*
X143716199Y-68622755D01*
X143709798Y-68563227D01*
X143709796Y-68563220D01*
X143659554Y-68428513D01*
X143659550Y-68428506D01*
X143573390Y-68313412D01*
X143573387Y-68313409D01*
X143458293Y-68227249D01*
X143458286Y-68227245D01*
X143323579Y-68177003D01*
X143323572Y-68177001D01*
X143264044Y-68170600D01*
X142566200Y-68170600D01*
X142566200Y-69195322D01*
X142489894Y-69151267D01*
X142375444Y-69120600D01*
X142256956Y-69120600D01*
X142142506Y-69151267D01*
X142066200Y-69195322D01*
X142066200Y-68170600D01*
X141368355Y-68170600D01*
X141308827Y-68177001D01*
X141308820Y-68177003D01*
X141174113Y-68227245D01*
X141174106Y-68227249D01*
X141059012Y-68313409D01*
X141059009Y-68313412D01*
X140972849Y-68428506D01*
X140972845Y-68428513D01*
X140922603Y-68563220D01*
X140922601Y-68563227D01*
X140916200Y-68622755D01*
X138149770Y-68622755D01*
X138598927Y-68173598D01*
X139632510Y-67140015D01*
X139704984Y-67014485D01*
X139742500Y-66874474D01*
X139742500Y-66729526D01*
X139742500Y-65749342D01*
X139762185Y-65682303D01*
X139814989Y-65636548D01*
X139884147Y-65626604D01*
X139947703Y-65655629D01*
X139978882Y-65696937D01*
X140075799Y-65904778D01*
X140211294Y-66098282D01*
X140378317Y-66265305D01*
X140571821Y-66400800D01*
X140785907Y-66500629D01*
X140785916Y-66500633D01*
X140999400Y-66557834D01*
X140999400Y-65660212D01*
X141056407Y-65693125D01*
X141183574Y-65727200D01*
X141315226Y-65727200D01*
X141442393Y-65693125D01*
X141499400Y-65660212D01*
X141499400Y-66557833D01*
X141712883Y-66500633D01*
X141712892Y-66500629D01*
X141926978Y-66400800D01*
X142120482Y-66265305D01*
X142287505Y-66098282D01*
X142423000Y-65904778D01*
X142522829Y-65690692D01*
X142522832Y-65690686D01*
X142580036Y-65477200D01*
X141682412Y-65477200D01*
X141715325Y-65420193D01*
X141749400Y-65293026D01*
X141749400Y-65161374D01*
X141715325Y-65034207D01*
X141682412Y-64977200D01*
X142580036Y-64977200D01*
X142580035Y-64977199D01*
X142522832Y-64763713D01*
X142522829Y-64763707D01*
X142423000Y-64549622D01*
X142422999Y-64549620D01*
X142287513Y-64356126D01*
X142287508Y-64356120D01*
X142120482Y-64189094D01*
X141926978Y-64053599D01*
X141727826Y-63960733D01*
X141675387Y-63914560D01*
X141656235Y-63847367D01*
X141676451Y-63780486D01*
X141729616Y-63735151D01*
X141735405Y-63732737D01*
X141764419Y-63721498D01*
X141945702Y-63609252D01*
X142103272Y-63465607D01*
X142231766Y-63295455D01*
X142273517Y-63211607D01*
X142326803Y-63104594D01*
X142326803Y-63104593D01*
X142326805Y-63104589D01*
X142385156Y-62899510D01*
X142404829Y-62687200D01*
X142404829Y-62687197D01*
X145354685Y-62687197D01*
X145354685Y-62687202D01*
X145374509Y-62913799D01*
X145374511Y-62913810D01*
X145433381Y-63133517D01*
X145433386Y-63133531D01*
X145529514Y-63339678D01*
X145580625Y-63412672D01*
X146259651Y-62733646D01*
X146259651Y-62739861D01*
X146286910Y-62841594D01*
X146339571Y-62932806D01*
X146414045Y-63007280D01*
X146505257Y-63059941D01*
X146606990Y-63087200D01*
X146613204Y-63087200D01*
X145934177Y-63766225D01*
X146007164Y-63817332D01*
X146007172Y-63817336D01*
X146213319Y-63913464D01*
X146213333Y-63913469D01*
X146433040Y-63972339D01*
X146433051Y-63972341D01*
X146659649Y-63992166D01*
X146659653Y-63992166D01*
X146886250Y-63972341D01*
X146886261Y-63972339D01*
X147105968Y-63913469D01*
X147105982Y-63913464D01*
X147312129Y-63817336D01*
X147385122Y-63766224D01*
X146706098Y-63087200D01*
X146712312Y-63087200D01*
X146814045Y-63059941D01*
X146905257Y-63007280D01*
X146979731Y-62932806D01*
X147032392Y-62841594D01*
X147059651Y-62739861D01*
X147059651Y-62733647D01*
X147738675Y-63412671D01*
X147789787Y-63339678D01*
X147885915Y-63133531D01*
X147885920Y-63133517D01*
X147944790Y-62913810D01*
X147944792Y-62913799D01*
X147964617Y-62687202D01*
X147964617Y-62687197D01*
X147944792Y-62460600D01*
X147944790Y-62460589D01*
X147885920Y-62240882D01*
X147885915Y-62240868D01*
X147789787Y-62034721D01*
X147789783Y-62034713D01*
X147738676Y-61961726D01*
X147059651Y-62640751D01*
X147059651Y-62634539D01*
X147032392Y-62532806D01*
X146979731Y-62441594D01*
X146905257Y-62367120D01*
X146814045Y-62314459D01*
X146712312Y-62287200D01*
X146706099Y-62287200D01*
X147150967Y-61842331D01*
X150559151Y-61842331D01*
X150559151Y-63532056D01*
X150559153Y-63532082D01*
X150562064Y-63557187D01*
X150562066Y-63557191D01*
X150607444Y-63659964D01*
X150607445Y-63659965D01*
X150686886Y-63739406D01*
X150785239Y-63782833D01*
X150838613Y-63827917D01*
X150859141Y-63894703D01*
X150859151Y-63896266D01*
X150859151Y-72719097D01*
X150889912Y-72873740D01*
X150889915Y-72873752D01*
X150950253Y-73019423D01*
X150950260Y-73019436D01*
X151037861Y-73150539D01*
X151037864Y-73150543D01*
X152667211Y-74779889D01*
X152778711Y-74891389D01*
X152909821Y-74978994D01*
X153012833Y-75021662D01*
X153055502Y-75039337D01*
X153210152Y-75070099D01*
X153210155Y-75070100D01*
X153210157Y-75070100D01*
X155730044Y-75070100D01*
X155730045Y-75070099D01*
X155884697Y-75039337D01*
X156030379Y-74978994D01*
X156161489Y-74891389D01*
X156272989Y-74779889D01*
X156360594Y-74648779D01*
X156397450Y-74559799D01*
X161861185Y-74559799D01*
X161861185Y-74559800D01*
X161880002Y-74762882D01*
X161935817Y-74959047D01*
X161935822Y-74959060D01*
X162026727Y-75141621D01*
X162149637Y-75304381D01*
X162300358Y-75441780D01*
X162300360Y-75441782D01*
X162370275Y-75485071D01*
X162473763Y-75549148D01*
X162663944Y-75622824D01*
X162864424Y-75660300D01*
X162864426Y-75660300D01*
X163068374Y-75660300D01*
X163068376Y-75660300D01*
X163268856Y-75622824D01*
X163459037Y-75549148D01*
X163632441Y-75441781D01*
X163783164Y-75304379D01*
X163906073Y-75141621D01*
X163996982Y-74959050D01*
X164052797Y-74762883D01*
X164071615Y-74559800D01*
X164052797Y-74356717D01*
X163996982Y-74160550D01*
X163960897Y-74088082D01*
X163952672Y-74071564D01*
X163906073Y-73977979D01*
X163783164Y-73815221D01*
X163783162Y-73815218D01*
X163632441Y-73677819D01*
X163632439Y-73677817D01*
X163459042Y-73570455D01*
X163459035Y-73570451D01*
X163276827Y-73499864D01*
X163268856Y-73496776D01*
X163068376Y-73459300D01*
X162864424Y-73459300D01*
X162663944Y-73496776D01*
X162663941Y-73496776D01*
X162663941Y-73496777D01*
X162473764Y-73570451D01*
X162473757Y-73570455D01*
X162300360Y-73677817D01*
X162300358Y-73677819D01*
X162149637Y-73815218D01*
X162026727Y-73977978D01*
X161935822Y-74160539D01*
X161935817Y-74160552D01*
X161880002Y-74356717D01*
X161861185Y-74559799D01*
X156397450Y-74559799D01*
X156420937Y-74503097D01*
X156451700Y-74348442D01*
X156451700Y-74190758D01*
X156451700Y-74190755D01*
X156451699Y-74190753D01*
X156435208Y-74107848D01*
X156420937Y-74036103D01*
X156418108Y-74029273D01*
X156360597Y-73890427D01*
X156360590Y-73890414D01*
X156272989Y-73759311D01*
X156272986Y-73759307D01*
X156161492Y-73647813D01*
X156161488Y-73647810D01*
X156030385Y-73560209D01*
X156030372Y-73560202D01*
X155884701Y-73499864D01*
X155884689Y-73499861D01*
X155730045Y-73469100D01*
X155730042Y-73469100D01*
X153671940Y-73469100D01*
X153604901Y-73449415D01*
X153584259Y-73432781D01*
X152653878Y-72502400D01*
X181528351Y-72502400D01*
X181548117Y-72753551D01*
X181606926Y-72998510D01*
X181703333Y-73231259D01*
X181834960Y-73446053D01*
X181834961Y-73446056D01*
X181834964Y-73446059D01*
X181998576Y-73637624D01*
X182141053Y-73759311D01*
X182190143Y-73801238D01*
X182190146Y-73801239D01*
X182404940Y-73932866D01*
X182637689Y-74029273D01*
X182882652Y-74088083D01*
X183133800Y-74107849D01*
X183384948Y-74088083D01*
X183629911Y-74029273D01*
X183862659Y-73932866D01*
X184077459Y-73801236D01*
X184269024Y-73637624D01*
X184432636Y-73446059D01*
X184564266Y-73231259D01*
X184660673Y-72998511D01*
X184719483Y-72753548D01*
X184739249Y-72502400D01*
X184719483Y-72251252D01*
X184660673Y-72006289D01*
X184564266Y-71773541D01*
X184564266Y-71773540D01*
X184432639Y-71558746D01*
X184432638Y-71558743D01*
X184380316Y-71497482D01*
X184269024Y-71367176D01*
X184142371Y-71259004D01*
X184077456Y-71203561D01*
X184077453Y-71203560D01*
X183862659Y-71071933D01*
X183629910Y-70975526D01*
X183384951Y-70916717D01*
X183133800Y-70896951D01*
X182882648Y-70916717D01*
X182637689Y-70975526D01*
X182404940Y-71071933D01*
X182190146Y-71203560D01*
X182190143Y-71203561D01*
X181998576Y-71367176D01*
X181834961Y-71558743D01*
X181834960Y-71558746D01*
X181703333Y-71773540D01*
X181606926Y-72006289D01*
X181548117Y-72251248D01*
X181528351Y-72502400D01*
X152653878Y-72502400D01*
X152496470Y-72344992D01*
X152462985Y-72283669D01*
X152460151Y-72257311D01*
X152460151Y-69559797D01*
X161661434Y-69559797D01*
X161661434Y-69559802D01*
X161681258Y-69786399D01*
X161681260Y-69786410D01*
X161740130Y-70006117D01*
X161740135Y-70006131D01*
X161836263Y-70212278D01*
X161887374Y-70285272D01*
X162566400Y-69606246D01*
X162566400Y-69612461D01*
X162593659Y-69714194D01*
X162646320Y-69805406D01*
X162720794Y-69879880D01*
X162812006Y-69932541D01*
X162913739Y-69959800D01*
X162919953Y-69959800D01*
X162240926Y-70638825D01*
X162313913Y-70689932D01*
X162313921Y-70689936D01*
X162520068Y-70786064D01*
X162520082Y-70786069D01*
X162739789Y-70844939D01*
X162739800Y-70844941D01*
X162966398Y-70864766D01*
X162966402Y-70864766D01*
X163192999Y-70844941D01*
X163193010Y-70844939D01*
X163412717Y-70786069D01*
X163412731Y-70786064D01*
X163618878Y-70689936D01*
X163691871Y-70638824D01*
X163012847Y-69959800D01*
X163019061Y-69959800D01*
X163120794Y-69932541D01*
X163212006Y-69879880D01*
X163286480Y-69805406D01*
X163339141Y-69714194D01*
X163366400Y-69612461D01*
X163366400Y-69606247D01*
X164045424Y-70285271D01*
X164096536Y-70212278D01*
X164192664Y-70006131D01*
X164192669Y-70006117D01*
X164251539Y-69786410D01*
X164251541Y-69786399D01*
X164271366Y-69559802D01*
X164271366Y-69559797D01*
X164251541Y-69333200D01*
X164251539Y-69333189D01*
X164192669Y-69113482D01*
X164192664Y-69113468D01*
X164096536Y-68907321D01*
X164096532Y-68907313D01*
X164045425Y-68834326D01*
X163366400Y-69513351D01*
X163366400Y-69507139D01*
X163339141Y-69405406D01*
X163286480Y-69314194D01*
X163212006Y-69239720D01*
X163120794Y-69187059D01*
X163019061Y-69159800D01*
X163012848Y-69159800D01*
X163691872Y-68480774D01*
X163618878Y-68429663D01*
X163412731Y-68333535D01*
X163412717Y-68333530D01*
X163193010Y-68274660D01*
X163192999Y-68274658D01*
X162966402Y-68254834D01*
X162966398Y-68254834D01*
X162739800Y-68274658D01*
X162739789Y-68274660D01*
X162520082Y-68333530D01*
X162520073Y-68333534D01*
X162313916Y-68429666D01*
X162313912Y-68429668D01*
X162240926Y-68480773D01*
X162240926Y-68480774D01*
X162919953Y-69159800D01*
X162913739Y-69159800D01*
X162812006Y-69187059D01*
X162720794Y-69239720D01*
X162646320Y-69314194D01*
X162593659Y-69405406D01*
X162566400Y-69507139D01*
X162566400Y-69513352D01*
X161887374Y-68834326D01*
X161887373Y-68834326D01*
X161836268Y-68907312D01*
X161836266Y-68907316D01*
X161740134Y-69113473D01*
X161740130Y-69113482D01*
X161681260Y-69333189D01*
X161681258Y-69333200D01*
X161661434Y-69559797D01*
X152460151Y-69559797D01*
X152460151Y-64822808D01*
X168803300Y-64822808D01*
X168803300Y-66912533D01*
X168803302Y-66912559D01*
X168806213Y-66937664D01*
X168806215Y-66937668D01*
X168851593Y-67040441D01*
X168851594Y-67040442D01*
X168931035Y-67119883D01*
X169033809Y-67165262D01*
X169058935Y-67168177D01*
X171148664Y-67168176D01*
X171148679Y-67168174D01*
X171148682Y-67168174D01*
X171173787Y-67165263D01*
X171173788Y-67165262D01*
X171173791Y-67165262D01*
X171276565Y-67119883D01*
X171356006Y-67040442D01*
X171401385Y-66937668D01*
X171404300Y-66912542D01*
X171404300Y-66154555D01*
X181333800Y-66154555D01*
X181333800Y-67252400D01*
X182533799Y-67252400D01*
X182508779Y-67312802D01*
X182483800Y-67438381D01*
X182483800Y-67566419D01*
X182508779Y-67691998D01*
X182533799Y-67752400D01*
X181333800Y-67752400D01*
X181333800Y-68850244D01*
X181340201Y-68909772D01*
X181340203Y-68909779D01*
X181390445Y-69044486D01*
X181390449Y-69044493D01*
X181476609Y-69159587D01*
X181476612Y-69159590D01*
X181591706Y-69245750D01*
X181591713Y-69245754D01*
X181726420Y-69295996D01*
X181726427Y-69295998D01*
X181785955Y-69302399D01*
X181785972Y-69302400D01*
X182883800Y-69302400D01*
X182883800Y-68102401D01*
X182944202Y-68127421D01*
X183069781Y-68152400D01*
X183197819Y-68152400D01*
X183323398Y-68127421D01*
X183383800Y-68102401D01*
X183383800Y-69302400D01*
X184481628Y-69302400D01*
X184481644Y-69302399D01*
X184541172Y-69295998D01*
X184541179Y-69295996D01*
X184675886Y-69245754D01*
X184675893Y-69245750D01*
X184790987Y-69159590D01*
X184790990Y-69159587D01*
X184877150Y-69044493D01*
X184877154Y-69044486D01*
X184927396Y-68909779D01*
X184927398Y-68909772D01*
X184933799Y-68850244D01*
X184933800Y-68850227D01*
X184933800Y-67752400D01*
X183733801Y-67752400D01*
X183758821Y-67691998D01*
X183783800Y-67566419D01*
X183783800Y-67438381D01*
X183758821Y-67312802D01*
X183733801Y-67252400D01*
X184933800Y-67252400D01*
X184933800Y-66154572D01*
X184933799Y-66154555D01*
X184927398Y-66095027D01*
X184927396Y-66095020D01*
X184877154Y-65960313D01*
X184877150Y-65960306D01*
X184790990Y-65845212D01*
X184790987Y-65845209D01*
X184675893Y-65759049D01*
X184675886Y-65759045D01*
X184541179Y-65708803D01*
X184541172Y-65708801D01*
X184481644Y-65702400D01*
X183383800Y-65702400D01*
X183383800Y-66902398D01*
X183323398Y-66877379D01*
X183197819Y-66852400D01*
X183069781Y-66852400D01*
X182944202Y-66877379D01*
X182883800Y-66902398D01*
X182883800Y-65702400D01*
X181785955Y-65702400D01*
X181726427Y-65708801D01*
X181726420Y-65708803D01*
X181591713Y-65759045D01*
X181591706Y-65759049D01*
X181476612Y-65845209D01*
X181476609Y-65845212D01*
X181390449Y-65960306D01*
X181390445Y-65960313D01*
X181340203Y-66095020D01*
X181340201Y-66095027D01*
X181333800Y-66154555D01*
X171404300Y-66154555D01*
X171404299Y-64822813D01*
X171402733Y-64809306D01*
X171401386Y-64797689D01*
X171401385Y-64797687D01*
X171401385Y-64797686D01*
X171356006Y-64694912D01*
X171276565Y-64615471D01*
X171276563Y-64615470D01*
X171173792Y-64570092D01*
X171148665Y-64567177D01*
X169058943Y-64567177D01*
X169058917Y-64567179D01*
X169033812Y-64570090D01*
X169033808Y-64570092D01*
X168931035Y-64615470D01*
X168851594Y-64694911D01*
X168806215Y-64797683D01*
X168806215Y-64797685D01*
X168803300Y-64822808D01*
X152460151Y-64822808D01*
X152460151Y-63896266D01*
X152479836Y-63829227D01*
X152532640Y-63783472D01*
X152533936Y-63782888D01*
X152632416Y-63739406D01*
X152711857Y-63659965D01*
X152757236Y-63557191D01*
X152760151Y-63532065D01*
X152760150Y-61842336D01*
X152760148Y-61842317D01*
X152757237Y-61817212D01*
X152757236Y-61817210D01*
X152757236Y-61817209D01*
X152711857Y-61714435D01*
X152632416Y-61634994D01*
X152575869Y-61610026D01*
X152529643Y-61589615D01*
X152504516Y-61586700D01*
X150814794Y-61586700D01*
X150814768Y-61586702D01*
X150789663Y-61589613D01*
X150789659Y-61589615D01*
X150686886Y-61634993D01*
X150607445Y-61714434D01*
X150562066Y-61817206D01*
X150562066Y-61817208D01*
X150559151Y-61842331D01*
X147150967Y-61842331D01*
X147385123Y-61608174D01*
X147312129Y-61557063D01*
X147105982Y-61460935D01*
X147105968Y-61460930D01*
X146886261Y-61402060D01*
X146886250Y-61402058D01*
X146659653Y-61382234D01*
X146659649Y-61382234D01*
X146433051Y-61402058D01*
X146433040Y-61402060D01*
X146213333Y-61460930D01*
X146213324Y-61460934D01*
X146007167Y-61557066D01*
X146007163Y-61557068D01*
X145934177Y-61608173D01*
X145934177Y-61608174D01*
X146613204Y-62287200D01*
X146606990Y-62287200D01*
X146505257Y-62314459D01*
X146414045Y-62367120D01*
X146339571Y-62441594D01*
X146286910Y-62532806D01*
X146259651Y-62634539D01*
X146259651Y-62640752D01*
X145580625Y-61961726D01*
X145580624Y-61961726D01*
X145529519Y-62034712D01*
X145529517Y-62034716D01*
X145433385Y-62240873D01*
X145433381Y-62240882D01*
X145374511Y-62460589D01*
X145374509Y-62460600D01*
X145354685Y-62687197D01*
X142404829Y-62687197D01*
X142385156Y-62474890D01*
X142326805Y-62269811D01*
X142326803Y-62269806D01*
X142326803Y-62269805D01*
X142231767Y-62078946D01*
X142103272Y-61908793D01*
X141945702Y-61765148D01*
X141764419Y-61652902D01*
X141764417Y-61652901D01*
X141601055Y-61589615D01*
X141565598Y-61575879D01*
X141392856Y-61543587D01*
X141330576Y-61511919D01*
X141295303Y-61451607D01*
X141298237Y-61381799D01*
X141338446Y-61324659D01*
X141403164Y-61298328D01*
X141415633Y-61297699D01*
X142144264Y-61297699D01*
X142144279Y-61297697D01*
X142144282Y-61297697D01*
X142169387Y-61294786D01*
X142169388Y-61294785D01*
X142169391Y-61294785D01*
X142272165Y-61249406D01*
X142351606Y-61169965D01*
X142396985Y-61067191D01*
X142399900Y-61042065D01*
X142399900Y-60867671D01*
X168598659Y-60867671D01*
X168598659Y-60867682D01*
X168619185Y-61115406D01*
X168619187Y-61115415D01*
X168680212Y-61356394D01*
X168780066Y-61584041D01*
X168880364Y-61737559D01*
X169620837Y-60997086D01*
X169637875Y-61060670D01*
X169703701Y-61174684D01*
X169796793Y-61267776D01*
X169910807Y-61333602D01*
X169974390Y-61350639D01*
X169233742Y-62091286D01*
X169280568Y-62127732D01*
X169280570Y-62127733D01*
X169499185Y-62246041D01*
X169499196Y-62246046D01*
X169734306Y-62326760D01*
X169979507Y-62367677D01*
X170228093Y-62367677D01*
X170473293Y-62326760D01*
X170708403Y-62246046D01*
X170708414Y-62246041D01*
X170927028Y-62127734D01*
X170927031Y-62127732D01*
X170973856Y-62091286D01*
X170233209Y-61350639D01*
X170296793Y-61333602D01*
X170410807Y-61267776D01*
X170503899Y-61174684D01*
X170569725Y-61060670D01*
X170586762Y-60997087D01*
X171327234Y-61737559D01*
X171427531Y-61584046D01*
X171527387Y-61356394D01*
X171588412Y-61115415D01*
X171588414Y-61115406D01*
X171608941Y-60867682D01*
X171608941Y-60867671D01*
X171588414Y-60619947D01*
X171588412Y-60619938D01*
X171527387Y-60378959D01*
X171427531Y-60151307D01*
X171327234Y-59997793D01*
X170586762Y-60738266D01*
X170569725Y-60674684D01*
X170503899Y-60560670D01*
X170410807Y-60467578D01*
X170296793Y-60401752D01*
X170233210Y-60384714D01*
X170973857Y-59644067D01*
X170973856Y-59644066D01*
X170927029Y-59607620D01*
X170708414Y-59489312D01*
X170708403Y-59489307D01*
X170473293Y-59408593D01*
X170228093Y-59367677D01*
X169979507Y-59367677D01*
X169734306Y-59408593D01*
X169499196Y-59489307D01*
X169499190Y-59489309D01*
X169280561Y-59607626D01*
X169233742Y-59644065D01*
X169233742Y-59644067D01*
X169974390Y-60384714D01*
X169910807Y-60401752D01*
X169796793Y-60467578D01*
X169703701Y-60560670D01*
X169637875Y-60674684D01*
X169620837Y-60738266D01*
X168880364Y-59997793D01*
X168780067Y-60151309D01*
X168680212Y-60378959D01*
X168619187Y-60619938D01*
X168619185Y-60619947D01*
X168598659Y-60867671D01*
X142399900Y-60867671D01*
X142399899Y-59252336D01*
X142398357Y-59239037D01*
X142396986Y-59227212D01*
X142396985Y-59227210D01*
X142396985Y-59227209D01*
X142351606Y-59124435D01*
X142272165Y-59044994D01*
X142247782Y-59034228D01*
X142169392Y-58999615D01*
X142144265Y-58996700D01*
X140354543Y-58996700D01*
X140354517Y-58996702D01*
X140329412Y-58999613D01*
X140329408Y-58999615D01*
X140226635Y-59044993D01*
X140147194Y-59124434D01*
X140101815Y-59227206D01*
X140101815Y-59227208D01*
X140098900Y-59252331D01*
X140098900Y-61042056D01*
X140098902Y-61042082D01*
X140101813Y-61067187D01*
X140101815Y-61067191D01*
X140147193Y-61169964D01*
X140147194Y-61169965D01*
X140226635Y-61249406D01*
X140329409Y-61294785D01*
X140354535Y-61297700D01*
X141083158Y-61297699D01*
X141150195Y-61317383D01*
X141195950Y-61370187D01*
X141205894Y-61439346D01*
X141176869Y-61502902D01*
X141118091Y-61540676D01*
X141105942Y-61543588D01*
X141049516Y-61554135D01*
X140933202Y-61575879D01*
X140933200Y-61575879D01*
X140933198Y-61575880D01*
X140734382Y-61652901D01*
X140734380Y-61652902D01*
X140553099Y-61765147D01*
X140395527Y-61908793D01*
X140267032Y-62078946D01*
X140171996Y-62269805D01*
X140171996Y-62269807D01*
X140113644Y-62474889D01*
X140093971Y-62687199D01*
X140093971Y-62687200D01*
X140113644Y-62899510D01*
X140171996Y-63104592D01*
X140171996Y-63104594D01*
X140267032Y-63295453D01*
X140395527Y-63465606D01*
X140395528Y-63465607D01*
X140553098Y-63609252D01*
X140734381Y-63721498D01*
X140763361Y-63732725D01*
X140818762Y-63775295D01*
X140842354Y-63841061D01*
X140826644Y-63909142D01*
X140776622Y-63957922D01*
X140770973Y-63960733D01*
X140571822Y-64053599D01*
X140571820Y-64053600D01*
X140378326Y-64189086D01*
X140378320Y-64189091D01*
X140211291Y-64356120D01*
X140211286Y-64356126D01*
X140075800Y-64549620D01*
X140075799Y-64549622D01*
X139978882Y-64757462D01*
X139932710Y-64809901D01*
X139865516Y-64829053D01*
X139798635Y-64808837D01*
X139753300Y-64755672D01*
X139742500Y-64705057D01*
X139742500Y-59490527D01*
X139742500Y-59490525D01*
X139704984Y-59350515D01*
X139668502Y-59287326D01*
X139632510Y-59224985D01*
X139438320Y-59030795D01*
X139411440Y-58990566D01*
X139386337Y-58929961D01*
X139386336Y-58929960D01*
X139386336Y-58929959D01*
X139290082Y-58804518D01*
X139217466Y-58748798D01*
X187503790Y-58748798D01*
X187503790Y-58748801D01*
X187524204Y-59034233D01*
X187585028Y-59313837D01*
X187585030Y-59313843D01*
X187585031Y-59313846D01*
X187681373Y-59572147D01*
X187685035Y-59581966D01*
X187822170Y-59833109D01*
X187822175Y-59833117D01*
X187993654Y-60062187D01*
X187993670Y-60062205D01*
X188195994Y-60264529D01*
X188196012Y-60264545D01*
X188425082Y-60436024D01*
X188425090Y-60436029D01*
X188676233Y-60573164D01*
X188676232Y-60573164D01*
X188676236Y-60573165D01*
X188676239Y-60573167D01*
X188944354Y-60673169D01*
X188944360Y-60673170D01*
X188944362Y-60673171D01*
X189223966Y-60733995D01*
X189223968Y-60733995D01*
X189223972Y-60733996D01*
X189477620Y-60752137D01*
X189509399Y-60754410D01*
X189509400Y-60754410D01*
X189509401Y-60754410D01*
X189537995Y-60752364D01*
X189794828Y-60733996D01*
X190074446Y-60673169D01*
X190342561Y-60573167D01*
X190593715Y-60436026D01*
X190822795Y-60264539D01*
X191025139Y-60062195D01*
X191196626Y-59833115D01*
X191333767Y-59581961D01*
X191433769Y-59313846D01*
X191452616Y-59227206D01*
X191494595Y-59034233D01*
X191494595Y-59034232D01*
X191494596Y-59034228D01*
X191515010Y-58748800D01*
X191494596Y-58463372D01*
X191478324Y-58388572D01*
X191433771Y-58183762D01*
X191433770Y-58183760D01*
X191433769Y-58183754D01*
X191333767Y-57915639D01*
X191301056Y-57855734D01*
X191196629Y-57664490D01*
X191196624Y-57664482D01*
X191025145Y-57435412D01*
X191025129Y-57435394D01*
X190822805Y-57233070D01*
X190822787Y-57233054D01*
X190593717Y-57061575D01*
X190593709Y-57061570D01*
X190342566Y-56924435D01*
X190342567Y-56924435D01*
X190174877Y-56861890D01*
X190074446Y-56824431D01*
X190074443Y-56824430D01*
X190074437Y-56824428D01*
X189794833Y-56763604D01*
X189509401Y-56743190D01*
X189509399Y-56743190D01*
X189223966Y-56763604D01*
X188944362Y-56824428D01*
X188676233Y-56924435D01*
X188425090Y-57061570D01*
X188425082Y-57061575D01*
X188196012Y-57233054D01*
X188195994Y-57233070D01*
X187993670Y-57435394D01*
X187993654Y-57435412D01*
X187822175Y-57664482D01*
X187822170Y-57664490D01*
X187685035Y-57915633D01*
X187585028Y-58183762D01*
X187524204Y-58463366D01*
X187503790Y-58748798D01*
X139217466Y-58748798D01*
X139164641Y-58708264D01*
X139018562Y-58647756D01*
X139018560Y-58647755D01*
X138861801Y-58627118D01*
X138861799Y-58627118D01*
X138705039Y-58647755D01*
X138705037Y-58647756D01*
X138558960Y-58708263D01*
X138433518Y-58804518D01*
X138337263Y-58929960D01*
X138284628Y-59057033D01*
X138240787Y-59111436D01*
X138174493Y-59133501D01*
X138106793Y-59116222D01*
X138082386Y-59097261D01*
X135847016Y-56861891D01*
X135847015Y-56861890D01*
X135721485Y-56789416D01*
X135721486Y-56789416D01*
X135625154Y-56763604D01*
X135625154Y-56763603D01*
X135581475Y-56751900D01*
X114176725Y-56751900D01*
X114071717Y-56780037D01*
X114036714Y-56789416D01*
X113911186Y-56861889D01*
X113911183Y-56861891D01*
X112411691Y-58361383D01*
X112411689Y-58361386D01*
X112343782Y-58479007D01*
X112343779Y-58479012D01*
X112339216Y-58486913D01*
X112321292Y-58553807D01*
X112301700Y-58626925D01*
X112301700Y-58626927D01*
X112301700Y-60462802D01*
X112282015Y-60529841D01*
X112242979Y-60568228D01*
X112155900Y-60622145D01*
X111998327Y-60765793D01*
X111869832Y-60935946D01*
X111774796Y-61126805D01*
X111774796Y-61126807D01*
X111716444Y-61331889D01*
X111705671Y-61448151D01*
X111679885Y-61513088D01*
X111635330Y-61545004D01*
X111671703Y-61565868D01*
X111703893Y-61627881D01*
X111705670Y-61640247D01*
X111716444Y-61756510D01*
X111774176Y-61959415D01*
X111774796Y-61961592D01*
X111774796Y-61961594D01*
X111869832Y-62152453D01*
X111972640Y-62288591D01*
X111998328Y-62322607D01*
X112155898Y-62466252D01*
X112337181Y-62578498D01*
X112536002Y-62655521D01*
X112745590Y-62694700D01*
X112745592Y-62694700D01*
X112958808Y-62694700D01*
X112958810Y-62694700D01*
X113168398Y-62655521D01*
X113367219Y-62578498D01*
X113548502Y-62466252D01*
X113706072Y-62322607D01*
X113834566Y-62152455D01*
X113845240Y-62131019D01*
X113929603Y-61961594D01*
X113929603Y-61961593D01*
X113929605Y-61961589D01*
X113987956Y-61756510D01*
X113998729Y-61640247D01*
X114024515Y-61575311D01*
X114069069Y-61543394D01*
X114032697Y-61522531D01*
X114000507Y-61460518D01*
X113998729Y-61448151D01*
X113997505Y-61434939D01*
X113987956Y-61331890D01*
X113929605Y-61126811D01*
X113929603Y-61126806D01*
X113929603Y-61126805D01*
X113834567Y-60935946D01*
X113706072Y-60765793D01*
X113548499Y-60622145D01*
X113461421Y-60568228D01*
X113414786Y-60516200D01*
X113402700Y-60462802D01*
X113402700Y-58978787D01*
X113422385Y-58911748D01*
X113439019Y-58891106D01*
X114440906Y-57889219D01*
X114502229Y-57855734D01*
X114528587Y-57852900D01*
X116004152Y-57852900D01*
X116071191Y-57872585D01*
X116116946Y-57925389D01*
X116126890Y-57994547D01*
X116097865Y-58058103D01*
X116039087Y-58095877D01*
X116036244Y-58096675D01*
X115990417Y-58108953D01*
X115990418Y-58108954D01*
X115890913Y-58135616D01*
X115890912Y-58135617D01*
X115765389Y-58208087D01*
X115765384Y-58208091D01*
X114951691Y-59021783D01*
X114951690Y-59021785D01*
X114897168Y-59116222D01*
X114893549Y-59122490D01*
X114893548Y-59122491D01*
X114879217Y-59147312D01*
X114879216Y-59147313D01*
X114863116Y-59207400D01*
X114844525Y-59276784D01*
X114841700Y-59287326D01*
X114841700Y-60462802D01*
X114822015Y-60529841D01*
X114782979Y-60568228D01*
X114695900Y-60622145D01*
X114538327Y-60765793D01*
X114409832Y-60935946D01*
X114314796Y-61126805D01*
X114314796Y-61126807D01*
X114256444Y-61331889D01*
X114245671Y-61448151D01*
X114219885Y-61513088D01*
X114175330Y-61545004D01*
X114211703Y-61565868D01*
X114243893Y-61627881D01*
X114245670Y-61640247D01*
X114256444Y-61756510D01*
X114314176Y-61959415D01*
X114314796Y-61961592D01*
X114314796Y-61961594D01*
X114409832Y-62152453D01*
X114512640Y-62288591D01*
X114538328Y-62322607D01*
X114695898Y-62466252D01*
X114877181Y-62578498D01*
X115076002Y-62655521D01*
X115285590Y-62694700D01*
X115285592Y-62694700D01*
X115498808Y-62694700D01*
X115498810Y-62694700D01*
X115708398Y-62655521D01*
X115907219Y-62578498D01*
X116088502Y-62466252D01*
X116246072Y-62322607D01*
X116374566Y-62152455D01*
X116441525Y-62017981D01*
X116489025Y-61966748D01*
X116556688Y-61949326D01*
X116623028Y-61971251D01*
X116664905Y-62020851D01*
X116758599Y-62221778D01*
X116894094Y-62415282D01*
X117061117Y-62582305D01*
X117254621Y-62717800D01*
X117468707Y-62817629D01*
X117468716Y-62817633D01*
X117682200Y-62874834D01*
X117682200Y-61977212D01*
X117739207Y-62010125D01*
X117866374Y-62044200D01*
X117998026Y-62044200D01*
X118125193Y-62010125D01*
X118182200Y-61977212D01*
X118182200Y-62874833D01*
X118395683Y-62817633D01*
X118395692Y-62817629D01*
X118609778Y-62717800D01*
X118803282Y-62582305D01*
X118970305Y-62415282D01*
X119096125Y-62235594D01*
X119150702Y-62191970D01*
X119220201Y-62184777D01*
X119282555Y-62216299D01*
X119317969Y-62276529D01*
X119321700Y-62306717D01*
X119321700Y-62439055D01*
X119321702Y-62439082D01*
X119324613Y-62464187D01*
X119324615Y-62464191D01*
X119369993Y-62566964D01*
X119369994Y-62566965D01*
X119449435Y-62646406D01*
X119552209Y-62691785D01*
X119577335Y-62694700D01*
X119797700Y-62694699D01*
X119864739Y-62714383D01*
X119910494Y-62767187D01*
X119921700Y-62818699D01*
X119921700Y-63677813D01*
X119902015Y-63744852D01*
X119885381Y-63765494D01*
X118202891Y-65447983D01*
X118202889Y-65447986D01*
X118130416Y-65573514D01*
X118130416Y-65573515D01*
X118092900Y-65713525D01*
X118092900Y-65713527D01*
X118092900Y-66420698D01*
X118085200Y-66459413D01*
X118085859Y-66459590D01*
X118083756Y-66467437D01*
X118063118Y-66624198D01*
X118063118Y-66624201D01*
X118083755Y-66780960D01*
X118083756Y-66780962D01*
X118138259Y-66912545D01*
X118144264Y-66927041D01*
X118240518Y-67052482D01*
X118365959Y-67148736D01*
X118512038Y-67209244D01*
X118590419Y-67219563D01*
X118668799Y-67229882D01*
X118668800Y-67229882D01*
X118668801Y-67229882D01*
X118721054Y-67223002D01*
X118825562Y-67209244D01*
X118971641Y-67148736D01*
X119097082Y-67052482D01*
X119193336Y-66927041D01*
X119253844Y-66780962D01*
X119274482Y-66624200D01*
X119253844Y-66467438D01*
X119226242Y-66400800D01*
X119203339Y-66345506D01*
X119193900Y-66298054D01*
X119193900Y-66065387D01*
X119213585Y-65998348D01*
X119230219Y-65977706D01*
X120046551Y-65161374D01*
X120912710Y-64295215D01*
X120985184Y-64169685D01*
X121022700Y-64029674D01*
X121022700Y-63884726D01*
X121022700Y-62818699D01*
X121042385Y-62751660D01*
X121095189Y-62705905D01*
X121146700Y-62694699D01*
X121367056Y-62694699D01*
X121367064Y-62694699D01*
X121367079Y-62694697D01*
X121367082Y-62694697D01*
X121392187Y-62691786D01*
X121392188Y-62691785D01*
X121392191Y-62691785D01*
X121494965Y-62646406D01*
X121574406Y-62566965D01*
X121619785Y-62464191D01*
X121622700Y-62439065D01*
X121622700Y-62183199D01*
X124754964Y-62183199D01*
X124754964Y-62183200D01*
X125652588Y-62183200D01*
X125619675Y-62240207D01*
X125585600Y-62367374D01*
X125585600Y-62499026D01*
X125619675Y-62626193D01*
X125652588Y-62683200D01*
X124754964Y-62683200D01*
X124812167Y-62896686D01*
X124812170Y-62896692D01*
X124911999Y-63110778D01*
X125047494Y-63304282D01*
X125214517Y-63471305D01*
X125408021Y-63606800D01*
X125622107Y-63706629D01*
X125622116Y-63706633D01*
X125835600Y-63763834D01*
X125835600Y-62866212D01*
X125892607Y-62899125D01*
X126019774Y-62933200D01*
X126151426Y-62933200D01*
X126278593Y-62899125D01*
X126335600Y-62866212D01*
X126335600Y-63763833D01*
X126549083Y-63706633D01*
X126549092Y-63706629D01*
X126763178Y-63606800D01*
X126956682Y-63471305D01*
X127123705Y-63304282D01*
X127259200Y-63110778D01*
X127352894Y-62909851D01*
X127399066Y-62857412D01*
X127466260Y-62838260D01*
X127533141Y-62858476D01*
X127576276Y-62906985D01*
X127643232Y-63041453D01*
X127759772Y-63195775D01*
X127771728Y-63211607D01*
X127929298Y-63355252D01*
X128110581Y-63467498D01*
X128309402Y-63544521D01*
X128518990Y-63583700D01*
X128518992Y-63583700D01*
X128732208Y-63583700D01*
X128732210Y-63583700D01*
X128941798Y-63544521D01*
X129140619Y-63467498D01*
X129321902Y-63355252D01*
X129479472Y-63211607D01*
X129607966Y-63041455D01*
X129671525Y-62913810D01*
X129703003Y-62850594D01*
X129703003Y-62850593D01*
X129703005Y-62850589D01*
X129761356Y-62645510D01*
X129772129Y-62529247D01*
X129797915Y-62464311D01*
X129840222Y-62434004D01*
X129948730Y-62434004D01*
X129985103Y-62454868D01*
X130017293Y-62516881D01*
X130019070Y-62529247D01*
X130029844Y-62645510D01*
X130083275Y-62833299D01*
X130088196Y-62850592D01*
X130088196Y-62850594D01*
X130183232Y-63041453D01*
X130299772Y-63195775D01*
X130311728Y-63211607D01*
X130469298Y-63355252D01*
X130469300Y-63355253D01*
X130469301Y-63355254D01*
X130556377Y-63409169D01*
X130603013Y-63461197D01*
X130615100Y-63514596D01*
X130615100Y-68220675D01*
X130616862Y-68227249D01*
X130634421Y-68292784D01*
X130652614Y-68360680D01*
X130652616Y-68360685D01*
X130725090Y-68486215D01*
X130978813Y-68739938D01*
X131216638Y-68977762D01*
X131243518Y-69017990D01*
X131250662Y-69035238D01*
X131250663Y-69035239D01*
X131250664Y-69035241D01*
X131288542Y-69084604D01*
X131346077Y-69159587D01*
X131346918Y-69160682D01*
X131472359Y-69256936D01*
X131618438Y-69317444D01*
X131696819Y-69327763D01*
X131775199Y-69338082D01*
X131775200Y-69338082D01*
X131775201Y-69338082D01*
X131827454Y-69331202D01*
X131931962Y-69317444D01*
X132078041Y-69256936D01*
X132203482Y-69160682D01*
X132299736Y-69035241D01*
X132360244Y-68889162D01*
X132379505Y-68742857D01*
X132392166Y-68714237D01*
X132373237Y-68674060D01*
X132372817Y-68671139D01*
X132365309Y-68614110D01*
X132360244Y-68575638D01*
X132299736Y-68429559D01*
X132203482Y-68304118D01*
X132078041Y-68207864D01*
X132078040Y-68207863D01*
X132078038Y-68207862D01*
X131974069Y-68164797D01*
X131933841Y-68137917D01*
X131752419Y-67956494D01*
X131718934Y-67895171D01*
X131716100Y-67868813D01*
X131716100Y-63514596D01*
X131735785Y-63447557D01*
X131774823Y-63409169D01*
X131784777Y-63403006D01*
X131861902Y-63355252D01*
X132019472Y-63211607D01*
X132147966Y-63041455D01*
X132211525Y-62913810D01*
X132243003Y-62850594D01*
X132243003Y-62850593D01*
X132243005Y-62850589D01*
X132301356Y-62645510D01*
X132312129Y-62529247D01*
X132337915Y-62464311D01*
X132382469Y-62432394D01*
X132346097Y-62411531D01*
X132313907Y-62349518D01*
X132312129Y-62337151D01*
X132306569Y-62277151D01*
X132301356Y-62220890D01*
X132243005Y-62015811D01*
X132243003Y-62015806D01*
X132243003Y-62015805D01*
X132147967Y-61824946D01*
X132019472Y-61654793D01*
X131997754Y-61634994D01*
X131861902Y-61511148D01*
X131680619Y-61398902D01*
X131680617Y-61398901D01*
X131531739Y-61341226D01*
X131481798Y-61321879D01*
X131272210Y-61282700D01*
X131058990Y-61282700D01*
X130849402Y-61321879D01*
X130849399Y-61321879D01*
X130849399Y-61321880D01*
X130650582Y-61398901D01*
X130650580Y-61398902D01*
X130469299Y-61511147D01*
X130311727Y-61654793D01*
X130183232Y-61824946D01*
X130088196Y-62015805D01*
X130088196Y-62015807D01*
X130029844Y-62220889D01*
X130019071Y-62337151D01*
X129993285Y-62402088D01*
X129948730Y-62434004D01*
X129840222Y-62434004D01*
X129842469Y-62432394D01*
X129806097Y-62411531D01*
X129773907Y-62349518D01*
X129772129Y-62337151D01*
X129766569Y-62277151D01*
X129761356Y-62220890D01*
X129703005Y-62015811D01*
X129703003Y-62015806D01*
X129703003Y-62015805D01*
X129607967Y-61824946D01*
X129479472Y-61654793D01*
X129457754Y-61634994D01*
X129321902Y-61511148D01*
X129140619Y-61398902D01*
X129140617Y-61398901D01*
X128991739Y-61341226D01*
X128941798Y-61321879D01*
X128732210Y-61282700D01*
X128518990Y-61282700D01*
X128309402Y-61321879D01*
X128309399Y-61321879D01*
X128309399Y-61321880D01*
X128110582Y-61398901D01*
X128110580Y-61398902D01*
X127929299Y-61511147D01*
X127771727Y-61654793D01*
X127643234Y-61824944D01*
X127576276Y-61959415D01*
X127528773Y-62010652D01*
X127461110Y-62028073D01*
X127394770Y-62006147D01*
X127352894Y-61956548D01*
X127259200Y-61755622D01*
X127259199Y-61755620D01*
X127123713Y-61562126D01*
X127123708Y-61562120D01*
X126956682Y-61395094D01*
X126763178Y-61259599D01*
X126549092Y-61159770D01*
X126549086Y-61159767D01*
X126335600Y-61102564D01*
X126335600Y-62000188D01*
X126278593Y-61967275D01*
X126151426Y-61933200D01*
X126019774Y-61933200D01*
X125892607Y-61967275D01*
X125835600Y-62000188D01*
X125835600Y-61102564D01*
X125835599Y-61102564D01*
X125622113Y-61159767D01*
X125622107Y-61159770D01*
X125408022Y-61259599D01*
X125408020Y-61259600D01*
X125214526Y-61395086D01*
X125214520Y-61395091D01*
X125047491Y-61562120D01*
X125047486Y-61562126D01*
X124912000Y-61755620D01*
X124911999Y-61755622D01*
X124812170Y-61969707D01*
X124812167Y-61969713D01*
X124754964Y-62183199D01*
X121622700Y-62183199D01*
X121622699Y-60649336D01*
X121622697Y-60649317D01*
X121619786Y-60624212D01*
X121619785Y-60624210D01*
X121619785Y-60624209D01*
X121574406Y-60521435D01*
X121494965Y-60441994D01*
X121474324Y-60432880D01*
X121392192Y-60396615D01*
X121367065Y-60393700D01*
X119577343Y-60393700D01*
X119577317Y-60393702D01*
X119552212Y-60396613D01*
X119552208Y-60396615D01*
X119449435Y-60441993D01*
X119369994Y-60521434D01*
X119324615Y-60624206D01*
X119324615Y-60624208D01*
X119321700Y-60649331D01*
X119321700Y-60781681D01*
X119302015Y-60848720D01*
X119249211Y-60894475D01*
X119180053Y-60904419D01*
X119116497Y-60875394D01*
X119096125Y-60852804D01*
X118970313Y-60673126D01*
X118970308Y-60673120D01*
X118803282Y-60506094D01*
X118609778Y-60370599D01*
X118395692Y-60270770D01*
X118395686Y-60270767D01*
X118182200Y-60213564D01*
X118182200Y-61111188D01*
X118125193Y-61078275D01*
X117998026Y-61044200D01*
X117866374Y-61044200D01*
X117739207Y-61078275D01*
X117682200Y-61111188D01*
X117682200Y-60213564D01*
X117682199Y-60213564D01*
X117468713Y-60270767D01*
X117468707Y-60270770D01*
X117254622Y-60370599D01*
X117254620Y-60370600D01*
X117061126Y-60506086D01*
X117061120Y-60506091D01*
X116894091Y-60673120D01*
X116894086Y-60673126D01*
X116758600Y-60866620D01*
X116758599Y-60866622D01*
X116664905Y-61067548D01*
X116618732Y-61119987D01*
X116551539Y-61139139D01*
X116484657Y-61118923D01*
X116441524Y-61070416D01*
X116374566Y-60935945D01*
X116350758Y-60904419D01*
X116246072Y-60765793D01*
X116088499Y-60622145D01*
X116001421Y-60568228D01*
X115954786Y-60516200D01*
X115942700Y-60462802D01*
X115942700Y-59639186D01*
X115962385Y-59572147D01*
X115979019Y-59551505D01*
X116295105Y-59235419D01*
X116356428Y-59201934D01*
X116382786Y-59199100D01*
X134518413Y-59199100D01*
X134585452Y-59218785D01*
X134606094Y-59235419D01*
X134780077Y-59409402D01*
X134806956Y-59449628D01*
X134832064Y-59510241D01*
X134887096Y-59581961D01*
X134928318Y-59635682D01*
X135053759Y-59731936D01*
X135199838Y-59792444D01*
X135278219Y-59802763D01*
X135356599Y-59813082D01*
X135356600Y-59813082D01*
X135356601Y-59813082D01*
X135408854Y-59806202D01*
X135513362Y-59792444D01*
X135659441Y-59731936D01*
X135784882Y-59635682D01*
X135881136Y-59510241D01*
X135941644Y-59364162D01*
X135962282Y-59207400D01*
X135961562Y-59201934D01*
X135941644Y-59050639D01*
X135941644Y-59050638D01*
X135881136Y-58904559D01*
X135784882Y-58779118D01*
X135784880Y-58779117D01*
X135784880Y-58779116D01*
X135659441Y-58682864D01*
X135659442Y-58682864D01*
X135598828Y-58657756D01*
X135558602Y-58630877D01*
X135135816Y-58208091D01*
X135135815Y-58208090D01*
X135010285Y-58135616D01*
X135010286Y-58135616D01*
X134910782Y-58108954D01*
X134910782Y-58108953D01*
X134864956Y-58096675D01*
X134805295Y-58060311D01*
X134774765Y-57997464D01*
X134783059Y-57928089D01*
X134827544Y-57874210D01*
X134894096Y-57852935D01*
X134897048Y-57852900D01*
X135229613Y-57852900D01*
X135296652Y-57872585D01*
X135317294Y-57889219D01*
X137538381Y-60110305D01*
X137571866Y-60171628D01*
X137574700Y-60197986D01*
X137574700Y-61341226D01*
X137555015Y-61408265D01*
X137502211Y-61454020D01*
X137433053Y-61463964D01*
X137369497Y-61434939D01*
X137348401Y-61411304D01*
X137347805Y-61410434D01*
X137268365Y-61330994D01*
X137165592Y-61285615D01*
X137140465Y-61282700D01*
X135350743Y-61282700D01*
X135350717Y-61282702D01*
X135325612Y-61285613D01*
X135325608Y-61285615D01*
X135222835Y-61330993D01*
X135143394Y-61410434D01*
X135098015Y-61513206D01*
X135098015Y-61513208D01*
X135095100Y-61538331D01*
X135095100Y-62277151D01*
X135075415Y-62344190D01*
X135022611Y-62389945D01*
X134953453Y-62399889D01*
X134889897Y-62370864D01*
X134852123Y-62312086D01*
X134847629Y-62288591D01*
X134846511Y-62276529D01*
X134842883Y-62237369D01*
X134841356Y-62220889D01*
X134820755Y-62148485D01*
X134783005Y-62015811D01*
X134783003Y-62015806D01*
X134783003Y-62015805D01*
X134687967Y-61824946D01*
X134559472Y-61654793D01*
X134537754Y-61634994D01*
X134401902Y-61511148D01*
X134220619Y-61398902D01*
X134220617Y-61398901D01*
X134071739Y-61341226D01*
X134021798Y-61321879D01*
X133812210Y-61282700D01*
X133598990Y-61282700D01*
X133389402Y-61321879D01*
X133389399Y-61321879D01*
X133389399Y-61321880D01*
X133190582Y-61398901D01*
X133190580Y-61398902D01*
X133009299Y-61511147D01*
X132851727Y-61654793D01*
X132723232Y-61824946D01*
X132628196Y-62015805D01*
X132628196Y-62015807D01*
X132569844Y-62220889D01*
X132559071Y-62337151D01*
X132533285Y-62402088D01*
X132488730Y-62434004D01*
X132525103Y-62454868D01*
X132557293Y-62516881D01*
X132559070Y-62529247D01*
X132569844Y-62645510D01*
X132623275Y-62833299D01*
X132628196Y-62850592D01*
X132628196Y-62850594D01*
X132723232Y-63041453D01*
X132839772Y-63195775D01*
X132851728Y-63211607D01*
X133009298Y-63355252D01*
X133009300Y-63355253D01*
X133009301Y-63355254D01*
X133096377Y-63409169D01*
X133143013Y-63461197D01*
X133155100Y-63514596D01*
X133155100Y-67919611D01*
X133135415Y-67986650D01*
X133118781Y-68007293D01*
X133020994Y-68105079D01*
X132980768Y-68131957D01*
X132920163Y-68157061D01*
X132920158Y-68157064D01*
X132794719Y-68253316D01*
X132698463Y-68378760D01*
X132637956Y-68524837D01*
X132637955Y-68524839D01*
X132618695Y-68671139D01*
X132606033Y-68699761D01*
X132624962Y-68739938D01*
X132625382Y-68742859D01*
X132630178Y-68779282D01*
X132637956Y-68838362D01*
X132698464Y-68984441D01*
X132794718Y-69109882D01*
X132920159Y-69206136D01*
X133066238Y-69266644D01*
X133144619Y-69276963D01*
X133222999Y-69287282D01*
X133223000Y-69287282D01*
X133223001Y-69287282D01*
X133275254Y-69280402D01*
X133379762Y-69266644D01*
X133525841Y-69206136D01*
X133651282Y-69109882D01*
X133747536Y-68984441D01*
X133772641Y-68923828D01*
X133799517Y-68883606D01*
X134146110Y-68537015D01*
X134218584Y-68411485D01*
X134235999Y-68346491D01*
X134256100Y-68271475D01*
X134256100Y-63514596D01*
X134275785Y-63447557D01*
X134314823Y-63409169D01*
X134324777Y-63403006D01*
X134401902Y-63355252D01*
X134559472Y-63211607D01*
X134687966Y-63041455D01*
X134751525Y-62913810D01*
X134783003Y-62850594D01*
X134783003Y-62850593D01*
X134783005Y-62850589D01*
X134841356Y-62645510D01*
X134847629Y-62577805D01*
X134873414Y-62512869D01*
X134930214Y-62472181D01*
X134999995Y-62468661D01*
X135060602Y-62503425D01*
X135092793Y-62565438D01*
X135095100Y-62589247D01*
X135095100Y-63328056D01*
X135095102Y-63328082D01*
X135098013Y-63353187D01*
X135098015Y-63353191D01*
X135143393Y-63455964D01*
X135143394Y-63455965D01*
X135222835Y-63535406D01*
X135325609Y-63580785D01*
X135350735Y-63583700D01*
X137140464Y-63583699D01*
X137140479Y-63583697D01*
X137140482Y-63583697D01*
X137165587Y-63580786D01*
X137165588Y-63580785D01*
X137165591Y-63580785D01*
X137268365Y-63535406D01*
X137347806Y-63455965D01*
X137347808Y-63455959D01*
X137348398Y-63455100D01*
X137349884Y-63453886D01*
X137355931Y-63447840D01*
X137356542Y-63448451D01*
X137402522Y-63410915D01*
X137471943Y-63403006D01*
X137534619Y-63433885D01*
X137570652Y-63493746D01*
X137574700Y-63525173D01*
X137574700Y-66065413D01*
X137555015Y-66132452D01*
X137538381Y-66153094D01*
X135474891Y-68216583D01*
X135474889Y-68216586D01*
X135405008Y-68337626D01*
X135405004Y-68337632D01*
X135402417Y-68342111D01*
X135402415Y-68342116D01*
X135364900Y-68482125D01*
X135364900Y-69556697D01*
X135345215Y-69623736D01*
X135292411Y-69669491D01*
X135223253Y-69679435D01*
X135193448Y-69671258D01*
X135132365Y-69645957D01*
X135132360Y-69645955D01*
X134975601Y-69625318D01*
X134975599Y-69625318D01*
X134818839Y-69645955D01*
X134818837Y-69645956D01*
X134758230Y-69671061D01*
X134710777Y-69680500D01*
X131194725Y-69680500D01*
X131118320Y-69700972D01*
X131118320Y-69700973D01*
X131054715Y-69718016D01*
X131054713Y-69718016D01*
X131054713Y-69718017D01*
X130929186Y-69790489D01*
X130929183Y-69790491D01*
X130064691Y-70654983D01*
X130064689Y-70654986D01*
X130000390Y-70766358D01*
X130000388Y-70766361D01*
X129992217Y-70780512D01*
X129992216Y-70780514D01*
X129992216Y-70780515D01*
X129954700Y-70920525D01*
X129954700Y-70920527D01*
X129954700Y-75133213D01*
X129935015Y-75200252D01*
X129918381Y-75220894D01*
X129424494Y-75714781D01*
X129363171Y-75748266D01*
X129336813Y-75751100D01*
X125933187Y-75751100D01*
X125866148Y-75731415D01*
X125845506Y-75714781D01*
X125468320Y-75337595D01*
X125441440Y-75297366D01*
X125416337Y-75236761D01*
X125416336Y-75236760D01*
X125416336Y-75236759D01*
X125320082Y-75111318D01*
X125194641Y-75015064D01*
X125107560Y-74978994D01*
X125048562Y-74954556D01*
X125048560Y-74954555D01*
X124891801Y-74933918D01*
X124891799Y-74933918D01*
X124735039Y-74954555D01*
X124735037Y-74954556D01*
X124588960Y-75015063D01*
X124463518Y-75111318D01*
X124367263Y-75236760D01*
X124306756Y-75382837D01*
X124306755Y-75382839D01*
X124286118Y-75539598D01*
X124286118Y-75539601D01*
X124306755Y-75696360D01*
X124306756Y-75696362D01*
X124329227Y-75750613D01*
X124367264Y-75842441D01*
X124463518Y-75967882D01*
X124588959Y-76064136D01*
X124588960Y-76064136D01*
X124588961Y-76064137D01*
X124649566Y-76089240D01*
X124689795Y-76116120D01*
X125191894Y-76618219D01*
X125225379Y-76679542D01*
X125220395Y-76749234D01*
X125178523Y-76805167D01*
X125113059Y-76829584D01*
X125104213Y-76829900D01*
X102069187Y-76829900D01*
X102002148Y-76810215D01*
X101981506Y-76793581D01*
X100866019Y-75678094D01*
X100832534Y-75616771D01*
X100829700Y-75590413D01*
X100829700Y-72442131D01*
X102158500Y-72442131D01*
X102158500Y-75131856D01*
X102158502Y-75131882D01*
X102161413Y-75156987D01*
X102161415Y-75156991D01*
X102206793Y-75259764D01*
X102206794Y-75259765D01*
X102286235Y-75339206D01*
X102389009Y-75384585D01*
X102414135Y-75387500D01*
X105103864Y-75387499D01*
X105103879Y-75387497D01*
X105103882Y-75387497D01*
X105128987Y-75384586D01*
X105128988Y-75384585D01*
X105128991Y-75384585D01*
X105231765Y-75339206D01*
X105311206Y-75259765D01*
X105356585Y-75156991D01*
X105359500Y-75131865D01*
X105359499Y-72442136D01*
X105359497Y-72442117D01*
X105356586Y-72417012D01*
X105356585Y-72417010D01*
X105356585Y-72417009D01*
X105311206Y-72314235D01*
X105231765Y-72234794D01*
X105231763Y-72234793D01*
X105128992Y-72189415D01*
X105103865Y-72186500D01*
X102414143Y-72186500D01*
X102414117Y-72186502D01*
X102389012Y-72189413D01*
X102389008Y-72189415D01*
X102286235Y-72234793D01*
X102206794Y-72314234D01*
X102161415Y-72417006D01*
X102161415Y-72417008D01*
X102158500Y-72442131D01*
X100829700Y-72442131D01*
X100829700Y-68787000D01*
X102153551Y-68787000D01*
X102173317Y-69038151D01*
X102232126Y-69283110D01*
X102328533Y-69515859D01*
X102460160Y-69730653D01*
X102460161Y-69730656D01*
X102511265Y-69790491D01*
X102623776Y-69922224D01*
X102772066Y-70048875D01*
X102815343Y-70085838D01*
X102815346Y-70085839D01*
X103030140Y-70217466D01*
X103193837Y-70285271D01*
X103262889Y-70313873D01*
X103507852Y-70372683D01*
X103759000Y-70392449D01*
X104010148Y-70372683D01*
X104255111Y-70313873D01*
X104487859Y-70217466D01*
X104702659Y-70085836D01*
X104894224Y-69922224D01*
X105057836Y-69730659D01*
X105189466Y-69515859D01*
X105231638Y-69414045D01*
X105275477Y-69359645D01*
X105341771Y-69337579D01*
X105346198Y-69337500D01*
X105693213Y-69337500D01*
X105760252Y-69357185D01*
X105780894Y-69373819D01*
X109380078Y-72973003D01*
X109406958Y-73013231D01*
X109432062Y-73073838D01*
X109521076Y-73189845D01*
X109528318Y-73199282D01*
X109653759Y-73295536D01*
X109799838Y-73356044D01*
X109878219Y-73366363D01*
X109956599Y-73376682D01*
X109956600Y-73376682D01*
X109956601Y-73376682D01*
X110008854Y-73369802D01*
X110113362Y-73356044D01*
X110259441Y-73295536D01*
X110384882Y-73199282D01*
X110481136Y-73073841D01*
X110541644Y-72927762D01*
X110562282Y-72771000D01*
X110559984Y-72753548D01*
X110541644Y-72614239D01*
X110541644Y-72614238D01*
X110481136Y-72468159D01*
X110384882Y-72342718D01*
X110384880Y-72342717D01*
X110384880Y-72342716D01*
X110346842Y-72313529D01*
X110259441Y-72246464D01*
X110259437Y-72246462D01*
X110259438Y-72246462D01*
X110198831Y-72221358D01*
X110158603Y-72194478D01*
X106310616Y-68346491D01*
X106310615Y-68346490D01*
X106185085Y-68274016D01*
X106175602Y-68271475D01*
X106175598Y-68271473D01*
X106074313Y-68244334D01*
X106045075Y-68236500D01*
X106045074Y-68236500D01*
X105346198Y-68236500D01*
X105279159Y-68216815D01*
X105233404Y-68164011D01*
X105231658Y-68160002D01*
X105189466Y-68058141D01*
X105164155Y-68016838D01*
X105057839Y-67843346D01*
X105057838Y-67843343D01*
X104974116Y-67745318D01*
X104894224Y-67651776D01*
X104767571Y-67543604D01*
X104702656Y-67488161D01*
X104702653Y-67488160D01*
X104487859Y-67356533D01*
X104255110Y-67260126D01*
X104010151Y-67201317D01*
X103759000Y-67181551D01*
X103507848Y-67201317D01*
X103262889Y-67260126D01*
X103030140Y-67356533D01*
X102815346Y-67488160D01*
X102815343Y-67488161D01*
X102623776Y-67651776D01*
X102460161Y-67843343D01*
X102460160Y-67843346D01*
X102328533Y-68058140D01*
X102232126Y-68290889D01*
X102173317Y-68535848D01*
X102153551Y-68787000D01*
X100829700Y-68787000D01*
X100829700Y-64896987D01*
X100849385Y-64829948D01*
X100866019Y-64809306D01*
X103544306Y-62131019D01*
X103605629Y-62097534D01*
X103631987Y-62094700D01*
X106685006Y-62094700D01*
X106752045Y-62114385D01*
X106785577Y-62148485D01*
X106786379Y-62147880D01*
X106891589Y-62287200D01*
X106918328Y-62322607D01*
X107075898Y-62466252D01*
X107257181Y-62578498D01*
X107456002Y-62655521D01*
X107665590Y-62694700D01*
X107665592Y-62694700D01*
X107878808Y-62694700D01*
X107878810Y-62694700D01*
X108088398Y-62655521D01*
X108287219Y-62578498D01*
X108468502Y-62466252D01*
X108626072Y-62322607D01*
X108754566Y-62152455D01*
X108765240Y-62131019D01*
X108849603Y-61961594D01*
X108849603Y-61961593D01*
X108849605Y-61961589D01*
X108907956Y-61756510D01*
X108918729Y-61640247D01*
X108944515Y-61575311D01*
X108986822Y-61545004D01*
X109095330Y-61545004D01*
X109131703Y-61565868D01*
X109163893Y-61627881D01*
X109165670Y-61640247D01*
X109176444Y-61756510D01*
X109234176Y-61959415D01*
X109234796Y-61961592D01*
X109234796Y-61961594D01*
X109329832Y-62152453D01*
X109432640Y-62288591D01*
X109458328Y-62322607D01*
X109615898Y-62466252D01*
X109615900Y-62466253D01*
X109615901Y-62466254D01*
X109629847Y-62474889D01*
X109697666Y-62516881D01*
X109702977Y-62520169D01*
X109749613Y-62572197D01*
X109761700Y-62625596D01*
X109761700Y-63496275D01*
X109785126Y-63583700D01*
X109799216Y-63636285D01*
X109871690Y-63761815D01*
X114723986Y-68614110D01*
X114789340Y-68651842D01*
X114840881Y-68681600D01*
X114840882Y-68681600D01*
X114849515Y-68686584D01*
X114989525Y-68724100D01*
X114989526Y-68724100D01*
X115134475Y-68724100D01*
X120969377Y-68724100D01*
X121016829Y-68733538D01*
X121077438Y-68758644D01*
X121155819Y-68768963D01*
X121234199Y-68779282D01*
X121234200Y-68779282D01*
X121234201Y-68779282D01*
X121286454Y-68772402D01*
X121390962Y-68758644D01*
X121537041Y-68698136D01*
X121662482Y-68601882D01*
X121758736Y-68476441D01*
X121819244Y-68330362D01*
X121833002Y-68225854D01*
X121839882Y-68173601D01*
X121839882Y-68173598D01*
X121819244Y-68016839D01*
X121819244Y-68016838D01*
X121758736Y-67870759D01*
X121662482Y-67745318D01*
X121537041Y-67649064D01*
X121474358Y-67623100D01*
X121390962Y-67588556D01*
X121390960Y-67588555D01*
X121234201Y-67567918D01*
X121234199Y-67567918D01*
X121077439Y-67588555D01*
X121077437Y-67588556D01*
X121016830Y-67613661D01*
X120969377Y-67623100D01*
X115341386Y-67623100D01*
X115274347Y-67603415D01*
X115253705Y-67586781D01*
X110899019Y-63232094D01*
X110865534Y-63170771D01*
X110862700Y-63144413D01*
X110862700Y-62625596D01*
X110882385Y-62558557D01*
X110921423Y-62520169D01*
X111008502Y-62466252D01*
X111166072Y-62322607D01*
X111294566Y-62152455D01*
X111305240Y-62131019D01*
X111389603Y-61961594D01*
X111389603Y-61961593D01*
X111389605Y-61961589D01*
X111447956Y-61756510D01*
X111458729Y-61640247D01*
X111484515Y-61575311D01*
X111529069Y-61543394D01*
X111492697Y-61522531D01*
X111460507Y-61460518D01*
X111458729Y-61448151D01*
X111457505Y-61434939D01*
X111447956Y-61331890D01*
X111389605Y-61126811D01*
X111389603Y-61126806D01*
X111389603Y-61126805D01*
X111294567Y-60935946D01*
X111166072Y-60765793D01*
X111008502Y-60622148D01*
X110827219Y-60509902D01*
X110827217Y-60509901D01*
X110705639Y-60462802D01*
X110628398Y-60432879D01*
X110418810Y-60393700D01*
X110205590Y-60393700D01*
X109996002Y-60432879D01*
X109995999Y-60432879D01*
X109995999Y-60432880D01*
X109797182Y-60509901D01*
X109797180Y-60509902D01*
X109615899Y-60622147D01*
X109458327Y-60765793D01*
X109329832Y-60935946D01*
X109234796Y-61126805D01*
X109234796Y-61126807D01*
X109176444Y-61331889D01*
X109165671Y-61448151D01*
X109139885Y-61513088D01*
X109095330Y-61545004D01*
X108986822Y-61545004D01*
X108989069Y-61543394D01*
X108952697Y-61522531D01*
X108920507Y-61460518D01*
X108918729Y-61448151D01*
X108917505Y-61434939D01*
X108907956Y-61331890D01*
X108849605Y-61126811D01*
X108849603Y-61126806D01*
X108849603Y-61126805D01*
X108754567Y-60935946D01*
X108626072Y-60765793D01*
X108468502Y-60622148D01*
X108287219Y-60509902D01*
X108287217Y-60509901D01*
X108165639Y-60462802D01*
X108088398Y-60432879D01*
X107878810Y-60393700D01*
X107665590Y-60393700D01*
X107456002Y-60432879D01*
X107455999Y-60432879D01*
X107455999Y-60432880D01*
X107257182Y-60509901D01*
X107257180Y-60509902D01*
X107075899Y-60622147D01*
X106918327Y-60765793D01*
X106786379Y-60940520D01*
X106785222Y-60939646D01*
X106738407Y-60981612D01*
X106685006Y-60993700D01*
X103280125Y-60993700D01*
X103175117Y-61021837D01*
X103140114Y-61031216D01*
X103014586Y-61103689D01*
X103014583Y-61103691D01*
X99838691Y-64279583D01*
X99838689Y-64279586D01*
X99796954Y-64351874D01*
X99770492Y-64397709D01*
X99766216Y-64405115D01*
X99728700Y-64545125D01*
X93438900Y-64545125D01*
X93438900Y-58673998D01*
X93907338Y-58673998D01*
X93907338Y-58674001D01*
X93927752Y-58959433D01*
X93988576Y-59239037D01*
X93988578Y-59239043D01*
X93988579Y-59239046D01*
X94006587Y-59287326D01*
X94088583Y-59507166D01*
X94225718Y-59758309D01*
X94225723Y-59758317D01*
X94397202Y-59987387D01*
X94397218Y-59987405D01*
X94599542Y-60189729D01*
X94599560Y-60189745D01*
X94828630Y-60361224D01*
X94828638Y-60361229D01*
X95079781Y-60498364D01*
X95079780Y-60498364D01*
X95079784Y-60498365D01*
X95079787Y-60498367D01*
X95347902Y-60598369D01*
X95347908Y-60598370D01*
X95347910Y-60598371D01*
X95627514Y-60659195D01*
X95627516Y-60659195D01*
X95627520Y-60659196D01*
X95881168Y-60677337D01*
X95912947Y-60679610D01*
X95912948Y-60679610D01*
X95912949Y-60679610D01*
X95941543Y-60677564D01*
X96198376Y-60659196D01*
X96243707Y-60649335D01*
X96477985Y-60598371D01*
X96477985Y-60598370D01*
X96477994Y-60598369D01*
X96746109Y-60498367D01*
X96997263Y-60361226D01*
X97226343Y-60189739D01*
X97428687Y-59987395D01*
X97600174Y-59758315D01*
X97737315Y-59507161D01*
X97837317Y-59239046D01*
X97840376Y-59224985D01*
X97898143Y-58959433D01*
X97898143Y-58959432D01*
X97898144Y-58959428D01*
X97918558Y-58674000D01*
X97898144Y-58388572D01*
X97892229Y-58361383D01*
X97837319Y-58108962D01*
X97837318Y-58108960D01*
X97837317Y-58108954D01*
X97737315Y-57840839D01*
X97697817Y-57768505D01*
X97600177Y-57589690D01*
X97600172Y-57589682D01*
X97428693Y-57360612D01*
X97428677Y-57360594D01*
X97226353Y-57158270D01*
X97226335Y-57158254D01*
X96997265Y-56986775D01*
X96997257Y-56986770D01*
X96746114Y-56849635D01*
X96746115Y-56849635D01*
X96584661Y-56789416D01*
X96477994Y-56749631D01*
X96477991Y-56749630D01*
X96477985Y-56749628D01*
X96198381Y-56688804D01*
X95912949Y-56668390D01*
X95912947Y-56668390D01*
X95627514Y-56688804D01*
X95347910Y-56749628D01*
X95079781Y-56849635D01*
X94828638Y-56986770D01*
X94828630Y-56986775D01*
X94599560Y-57158254D01*
X94599542Y-57158270D01*
X94397218Y-57360594D01*
X94397202Y-57360612D01*
X94225723Y-57589682D01*
X94225718Y-57589690D01*
X94088583Y-57840833D01*
X93988576Y-58108962D01*
X93927752Y-58388566D01*
X93907338Y-58673998D01*
X93438900Y-58673998D01*
X93438900Y-56132500D01*
X93458585Y-56065461D01*
X93511389Y-56019706D01*
X93562900Y-56008500D01*
X192313900Y-56008500D01*
X192380939Y-56028185D01*
G37*
%TD.AperFunction*%
%TD*%
M02*
